<svg xmlns="http://www.w3.org/2000/svg" width="1600" height="500" viewBox="0 0 1600 500">
  <rect width="1600" height="500" fill="#ffffff"/>
  <svg x="186.5" y="45.0" width="423.1" height="410" viewBox="0 0 914.72 886.45" xmlns="http://www.w3.org/2000/svg">
  <defs>
    <style>
      .cls-1 {
        fill: #242626;
      }

      .cls-2 {
        fill: #fff57c;
      }

      .cls-3 {
        fill: #f68e32;
      }

      .cls-4 {
        fill: #353738;
      }

      .cls-5 {
        fill: #5a5d5e;
      }

      .cls-6 {
        fill: #c6c6c6;
      }

      .cls-7 {
        fill: #242626;
      }
    </style>
  </defs>
  <g id="logo_VII">
    <g id="tresor">
      <path class="cls-4" d="M34.5,612.95v141.5h58v-141.5h-58ZM820.47,216.96c0-.08-.01-.16-.01-.24,0-.17-.02-.34-.04-.51-.01-.05-.01-.1-.02-.15-.01-.22-.03-.44-.06-.65-.02-.25-.05-.49-.08-.73-.01-.09-.03-.18-.04-.27-.01-.12-.03-.23-.05-.34-.02-.12-.04-.23-.06-.34-.03-.24-.08-.47-.13-.7-.01-.09-.03-.18-.06-.26-.01-.04-.01-.07-.02-.11-.05-.27-.11-.53-.18-.79,0-.01-.01-.03-.01-.04-.06-.25-.12-.48-.2-.72-.01-.07-.03-.14-.05-.21,0-.05-.03-.1-.05-.15-.06-.21-.12-.42-.2-.64h0c-.07-.23-.14-.44-.22-.66-.12-.35-.25-.69-.4-1.03-.07-.2-.15-.39-.24-.57-.02-.06-.05-.13-.08-.19-.11-.28-.24-.54-.37-.81-.13-.27-.26-.54-.41-.81-.02-.03-.03-.06-.05-.09-.12-.24-.25-.48-.4-.72-.13-.25-.27-.49-.42-.72-.18-.29-.36-.58-.55-.86-.02-.03-.05-.07-.07-.1-.11-.16-.22-.33-.34-.48-.01-.01-.02-.03-.03-.04-.18-.26-.37-.51-.56-.76-.18-.25-.38-.5-.58-.74-.21-.26-.42-.51-.65-.75-.12-.13-.24-.27-.37-.4-.03-.03-.06-.07-.09-.1-.13-.15-.28-.31-.43-.45-.02-.03-.05-.05-.07-.07-.1-.11-.21-.22-.32-.32-.14-.15-.29-.29-.44-.42-.16-.16-.33-.32-.51-.47-.19-.17-.38-.34-.58-.5l-.18-.15c-.26-.21-.53-.42-.8-.62-.09-.08-.18-.14-.27-.2-.23-.18-.46-.35-.7-.5-.09-.07-.18-.13-.27-.19-.27-.19-.55-.36-.83-.53-.07-.05-.14-.09-.21-.13-.03-.02-.06-.04-.09-.06-.17-.11-.34-.21-.52-.3-.03-.02-.07-.03-.1-.05-.19-.11-.38-.22-.58-.32-.19-.11-.39-.21-.59-.3-.32-.17-.64-.32-.97-.46-.1-.05-.2-.1-.31-.14-.29-.13-.59-.26-.9-.37-.03-.01-.05-.02-.08-.03-.22-.09-.44-.17-.66-.25-.25-.09-.51-.18-.77-.26-.23-.07-.45-.14-.68-.2-.07-.03-.15-.05-.22-.07-.11-.03-.22-.06-.33-.09t-.02-.01c-.19-.04-.38-.09-.58-.14-.05-.01-.09-.02-.14-.03-.16-.04-.31-.07-.47-.1-.35-.08-.7-.15-1.06-.21-.17-.03-.34-.06-.51-.09-.18-.02-.35-.05-.52-.07-.05-.01-.09-.01-.14-.02h-.03v141.08h.03s.09,0,.14-.02c.17-.02.34-.05.52-.07.17-.03.34-.06.51-.09.36-.06.71-.13,1.06-.21.16-.03.31-.06.47-.1.25-.06.5-.12.74-.18.11-.03.22-.06.33-.09.07-.02.15-.04.22-.07.23-.06.45-.13.68-.2.26-.08.52-.17.77-.26.22-.08.44-.16.66-.25.03-.01.05-.02.08-.03.31-.11.61-.24.9-.37.11-.04.21-.09.31-.14.33-.14.65-.29.97-.46.2-.09.4-.19.59-.3.2-.1.39-.21.58-.32.03-.02.07-.03.1-.05.18-.09.35-.19.52-.3.03-.02.06-.04.09-.06.07-.04.14-.08.21-.13.28-.17.56-.34.83-.53.09-.06.18-.12.27-.19.24-.15.47-.32.7-.5.09-.06.18-.12.27-.2.27-.2.54-.41.8-.62l.18-.15c.2-.16.39-.33.58-.5.18-.15.35-.31.51-.47.26-.23.51-.48.76-.74.02-.02.05-.04.07-.07.15-.14.3-.3.43-.45.03-.03.06-.07.09-.1.13-.13.25-.27.37-.4.23-.24.44-.49.65-.75.2-.24.4-.49.58-.74.19-.25.38-.5.56-.76,0-.01.02-.03.03-.04.12-.15.23-.32.34-.48.02-.03.05-.07.07-.1.19-.28.37-.57.55-.86.15-.23.29-.47.42-.72.15-.24.28-.48.4-.72.02-.03.03-.06.05-.09.15-.27.28-.54.41-.81.13-.27.26-.53.37-.81.03-.06.06-.13.08-.19.09-.18.17-.37.24-.57.15-.34.28-.68.4-1.03.08-.22.15-.43.22-.65h0c.08-.23.14-.44.2-.65.02-.05.04-.1.05-.15.02-.07.04-.14.05-.21.08-.24.14-.47.2-.72,0-.01.01-.03.01-.04.07-.26.13-.52.18-.79.01-.04.01-.07.02-.11.03-.08.05-.17.06-.26.05-.23.1-.46.13-.7.02-.11.04-.22.06-.34.02-.11.04-.22.05-.34.01-.09.03-.18.04-.27.03-.24.06-.48.08-.73.03-.21.05-.43.06-.65.01-.05.01-.09.02-.14.02-.17.03-.35.04-.53,0-.08.01-.15.01-.23.02-.41.03-.82.03-1.24v-89c0-.42-.01-.83-.03-1.24ZM853.58,158.33c-10.01-2.25-10.86-.13-11.76,2.11-.48,1.21-3.58,19.74-6.37,36.77,3.23,6.3,5.05,13.43,5.05,20.99v89c0,24.41-19,44.47-43,46.13v239.74c24,1.66,43,21.72,43,46.13v89c0,24.41-19,44.47-43,46.13v20.12c0,18.7-15.3,34-34,34H126.5c-18.7,0-34-15.3-34-34v-20h-58v60.5c0,28.33,23.18,51.5,51.5,51.5h718c28.33,0,51.5-23.17,51.5-51.5V158.79c-.64-.16-1.29-.32-1.92-.46ZM92.5,157.45c0-18.7,15.3-34,34-34h617.12c-22.7-4.1-63.98-9.43-63.98-9.43,0,0,68.48-21.77,76.32-26.96,3.63-2.4,4.49-4.09,4.69-4.71.64-1.95.27-3.21-1.59-7.74-.2-.48-.4-.97-.6-1.47l-5.58-7.69H86c-28.32,0-51.5,23.18-51.5,51.5v55h58v-14.5ZM820.47,637.96c0-.08-.01-.16-.01-.24,0-.17-.02-.34-.04-.51-.01-.05-.01-.1-.02-.15-.01-.22-.03-.44-.06-.65-.02-.25-.05-.49-.08-.73-.01-.09-.03-.18-.04-.27-.01-.12-.03-.23-.05-.34-.02-.12-.04-.23-.06-.34-.03-.24-.08-.47-.13-.7-.01-.09-.03-.18-.06-.26-.01-.04-.01-.07-.02-.11-.05-.27-.11-.53-.18-.79,0-.01-.01-.03-.01-.04-.06-.25-.12-.48-.2-.72-.01-.07-.03-.14-.05-.21,0-.05-.03-.1-.05-.15-.06-.21-.12-.42-.2-.64h0c-.07-.23-.14-.44-.22-.66-.12-.35-.25-.69-.4-1.03-.07-.2-.15-.39-.24-.57-.02-.06-.05-.13-.08-.19-.11-.28-.24-.54-.37-.81-.13-.27-.26-.54-.41-.81-.02-.03-.03-.06-.05-.09-.12-.24-.25-.48-.4-.72-.13-.25-.27-.49-.42-.72-.18-.29-.36-.58-.55-.86-.02-.03-.05-.07-.07-.1-.11-.16-.22-.33-.34-.48-.01-.01-.02-.03-.03-.04-.18-.26-.37-.51-.56-.76-.18-.25-.38-.5-.58-.74-.21-.26-.42-.51-.65-.75-.12-.13-.24-.27-.37-.4-.03-.03-.06-.07-.09-.1-.13-.15-.28-.31-.43-.45-.02-.03-.05-.05-.07-.07-.1-.11-.21-.22-.32-.32-.14-.15-.29-.29-.44-.42-.16-.16-.33-.32-.51-.47-.19-.17-.38-.34-.58-.5l-.18-.15c-.26-.21-.53-.42-.8-.62-.09-.08-.18-.14-.27-.2-.23-.18-.46-.35-.7-.5-.09-.07-.18-.13-.27-.19-.27-.19-.55-.36-.83-.53-.07-.05-.14-.09-.21-.13-.03-.02-.06-.04-.09-.06-.17-.11-.34-.21-.52-.3-.03-.02-.07-.03-.1-.05-.19-.11-.38-.22-.58-.32-.19-.11-.39-.21-.59-.3-.32-.17-.64-.32-.97-.46-.1-.05-.2-.1-.31-.14-.29-.13-.59-.26-.9-.37-.03-.01-.05-.02-.08-.03-.22-.09-.44-.17-.66-.25-.25-.09-.51-.18-.77-.26-.23-.07-.45-.14-.68-.2-.07-.03-.15-.05-.22-.07-.11-.03-.22-.06-.33-.09t-.02-.01c-.19-.04-.38-.09-.58-.14-.05-.01-.09-.02-.14-.03-.16-.04-.31-.07-.47-.1-.35-.08-.7-.15-1.06-.21-.17-.03-.34-.06-.51-.09-.18-.02-.35-.05-.52-.07-.05-.01-.09-.01-.14-.02h-.03v141.08h.03s.09,0,.14-.02c.17-.02.34-.05.52-.07.17-.03.34-.06.51-.09.36-.06.71-.13,1.06-.21.16-.03.31-.06.47-.1.25-.06.5-.12.74-.18.11-.03.22-.06.33-.09.07-.02.15-.04.22-.07.23-.06.45-.13.68-.2.26-.08.52-.17.77-.26.22-.08.44-.16.66-.25.03-.01.05-.02.08-.03.31-.11.61-.24.9-.37.11-.04.21-.09.31-.14.33-.14.65-.29.97-.46.2-.09.4-.19.59-.3.2-.1.39-.21.58-.32.03-.02.07-.03.1-.05.18-.09.35-.19.52-.3.03-.02.06-.04.09-.06.07-.04.14-.08.21-.13.28-.17.56-.34.83-.53.09-.06.18-.12.27-.19.24-.15.47-.32.7-.5.09-.06.18-.12.27-.2.27-.2.54-.41.8-.62l.18-.15c.2-.16.39-.33.58-.5.18-.15.35-.31.51-.47.26-.23.51-.48.76-.74.02-.02.05-.04.07-.07.15-.14.3-.3.43-.45.03-.03.06-.07.09-.1.13-.13.25-.27.37-.4.23-.24.44-.49.65-.75.2-.24.4-.49.58-.74.19-.25.38-.5.56-.76,0-.01.02-.03.03-.04.12-.15.23-.32.34-.48.02-.03.05-.07.07-.1.19-.28.37-.57.55-.86.15-.23.29-.47.42-.72.15-.24.28-.48.4-.72.02-.03.03-.06.05-.09.15-.27.28-.54.41-.81.13-.27.26-.53.37-.81.03-.06.06-.13.08-.19.09-.18.17-.37.24-.57.15-.34.28-.68.4-1.03.08-.22.15-.43.22-.65h0c.08-.23.14-.44.2-.65.02-.05.04-.1.05-.15.02-.07.04-.14.05-.21.08-.24.14-.47.2-.72,0-.01.01-.03.01-.04.07-.26.13-.52.18-.79.01-.04.01-.07.02-.11.03-.08.05-.17.06-.26.05-.23.1-.46.13-.7.02-.11.04-.22.06-.34.02-.11.04-.22.05-.34.01-.09.03-.18.04-.27.03-.24.06-.48.08-.73.03-.21.05-.43.06-.65.01-.05.01-.09.02-.14.02-.17.03-.35.04-.53,0-.08.01-.15.01-.23.02-.41.03-.82.03-1.24v-89c0-.42-.01-.83-.03-1.24ZM820.47,216.96c0-.08-.01-.16-.01-.24,0-.17-.02-.34-.04-.51-.01-.05-.01-.1-.02-.15-.01-.22-.03-.44-.06-.65-.02-.25-.05-.49-.08-.73-.01-.09-.03-.18-.04-.27-.01-.12-.03-.23-.05-.34-.02-.12-.04-.23-.06-.34-.03-.24-.08-.47-.13-.7-.01-.09-.03-.18-.06-.26-.01-.04-.01-.07-.02-.11-.05-.27-.11-.53-.18-.79,0-.01-.01-.03-.01-.04-.06-.25-.12-.48-.2-.72-.01-.07-.03-.14-.05-.21,0-.05-.03-.1-.05-.15-.06-.21-.12-.42-.2-.64h0c-.07-.23-.14-.44-.22-.66-.12-.35-.25-.69-.4-1.03-.07-.2-.15-.39-.24-.57-.02-.06-.05-.13-.08-.19-.11-.28-.24-.54-.37-.81-.13-.27-.26-.54-.41-.81-.02-.03-.03-.06-.05-.09-.12-.24-.25-.48-.4-.72-.13-.25-.27-.49-.42-.72-.18-.29-.36-.58-.55-.86-.02-.03-.05-.07-.07-.1-.11-.16-.22-.33-.34-.48-.01-.01-.02-.03-.03-.04-.18-.26-.37-.51-.56-.76-.18-.25-.38-.5-.58-.74-.21-.26-.42-.51-.65-.75-.12-.13-.24-.27-.37-.4-.03-.03-.06-.07-.09-.1-.13-.15-.28-.31-.43-.45-.02-.03-.05-.05-.07-.07-.1-.11-.21-.22-.32-.32-.14-.15-.29-.29-.44-.42-.16-.16-.33-.32-.51-.47-.19-.17-.38-.34-.58-.5l-.18-.15c-.26-.21-.53-.42-.8-.62-.09-.08-.18-.14-.27-.2-.23-.18-.46-.35-.7-.5-.09-.07-.18-.13-.27-.19-.27-.19-.55-.36-.83-.53-.07-.05-.14-.09-.21-.13-.03-.02-.06-.04-.09-.06-.17-.11-.34-.21-.52-.3-.03-.02-.07-.03-.1-.05-.19-.11-.38-.22-.58-.32-.19-.11-.39-.21-.59-.3-.32-.17-.64-.32-.97-.46-.1-.05-.2-.1-.31-.14-.29-.13-.59-.26-.9-.37-.03-.01-.05-.02-.08-.03-.22-.09-.44-.17-.66-.25-.25-.09-.51-.18-.77-.26-.23-.07-.45-.14-.68-.2-.07-.03-.15-.05-.22-.07-.11-.03-.22-.06-.33-.09t-.02-.01c-.19-.04-.38-.09-.58-.14-.05-.01-.09-.02-.14-.03-.16-.04-.31-.07-.47-.1-.35-.08-.7-.15-1.06-.21-.17-.03-.34-.06-.51-.09-.18-.02-.35-.05-.52-.07-.05-.01-.09-.01-.14-.02h-.03v141.08h.03s.09,0,.14-.02c.17-.02.34-.05.52-.07.17-.03.34-.06.51-.09.36-.06.71-.13,1.06-.21.16-.03.31-.06.47-.1.25-.06.5-.12.74-.18.11-.03.22-.06.33-.09.07-.02.15-.04.22-.07.23-.06.45-.13.68-.2.26-.08.52-.17.77-.26.22-.08.44-.16.66-.25.03-.01.05-.02.08-.03.31-.11.61-.24.9-.37.11-.04.21-.09.31-.14.33-.14.65-.29.97-.46.2-.09.4-.19.59-.3.2-.1.39-.21.58-.32.03-.02.07-.03.1-.05.18-.09.35-.19.52-.3.03-.02.06-.04.09-.06.07-.04.14-.08.21-.13.28-.17.56-.34.83-.53.09-.06.18-.12.27-.19.24-.15.47-.32.7-.5.09-.06.18-.12.27-.2.27-.2.54-.41.8-.62l.18-.15c.2-.16.39-.33.58-.5.18-.15.35-.31.51-.47.26-.23.51-.48.76-.74.02-.02.05-.04.07-.07.15-.14.3-.3.43-.45.03-.03.06-.07.09-.1.13-.13.25-.27.37-.4.23-.24.44-.49.65-.75.2-.24.4-.49.58-.74.19-.25.38-.5.56-.76,0-.01.02-.03.03-.04.12-.15.23-.32.34-.48.02-.03.05-.07.07-.1.19-.28.37-.57.55-.86.15-.23.29-.47.42-.72.15-.24.28-.48.4-.72.02-.03.03-.06.05-.09.15-.27.28-.54.41-.81.13-.27.26-.53.37-.81.03-.06.06-.13.08-.19.09-.18.17-.37.24-.57.15-.34.28-.68.4-1.03.08-.22.15-.43.22-.65h0c.08-.23.14-.44.2-.65.02-.05.04-.1.05-.15.02-.07.04-.14.05-.21.08-.24.14-.47.2-.72,0-.01.01-.03.01-.04.07-.26.13-.52.18-.79.01-.04.01-.07.02-.11.03-.08.05-.17.06-.26.05-.23.1-.46.13-.7.02-.11.04-.22.06-.34.02-.11.04-.22.05-.34.01-.09.03-.18.04-.27.03-.24.06-.48.08-.73.03-.21.05-.43.06-.65.01-.05.01-.09.02-.14.02-.17.03-.35.04-.53,0-.08.01-.15.01-.23.02-.41.03-.82.03-1.24v-89c0-.42-.01-.83-.03-1.24ZM34.5,191.95v141.5h58v-141.5h-58ZM34.5,353.45v239.5h58v-239.5h-58Z"/>
      <path class="cls-6" d="M720.46,307.2v-89c0-5.92,1.13-11.57,3.16-16.78-1.24.08-2.49.14-3.76.18-32.27,1.06-48.35,6.47-64.83,25l21.3,14.95,16.26,11.42-11.31,16.34c-8.76,12.65-18.14,26.31-24.6,35.82,46.8,57.75,68.82,131.33,60.64,204.25-7.48,66.65-39.35,128.15-89.74,173.18-50.24,44.89-114.56,69.62-181.1,69.62-4.74,0-9.55-.13-14.34-.38-2.46-.14-4.71-.28-6.87-.45-9.64-.74-19.31-1.99-28.78-3.7-2.36-.43-4.72-.9-6.98-1.37-11.52-2.4-22.9-5.54-33.8-9.33-2.08-.72-4.27-1.51-6.49-2.35-2.2-.82-4.35-1.67-6.41-2.5-4.2-1.69-8.41-3.52-12.52-5.45-1.03-.47-2.07-.96-3.1-1.46l-.04-.02-.04-.02c-3.24-1.57-6.19-3.06-9.01-4.55-2.97-1.56-5.96-3.21-8.91-4.92-1.83-1.05-3.71-2.17-5.77-3.43l-.05-.03-.05-.03-.64-.4c-1.17-.72-2.33-1.44-3.5-2.18l-.05-.03-.05-.03c-1.37-.88-2.73-1.77-4.08-2.66l-.04-.03-.04-.03c-1.46-.97-2.8-1.87-4.09-2.76l-.08-.05-.05-.03c-.69-.48-1.39-.96-2.07-1.45-1.23-.87-2.51-1.8-3.92-2.82-.7-.5-1.37-1-2.08-1.53-1.19-.89-2.44-1.85-3.94-3.01-3.41-2.64-6.87-5.46-10.29-8.4-10.78-9.24-20.95-19.45-30.23-30.32-15.58-18.28-28.75-38.56-39.15-60.34-.77-1.61-1.77-3.75-2.76-5.97l-.35-.79c-.2-.45-.41-.91-.61-1.38l-1.06-2.39v-.04c-.18-.43-.37-.86-.56-1.31-.4-.95-.85-2.03-1.3-3.16-.75-1.85-1.51-3.78-2.32-5.89-.44-1.13-.84-2.23-1.21-3.25-.73-2-1.45-4.04-2.14-6.06l-1.36-3.98v-.12c-1.57-4.91-3.02-9.88-4.31-14.84-8.66-33.17-10.98-67.11-6.88-100.87,4.31-35.52,15.62-69.75,33.62-101.76,8.07-14.35,17.55-28.06,28.18-40.75l.03-.03.03-.03c1.01-1.19,2.05-2.42,3.15-3.68,1-1.16,2.07-2.35,3.24-3.65,1.2-1.33,2.28-2.51,3.31-3.61,1.52-1.63,3.15-3.33,5-5.21l.08-.08.08-.08c1.09-1.08,2.17-2.16,3.26-3.23l.06-.06.06-.06c1.72-1.67,3.48-3.34,5.24-4.97l.02-.02.02-.02c1.17-1.08,2.34-2.14,3.53-3.21.97-.87,1.94-1.71,2.91-2.56l.66-.58.05-.05.05-.05c24.78-21.32,53-37.95,83.87-49.42,30.91-11.48,63.16-17.31,95.86-17.31,6.91,0,13.89.27,20.76.8,3.97.31,7.92.7,11.77,1.17,1.53.19,3.06.39,4.61.6,2.33.32,4.7.68,7.04,1.07h.04s.04.01.04.01c1.53.26,3.06.53,4.62.81,10.35,1.91,20.67,4.46,30.67,7.58.36.11.72.22,1.09.34l27.61-37.84,11.58-15.87,16.07,11.28,23.36,16.4c12.87-15.51,25.82-26.36,40.59-34.21,13.82-7.34,29.15-11.97,47.95-14.36H126.5c-7.72,0-14,6.28-14,14v14.5h5.34c25.51,0,46.25,20.75,46.25,46.25v89c0,25.5-20.74,46.25-46.25,46.25h-5.34v239.5h5.34c25.51,0,46.25,20.75,46.25,46.25v89c0,25.5-20.74,46.25-46.25,46.25h-5.34v20c0,7.72,6.28,14,14,14h637c7.72,0,14-6.28,14-14v-20h-10.79c-25.5,0-46.25-20.75-46.25-46.25v-89c0-25.5,20.75-46.25,46.25-46.25h10.79v-239.5h-10.79c-25.5,0-46.25-20.75-46.25-46.25Z"/>
      <path class="cls-4" d="M144.09,218.2v89c0,14.44-11.81,26.25-26.25,26.25H26.25c-14.43,0-26.25-11.81-26.25-26.25v-89c0-14.44,11.82-26.25,26.25-26.25h91.59c14.44,0,26.25,11.81,26.25,26.25Z"/>
      <path class="cls-4" d="M144.09,639.2v89c0,14.44-11.81,26.25-26.25,26.25H26.25c-14.43,0-26.25-11.81-26.25-26.25v-89c0-14.44,11.82-26.25,26.25-26.25h91.59c14.44,0,26.25,11.81,26.25,26.25Z"/>
      <path class="cls-4" d="M820.5,218.2v89c0,.42-.01.83-.03,1.24,0,.08-.01.15-.01.23,0,.18-.02.36-.04.53-.01.05-.01.09-.02.14-.01.22-.03.44-.06.65-.02.25-.05.49-.08.73-.01.09-.03.18-.04.27-.01.12-.03.23-.05.34-.02.12-.04.23-.06.34-.03.24-.08.47-.13.7-.01.09-.03.18-.06.26-.01.04-.01.07-.02.11-.05.27-.11.53-.18.79,0,.01-.01.03-.01.04-.06.25-.12.48-.2.72-.01.07-.03.14-.05.21,0,.05-.03.1-.05.15-.06.21-.12.42-.2.64h0c-.07.23-.14.44-.22.66-.12.35-.25.69-.4,1.03-.07.2-.15.39-.24.57-.02.06-.05.13-.08.19-.11.28-.24.54-.37.81-.13.27-.26.54-.41.81-.02.03-.03.06-.05.09-.12.24-.25.48-.4.72-.13.25-.27.49-.42.72-.18.29-.36.58-.55.86-.02.03-.05.07-.07.1-.11.16-.22.33-.34.48-.01.01-.02.03-.03.04-.18.26-.37.51-.56.76-.18.25-.38.5-.58.74-.21.26-.42.51-.65.75-.12.13-.24.27-.37.4-.03.03-.06.07-.09.1-.13.15-.28.31-.43.45-.02.03-.05.05-.07.07-.25.26-.5.51-.76.74-.16.16-.33.32-.51.47-.19.17-.38.34-.58.5l-.18.15c-.26.21-.53.42-.8.62-.09.08-.18.14-.27.2-.23.18-.46.35-.7.5-.09.07-.18.13-.27.19-.27.19-.55.36-.83.53-.07.05-.14.09-.21.13-.03.02-.06.04-.09.06-.17.11-.34.21-.52.3-.03.02-.07.03-.1.05-.19.11-.38.22-.58.32-.19.11-.39.21-.59.3-.32.17-.64.32-.97.46-.1.05-.2.1-.31.14-.29.13-.59.26-.9.37-.03.01-.05.02-.08.03-.22.09-.44.17-.66.25-.25.09-.51.18-.77.26-.23.07-.45.14-.68.2-.07.03-.15.05-.22.07-.11.03-.22.06-.33.09-.24.06-.49.12-.74.18-.16.04-.31.07-.47.1-.35.08-.7.15-1.06.21-.17.03-.34.06-.51.09-.18.02-.35.05-.52.07-.05.01-.09.01-.14.02h-.03c-.22.03-.44.06-.66.08-.36.04-.71.07-1.07.09h-.07c-.11,0-.21,0-.32,0-.37.02-.75.03-1.13.03h-27.54c-14.44,0-26.25-11.81-26.25-26.25v-89c0-14.44,11.81-26.25,26.25-26.25h27.54c.38,0,.76.01,1.13.03.11,0,.21,0,.32,0h.07c.36.02.71.05,1.07.09.22.02.44.05.66.08h.03s.09,0,.14.02c.17.02.34.05.52.07.17.03.34.06.51.09.36.06.71.13,1.06.21.16.03.31.06.47.1.05.01.09.02.14.03.2.05.39.1.58.14t.02.01c.11.03.22.06.33.09.07.02.15.04.22.07.23.06.45.13.68.2.26.08.52.17.77.26.22.08.44.16.66.25.03.01.05.02.08.03.31.11.61.24.9.37.11.04.21.09.31.14.33.14.65.29.97.46.2.09.4.19.59.3.2.1.39.21.58.32.03.02.07.03.1.05.18.09.35.19.52.3.03.02.06.04.09.06.07.04.14.08.21.13.28.17.56.34.83.53.09.06.18.12.27.19.24.15.47.32.7.5.09.06.18.12.27.2.27.2.54.41.8.62l.18.15c.2.16.39.33.58.5.18.15.35.31.51.47.15.13.3.27.44.42.11.1.22.21.32.32.02.02.05.04.07.07.15.14.3.3.43.45.03.03.06.07.09.1.13.13.25.27.37.4.23.24.44.49.65.75.2.24.4.49.58.74.19.25.38.5.56.76,0,.01.02.03.03.04.12.15.23.32.34.48.02.03.05.07.07.1.19.28.37.57.55.86.15.23.29.47.42.72.15.24.28.48.4.72.02.03.03.06.05.09.15.27.28.54.41.81.13.27.26.53.37.81.03.06.06.13.08.19.09.18.17.37.24.57.15.34.28.68.4,1.03.08.22.15.43.22.65h0c.08.23.14.44.2.65.02.05.04.1.05.15.02.07.04.14.05.21.08.24.14.47.2.72,0,.01.01.03.01.04.07.26.13.52.18.79.01.04.01.07.02.11.03.08.05.17.06.26.05.23.1.46.13.7.02.11.04.22.06.34.02.11.04.22.05.34.01.09.03.18.04.27.03.24.06.48.08.73.03.21.05.43.06.65.01.05.01.1.02.15.02.17.03.34.04.51,0,.08.01.16.01.24.02.41.03.82.03,1.24Z"/>
      <path class="cls-4" d="M820.5,639.2v89c0,.42-.01.83-.03,1.24,0,.08-.01.15-.01.23,0,.18-.02.36-.04.53-.01.05-.01.09-.02.14-.01.22-.03.44-.06.65-.02.25-.05.49-.08.73-.01.09-.03.18-.04.27-.01.12-.03.23-.05.34-.02.12-.04.23-.06.34-.03.24-.08.47-.13.7-.01.09-.03.18-.06.26-.01.04-.01.07-.02.11-.05.27-.11.53-.18.79,0,.01-.01.03-.01.04-.06.25-.12.48-.2.72-.01.07-.03.14-.05.21,0,.05-.03.1-.05.15-.06.21-.12.42-.2.64h0c-.07.23-.14.44-.22.66-.12.35-.25.69-.4,1.03-.07.2-.15.39-.24.57-.02.06-.05.13-.08.19-.11.28-.24.54-.37.81-.13.27-.26.54-.41.81-.02.03-.03.06-.05.09-.12.24-.25.48-.4.72-.13.25-.27.49-.42.72-.18.29-.36.58-.55.86-.02.03-.05.07-.07.1-.11.16-.22.33-.34.48-.01.01-.02.03-.03.04-.18.26-.37.51-.56.76-.18.25-.38.5-.58.74-.21.26-.42.51-.65.75-.12.13-.24.27-.37.4-.03.03-.06.07-.09.1-.13.15-.28.31-.43.45-.02.03-.05.05-.07.07-.25.26-.5.51-.76.74-.16.16-.33.32-.51.47-.19.17-.38.34-.58.5l-.18.15c-.26.21-.53.42-.8.62-.09.08-.18.14-.27.2-.23.18-.46.35-.7.5-.09.07-.18.13-.27.19-.27.19-.55.36-.83.53-.07.05-.14.09-.21.13-.03.02-.06.04-.09.06-.17.11-.34.21-.52.3-.03.02-.07.03-.1.05-.19.11-.38.22-.58.32-.19.11-.39.21-.59.3-.32.17-.64.32-.97.46-.1.05-.2.1-.31.14-.29.13-.59.26-.9.37-.03.01-.05.02-.08.03-.22.09-.44.17-.66.25-.25.09-.51.18-.77.26-.23.07-.45.14-.68.2-.07.03-.15.05-.22.07-.11.03-.22.06-.33.09-.24.06-.49.12-.74.18-.16.04-.31.07-.47.1-.35.08-.7.15-1.06.21-.17.03-.34.06-.51.09-.18.02-.35.05-.52.07-.05.01-.09.01-.14.02h-.03c-.22.03-.44.06-.66.08-.36.04-.71.07-1.07.09h-.07c-.11,0-.21,0-.32,0-.37.02-.75.03-1.13.03h-27.54c-14.44,0-26.25-11.81-26.25-26.25v-89c0-14.44,11.81-26.25,26.25-26.25h27.54c.38,0,.76.01,1.13.03.11,0,.21,0,.32,0h.07c.36.02.71.05,1.07.09.22.02.44.05.66.08h.03s.09,0,.14.02c.17.02.34.05.52.07.17.03.34.06.51.09.36.06.71.13,1.06.21.16.03.31.06.47.1.05.01.09.02.14.03.2.05.39.1.58.14t.02.01c.11.03.22.06.33.09.07.02.15.04.22.07.23.06.45.13.68.2.26.08.52.17.77.26.22.08.44.16.66.25.03.01.05.02.08.03.31.11.61.24.9.37.11.04.21.09.31.14.33.14.65.29.97.46.2.09.4.19.59.3.2.1.39.21.58.32.03.02.07.03.1.05.18.09.35.19.52.3.03.02.06.04.09.06.07.04.14.08.21.13.28.17.56.34.83.53.09.06.18.12.27.19.24.15.47.32.7.5.09.06.18.12.27.2.27.2.54.41.8.62l.18.15c.2.16.39.33.58.5.18.15.35.31.51.47.15.13.3.27.44.42.11.1.22.21.32.32.02.02.05.04.07.07.15.14.3.3.43.45.03.03.06.07.09.1.13.13.25.27.37.4.23.24.44.49.65.75.2.24.4.49.58.74.19.25.38.5.56.76,0,.01.02.03.03.04.12.15.23.32.34.48.02.03.05.07.07.1.19.28.37.57.55.86.15.23.29.47.42.72.15.24.28.48.4.72.02.03.03.06.05.09.15.27.28.54.41.81.13.27.26.53.37.81.03.06.06.13.08.19.09.18.17.37.24.57.15.34.28.68.4,1.03.08.22.15.43.22.65h0c.08.23.14.44.2.65.02.05.04.1.05.15.02.07.04.14.05.21.08.24.14.47.2.72,0,.01.01.03.01.04.07.26.13.52.18.79.01.04.01.07.02.11.03.08.05.17.06.26.05.23.1.46.13.7.02.11.04.22.06.34.02.11.04.22.05.34.01.09.03.18.04.27.03.24.06.48.08.73.03.21.05.43.06.65.01.05.01.1.02.15.02.17.03.34.04.51,0,.08.01.16.01.24.02.41.03.82.03,1.24Z"/>
      <path class="cls-5" d="M793.74,623.97c-2.77,1.38-30.52,3.72-35.28,15.43s-9.88,57.43-10.84,47.9c-.3-8.47-.7-40.52-.7-40.52,0-14.44,11.81-26.25,26.25-26.25l19.67.03c.08,0,3.66,2.03.89,3.41Z"/>
      <path class="cls-7" d="M768.04,746.49c2.77-1.38,30.52-3.72,35.28-15.43s9.88-57.43,10.84-47.9c.3,8.47.7,40.52.7,40.52,0,14.44-11.81,26.25-26.25,26.25l-19.67-.03c-.08,0-3.66-2.03-.89-3.41Z"/>
      <path class="cls-5" d="M793.74,201.43c-2.77,1.38-30.52,3.72-35.28,15.43s-9.88,57.43-10.84,47.9c-.3-8.47-.7-40.52-.7-40.52,0-14.44,11.81-26.25,26.25-26.25l19.67.03c.08,0,3.66,2.03.89,3.41Z"/>
      <path class="cls-7" d="M768.04,323.96c2.77-1.38,30.52-3.72,35.28-15.43s9.88-57.43,10.84-47.9c.3,8.47.7,40.52.7,40.52,0,14.44-11.81,26.25-26.25,26.25l-19.67-.03c-.08,0-3.66-2.03-.89-3.41Z"/>
      <path class="cls-5" d="M77.89,626.8c-4,1.99-44.1,5.38-50.97,22.29s-14.28,82.98-15.66,69.21c-.43-12.24-1.01-58.55-1.01-58.55,0-20.86,17.06-37.93,37.93-37.93l28.43.04c.12,0,5.29,2.94,1.28,4.93Z"/>
      <path class="cls-7" d="M65.02,739.83c4-1.99,44.1-5.38,50.97-22.29,6.87-16.92,14.28-82.98,15.66-69.21.43,12.24,1.01,58.55,1.01,58.55,0,20.86-17.06,37.93-37.93,37.93l-28.43-.04c-.12,0-5.29-2.94-1.28-4.93Z"/>
      <path class="cls-5" d="M77.89,206.18c-4,1.99-44.1,5.38-50.97,22.29s-14.28,82.98-15.66,69.21c-.43-12.24-1.01-58.55-1.01-58.55,0-20.86,17.06-37.93,37.93-37.93l28.43.04c.12,0,5.29,2.94,1.28,4.93Z"/>
      <path class="cls-7" d="M65.02,319.21c4-1.99,44.1-5.38,50.97-22.29,6.87-16.92,14.28-82.98,15.66-69.21.43,12.24,1.01,58.55,1.01,58.55,0,20.86-17.06,37.93-37.93,37.93l-28.43-.04c-.12,0-5.29-2.94-1.28-4.93Z"/>
    </g>
    <g id="funken">
      <path class="cls-3" d="M875.16,110.63l39.56-14.28s-22.85-.67-33.96-2.93c-20.94-4.27-21.81-12.79-12.43-30.45,5.45-10.26,20.46-28.85,20.46-28.85l-33.23,21.08c-23.74,10.55-28.8-7.13-33.28-25.88-1.69-7.08-4.81-29.32-4.81-29.32,0,0-4.49,27.13-8.2,38.85-1.89,5.98-3.98,10.75-6.68,14.14-5.04,6.31-12.21,7.8-24.19,3.22-2.4-.91-4.79-2-7.17-3.22-9.77-4.97-28.03-17.89-28.03-17.89l12.99,17.89,11.11,15.3c2.32,6,5.02,10.58,2.86,17.16-1.26,3.87-4.42,7.14-8.67,9.95-12.28,8.13-45.24,15.89-45.24,15.89,0,0,30.27.62,44.14,5.76,6.51,2.41,11.37,6,12.49,11.39.41,1.94.39,4.21.08,6.65-.94,7.48-4.69,16.62-7.8,23.32-.65,1.41-1.28,2.71-1.84,3.86-2.78,5.66-11.81,6.07-11.81,6.07,0,0,20.34-6.35,30.27-12.54,6.34-3.95,11.56-5.36,15.96-4.93,11.71,1.13,17.58,15.27,23.42,28.96.45,1.05.96,2.38,1.51,3.86,2.55,6.81,5.78,16.75,5.78,16.75l.51-25.41c0-3.54,2.19-14.83,3.59-18.32,4.27-10.62,13.86-10.24,23.19-8.14,1.81.4,3.6.87,5.35,1.34l40.88,17.59s-56.26-40.74-26.81-56.87Z"/>
      <path class="cls-2" d="M822.97,147.64c-.21,3.53-1.62.14-2.23-1.26-1.99-4.55-6.5-18.99-11.43-20.45-9.19-2.73-19.49,10.67-23.23,12.74s8.6-13.56,8.05-22.44-13.57-9.04-20.54-9.42c-1.29-.07-8.47.08-3.73-1.49s19.83-4.2,22.95-11.25c3.39-7.64-17.32-26.48-12.22-24.69s11.58,7.72,17.9,9.58c2.58.76,4.88,1.61,7.58.51,6.68-2.11,8.42-22.62,9.85-24.8s1.92,5.95,2.51,8.36c.93,3.79,2.99,11.72,5.52,14.41,8.01,8.5,24.03-9.35,25.94-7.48l-10.76,18.67c-1.7,7.54,16.1,10.34,22.71,11.58s-19.13,4.59-21.4,9.59c-3.67,8.11,8.56,15,12.44,20.89-7.2-1.03-19.31-10.48-25.99-5.53-1.21.9-1.55,2.41-2.51,5.12s-1.21,13.82-1.42,17.35Z"/>
    </g>
    <g id="bombe">
      <path class="cls-4" d="M821.06,99.41c-4.33-3.43-10.62-2.7-14.05,1.63-1.53,1.93-3.14,4.01-4.82,6.2-17.25,22.36-40.88,52.99-83.64,54.39-52.1,1.71-79.23,15.93-108.5,57.84l-39.14-27.48-36.33,49.8c-3.52-1.33-7.05-2.59-10.6-3.75-1.29-.42-2.58-.84-3.87-1.24-9.38-2.92-18.86-5.25-28.36-7-1.44-.26-2.89-.52-4.33-.76-2.16-.36-4.33-.69-6.51-.99-1.44-.2-2.89-.39-4.33-.56-3.62-.44-7.23-.8-10.85-1.08-67.51-5.2-134.91,17.28-185.9,61.15-1.13.98-2.25,1.96-3.37,2.96-1.12,1-2.23,2.01-3.33,3.02-1.65,1.53-3.28,3.07-4.89,4.64-1.07,1.06-2.13,2.11-3.2,3.18-1.58,1.61-3.15,3.24-4.69,4.89-1.03,1.1-2.04,2.2-3.06,3.33-1.01,1.12-2.02,2.24-3,3.38-1,1.14-1.97,2.3-2.95,3.45-9.72,11.6-18.48,24.2-26.08,37.71-34.44,61.24-40.49,127.81-24.83,187.78,1.54,5.9,3.29,11.74,5.25,17.51h0c.66,1.92,1.33,3.83,2.03,5.73.35.96.69,1.92,1.06,2.86.72,1.89,1.47,3.78,2.23,5.66.37.94.76,1.88,1.16,2.81.79,1.87,1.6,3.72,2.43,5.56h0c.82,1.86,1.68,3.69,2.55,5.52,9.6,20.1,21.8,38.94,36.3,55.94,8.57,10.05,17.93,19.46,28.02,28.12,3.1,2.66,6.28,5.25,9.53,7.77,1.22.94,2.44,1.88,3.67,2.81.61.46,1.23.91,1.86,1.37,1.24.91,2.5,1.82,3.76,2.71.62.45,1.26.89,1.9,1.33,1.27.87,2.55,1.74,3.85,2.6,1.28.84,2.58,1.7,3.89,2.54,1.32.84,2.64,1.65,3.96,2.47,1.77,1.08,3.55,2.15,5.36,3.19,2.7,1.57,5.43,3.08,8.21,4.53,2.76,1.47,5.57,2.88,8.41,4.25.95.46,1.9.9,2.85,1.34,3.81,1.79,7.68,3.47,11.61,5.05,1.96.8,3.95,1.58,5.94,2.32s4,1.47,6.02,2.18c10.11,3.51,20.56,6.4,31.33,8.65,2.14.45,4.31.88,6.49,1.27,8.72,1.58,17.63,2.74,26.72,3.44,2.13.16,4.28.3,6.43.42,132.69,7.02,249.36-92.3,264.21-224.68,8.22-73.29-16.65-146.28-65.79-200.5,3.57-5.95,33.18-48.73,33.18-48.73l-38.42-26.97c25.76-37.04,46.59-47.82,92.79-49.34,52.18-1.71,81.37-39.56,98.82-62.16,1.63-2.11,3.18-4.12,4.66-5.99,3.43-4.33,2.7-10.62-1.63-14.05Z"/>
      <path class="cls-1" d="M662.53,261.28c-7.02,10.15-27.73,40.19-30.83,45.32-26.4-28.58-59.39-51.16-96.8-65.22l4.33-5.94c28.16,13.89,59.4,22.75,92.63,25.31,10.34.8,20.58.96,30.68.53Z"/>
      <path class="cls-7" d="M658.73,342.19c30.87,48.6,45.26,106.69,38.72,164.97-14.85,132.38-131.53,231.7-264.21,224.68-2.15-.12-4.3-.26-6.43-.42-9.09-.7-18-1.86-26.72-3.44-2.18-.4-4.34-.82-6.49-1.27-10.77-2.25-21.22-5.13-31.33-8.65-2.02-.7-4.03-1.43-6.02-2.18s-3.97-1.52-5.94-2.32c-3.93-1.58-7.8-3.27-11.61-5.05-.95-.44-1.9-.88-2.85-1.34-2.84-1.38-5.65-2.79-8.41-4.25-2.77-1.46-5.51-2.97-8.21-4.53-1.8-1.04-3.59-2.1-5.36-3.19-1.32-.82-2.64-1.63-3.96-2.47-1.3-.84-2.6-1.69-3.89-2.54-1.3-.87-2.58-1.73-3.85-2.6-.64-.44-1.27-.88-1.9-1.33-1.26-.89-2.52-1.8-3.76-2.71-.63-.46-1.25-.91-1.86-1.37-1.24-.93-2.46-1.86-3.67-2.81-3.25-2.52-6.42-5.11-9.53-7.77-10.1-8.66-19.46-18.07-28.02-28.12-3.03-3.54-5.94-7.17-8.75-10.87,38.88,28.72,86.04,47.23,137.8,51.22,146.84,11.32,275.05-98.55,286.37-245.4,2.58-33.44-1.13-65.92-10.12-96.27Z"/>
      <path class="cls-5" d="M247.11,420.67c12.78,14.15,38.17-23.54,79.25-60.63,41.07-37.09,82.27-59.54,69.49-73.69-12.78-14.15-56.43,4.45-97.51,41.54s-64.01,78.63-51.24,92.78Z"/>
      <circle class="cls-5" cx="437.87" cy="271.98" r="17.7"/>
    </g>
    <g id="nieten">
      <g>
        <circle class="cls-4" cx="197.16" cy="779.47" r="20.44"/>
        <path class="cls-7" d="M214.66,768.95c.38,1.6.6,3.26.6,4.97,0,11.84-9.6,21.43-21.43,21.43-5.45,0-10.41-2.05-14.2-5.41,3.57,5.96,10.07,9.97,17.53,9.97,11.29,0,20.44-9.15,20.44-20.44,0-3.86-1.09-7.45-2.94-10.53Z"/>
        <path class="cls-5" d="M181.48,779.21c1.41,1.34,3.71-2.7,7.6-6.8s7.92-6.71,6.5-8.06-5.72.9-9.61,5c-3.89,4.1-5.91,8.52-4.49,9.86Z"/>
      </g>
      <g>
        <circle class="cls-4" cx="144.09" cy="546.69" r="20.44"/>
        <path class="cls-7" d="M161.59,536.17c.38,1.6.6,3.26.6,4.97,0,11.84-9.6,21.43-21.43,21.43-5.45,0-10.41-2.05-14.2-5.41,3.57,5.96,10.07,9.97,17.53,9.97,11.29,0,20.44-9.15,20.44-20.44,0-3.86-1.09-7.45-2.94-10.53Z"/>
        <path class="cls-5" d="M128.41,546.43c1.41,1.34,3.71-2.7,7.6-6.8s7.92-6.71,6.5-8.06-5.72.9-9.61,5c-3.89,4.1-5.91,8.52-4.49,9.86Z"/>
      </g>
      <g>
        <circle class="cls-4" cx="144.09" cy="412.55" r="20.44"/>
        <path class="cls-7" d="M161.59,402.02c.38,1.6.6,3.26.6,4.97,0,11.84-9.6,21.43-21.43,21.43-5.45,0-10.41-2.05-14.2-5.41,3.57,5.96,10.07,9.97,17.53,9.97,11.29,0,20.44-9.15,20.44-20.44,0-3.86-1.09-7.45-2.94-10.53Z"/>
        <path class="cls-5" d="M128.41,412.28c1.41,1.34,3.71-2.7,7.6-6.8s7.92-6.71,6.5-8.06-5.72.9-9.61,5c-3.89,4.1-5.91,8.52-4.49,9.86Z"/>
      </g>
      <g>
        <circle class="cls-4" cx="746.93" cy="546.69" r="20.44"/>
        <path class="cls-7" d="M764.43,536.17c.38,1.6.6,3.26.6,4.97,0,11.84-9.6,21.43-21.43,21.43-5.45,0-10.41-2.05-14.2-5.41,3.57,5.96,10.07,9.97,17.53,9.97,11.29,0,20.44-9.15,20.44-20.44,0-3.86-1.09-7.45-2.94-10.53Z"/>
        <path class="cls-5" d="M731.25,546.43c1.41,1.34,3.71-2.7,7.6-6.8s7.92-6.71,6.5-8.06-5.72.9-9.61,5-5.91,8.52-4.49,9.86Z"/>
      </g>
      <g>
        <circle class="cls-4" cx="746.93" cy="412.55" r="20.44"/>
        <path class="cls-7" d="M764.43,402.02c.38,1.6.6,3.26.6,4.97,0,11.84-9.6,21.43-21.43,21.43-5.45,0-10.41-2.05-14.2-5.41,3.57,5.96,10.07,9.97,17.53,9.97,11.29,0,20.44-9.15,20.44-20.44,0-3.86-1.09-7.45-2.94-10.53Z"/>
        <path class="cls-5" d="M731.25,412.28c1.41,1.34,3.71-2.7,7.6-6.8s7.92-6.71,6.5-8.06-5.72.9-9.61,5-5.91,8.52-4.49,9.86Z"/>
      </g>
      <g>
        <circle class="cls-4" cx="680.11" cy="779.47" r="20.44"/>
        <path class="cls-7" d="M697.61,768.95c.38,1.6.6,3.26.6,4.97,0,11.84-9.6,21.43-21.43,21.43-5.45,0-10.41-2.05-14.2-5.41,3.57,5.96,10.07,9.97,17.53,9.97,11.29,0,20.44-9.15,20.44-20.44,0-3.86-1.09-7.45-2.94-10.53Z"/>
        <path class="cls-5" d="M664.43,779.21c1.41,1.34,3.71-2.7,7.6-6.8s7.92-6.71,6.5-8.06-5.72.9-9.61,5-5.91,8.52-4.49,9.86Z"/>
      </g>
      <g>
        <circle class="cls-4" cx="519.13" cy="779.47" r="20.44"/>
        <path class="cls-7" d="M536.62,768.95c.38,1.6.6,3.26.6,4.97,0,11.84-9.6,21.43-21.43,21.43-5.45,0-10.41-2.05-14.2-5.41,3.57,5.96,10.07,9.97,17.53,9.97,11.29,0,20.44-9.15,20.44-20.44,0-3.86-1.09-7.45-2.94-10.53Z"/>
        <path class="cls-5" d="M503.45,779.21c1.41,1.34,3.71-2.7,7.6-6.8s7.92-6.71,6.5-8.06-5.72.9-9.61,5-5.91,8.52-4.49,9.86Z"/>
      </g>
      <g>
        <circle class="cls-4" cx="358.14" cy="779.47" r="20.44"/>
        <path class="cls-7" d="M375.64,768.95c.38,1.6.6,3.26.6,4.97,0,11.84-9.6,21.43-21.43,21.43-5.45,0-10.41-2.05-14.2-5.41,3.57,5.96,10.07,9.97,17.53,9.97,11.29,0,20.44-9.15,20.44-20.44,0-3.86-1.09-7.45-2.94-10.53Z"/>
        <path class="cls-5" d="M342.46,779.21c1.41,1.34,3.71-2.7,7.6-6.8s7.92-6.71,6.5-8.06-5.72.9-9.61,5-5.91,8.52-4.49,9.86Z"/>
      </g>
      <g>
        <circle class="cls-4" cx="197.16" cy="174.81" r="20.44"/>
        <path class="cls-7" d="M214.66,164.28c.38,1.6.6,3.26.6,4.97,0,11.84-9.6,21.43-21.43,21.43-5.45,0-10.41-2.05-14.2-5.41,3.57,5.96,10.07,9.97,17.53,9.97,11.29,0,20.44-9.15,20.44-20.44,0-3.86-1.09-7.45-2.94-10.53Z"/>
        <path class="cls-5" d="M181.48,174.54c1.41,1.34,3.71-2.7,7.6-6.8s7.92-6.71,6.5-8.06-5.72.9-9.61,5c-3.89,4.1-5.91,8.52-4.49,9.86Z"/>
      </g>
      <g>
        <path class="cls-4" d="M533.74,160.53l-2.79,4.52-15.83,25.62-2.23,3.61c-.16-.06-.32-.11-.47-.16-.19-.07-.38-.14-.56-.21-.41-.15-.82-.32-1.21-.51-.2-.09-.4-.18-.59-.28-.2-.1-.39-.2-.58-.3s-.38-.21-.57-.32c-6.11-3.52-10.22-10.13-10.22-17.69,0-11.29,9.15-20.44,20.44-20.44,5.73,0,10.91,2.36,14.61,6.16Z"/>
        <path class="cls-7" d="M501.6,185.28c3.62,3.21,8.33,5.23,13.52,5.39l-2.23,3.61c-.16-.06-.32-.11-.47-.16-.19-.07-.38-.14-.56-.21-.41-.15-.82-.32-1.21-.51-.2-.09-.4-.18-.59-.28-.2-.1-.39-.2-.58-.3s-.38-.21-.57-.32c-3.01-1.75-5.52-4.24-7.31-7.22Z"/>
        <path class="cls-5" d="M503.45,174.54c1.41,1.34,3.71-2.7,7.6-6.8s7.92-6.71,6.5-8.06-5.72.9-9.61,5-5.91,8.52-4.49,9.86Z"/>
      </g>
      <g>
        <circle class="cls-4" cx="358.14" cy="174.81" r="20.44"/>
        <path class="cls-7" d="M375.64,164.28c.38,1.6.6,3.26.6,4.97,0,11.84-9.6,21.43-21.43,21.43-5.45,0-10.41-2.05-14.2-5.41,3.57,5.96,10.07,9.97,17.53,9.97,11.29,0,20.44-9.15,20.44-20.44,0-3.86-1.09-7.45-2.94-10.53Z"/>
        <path class="cls-5" d="M342.46,174.54c1.41,1.34,3.71-2.7,7.6-6.8s7.92-6.71,6.5-8.06-5.72.9-9.61,5-5.91,8.52-4.49,9.86Z"/>
      </g>
      <g>
        <circle class="cls-4" cx="517.84" cy="174.81" r="20.44"/>
        <path class="cls-7" d="M535.34,164.28c.38,1.6.6,3.26.6,4.97,0,11.84-9.6,21.43-21.43,21.43-5.45,0-10.41-2.05-14.2-5.41,3.57,5.96,10.07,9.97,17.53,9.97,11.29,0,20.44-9.15,20.44-20.44,0-3.86-1.09-7.45-2.94-10.53Z"/>
        <path class="cls-5" d="M502.16,174.54c1.41,1.34,3.71-2.7,7.6-6.8s7.92-6.71,6.5-8.06-5.72.9-9.61,5-5.91,8.52-4.49,9.86Z"/>
      </g>
    </g>
  </g>
</svg>

  <path d="M679.38 191.34L679.38 178.76L721.12 178.76Q753.09 178.76 753.09 203.47Q753.09 217.09 739.47 224.19Q748.20 226.41 753.16 232.33Q758.12 238.25 758.12 247.73Q758.12 262.08 748.43 269.63Q738.73 277.18 720.23 277.18L678.64 277.18L678.64 265.19L683.53 264.75Q687.82 264.30 687.82 260.60L687.82 191.78L679.38 191.34M720.53 232.33L705.88 232.33L705.88 263.27L719.79 263.27Q739.03 263.27 739.03 247.58Q739.03 240.18 734.22 236.26Q729.41 232.33 720.53 232.33M717.86 192.37L705.88 192.37L705.88 219.16L716.83 219.16Q726 219.16 730.37 215.39Q734.74 211.61 734.74 204.81Q734.74 198 730.37 195.19Q726 192.37 717.86 192.37M801.63 266.37Q817.76 266.37 817.76 240.33Q817.76 227.15 814.14 220.35Q810.51 213.54 802 213.54Q793.49 213.54 789.50 220.05Q785.50 226.56 785.50 237.81Q785.50 258.68 793.20 264Q796.60 266.37 801.63 266.37M767.59 239.88Q767.59 228.93 770.85 220.86Q774.10 212.80 779.58 208.51Q790.09 200.51 802.82 200.51Q811.70 200.51 817.84 203.40Q823.98 206.29 827.46 210.06Q830.94 213.83 833.38 221.01Q835.82 228.19 835.82 237.96Q835.82 258.38 825.90 268.89Q815.99 279.40 800.52 279.40Q785.06 279.40 776.32 269.41Q767.59 259.42 767.59 239.88M851.06 215.17L844.85 214.72L844.85 202.73L869.86 202.73L869.86 212.35Q878.15 200.51 892.58 200.51Q907.01 200.51 912.04 212.35Q920.33 200.51 934.54 200.51Q945.19 200.51 950.96 206.95Q956.74 213.39 956.74 226.27L956.74 264.89L965.17 265.34L965.17 277.18L929.95 277.18L929.95 265.93L934.83 265.49Q937.05 265.19 938.01 264.23Q938.98 263.27 939.12 260.75L939.12 230.11Q939.12 221.97 937.27 218.05Q935.42 214.13 928.62 214.13Q921.81 214.13 918.18 218.27Q914.56 222.42 914.56 229.37L914.56 264.89L922.70 265.34L922.70 277.18L887.77 277.18L887.77 265.93L892.65 265.49Q894.87 265.19 895.91 264.23Q896.94 263.27 896.94 260.60L896.94 230.11Q896.94 221.97 895.09 218.05Q893.24 214.13 886.36 214.13Q879.48 214.13 875.93 218.42Q872.38 222.71 872.38 229.08L872.38 264.89L880.37 265.34L880.37 277.18L845.44 277.18L845.44 265.93L850.32 265.49Q852.54 265.19 853.58 264.23Q854.62 263.27 854.62 260.60L854.76 260.60L854.76 219.75Q854.76 217.24 853.95 216.28Q853.14 215.31 851.06 215.17M980.42 272.74L980.42 187.79Q980.42 184.38 976.72 184.23L971.54 183.94L971.54 171.65L997.58 171.65L997.58 206.73Q1004.24 200.51 1015.49 200.51Q1029.40 200.51 1037.54 209.91Q1045.68 219.31 1045.68 236.33Q1045.68 279.10 1009.87 279.10Q1002.17 279.10 993.66 277.25Q985.15 275.40 980.42 272.74M997.58 224.79L997.58 263.12Q1003.21 266.08 1010.61 266.08Q1027.48 266.08 1027.48 238.70Q1027.48 213.69 1010.90 213.69Q1005.58 213.69 1001.58 216.79Q997.58 219.90 997.58 224.79M1081.06 196.37L1100.89 256.01L1101.63 256.01L1122.35 191.93L1113.32 191.34L1113.32 178.76L1147.36 178.76L1147.36 190.75L1142.48 191.19Q1140.55 191.34 1139.66 192.30Q1138.78 193.26 1137.89 195.63L1109.92 277.18L1090.68 277.18L1060.48 191.78L1052.05 191.34L1052.05 178.76L1090.23 178.76L1090.23 190.75L1085.35 191.19Q1080.76 191.49 1080.76 194.74Q1080.76 195.48 1081.06 196.37M1219.44 205.69L1219.44 260.75Q1219.44 263.12 1220.25 264Q1221.06 264.89 1223.14 265.04L1227.87 265.34L1227.87 277.18L1204.34 277.18L1204.34 268.59L1203.90 268.45Q1196.50 279.10 1183.62 279.10Q1168.52 279.10 1161.27 269.48Q1154.02 259.86 1154.02 243.14Q1154.02 223.01 1163.79 211.76Q1173.56 200.51 1193.09 200.51Q1205.67 200.51 1219.44 205.69M1202.27 253.65L1202.27 215.31Q1198.12 213.39 1190.87 213.39Q1180.96 213.39 1176.52 221.38Q1172.08 229.37 1172.08 242.55Q1172.08 266.52 1187.47 266.52Q1193.98 266.52 1198.12 262.60Q1202.27 258.68 1202.27 253.65M1307.20 265.04L1312.38 265.49L1312.38 277.18L1288.40 277.18L1288.40 267.56Q1280.26 279.10 1264.43 279.10Q1241.49 279.10 1241.49 253.50L1241.49 219.31Q1241.49 215.31 1237.79 215.17L1233.05 214.87L1233.05 202.73L1259.10 202.73L1259.10 249.65Q1259.10 257.49 1261.32 261.49Q1263.54 265.49 1270.50 265.49Q1277.45 265.49 1281.67 261.19Q1285.89 256.90 1285.89 250.83L1285.89 219.61Q1285.89 217.24 1285.07 216.28Q1284.26 215.31 1282.19 215.17L1277.45 214.87L1277.45 202.73L1303.50 202.73L1303.50 260.75Q1303.50 263.12 1304.24 263.93Q1304.98 264.75 1307.20 265.04M1321.41 171.65L1347.90 171.65L1347.90 264.89L1356.34 265.34L1356.34 277.18L1321.11 277.18L1321.11 265.93L1326 265.49Q1330.29 265.04 1330.29 260.75L1330.29 187.79Q1330.29 184.53 1326.59 184.23L1321.41 183.94L1321.41 171.65M1378.98 187.05L1388.60 187.05L1388.60 202.73L1408.28 202.73L1406.80 215.17L1388.60 215.17L1388.60 254.09Q1388.60 260.60 1390.97 263.19Q1393.34 265.78 1398.29 265.78Q1403.25 265.78 1408.28 262.67L1412.72 274.07Q1405.32 279.25 1393.93 279.25Q1387.27 279.25 1382.68 277.55Q1378.09 275.85 1375.87 273.77Q1373.65 271.70 1372.47 267.71Q1371.28 263.71 1371.14 261.42Q1370.99 259.12 1370.99 254.68L1370.99 215.17L1360.48 215.17L1361.96 204.36Q1368.92 203.77 1372.47 199.40Q1376.02 195.04 1378.98 187.05" fill="#242626"/>
  <path d="M703.54 367.18Q703.54 370.56 702.47 373.34Q701.39 376.11 699.44 378.08Q697.49 380.06 694.75 381.14Q692.01 382.22 688.69 382.22L677.45 382.22L677.45 352.13L688.69 352.13Q692.01 352.13 694.75 353.21Q697.49 354.29 699.44 356.27Q701.39 358.26 702.47 361.03Q703.54 363.80 703.54 367.18M699.36 367.18Q699.36 364.41 698.60 362.23Q697.85 360.04 696.46 358.53Q695.07 357.02 693.10 356.22Q691.13 355.42 688.69 355.42L681.53 355.42L681.53 378.92L688.69 378.92Q691.13 378.92 693.10 378.12Q695.07 377.33 696.46 375.82Q697.85 374.32 698.60 372.14Q699.36 369.96 699.36 367.18M711.81 361.98L712.06 365.21Q713.07 363.03 714.54 361.80Q716.01 360.57 718.13 360.57Q718.80 360.57 719.42 360.72Q720.04 360.86 720.53 361.18L720.25 363.97Q720.13 364.50 719.62 364.50Q719.33 364.50 718.76 364.37Q718.19 364.24 717.48 364.24Q716.47 364.24 715.69 364.54Q714.90 364.83 714.28 365.41Q713.66 365.99 713.17 366.84Q712.67 367.69 712.27 368.78L712.27 382.22L708.51 382.22L708.51 360.95L710.66 360.95Q711.26 360.95 711.50 361.18Q711.73 361.41 711.81 361.98M732.77 360.61Q735.10 360.61 736.97 361.39Q738.84 362.16 740.16 363.59Q741.48 365.02 742.19 367.05Q742.89 369.07 742.89 371.57Q742.89 374.09 742.19 376.11Q741.48 378.12 740.16 379.55Q738.84 380.98 736.97 381.75Q735.10 382.51 732.77 382.51Q730.42 382.51 728.54 381.75Q726.66 380.98 725.33 379.55Q724.01 378.12 723.31 376.11Q722.60 374.09 722.60 371.57Q722.60 369.07 723.31 367.05Q724.01 365.02 725.33 363.59Q726.66 362.16 728.54 361.39Q730.42 360.61 732.77 360.61M732.77 379.59Q735.92 379.59 737.47 377.48Q739.03 375.37 739.03 371.59Q739.03 367.79 737.47 365.67Q735.92 363.55 732.77 363.55Q731.17 363.55 729.99 364.10Q728.80 364.64 728.01 365.67Q727.22 366.70 726.84 368.20Q726.45 369.70 726.45 371.59Q726.45 375.37 728.01 377.48Q729.58 379.59 732.77 379.59M751.37 366.81L751.37 377.10Q752.40 378.48 753.62 379.05Q754.84 379.62 756.35 379.62Q759.33 379.62 760.93 377.49Q762.53 375.37 762.53 371.45Q762.53 369.37 762.16 367.88Q761.79 366.39 761.10 365.43Q760.40 364.47 759.40 364.03Q758.39 363.59 757.11 363.59Q755.28 363.59 753.91 364.43Q752.53 365.27 751.37 366.81M750.85 361.72L751.19 364.24Q752.53 362.58 754.29 361.58Q756.06 360.57 758.33 360.57Q760.17 360.57 761.66 361.27Q763.16 361.98 764.21 363.35Q765.26 364.73 765.82 366.76Q766.39 368.80 766.39 371.45Q766.39 373.80 765.76 375.82Q765.13 377.85 763.94 379.33Q762.76 380.81 761.05 381.66Q759.33 382.51 757.19 382.51Q755.24 382.51 753.84 381.85Q752.45 381.19 751.37 380.01L751.37 389.42L747.62 389.42L747.62 360.95L749.86 360.95Q750.66 360.95 750.85 361.72M793.44 377.05L793.44 372.64Q790.85 372.73 789.04 373.05Q787.22 373.38 786.08 373.90Q784.93 374.43 784.42 375.14Q783.90 375.86 783.90 376.74Q783.90 377.58 784.18 378.19Q784.45 378.80 784.92 379.18Q785.39 379.57 786.04 379.75Q786.68 379.93 787.41 379.93Q788.40 379.93 789.22 379.73Q790.04 379.53 790.76 379.15Q791.48 378.78 792.15 378.25Q792.81 377.73 793.44 377.05M782.03 365.15L781.36 363.95Q783.13 362.25 785.16 361.41Q787.20 360.57 789.68 360.57Q791.46 360.57 792.85 361.16Q794.24 361.74 795.18 362.79Q796.13 363.84 796.61 365.34Q797.09 366.83 797.09 368.61L797.09 382.22L795.43 382.22Q794.89 382.22 794.59 382.04Q794.30 381.86 794.13 381.34L793.71 379.32Q792.87 380.10 792.07 380.70Q791.27 381.30 790.39 381.70Q789.51 382.11 788.51 382.33Q787.52 382.56 786.30 382.56Q785.06 382.56 783.97 382.21Q782.87 381.86 782.07 381.17Q781.26 380.48 780.79 379.42Q780.31 378.36 780.31 376.91Q780.31 375.65 781.01 374.48Q781.70 373.32 783.25 372.41Q784.81 371.51 787.31 370.93Q789.80 370.35 793.44 370.27L793.44 368.61Q793.44 366.13 792.37 364.86Q791.30 363.59 789.24 363.59Q787.85 363.59 786.92 363.94Q785.98 364.29 785.30 364.72Q784.62 365.15 784.12 365.49Q783.63 365.84 783.15 365.84Q782.77 365.84 782.50 365.64Q782.22 365.44 782.03 365.15M817.29 366.81L817.29 377.10Q818.32 378.48 819.55 379.05Q820.78 379.62 822.25 379.62Q825.25 379.62 826.85 377.49Q828.44 375.37 828.44 371.17Q828.44 367.27 827.03 365.43Q825.61 363.59 822.98 363.59Q821.16 363.59 819.80 364.43Q818.45 365.27 817.29 366.81M817.29 351.29L817.29 364.01Q818.64 362.46 820.33 361.53Q822.02 360.61 824.22 360.61Q826.09 360.61 827.59 361.32Q829.10 362.04 830.15 363.39Q831.20 364.75 831.75 366.68Q832.31 368.61 832.31 371.03Q832.31 373.61 831.68 375.73Q831.05 377.85 829.86 379.35Q828.68 380.85 826.97 381.68Q825.27 382.51 823.15 382.51Q821.05 382.51 819.61 381.73Q818.18 380.94 817.10 379.49L816.92 381.42Q816.75 382.22 815.95 382.22L813.53 382.22L813.53 351.29L817.29 351.29M848.58 377.05L848.58 372.64Q846 372.73 844.18 373.05Q842.37 373.38 841.22 373.90Q840.08 374.43 839.56 375.14Q839.05 375.86 839.05 376.74Q839.05 377.58 839.32 378.19Q839.60 378.80 840.07 379.18Q840.54 379.57 841.18 379.75Q841.82 379.93 842.56 379.93Q843.54 379.93 844.36 379.73Q845.18 379.53 845.91 379.15Q846.63 378.78 847.29 378.25Q847.95 377.73 848.58 377.05M837.18 365.15L836.51 363.95Q838.27 362.25 840.31 361.41Q842.35 360.57 844.82 360.57Q846.61 360.57 848 361.16Q849.38 361.74 850.33 362.79Q851.27 363.84 851.75 365.34Q852.24 366.83 852.24 368.61L852.24 382.22L850.58 382.22Q850.03 382.22 849.74 382.04Q849.44 381.86 849.28 381.34L848.86 379.32Q848.02 380.10 847.22 380.70Q846.42 381.30 845.54 381.70Q844.66 382.11 843.66 382.33Q842.66 382.56 841.44 382.56Q840.20 382.56 839.11 382.21Q838.02 381.86 837.21 381.17Q836.40 380.48 835.93 379.42Q835.46 378.36 835.46 376.91Q835.46 375.65 836.15 374.48Q836.84 373.32 838.40 372.41Q839.95 371.51 842.45 370.93Q844.95 370.35 848.58 370.27L848.58 368.61Q848.58 366.13 847.51 364.86Q846.44 363.59 844.38 363.59Q843 363.59 842.06 363.94Q841.13 364.29 840.45 364.72Q839.76 365.15 839.27 365.49Q838.78 365.84 838.29 365.84Q837.92 365.84 837.64 365.64Q837.37 365.44 837.18 365.15M873.72 363.38L872.73 364.73Q872.57 364.96 872.40 365.08Q872.23 365.21 871.94 365.21Q871.62 365.21 871.24 364.95Q870.86 364.68 870.31 364.37Q869.75 364.05 868.94 363.79Q868.13 363.53 866.96 363.53Q865.38 363.53 864.19 364.09Q862.99 364.64 862.18 365.69Q861.37 366.74 860.96 368.23Q860.55 369.72 860.55 371.57Q860.55 373.50 860.99 375.01Q861.44 376.51 862.24 377.53Q863.05 378.54 864.20 379.08Q865.34 379.62 866.77 379.62Q868.13 379.62 869.02 379.29Q869.90 378.96 870.48 378.57Q871.05 378.17 871.44 377.84Q871.83 377.52 872.21 377.52Q872.67 377.52 872.92 377.87L873.97 379.24Q873.28 380.10 872.40 380.71Q871.52 381.32 870.50 381.73Q869.48 382.14 868.37 382.32Q867.25 382.51 866.10 382.51Q864.10 382.51 862.39 381.78Q860.68 381.04 859.42 379.65Q858.16 378.25 857.45 376.21Q856.73 374.18 856.73 371.57Q856.73 369.20 857.39 367.18Q858.05 365.17 859.33 363.71Q860.60 362.25 862.45 361.43Q864.31 360.61 866.73 360.61Q868.97 360.61 870.69 361.33Q872.40 362.06 873.72 363.38M877.98 351.29L881.74 351.29L881.74 369.49L882.71 369.49Q883.13 369.49 883.41 369.38Q883.70 369.26 884.01 368.91L890.73 361.70Q891.02 361.35 891.35 361.15Q891.68 360.95 892.22 360.95L895.60 360.95L887.77 369.28Q887.20 370 886.55 370.40Q886.93 370.65 887.23 370.97Q887.54 371.30 887.81 371.72L896.13 382.22L892.79 382.22Q892.31 382.22 891.96 382.06Q891.61 381.90 891.36 381.48L884.37 372.77Q884.05 372.33 883.75 372.19Q883.44 372.06 882.81 372.06L881.74 372.06L881.74 382.22L877.98 382.22L877.98 351.29M913.07 360.95L916.81 360.95L916.81 382.22L914.59 382.22Q913.79 382.22 913.58 381.44L913.28 379.15Q911.90 380.69 910.18 381.62Q908.45 382.56 906.23 382.56Q904.49 382.56 903.15 381.98Q901.82 381.40 900.92 380.35Q900.01 379.30 899.56 377.81Q899.11 376.32 899.11 374.51L899.11 360.95L902.85 360.95L902.85 374.51Q902.85 376.93 903.95 378.25Q905.05 379.57 907.32 379.57Q908.98 379.57 910.42 378.79Q911.86 378 913.07 376.61L913.07 360.95M926.49 366.81L926.49 377.10Q927.52 378.48 928.74 379.05Q929.96 379.62 931.47 379.62Q934.45 379.62 936.05 377.49Q937.64 375.37 937.64 371.45Q937.64 369.37 937.28 367.88Q936.91 366.39 936.22 365.43Q935.52 364.47 934.52 364.03Q933.51 363.59 932.23 363.59Q930.40 363.59 929.02 364.43Q927.65 365.27 926.49 366.81M925.97 361.72L926.30 364.24Q927.65 362.58 929.41 361.58Q931.18 360.57 933.44 360.57Q935.29 360.57 936.78 361.27Q938.27 361.98 939.32 363.35Q940.37 364.73 940.94 366.76Q941.51 368.80 941.51 371.45Q941.51 373.80 940.88 375.82Q940.25 377.85 939.06 379.33Q937.88 380.81 936.16 381.66Q934.45 382.51 932.31 382.51Q930.36 382.51 928.96 381.85Q927.56 381.19 926.49 380.01L926.49 389.42L922.73 389.42L922.73 360.95L924.98 360.95Q925.78 360.95 925.97 361.72M945.65 379.91Q945.65 379.36 945.85 378.88Q946.04 378.40 946.39 378.04Q946.74 377.68 947.22 377.47Q947.70 377.26 948.25 377.26Q948.80 377.26 949.28 377.47Q949.76 377.68 950.12 378.04Q950.48 378.40 950.69 378.88Q950.90 379.36 950.90 379.91Q950.90 380.48 950.69 380.95Q950.48 381.42 950.12 381.78Q949.76 382.14 949.28 382.33Q948.80 382.53 948.25 382.53Q947.70 382.53 947.22 382.33Q946.74 382.14 946.39 381.78Q946.04 381.42 945.85 380.95Q945.65 380.48 945.65 379.91M993.90 367.18Q993.90 370.56 992.83 373.34Q991.76 376.11 989.81 378.08Q987.86 380.06 985.12 381.14Q982.37 382.22 979.06 382.22L967.82 382.22L967.82 352.13L979.06 352.13Q982.37 352.13 985.12 353.21Q987.86 354.29 989.81 356.27Q991.76 358.26 992.83 361.03Q993.90 363.80 993.90 367.18M989.72 367.18Q989.72 364.41 988.97 362.23Q988.21 360.04 986.83 358.53Q985.44 357.02 983.47 356.22Q981.49 355.42 979.06 355.42L971.90 355.42L971.90 378.92L979.06 378.92Q981.49 378.92 983.47 378.12Q985.44 377.33 986.83 375.82Q988.21 374.32 988.97 372.14Q989.72 369.96 989.72 367.18M1001.48 369.26L1013.12 369.26Q1013.12 367.96 1012.75 366.88Q1012.38 365.80 1011.68 365.01Q1010.98 364.22 1009.97 363.79Q1008.96 363.36 1007.68 363.36Q1004.99 363.36 1003.43 364.93Q1001.86 366.49 1001.48 369.26M1015.09 377.87L1016.14 379.24Q1015.45 380.08 1014.48 380.70Q1013.52 381.32 1012.42 381.72Q1011.31 382.11 1010.14 382.31Q1008.96 382.51 1007.81 382.51Q1005.60 382.51 1003.74 381.77Q1001.88 381.02 1000.53 379.58Q999.17 378.15 998.42 376.02Q997.66 373.90 997.66 371.15Q997.66 368.93 998.35 366.99Q999.03 365.06 1000.31 363.64Q1001.59 362.23 1003.44 361.42Q1005.29 360.61 1007.60 360.61Q1009.51 360.61 1011.13 361.25Q1012.76 361.89 1013.95 363.10Q1015.13 364.31 1015.81 366.08Q1016.48 367.86 1016.48 370.12Q1016.48 371.01 1016.29 371.30Q1016.10 371.59 1015.58 371.59L1001.36 371.59Q1001.42 373.61 1001.92 375.10Q1002.41 376.59 1003.29 377.59Q1004.17 378.59 1005.39 379.08Q1006.61 379.57 1008.12 379.57Q1009.53 379.57 1010.55 379.25Q1011.56 378.92 1012.30 378.54Q1013.03 378.17 1013.53 377.84Q1014.02 377.52 1014.38 377.52Q1014.84 377.52 1015.09 377.87M1027.59 382.56Q1025.07 382.56 1023.71 381.15Q1022.36 379.74 1022.36 377.10L1022.36 364.08L1019.80 364.08Q1019.46 364.08 1019.23 363.88Q1019 363.68 1019 363.26L1019 361.77L1022.48 361.32L1023.35 354.75Q1023.41 354.44 1023.63 354.24Q1023.85 354.04 1024.21 354.04L1026.10 354.04L1026.10 361.37L1032.25 361.37L1032.25 364.08L1026.10 364.08L1026.10 376.84Q1026.10 378.19 1026.75 378.84Q1027.40 379.49 1028.43 379.49Q1029.02 379.49 1029.45 379.33Q1029.88 379.17 1030.19 378.99Q1030.51 378.80 1030.73 378.64Q1030.95 378.48 1031.12 378.48Q1031.41 378.48 1031.64 378.84L1032.73 380.62Q1031.77 381.53 1030.40 382.04Q1029.04 382.56 1027.59 382.56M1045.08 360.61Q1047.41 360.61 1049.28 361.39Q1051.15 362.16 1052.47 363.59Q1053.80 365.02 1054.50 367.05Q1055.20 369.07 1055.20 371.57Q1055.20 374.09 1054.50 376.11Q1053.80 378.12 1052.47 379.55Q1051.15 380.98 1049.28 381.75Q1047.41 382.51 1045.08 382.51Q1042.73 382.51 1040.85 381.75Q1038.97 380.98 1037.65 379.55Q1036.32 378.12 1035.62 376.11Q1034.92 374.09 1034.92 371.57Q1034.92 369.07 1035.62 367.05Q1036.32 365.02 1037.65 363.59Q1038.97 362.16 1040.85 361.39Q1042.73 360.61 1045.08 360.61M1045.08 379.59Q1048.23 379.59 1049.78 377.48Q1051.34 375.37 1051.34 371.59Q1051.34 367.79 1049.78 365.67Q1048.23 363.55 1045.08 363.55Q1043.48 363.55 1042.30 364.10Q1041.11 364.64 1040.32 365.67Q1039.54 366.70 1039.15 368.20Q1038.76 369.70 1038.76 371.59Q1038.76 375.37 1040.32 377.48Q1041.89 379.59 1045.08 379.59M1063.16 361.72L1063.46 364.03Q1064.15 363.26 1064.93 362.63Q1065.70 362 1066.57 361.54Q1067.45 361.09 1068.42 360.85Q1069.40 360.61 1070.53 360.61Q1072.28 360.61 1073.61 361.19Q1074.94 361.77 1075.84 362.83Q1076.73 363.89 1077.19 365.38Q1077.65 366.87 1077.65 368.67L1077.65 382.22L1073.89 382.22L1073.89 368.67Q1073.89 366.26 1072.79 364.93Q1071.69 363.59 1069.44 363.59Q1067.78 363.59 1066.34 364.39Q1064.90 365.19 1063.69 366.55L1063.69 382.22L1059.93 382.22L1059.93 360.95L1062.17 360.95Q1062.97 360.95 1063.16 361.72M1094.89 377.05L1094.89 372.64Q1092.31 372.73 1090.49 373.05Q1088.68 373.38 1087.53 373.90Q1086.39 374.43 1085.87 375.14Q1085.36 375.86 1085.36 376.74Q1085.36 377.58 1085.63 378.19Q1085.90 378.80 1086.38 379.18Q1086.85 379.57 1087.49 379.75Q1088.13 379.93 1088.87 379.93Q1089.85 379.93 1090.67 379.73Q1091.49 379.53 1092.22 379.15Q1092.94 378.78 1093.60 378.25Q1094.26 377.73 1094.89 377.05M1083.49 365.15L1082.82 363.95Q1084.58 362.25 1086.62 361.41Q1088.66 360.57 1091.13 360.57Q1092.92 360.57 1094.30 361.16Q1095.69 361.74 1096.64 362.79Q1097.58 363.84 1098.06 365.34Q1098.55 366.83 1098.55 368.61L1098.55 382.22L1096.89 382.22Q1096.34 382.22 1096.05 382.04Q1095.75 381.86 1095.59 381.34L1095.17 379.32Q1094.33 380.10 1093.53 380.70Q1092.73 381.30 1091.85 381.70Q1090.97 382.11 1089.97 382.33Q1088.97 382.56 1087.75 382.56Q1086.51 382.56 1085.42 382.21Q1084.33 381.86 1083.52 381.17Q1082.71 380.48 1082.24 379.42Q1081.77 378.36 1081.77 376.91Q1081.77 375.65 1082.46 374.48Q1083.15 373.32 1084.71 372.41Q1086.26 371.51 1088.76 370.93Q1091.26 370.35 1094.89 370.27L1094.89 368.61Q1094.89 366.13 1093.82 364.86Q1092.75 363.59 1090.69 363.59Q1089.31 363.59 1088.37 363.94Q1087.44 364.29 1086.76 364.72Q1086.07 365.15 1085.58 365.49Q1085.09 365.84 1084.60 365.84Q1084.22 365.84 1083.95 365.64Q1083.68 365.44 1083.49 365.15M1110.77 382.56Q1108.25 382.56 1106.89 381.15Q1105.54 379.74 1105.54 377.10L1105.54 364.08L1102.98 364.08Q1102.64 364.08 1102.41 363.88Q1102.18 363.68 1102.18 363.26L1102.18 361.77L1105.67 361.32L1106.53 354.75Q1106.59 354.44 1106.81 354.24Q1107.03 354.04 1107.39 354.04L1109.28 354.04L1109.28 361.37L1115.43 361.37L1115.43 364.08L1109.28 364.08L1109.28 376.84Q1109.28 378.19 1109.93 378.84Q1110.58 379.49 1111.61 379.49Q1112.20 379.49 1112.63 379.33Q1113.06 379.17 1113.37 378.99Q1113.69 378.80 1113.91 378.64Q1114.13 378.48 1114.30 378.48Q1114.59 378.48 1114.82 378.84L1115.91 380.62Q1114.95 381.53 1113.58 382.04Q1112.22 382.56 1110.77 382.56M1121.90 369.26L1133.53 369.26Q1133.53 367.96 1133.17 366.88Q1132.80 365.80 1132.09 365.01Q1131.39 364.22 1130.38 363.79Q1129.37 363.36 1128.09 363.36Q1125.41 363.36 1123.84 364.93Q1122.28 366.49 1121.90 369.26M1135.51 377.87L1136.56 379.24Q1135.86 380.08 1134.90 380.70Q1133.93 381.32 1132.83 381.72Q1131.73 382.11 1130.55 382.31Q1129.37 382.51 1128.22 382.51Q1126.01 382.51 1124.16 381.77Q1122.30 381.02 1120.94 379.58Q1119.59 378.15 1118.83 376.02Q1118.08 373.90 1118.08 371.15Q1118.08 368.93 1118.76 366.99Q1119.44 365.06 1120.72 363.64Q1122 362.23 1123.85 361.42Q1125.70 360.61 1128.01 360.61Q1129.92 360.61 1131.55 361.25Q1133.18 361.89 1134.36 363.10Q1135.55 364.31 1136.22 366.08Q1136.89 367.86 1136.89 370.12Q1136.89 371.01 1136.70 371.30Q1136.51 371.59 1135.99 371.59L1121.77 371.59Q1121.84 373.61 1122.33 375.10Q1122.82 376.59 1123.70 377.59Q1124.59 378.59 1125.80 379.08Q1127.02 379.57 1128.53 379.57Q1129.94 379.57 1130.96 379.25Q1131.98 378.92 1132.71 378.54Q1133.45 378.17 1133.94 377.84Q1134.44 377.52 1134.79 377.52Q1135.25 377.52 1135.51 377.87M1163.75 377.05L1163.75 372.64Q1161.17 372.73 1159.35 373.05Q1157.54 373.38 1156.39 373.90Q1155.25 374.43 1154.73 375.14Q1154.22 375.86 1154.22 376.74Q1154.22 377.58 1154.49 378.19Q1154.76 378.80 1155.24 379.18Q1155.71 379.57 1156.35 379.75Q1156.99 379.93 1157.72 379.93Q1158.71 379.93 1159.53 379.73Q1160.35 379.53 1161.07 379.15Q1161.80 378.78 1162.46 378.25Q1163.12 377.73 1163.75 377.05M1152.35 365.15L1151.68 363.95Q1153.44 362.25 1155.48 361.41Q1157.51 360.57 1159.99 360.57Q1161.78 360.57 1163.16 361.16Q1164.55 361.74 1165.49 362.79Q1166.44 363.84 1166.92 365.34Q1167.41 366.83 1167.41 368.61L1167.41 382.22L1165.75 382.22Q1165.20 382.22 1164.91 382.04Q1164.61 381.86 1164.44 381.34L1164.02 379.32Q1163.18 380.10 1162.39 380.70Q1161.59 381.30 1160.71 381.70Q1159.82 382.11 1158.83 382.33Q1157.83 382.56 1156.61 382.56Q1155.37 382.56 1154.28 382.21Q1153.19 381.86 1152.38 381.17Q1151.57 380.48 1151.10 379.42Q1150.63 378.36 1150.63 376.91Q1150.63 375.65 1151.32 374.48Q1152.01 373.32 1153.57 372.41Q1155.12 371.51 1157.62 370.93Q1160.12 370.35 1163.75 370.27L1163.75 368.61Q1163.75 366.13 1162.68 364.86Q1161.61 363.59 1159.55 363.59Q1158.17 363.59 1157.23 363.94Q1156.30 364.29 1155.61 364.72Q1154.93 365.15 1154.44 365.49Q1153.94 365.84 1153.46 365.84Q1153.08 365.84 1152.81 365.64Q1152.54 365.44 1152.35 365.15M1187.15 361.98L1187.40 365.21Q1188.41 363.03 1189.88 361.80Q1191.35 360.57 1193.47 360.57Q1194.14 360.57 1194.76 360.72Q1195.38 360.86 1195.86 361.18L1195.59 363.97Q1195.46 364.50 1194.96 364.50Q1194.66 364.50 1194.10 364.37Q1193.53 364.24 1192.82 364.24Q1191.81 364.24 1191.02 364.54Q1190.23 364.83 1189.61 365.41Q1188.99 365.99 1188.50 366.84Q1188.01 367.69 1187.61 368.78L1187.61 382.22L1183.85 382.22L1183.85 360.95L1185.99 360.95Q1186.60 360.95 1186.83 361.18Q1187.06 361.41 1187.15 361.98M1201.74 369.26L1213.37 369.26Q1213.37 367.96 1213.01 366.88Q1212.64 365.80 1211.94 365.01Q1211.23 364.22 1210.22 363.79Q1209.22 363.36 1207.94 363.36Q1205.25 363.36 1203.68 364.93Q1202.12 366.49 1201.74 369.26M1215.35 377.87L1216.40 379.24Q1215.71 380.08 1214.74 380.70Q1213.77 381.32 1212.67 381.72Q1211.57 382.11 1210.39 382.31Q1209.22 382.51 1208.06 382.51Q1205.86 382.51 1204 381.77Q1202.14 381.02 1200.79 379.58Q1199.43 378.15 1198.67 376.02Q1197.92 373.90 1197.92 371.15Q1197.92 368.93 1198.60 366.99Q1199.28 365.06 1200.56 363.64Q1201.85 362.23 1203.69 361.42Q1205.54 360.61 1207.85 360.61Q1209.76 360.61 1211.39 361.25Q1213.02 361.89 1214.20 363.10Q1215.39 364.31 1216.06 366.08Q1216.73 367.86 1216.73 370.12Q1216.73 371.01 1216.55 371.30Q1216.36 371.59 1215.83 371.59L1201.61 371.59Q1201.68 373.61 1202.17 375.10Q1202.66 376.59 1203.55 377.59Q1204.43 378.59 1205.65 379.08Q1206.86 379.57 1208.38 379.57Q1209.78 379.57 1210.80 379.25Q1211.82 378.92 1212.56 378.54Q1213.29 378.17 1213.78 377.84Q1214.28 377.52 1214.63 377.52Q1215.10 377.52 1215.35 377.87M1234.54 363.09L1233.70 364.45Q1233.45 364.92 1232.93 364.92Q1232.61 364.92 1232.21 364.68Q1231.81 364.45 1231.24 364.17Q1230.66 363.89 1229.86 363.64Q1229.06 363.40 1227.97 363.40Q1227.02 363.40 1226.27 363.64Q1225.51 363.89 1224.98 364.31Q1224.44 364.73 1224.16 365.28Q1223.87 365.84 1223.87 366.49Q1223.87 367.31 1224.35 367.86Q1224.82 368.40 1225.60 368.80Q1226.37 369.20 1227.36 369.50Q1228.35 369.81 1229.39 370.15Q1230.43 370.50 1231.41 370.92Q1232.40 371.34 1233.18 371.97Q1233.95 372.60 1234.43 373.51Q1234.90 374.43 1234.90 375.71Q1234.90 377.18 1234.37 378.43Q1233.85 379.68 1232.82 380.59Q1231.79 381.51 1230.30 382.03Q1228.81 382.56 1226.86 382.56Q1224.63 382.56 1222.82 381.83Q1221.02 381.11 1219.76 379.97L1220.64 378.54Q1220.81 378.27 1221.04 378.12Q1221.27 377.98 1221.63 377.98Q1222.01 377.98 1222.43 378.27Q1222.85 378.57 1223.44 378.92Q1224.04 379.28 1224.90 379.57Q1225.76 379.87 1227.05 379.87Q1228.14 379.87 1228.96 379.58Q1229.78 379.30 1230.32 378.82Q1230.87 378.33 1231.13 377.70Q1231.39 377.07 1231.39 376.36Q1231.39 375.48 1230.92 374.90Q1230.45 374.32 1229.67 373.91Q1228.89 373.50 1227.90 373.20Q1226.90 372.90 1225.86 372.56Q1224.82 372.22 1223.82 371.79Q1222.82 371.36 1222.05 370.71Q1221.27 370.06 1220.80 369.10Q1220.33 368.15 1220.33 366.78Q1220.33 365.57 1220.83 364.44Q1221.33 363.32 1222.30 362.47Q1223.27 361.62 1224.67 361.11Q1226.08 360.61 1227.89 360.61Q1229.99 360.61 1231.66 361.27Q1233.32 361.93 1234.54 363.09M1246.03 382.56Q1243.51 382.56 1242.16 381.15Q1240.80 379.74 1240.80 377.10L1240.80 364.08L1238.24 364.08Q1237.90 364.08 1237.67 363.88Q1237.44 363.68 1237.44 363.26L1237.44 361.77L1240.93 361.32L1241.79 354.75Q1241.85 354.44 1242.07 354.24Q1242.29 354.04 1242.65 354.04L1244.54 354.04L1244.54 361.37L1250.69 361.37L1250.69 364.08L1244.54 364.08L1244.54 376.84Q1244.54 378.19 1245.19 378.84Q1245.84 379.49 1246.87 379.49Q1247.46 379.49 1247.89 379.33Q1248.32 379.17 1248.63 378.99Q1248.95 378.80 1249.17 378.64Q1249.39 378.48 1249.56 378.48Q1249.85 378.48 1250.08 378.84L1251.17 380.62Q1250.21 381.53 1248.84 382.04Q1247.48 382.56 1246.03 382.56M1263.52 360.61Q1265.85 360.61 1267.72 361.39Q1269.59 362.16 1270.91 363.59Q1272.24 365.02 1272.94 367.05Q1273.64 369.07 1273.64 371.57Q1273.64 374.09 1272.94 376.11Q1272.24 378.12 1270.91 379.55Q1269.59 380.98 1267.72 381.75Q1265.85 382.51 1263.52 382.51Q1261.17 382.51 1259.29 381.75Q1257.41 380.98 1256.09 379.55Q1254.77 378.12 1254.06 376.11Q1253.36 374.09 1253.36 371.57Q1253.36 369.07 1254.06 367.05Q1254.77 365.02 1256.09 363.59Q1257.41 362.16 1259.29 361.39Q1261.17 360.61 1263.52 360.61M1263.52 379.59Q1266.67 379.59 1268.23 377.48Q1269.78 375.37 1269.78 371.59Q1269.78 367.79 1268.23 365.67Q1266.67 363.55 1263.52 363.55Q1261.93 363.55 1260.74 364.10Q1259.55 364.64 1258.77 365.67Q1257.98 366.70 1257.59 368.20Q1257.20 369.70 1257.20 371.59Q1257.20 375.37 1258.77 377.48Q1260.33 379.59 1263.52 379.59M1281.67 361.98L1281.92 365.21Q1282.93 363.03 1284.40 361.80Q1285.87 360.57 1287.99 360.57Q1288.66 360.57 1289.28 360.72Q1289.90 360.86 1290.38 361.18L1290.11 363.97Q1289.98 364.50 1289.48 364.50Q1289.18 364.50 1288.62 364.37Q1288.05 364.24 1287.34 364.24Q1286.33 364.24 1285.54 364.54Q1284.75 364.83 1284.13 365.41Q1283.51 365.99 1283.02 366.84Q1282.53 367.69 1282.13 368.78L1282.13 382.22L1278.37 382.22L1278.37 360.95L1280.51 360.95Q1281.12 360.95 1281.35 361.18Q1281.58 361.41 1281.67 361.98M1296.26 369.26L1307.90 369.26Q1307.90 367.96 1307.53 366.88Q1307.16 365.80 1306.46 365.01Q1305.75 364.22 1304.75 363.79Q1303.74 363.36 1302.46 363.36Q1299.77 363.36 1298.20 364.93Q1296.64 366.49 1296.26 369.26M1309.87 377.87L1310.92 379.24Q1310.23 380.08 1309.26 380.70Q1308.29 381.32 1307.19 381.72Q1306.09 382.11 1304.91 382.31Q1303.74 382.51 1302.58 382.51Q1300.38 382.51 1298.52 381.77Q1296.66 381.02 1295.31 379.58Q1293.95 378.15 1293.20 376.02Q1292.44 373.90 1292.44 371.15Q1292.44 368.93 1293.12 366.99Q1293.80 365.06 1295.09 363.64Q1296.37 362.23 1298.21 361.42Q1300.06 360.61 1302.37 360.61Q1304.28 360.61 1305.91 361.25Q1307.54 361.89 1308.73 363.10Q1309.91 364.31 1310.58 366.08Q1311.26 367.86 1311.26 370.12Q1311.26 371.01 1311.07 371.30Q1310.88 371.59 1310.35 371.59L1296.14 371.59Q1296.20 373.61 1296.69 375.10Q1297.19 376.59 1298.07 377.59Q1298.95 378.59 1300.17 379.08Q1301.39 379.57 1302.90 379.57Q1304.30 379.57 1305.32 379.25Q1306.34 378.92 1307.08 378.54Q1307.81 378.17 1308.31 377.84Q1308.80 377.52 1309.16 377.52Q1309.62 377.52 1309.87 377.87M1315.20 379.91Q1315.20 379.36 1315.40 378.88Q1315.60 378.40 1315.95 378.04Q1316.30 377.68 1316.78 377.47Q1317.26 377.26 1317.81 377.26Q1318.35 377.26 1318.84 377.47Q1319.32 377.68 1319.68 378.04Q1320.03 378.40 1320.24 378.88Q1320.45 379.36 1320.45 379.91Q1320.45 380.48 1320.24 380.95Q1320.03 381.42 1319.68 381.78Q1319.32 382.14 1318.84 382.33Q1318.35 382.53 1317.81 382.53Q1317.26 382.53 1316.78 382.33Q1316.30 382.14 1315.95 381.78Q1315.60 381.42 1315.40 380.95Q1315.20 380.48 1315.20 379.91" fill="#5a5d5e"/>
</svg>
