<svg xmlns="http://www.w3.org/2000/svg" width="1600" height="500" viewBox="0 0 1600 500">
  <rect width="1600" height="500" fill="#0d1117"/>
  <svg x="185.2" y="31.4" width="425.8" height="410" viewBox="0 0 898.34 865.1" xmlns="http://www.w3.org/2000/svg">
  <defs>
    <style>
      .cls-1 {
        fill: #fff57c;
      }

      .cls-2 {
        fill: #f68e32;
      }

      .cls-3 {
        fill: #353738;
      }

      .cls-4 {
        fill: #4e5051;
      }

      .cls-5 {
        fill: #5a5d5e;
      }

      .cls-6 {
        fill: #c6c6c6;
      }

      .cls-7 {
        fill: #7e8182;
      }
    </style>
  </defs>
  <g id="logo_2.0_hell">
    <path class="cls-6" d="M579.04,158.95l-13.8-9.68h64.39c-9.54,6.79-18.48,15.27-27.37,26l-23.22-16.31Z"/>
    <path class="cls-6" d="M713.3,619.85v88.48c0,22.1,15.68,40.61,36.5,45v12.35H133.39v-14.33c7.57-2.86,14.18-7.67,19.24-13.79.47-.57.92-1.14,1.36-1.74.44-.59.87-1.18,1.28-1.8.42-.62.82-1.23,1.2-1.87.38-.63.76-1.27,1.1-1.92.54-.98,1.03-1.98,1.49-3,2-4.4,3.32-9.19,3.83-14.21.08-.77.14-1.55.18-2.33.04-.79.06-1.57.06-2.37v-88.48c0-.8-.02-1.58-.06-2.37-.04-.78-.1-1.56-.18-2.33-.51-5.02-1.83-9.8-3.83-14.21-.46-1.02-.95-2.02-1.49-3-.35-.65-.73-1.29-1.1-1.92-.39-.64-.79-1.25-1.2-1.87s-.85-1.21-1.28-1.8c-.44-.6-.89-1.17-1.36-1.74-5.06-6.12-11.67-10.93-19.24-13.79v-244.04c7.57-2.86,14.18-7.67,19.24-13.79.47-.57.92-1.14,1.36-1.74.44-.59.87-1.18,1.28-1.8.42-.62.82-1.23,1.2-1.87.38-.63.76-1.27,1.1-1.92.54-.98,1.03-1.98,1.49-3,2-4.4,3.32-9.19,3.83-14.21.08-.77.14-1.55.18-2.33.04-.79.06-1.57.06-2.37v-88.48c0-.8-.02-1.58-.06-2.37-.04-.78-.1-1.56-.18-2.33-.51-5.02-1.83-9.8-3.83-14.21-.46-1.02-.95-2.02-1.49-3-.35-.65-.73-1.29-1.1-1.92-.39-.64-.79-1.25-1.2-1.87s-.85-1.21-1.28-1.8c-.44-.6-.89-1.17-1.36-1.74-5.06-6.12-11.67-10.93-19.24-13.79v-9h428.55l-10.4,14.25-27.45,37.62c-.37-.12-.73-.23-1.08-.34-9.94-3.1-20.2-5.63-30.49-7.54-1.55-.28-3.07-.55-4.59-.81h-.04s-.04,0-.04,0c-2.33-.39-4.68-.75-7-1.06-1.54-.22-3.06-.42-4.58-.6-3.83-.47-7.75-.86-11.7-1.16-6.83-.53-13.77-.8-20.64-.8-32.51,0-64.57,5.79-95.29,17.21-30.69,11.39-58.75,27.93-83.38,49.13l-.05.04-.06.05-.66.57c-.96.85-1.93,1.69-2.89,2.56-1.18,1.05-2.36,2.12-3.51,3.18l-.03.02-.02.02c-1.74,1.62-3.49,3.28-5.2,4.94l-.13.13c-1.08,1.07-2.16,2.14-3.24,3.22l-.08.07-.07.08c-1.83,1.87-3.46,3.56-4.97,5.18-1.02,1.08-2.1,2.26-3.29,3.58-1.17,1.29-2.23,2.48-3.22,3.63-1.09,1.25-2.13,2.48-3.13,3.66l-.03.04-.02.03c-10.58,12.62-20,26.25-28.02,40.51-17.9,31.82-29.15,65.86-33.44,101.17-4.08,33.57-1.77,67.32,6.84,100.29,1.29,4.93,2.73,9.87,4.3,14.75v.12s1.34,3.96,1.34,3.96c.69,2.01,1.4,4.04,2.13,6.02.37,1.01.77,2.11,1.2,3.23.81,2.1,1.56,4.02,2.31,5.86.44,1.12.89,2.2,1.29,3.14.19.44.37.87.56,1.3v.04s1.04,2.38,1.04,2.38c.21.47.42.92.62,1.37l.35.79c.97,2.21,1.98,4.33,2.74,5.94,10.33,21.65,23.42,41.83,38.91,59.99,9.22,10.82,19.33,20.96,30.05,30.14,3.4,2.92,6.84,5.73,10.23,8.35,1.49,1.15,2.73,2.11,3.92,2.99.7.52,1.37,1.01,2.07,1.51,1.39,1.02,2.66,1.94,3.89,2.81.69.49,1.37.96,2.06,1.44l.05.03.08.05c1.28.88,2.61,1.79,4.07,2.75l.04.02.04.03c1.33.88,2.69,1.77,4.05,2.64l.05.03.05.03c1.16.74,2.32,1.45,3.48,2.17l.65.4.04.03.05.03c2.05,1.25,3.92,2.37,5.74,3.41,2.92,1.7,5.91,3.34,8.85,4.89,2.8,1.48,5.74,2.96,8.96,4.53h.04s.04.03.04.03c1.02.5,2.05.97,3.07,1.45,4.09,1.91,8.27,3.73,12.45,5.41,2.04.84,4.19,1.67,6.37,2.5,2.21.83,4.38,1.61,6.45,2.33,10.84,3.77,22.15,6.89,33.6,9.28,2.25.48,4.59.93,6.94,1.36,9.42,1.71,19.03,2.94,28.61,3.69,2.15.16,4.37.31,6.83.44,4.75.26,9.53.38,14.26.38,66.15,0,130.1-24.58,180.05-69.21,50.1-44.77,81.79-105.92,89.22-172.18,8.13-72.51-13.75-145.66-60.29-203.08,6.42-9.45,15.76-23.04,24.46-35.61l11.24-16.24-16.17-11.35-21.18-14.86c16.39-18.43,32.38-23.81,64.45-24.87.33,0,.66-.02.98-.04-2.8,5.93-4.36,12.55-4.36,19.53v88.48c0,22.45,16.19,41.2,37.49,45.2v236.9c-20.82,4.38-36.5,22.9-36.5,45Z"/>
    <g>
      <path class="cls-4" d="M113.51,155.31H33.97v-53.26c0-28.78,23.41-52.2,52.2-52.2h652.14l7,12.08c.05.12.11.25.16.37.07.18.15.38.23.58-6.13,3.78-46.75,33.22-46.75,33.22,0,0,34.13,19.89,43.08,21.52-8.16,4.36-17.44,7.2-28.3,7.56-14.27.47-26.7,1.83-37.87,4.22H125.94c-3.42,0-6.52,1.39-8.78,3.65-.28.28-.55.58-.81.88-.25.31-.49.63-.72.95-.56.84-1.02,1.73-1.37,2.67-.35.95-.59,1.96-.7,3-.04.41-.06.84-.06,1.26v13.49Z"/>
      <path class="cls-4" d="M849.22,152.14v660.76c0,28.78-23.41,52.2-52.2,52.2H86.17c-28.78,0-52.2-23.41-52.2-52.2v-58.59h79.54v18.82c0,.43.02.86.06,1.26.11,1.04.35,2.05.7,3,.35.94.82,1.84,1.37,2.67.23.33.47.65.72.95.26.31.53.61.81.88.28.28.58.55.88.81.31.25.63.49.95.72.84.56,1.73,1.02,2.67,1.37.95.35,1.96.59,3,.7.41.04.84.06,1.26.06h631.32c.43,0,.86-.02,1.26-.06,1.04-.11,2.05-.35,3-.7.94-.35,1.84-.82,2.67-1.37.33-.23.65-.47.95-.72.31-.26.61-.53.88-.81,2.26-2.26,3.65-5.36,3.65-8.78v-18.82h16.98c.61,0,1.21-.02,1.81-.04h.26l.55-.03c.59-.04,1.16-.08,1.76-.14h.83l1.28-.25.27-.03.63-.12.43-.07c.59-.1,1.15-.21,1.74-.34.31-.06.68-.14,1.1-.25.29-.07.58-.14.86-.21l.21-.05.2-.06.33-.09.12-.03.07-.02c.2-.06.41-.12.61-.18.19-.05.38-.11.58-.17l.08-.03h.03s.03-.02.03-.02c.53-.16,1.05-.34,1.65-.55h.03s.03-.03.03-.03c.21-.07.41-.14.61-.22l.1-.03.32-.13c.62-.23,1.15-.46,1.6-.66.3-.12.56-.24.8-.35.51-.23,1-.46,1.49-.71.41-.2.82-.41,1.21-.63.24-.12.45-.24.63-.35.6-.31,1.17-.65,1.76-1.01.09-.06.19-.12.29-.18.38-.23.87-.55,1.43-.93.1-.06.21-.14.32-.22.39-.26.78-.53,1.16-.83.23-.17.49-.36.77-.58.35-.26.71-.55,1.06-.83l.12-.1.11-.1.07-.06c.43-.34.78-.65,1.03-.87.36-.32.72-.64,1.07-.97.46-.43.85-.82,1.15-1.13.05-.04.09-.08.13-.12.35-.35.7-.72,1.03-1.09.15-.16.27-.29.36-.39.6-.64,1.07-1.21,1.42-1.63.3-.37.59-.73.86-1.08l.35-.35.84-1.24c.17-.23.31-.45.45-.64.05-.08.11-.17.16-.24.37-.55.68-1.03.9-1.4.31-.49.61-.98.88-1.48.23-.41.46-.82.68-1.24.37-.68.65-1.24.82-1.6l.04-.07c.15-.31.4-.83.67-1.47.02-.03.03-.07.04-.1.17-.37.33-.75.48-1.12.25-.6.48-1.19.7-1.82.14-.4.27-.79.4-1.18.07-.23.14-.43.2-.61l.76-2.4v-.09l.5-1.51v-1.11c.05-.23.1-.5.14-.79,0-.04.02-.08.02-.12.06-.29.12-.66.17-1.07.02-.16.05-.34.07-.54.03-.24.08-.58.12-.98.03-.3.06-.61.09-.9.06-.65.09-1.16.11-1.45l.03-.56v-.11c.03-.63.04-1.27.04-1.9v-88.48c0-.64,0-1.27-.04-1.9v-.16l-.03-.59c-.02-.27-.05-.74-.11-1.33-.03-.32-.06-.64-.09-.95-.04-.4-.09-.74-.12-.97-.02-.2-.05-.38-.07-.54-.05-.43-.11-.79-.17-1.07,0-.05,0-.09-.02-.13-.04-.28-.09-.54-.13-.77v-1.11l-.51-1.52v-.09l-.75-2.35c-.06-.2-.13-.42-.21-.66-.13-.4-.26-.79-.4-1.18-.22-.63-.45-1.23-.7-1.82-.15-.38-.31-.76-.48-1.13,0-.03-.02-.06-.04-.09-.27-.66-.52-1.16-.67-1.47l-.04-.08c-.17-.36-.45-.92-.82-1.59-.22-.43-.45-.85-.68-1.24-.28-.51-.58-1-.88-1.48-.23-.38-.54-.86-.9-1.4-.05-.08-.11-.16-.17-.25-.13-.19-.27-.4-.43-.62l-.83-1.23-.36-.36c-.27-.36-.56-.72-.86-1.09-.35-.42-.83-.99-1.42-1.64-.1-.1-.22-.23-.36-.38-.34-.38-.69-.75-1.03-1.09l-.51-.51c-.27-.27-.55-.54-.84-.81-.34-.32-.68-.63-1.01-.91-.26-.23-.61-.54-1.03-.88l-.07-.06-.11-.09-.12-.1c-.36-.29-.72-.57-1.06-.84-.28-.22-.54-.41-.77-.58-.39-.29-.78-.56-1.16-.82-.11-.09-.22-.16-.32-.23-.56-.39-1.05-.7-1.43-.92-.1-.07-.2-.13-.29-.18-.59-.38-1.16-.71-1.76-1.02-.18-.1-.39-.22-.63-.35-.4-.21-.81-.42-1.21-.62-.49-.25-.98-.48-1.49-.71-.24-.11-.5-.23-.8-.36-.18-.08-.37-.16-.58-.25l-.96-.96-5.29-1.11-1.91-.52h-.47c-.36-.07-.72-.14-1.07-.2l-.43-.08-.63-.11-.25-.03-1.27-.25h-.86c-.6-.06-1.17-.11-1.76-.14l-.55-.03h-.26c-.6-.03-1.2-.04-1.81-.04h-16.98v-235.13h15.99c.61,0,1.21-.02,1.81-.04h.26l.55-.03c.59-.04,1.16-.08,1.76-.14h.83l1.28-.25.27-.03.63-.12.43-.07c.59-.1,1.15-.21,1.74-.34.31-.06.68-.14,1.1-.25.29-.07.58-.14.86-.21l.21-.05.2-.06.33-.09.12-.03.07-.02c.2-.06.41-.12.61-.18.19-.05.38-.11.58-.17l.08-.03h.03s.03-.02.03-.02c.53-.16,1.05-.34,1.65-.55h.03s.03-.03.03-.03c.21-.07.41-.14.61-.22l.1-.03.32-.13c.62-.23,1.15-.46,1.6-.66.3-.12.56-.24.8-.35.51-.23,1-.46,1.49-.71.41-.2.82-.41,1.21-.63.24-.12.45-.24.63-.35.6-.31,1.17-.65,1.76-1.01.09-.06.19-.12.29-.18.38-.23.87-.55,1.43-.93.1-.06.21-.14.32-.22.39-.26.78-.53,1.16-.83.23-.17.49-.36.77-.57.35-.27.71-.56,1.06-.84l.12-.1.11-.1.07-.06c.43-.34.78-.65,1.03-.87.36-.32.72-.64,1.07-.97.46-.43.85-.82,1.15-1.13.05-.04.09-.08.13-.12.35-.35.7-.72,1.03-1.09.15-.16.27-.29.36-.39.6-.64,1.07-1.21,1.42-1.63.3-.37.59-.73.86-1.08l.35-.35.84-1.24c.17-.23.31-.45.45-.64.05-.08.11-.17.16-.24.37-.55.68-1.03.9-1.4.31-.49.61-.98.88-1.48.23-.41.46-.82.68-1.24.37-.68.65-1.24.82-1.6l.04-.07c.15-.31.4-.83.67-1.47.02-.03.03-.07.04-.1.17-.37.33-.75.48-1.12.25-.6.48-1.19.7-1.82.14-.4.27-.79.4-1.18.07-.23.14-.43.2-.61l.76-2.4v-.09l.5-1.51v-1.11c.05-.23.1-.5.14-.79,0-.04.02-.08.02-.12.06-.29.12-.66.17-1.07.02-.16.05-.34.07-.54.03-.24.08-.58.12-.98.03-.3.06-.61.09-.9.06-.65.09-1.16.11-1.45l.03-.56v-.11c.03-.63.04-1.27.04-1.9v-64.65c3.37-19.09,13.16-74.61,13.65-76.88.34.07.71.15,1.1.24h.04s.04.02.04.02c.88.19,1.82.43,2.73.67Z"/>
      <rect class="cls-4" x="33.97" y="335.75" width="79.54" height="238.11"/>
    </g>
    <g id="funken">
      <path class="cls-2" d="M895.61,87.15c-14.31-4.92-32.9-8.57-35.34-22.15s16.28-43.35,2.62-34.69-25.66,18.19-32.75,15.51-13.68-33.73-16.34-43.51c-2.67-13.78-9.89,38.2-16.48,42.1s-37.5-13.58-46.11-17.39,16.11,32.6,14.48,42.28-25.19,20.79-35.41,23.46,11.91,2.85,25.7,7.96c6.47,2.4,11.3,5.97,12.42,11.32.41,1.93.39,4.19.08,6.61-.93,7.44-4.66,16.52-7.75,23.18-.65,1.4-1.27,2.69-1.83,3.84-2.76,5.63-11.74,6.04-11.74,6.04,0,0,20.22-6.31,30.1-12.47,6.3-3.93,11.49-5.33,15.87-4.9,11.64,1.12,19.86,27.15,24.62,37.34s8.48-39.03,17.49-43.53,29.5,5.06,41.94,10.39-23.65-26.99-18.71-36.27,51.47-10.19,37.16-15.11Z"/>
      <path class="cls-1" d="M818.2,131.14c.08,5.63-8.68-20.13-13.58-21.58-9.14-2.71-19.38,10.61-23.1,12.67s8.55-13.48,8-22.31-36.41-7.11-24.13-10.85,19.71-4.17,22.82-11.18c3.37-7.6-23.15-30.92-11.71-24.13s11.07,7.26,17.35,9.11c2.56.76,4.85,1.6,7.54.51,6.64-2.1,7.58-14.7,9.79-24.65s5.47,19.97,7.99,22.64c7.97,8.45,32.65-13.72,27.22-6.37s-11.66,15.84-10.49,20.51,31.52,10.4,21.84,11.39-21.09,2.29-22.16,6.64,7.59,14.3,12.37,20.1-19.19-9.76-25.84-4.83c-1.2.89-1.54,2.39-2.5,5.09s-1.49,11.62-1.41,17.25Z"/>
    </g>
    <g id="bombe">
      <path class="cls-4" d="M816.3,83.18c-4.3-3.41-10.56-2.69-13.97,1.62-1.52,1.92-3.12,3.99-4.8,6.16-17.15,22.23-40.64,52.68-83.15,54.08-51.79,1.7-78.77,15.84-107.87,57.51l-38.91-27.32-36.12,49.51c-3.5-1.32-7.01-2.57-10.54-3.73-1.28-.42-2.57-.83-3.85-1.23-9.33-2.91-18.75-5.22-28.2-6.96-1.43-.26-2.87-.52-4.3-.76-2.15-.36-4.3-.68-6.47-.98-1.43-.2-2.87-.38-4.3-.56-3.6-.44-7.19-.79-10.79-1.07-67.12-5.17-134.13,17.18-184.83,60.79-1.12.98-2.24,1.95-3.35,2.94-1.11,1-2.22,2-3.31,3-1.64,1.52-3.26,3.06-4.86,4.62-1.06,1.05-2.12,2.1-3.18,3.16-1.57,1.6-3.13,3.22-4.66,4.86-1.02,1.09-2.03,2.19-3.04,3.31-1.01,1.11-2.01,2.23-2.99,3.36-.99,1.13-1.96,2.28-2.94,3.43-9.66,11.54-18.37,24.06-25.93,37.49-34.24,60.89-40.26,127.07-24.68,186.69,1.53,5.87,3.27,11.67,5.22,17.41h0c.65,1.91,1.32,3.81,2.01,5.7.34.96.69,1.91,1.05,2.85.72,1.88,1.46,3.76,2.22,5.63.37.93.76,1.86,1.15,2.8.79,1.86,1.59,3.7,2.42,5.53h0c.82,1.85,1.67,3.66,2.53,5.49,9.54,19.98,21.67,38.71,36.09,55.62,8.52,9.99,17.82,19.35,27.86,27.95,3.08,2.64,6.24,5.22,9.47,7.73,1.21.94,2.42,1.87,3.65,2.79.61.46,1.22.9,1.85,1.36,1.23.9,2.48,1.81,3.74,2.69.62.45,1.25.89,1.88,1.32,1.26.87,2.54,1.73,3.83,2.59,1.28.84,2.57,1.69,3.86,2.52,1.31.83,2.62,1.64,3.94,2.45,1.76,1.08,3.53,2.14,5.33,3.17,2.68,1.56,5.4,3.06,8.16,4.51,2.75,1.46,5.54,2.86,8.36,4.23.94.45,1.89.9,2.83,1.33,3.79,1.77,7.63,3.45,11.54,5.02,1.95.8,3.93,1.57,5.91,2.31s3.97,1.47,5.98,2.16c10.05,3.49,20.44,6.37,31.15,8.6,2.13.45,4.29.87,6.45,1.27,8.67,1.57,17.53,2.72,26.57,3.42,2.12.16,4.25.3,6.39.42,131.92,6.98,247.92-91.76,262.68-223.38,8.17-72.87-16.55-145.43-65.41-199.33,3.54-5.91,32.99-48.45,32.99-48.45l-38.2-26.82c25.61-36.83,46.32-47.55,92.25-49.06,51.88-1.7,80.9-39.33,98.24-61.8,1.62-2.1,3.16-4.1,4.64-5.96,3.41-4.3,2.69-10.56-1.62-13.97Z"/>
      <path class="cls-3" d="M658.69,244.12c-6.97,10.09-27.57,39.96-30.66,45.06-26.25-28.42-59.05-50.87-96.24-64.84l4.3-5.9c28,13.81,59.06,22.62,92.09,25.17,10.28.79,20.46.96,30.5.53Z"/>
      <path class="cls-3" d="M654.91,324.56c30.69,48.32,44.99,106.07,38.49,164.01-14.76,131.61-130.76,230.36-262.68,223.37-2.14-.12-4.28-.25-6.39-.42-9.04-.7-17.9-1.85-26.57-3.42-2.17-.39-4.32-.82-6.45-1.27-10.71-2.23-21.1-5.1-31.15-8.6-2.01-.7-4.01-1.42-5.98-2.16s-3.95-1.51-5.91-2.31c-3.91-1.57-7.75-3.25-11.54-5.02-.95-.43-1.89-.88-2.83-1.33-2.82-1.37-5.61-2.77-8.36-4.23-2.76-1.45-5.48-2.95-8.16-4.51-1.79-1.03-3.56-2.09-5.33-3.17-1.32-.81-2.62-1.62-3.94-2.45-1.3-.83-2.59-1.68-3.86-2.52-1.29-.86-2.57-1.72-3.83-2.59-.63-.44-1.26-.88-1.88-1.32-1.25-.89-2.5-1.79-3.74-2.69-.63-.46-1.24-.9-1.85-1.36-1.23-.92-2.44-1.85-3.65-2.79-3.23-2.5-6.39-5.08-9.47-7.73-10.04-8.61-19.35-17.96-27.86-27.95-3.01-3.52-5.9-7.13-8.7-10.8,38.65,28.56,85.54,46.96,137,50.92,145.99,11.25,273.46-97.98,284.71-243.97,2.56-33.25-1.13-65.54-10.06-95.71Z"/>
      <path class="cls-7" d="M245.68,402.59c12.7,14.07,37.95-23.4,78.79-60.28,40.84-36.88,81.79-59.2,69.09-73.26-12.7-14.07-56.1,4.43-96.94,41.3-40.84,36.88-63.64,78.17-50.94,92.24Z"/>
      <circle class="cls-7" cx="435.33" cy="254.76" r="17.59"/>
    </g>
    <g id="nieten">
      <g>
        <circle class="cls-4" cx="155.19" cy="527.88" r="20.32"/>
        <path class="cls-3" d="M172.58,517.42c.38,1.59.6,3.24.6,4.94,0,11.77-9.54,21.31-21.31,21.31-5.42,0-10.35-2.04-14.11-5.37,3.55,5.93,10.02,9.91,17.43,9.91,11.22,0,20.32-9.1,20.32-20.32,0-3.83-1.08-7.41-2.93-10.46Z"/>
        <path class="cls-5" d="M139.59,527.62c1.4,1.33,3.68-2.68,7.56-6.76s7.87-6.68,6.47-8.01-5.68.89-9.55,4.97c-3.87,4.08-5.87,8.47-4.47,9.8Z"/>
      </g>
      <g>
        <circle class="cls-4" cx="155.19" cy="394.51" r="20.32"/>
        <path class="cls-3" d="M172.58,384.04c.38,1.59.6,3.24.6,4.94,0,11.77-9.54,21.31-21.31,21.31-5.42,0-10.35-2.04-14.11-5.37,3.55,5.93,10.02,9.91,17.43,9.91,11.22,0,20.32-9.1,20.32-20.32,0-3.83-1.08-7.41-2.93-10.46Z"/>
        <path class="cls-5" d="M139.59,394.25c1.4,1.33,3.68-2.68,7.56-6.76,3.87-4.08,7.87-6.68,6.47-8.01s-5.68.89-9.55,4.97c-3.87,4.08-5.87,8.47-4.47,9.8Z"/>
      </g>
      <g>
        <circle class="cls-4" cx="728.69" cy="527.88" r="20.32"/>
        <path class="cls-3" d="M746.08,517.42c.38,1.59.6,3.24.6,4.94,0,11.77-9.54,21.31-21.31,21.31-5.42,0-10.35-2.04-14.11-5.37,3.55,5.93,10.02,9.91,17.43,9.91,11.22,0,20.32-9.1,20.32-20.32,0-3.83-1.08-7.41-2.93-10.46Z"/>
        <path class="cls-5" d="M713.09,527.62c1.4,1.33,3.68-2.68,7.56-6.76s7.87-6.68,6.47-8.01-5.68.89-9.55,4.97-5.87,8.47-4.47,9.8Z"/>
      </g>
      <g>
        <circle class="cls-4" cx="728.69" cy="394.51" r="20.32"/>
        <path class="cls-3" d="M746.08,384.04c.38,1.59.6,3.24.6,4.94,0,11.77-9.54,21.31-21.31,21.31-5.42,0-10.35-2.04-14.11-5.37,3.55,5.93,10.02,9.91,17.43,9.91,11.22,0,20.32-9.1,20.32-20.32,0-3.83-1.08-7.41-2.93-10.46Z"/>
        <path class="cls-5" d="M713.09,394.25c1.4,1.33,3.68-2.68,7.56-6.76s7.87-6.68,6.47-8.01-5.68.89-9.55,4.97-5.87,8.47-4.47,9.8Z"/>
      </g>
      <g>
        <circle class="cls-4" cx="196.02" cy="744.39" r="20.32"/>
        <path class="cls-3" d="M213.41,733.93c.38,1.59.6,3.24.6,4.94,0,11.77-9.54,21.31-21.31,21.31-5.42,0-10.35-2.04-14.11-5.37,3.55,5.93,10.02,9.91,17.43,9.91,11.22,0,20.32-9.1,20.32-20.32,0-3.83-1.08-7.41-2.93-10.46Z"/>
        <path class="cls-5" d="M180.43,744.13c1.4,1.33,3.68-2.68,7.56-6.76s7.87-6.68,6.47-8.01-5.68.89-9.55,4.97c-3.87,4.08-5.87,8.47-4.47,9.8Z"/>
      </g>
      <g>
        <circle class="cls-4" cx="676.17" cy="744.39" r="20.32"/>
        <path class="cls-3" d="M693.57,733.93c.38,1.59.6,3.24.6,4.94,0,11.77-9.54,21.31-21.31,21.31-5.42,0-10.35-2.04-14.11-5.37,3.55,5.93,10.02,9.91,17.43,9.91,11.22,0,20.32-9.1,20.32-20.32,0-3.83-1.08-7.41-2.93-10.46Z"/>
        <path class="cls-5" d="M660.58,744.13c1.4,1.33,3.68-2.68,7.56-6.76s7.87-6.68,6.47-8.01-5.68.89-9.55,4.97c-3.87,4.08-5.87,8.47-4.47,9.8Z"/>
      </g>
      <g>
        <circle class="cls-4" cx="516.12" cy="744.39" r="20.32"/>
        <path class="cls-3" d="M533.52,733.93c.38,1.59.6,3.24.6,4.94,0,11.77-9.54,21.31-21.31,21.31-5.42,0-10.35-2.04-14.11-5.37,3.55,5.93,10.02,9.91,17.43,9.91,11.22,0,20.32-9.1,20.32-20.32,0-3.83-1.08-7.41-2.93-10.46Z"/>
        <path class="cls-5" d="M500.53,744.13c1.4,1.33,3.68-2.68,7.56-6.76,3.87-4.08,7.87-6.68,6.47-8.01s-5.68.89-9.55,4.97-5.87,8.47-4.47,9.8Z"/>
      </g>
      <g>
        <circle class="cls-4" cx="356.07" cy="744.39" r="20.32"/>
        <path class="cls-3" d="M373.46,733.93c.38,1.59.6,3.24.6,4.94,0,11.77-9.54,21.31-21.31,21.31-5.42,0-10.35-2.04-14.11-5.37,3.55,5.93,10.02,9.91,17.43,9.91,11.22,0,20.32-9.1,20.32-20.32,0-3.83-1.08-7.41-2.93-10.46Z"/>
        <path class="cls-5" d="M340.48,744.13c1.4,1.33,3.68-2.68,7.56-6.76s7.87-6.68,6.47-8.01-5.68.89-9.55,4.97c-3.87,4.08-5.87,8.47-4.47,9.8Z"/>
      </g>
      <g>
        <circle class="cls-4" cx="196.02" cy="175.05" r="20.32"/>
        <path class="cls-3" d="M213.41,164.58c.38,1.59.6,3.24.6,4.94,0,11.77-9.54,21.31-21.31,21.31-5.42,0-10.35-2.04-14.11-5.37,3.55,5.93,10.02,9.91,17.43,9.91,11.22,0,20.32-9.1,20.32-20.32,0-3.83-1.08-7.41-2.93-10.46Z"/>
        <path class="cls-5" d="M180.43,174.79c1.4,1.33,3.68-2.68,7.56-6.76s7.87-6.68,6.47-8.01-5.68.89-9.55,4.97-5.87,8.47-4.47,9.8Z"/>
      </g>
      <g>
        <circle class="cls-4" cx="356.07" cy="175.05" r="20.32"/>
        <path class="cls-3" d="M373.46,164.58c.38,1.59.6,3.24.6,4.94,0,11.77-9.54,21.31-21.31,21.31-5.42,0-10.35-2.04-14.11-5.37,3.55,5.93,10.02,9.91,17.43,9.91,11.22,0,20.32-9.1,20.32-20.32,0-3.83-1.08-7.41-2.93-10.46Z"/>
        <path class="cls-5" d="M340.48,174.79c1.4,1.33,3.68-2.68,7.56-6.76s7.87-6.68,6.47-8.01-5.68.89-9.55,4.97-5.87,8.47-4.47,9.8Z"/>
      </g>
      <g>
        <circle class="cls-4" cx="514.84" cy="175.05" r="20.32"/>
        <path class="cls-3" d="M532.23,164.58c.38,1.59.6,3.24.6,4.94,0,11.77-9.54,21.31-21.31,21.31-5.42,0-10.35-2.04-14.11-5.37,3.55,5.93,10.02,9.91,17.43,9.91,11.22,0,20.32-9.1,20.32-20.32,0-3.83-1.08-7.41-2.93-10.46Z"/>
        <path class="cls-5" d="M499.25,174.79c1.4,1.33,3.68-2.68,7.56-6.76,3.87-4.08,7.87-6.68,6.47-8.01s-5.68.89-9.55,4.97-5.87,8.47-4.47,9.8Z"/>
      </g>
    </g>
    <path class="cls-4" d="M143.26,619.85v88.48c0,.34,0,.68-.02,1,0,.18,0,.36-.03.53,0,.08,0,.16-.02.24,0,.3-.04.6-.07.88-.03.36-.08.72-.13,1.06,0,.02,0,.05,0,.07-.02.17-.05.33-.08.49-.05.33-.11.65-.18.96v.02c-.09.42-.18.84-.29,1.24-.08.3-.16.59-.25.88,0,0,0,.02,0,.03-.04.17-.1.33-.15.5,0,.02,0,.04-.02.06,0,.03-.02.06-.03.09t0,.02c-.11.35-.23.68-.36,1.01-.1.28-.21.56-.33.83-.03.11-.08.21-.13.32-.15.35-.31.7-.48,1.04-.09.19-.18.39-.3.58-.06.13-.12.26-.19.38-.07.13-.13.25-.21.38-.08.16-.17.31-.26.46-.14.25-.28.49-.44.72-.1.17-.21.34-.33.51-.1.17-.21.34-.34.51-.14.22-.3.43-.45.64-.06.09-.13.18-.19.26-.23.3-.46.59-.7.87-.27.33-.55.65-.83.95-.21.23-.42.46-.65.68l-.18.18s-.09.1-.14.15c-.14.14-.28.27-.42.4-.23.22-.47.44-.71.64-.03.03-.05.06-.08.08-.04.03-.07.06-.11.09-.24.21-.5.42-.75.62,0,.02-.03.03-.04.04-.03.02-.06.05-.09.07-.02,0-.03.03-.05.04-.02,0-.03.02-.05.04-.11.08-.22.16-.33.25-.11.08-.22.17-.33.25-.3.22-.61.44-.91.65s-.62.41-.92.6c-.3.18-.59.35-.88.51-.25.15-.5.29-.77.41,0,0,0,0,0,0-.09.06-.19.11-.3.15-.23.12-.47.24-.71.34-.15.07-.3.15-.46.21-.15.07-.3.14-.46.2-.04.02-.09.04-.13.05-.04.02-.07.03-.11.05-.22.1-.45.19-.68.27-.03,0-.06.02-.09.03,0,0-.02,0-.03,0-.39.15-.79.29-1.19.42h0c-.31.09-.63.19-.94.27-.02,0-.04,0-.06,0-.18.05-.36.09-.54.14-.3.08-.6.15-.9.21-.04,0-.09.02-.14.03-.32.07-.65.13-.97.18h-.03c-.13.03-.28.05-.41.07h-.02c-.34.05-.68.09-1.01.12-.03,0-.05,0-.08,0-.24.03-.49.05-.73.06-.12,0-.25.03-.38.03-.13,0-.26.02-.38.02-.38.02-.76.03-1.14.03H26.1c-.37,0-.74,0-1.09-.02-.03,0-.07,0-.1,0-.12,0-.23,0-.35-.02h-.07c-.35-.02-.7-.05-1.04-.09-.31-.03-.62-.07-.92-.11-.04,0-.08,0-.12-.02-.17-.02-.33-.05-.5-.08-.03,0-.07,0-.1,0-.32-.05-.64-.11-.94-.18-.37-.07-.74-.16-1.09-.25-.05,0-.1-.03-.15-.04-.02,0-.04,0-.05,0-.28-.07-.56-.15-.84-.23-.3-.09-.6-.18-.88-.29-.58-.19-1.14-.4-1.7-.64-.18-.07-.36-.15-.54-.24-.52-.22-1.02-.47-1.52-.73-.02,0-.03-.02-.05-.03-.21-.11-.42-.22-.63-.34-.18-.1-.36-.2-.54-.31-.18-.1-.35-.21-.52-.32-.36-.22-.7-.44-1.03-.68-.16-.11-.32-.22-.48-.34-.16-.11-.32-.23-.47-.35-.48-.36-.94-.74-1.39-1.13-.2-.17-.41-.35-.6-.53l-.02-.02c-.22-.2-.43-.41-.64-.62-.15-.15-.3-.3-.44-.45-.09-.09-.18-.18-.27-.28-.16-.16-.31-.33-.46-.5-.21-.24-.41-.48-.62-.72-.23-.29-.46-.58-.69-.87-.05-.07-.11-.14-.16-.21-.22-.29-.43-.6-.64-.9-.03-.04-.06-.09-.09-.13-.2-.29-.39-.6-.58-.9-.17-.27-.33-.55-.48-.83-.1-.15-.18-.31-.26-.47-.02-.02-.03-.04-.04-.07-.16-.29-.31-.59-.45-.88-.14-.29-.28-.59-.41-.89-.08-.16-.15-.34-.22-.51-.26-.63-.5-1.26-.71-1.92-.05-.15-.1-.3-.14-.45-.11-.34-.2-.68-.29-1.01-.11-.42-.21-.84-.29-1.26-.08-.37-.15-.74-.21-1.11,0-.08-.03-.16-.04-.24-.06-.41-.11-.82-.15-1.23-.03-.3-.06-.6-.08-.9,0-.04,0-.09,0-.13v-.1c0-.1-.02-.2-.02-.31,0-.03,0-.07,0-.1v-.15c0-.32-.02-.64-.02-.96v-88.48c0-.33,0-.65.02-.96v-.15s0-.07,0-.1c0-.11,0-.21.02-.31v-.1s0-.09,0-.13c.02-.31.05-.61.08-.9.04-.42.09-.83.15-1.23,0-.08.03-.16.04-.24.06-.38.13-.75.21-1.11.08-.43.18-.85.29-1.26.09-.34.18-.68.29-1.01.04-.15.09-.3.14-.45.21-.66.45-1.29.71-1.92.07-.17.14-.35.22-.51.13-.31.27-.61.41-.89.14-.3.29-.6.45-.88,0-.03.02-.05.04-.07.08-.16.16-.32.26-.47.15-.28.31-.56.48-.83.19-.31.38-.62.58-.9.03-.04.06-.09.09-.13.21-.31.42-.62.64-.9.05-.07.11-.14.16-.21.23-.3.46-.59.69-.87.21-.24.41-.48.62-.72.15-.17.3-.34.46-.5.09-.1.18-.19.27-.28.14-.15.29-.3.44-.45.21-.21.42-.42.64-.62t.02-.02c.19-.18.4-.36.6-.53.45-.4.91-.78,1.39-1.13.15-.12.31-.24.47-.35.16-.12.32-.23.48-.34.34-.24.68-.46,1.03-.68.17-.11.34-.22.52-.32.18-.11.36-.21.54-.31.21-.12.42-.23.63-.34.02,0,.03-.02.05-.03.5-.26,1-.51,1.52-.73.18-.09.36-.17.54-.24.56-.24,1.12-.45,1.7-.64.29-.11.59-.2.88-.29.28-.08.56-.16.84-.23,0,0,.03,0,.05,0,.05,0,.1-.03.15-.04.36-.09.73-.18,1.09-.25.31-.07.63-.13.94-.18.03,0,.07,0,.1,0,.17-.03.33-.06.5-.08.04,0,.08-.02.12-.02.31-.04.62-.08.92-.11.35-.04.7-.07,1.04-.09h.07c.12,0,.23-.02.35-.02.03,0,.07,0,.1,0,.36,0,.73-.02,1.09-.02h91.06c.39,0,.77,0,1.14.03.12,0,.25,0,.38.02.13,0,.26.02.38.03.24,0,.49.03.73.06.03,0,.05,0,.08,0,.34.03.68.07,1.01.12h.02c.13.02.28.04.41.07h.03c.33.05.66.11.97.18.05,0,.1.02.14.03.31.06.61.13.9.21.18.05.36.09.54.14.02,0,.04,0,.06,0,.32.08.63.18.94.27h0c.41.13.81.27,1.19.42,0,0,.02,0,.03,0,.03,0,.06.02.09.03.23.09.46.17.68.27.04.02.07.03.11.05.04,0,.09.03.13.05.14.05.27.11.4.17.07.02.13.05.19.08.12.05.23.1.33.16.24.1.48.22.71.34.11.04.21.09.3.15,0,0,0,0,0,0,.27.12.52.26.77.41.3.16.59.33.88.51.31.19.62.39.92.6.31.21.62.43.91.65.11.08.22.17.33.25.11.09.22.17.33.25.02.02.03.03.05.04.02,0,.03.03.05.04.03.02.06.05.09.07,0,0,.03.02.04.04.25.2.51.41.75.62.04.03.07.06.11.09.03.02.05.05.08.08.24.2.48.42.71.64.14.13.28.26.42.4.05.05.1.1.14.15l.18.18c.23.22.44.45.65.68.28.31.56.63.83.95.24.29.47.58.7.87.06.08.13.17.19.26.15.21.31.42.45.64.13.17.24.34.34.51.12.17.23.34.33.51.16.23.3.47.44.72.09.15.18.3.26.46.08.13.14.25.21.38.07.12.13.25.19.38.02.04.04.07.06.11.09.16.17.32.24.47.17.35.33.7.48,1.04.05.11.1.21.13.32.12.27.23.55.33.83.13.34.25.67.36,1.01t0,.02s.02.06.03.09c0,.02,0,.04.02.06.05.17.11.33.15.5,0,0,0,.02,0,.03.09.3.17.59.25.88.11.41.2.83.29,1.24v.02c.07.32.13.64.18.96.03.16.06.32.08.49,0,.02,0,.05,0,.07.05.35.1.71.13,1.06.03.29.06.59.07.88.02.08.02.16.02.24,0,.09,0,.18.02.26,0,.09,0,.18,0,.27,0,.33.02.67.02,1Z"/>
    <path class="cls-7" d="M77.44,607.52c-3.98,1.98-43.85,5.35-50.67,22.17s-14.2,82.49-15.57,68.81c-.43-12.17-1.01-58.21-1.01-58.21,0-20.74,16.96-37.71,37.71-37.71l28.26.04c.11,0,5.26,2.92,1.28,4.9Z"/>
    <path class="cls-3" d="M64.64,719.9c3.98-1.98,43.85-5.35,50.67-22.17,6.83-16.82,14.2-82.49,15.57-68.81.43,12.17,1.01,58.21,1.01,58.21,0,20.74-16.96,37.71-37.71,37.71l-28.26-.04c-.11,0-5.26-2.92-1.28-4.9Z"/>
    <path class="cls-4" d="M143.26,201.29v88.48c0,.34,0,.68-.02,1,0,.18,0,.36-.03.53,0,.08,0,.16-.02.24,0,.3-.04.6-.07.88-.03.36-.08.72-.13,1.06,0,.02,0,.05,0,.07-.02.17-.05.33-.08.49-.05.33-.11.65-.18.96v.02c-.09.42-.18.84-.29,1.24-.08.3-.16.59-.25.88,0,0,0,.02,0,.03-.04.17-.1.33-.15.5,0,.02,0,.04-.02.06,0,.03-.02.06-.03.09t0,.02c-.11.35-.23.68-.36,1.01-.1.28-.21.56-.33.83-.03.11-.08.21-.13.32-.15.35-.31.7-.48,1.04-.09.19-.18.39-.3.58-.06.13-.12.26-.19.38-.07.13-.13.25-.21.38-.08.16-.17.31-.26.46-.14.25-.28.49-.44.72-.1.17-.21.34-.33.51-.1.17-.21.34-.34.51-.14.22-.3.43-.45.64-.06.09-.13.18-.19.26-.23.3-.46.59-.7.87-.27.33-.55.65-.83.95-.21.23-.42.46-.65.68l-.18.18s-.09.1-.14.15c-.14.14-.28.27-.42.4-.23.22-.47.44-.71.64-.03.03-.05.06-.08.08-.04.03-.07.06-.11.09-.24.21-.5.42-.75.62,0,.02-.03.03-.04.04-.03.02-.06.05-.09.07-.02,0-.03.03-.05.04-.02,0-.03.02-.05.04-.11.08-.22.16-.33.25-.11.08-.22.17-.33.25-.3.22-.61.44-.91.65s-.62.41-.92.6c-.3.18-.59.35-.88.51-.25.15-.5.29-.77.41,0,0,0,0,0,0-.09.06-.19.11-.3.15-.23.12-.47.24-.71.34-.15.07-.3.15-.46.21-.15.07-.3.14-.46.2-.04.02-.09.04-.13.05-.04.02-.07.03-.11.05-.22.1-.45.19-.68.27-.03,0-.06.02-.09.03,0,0-.02,0-.03,0-.39.15-.79.29-1.19.42h0c-.31.09-.63.19-.94.27-.02,0-.04,0-.06,0-.18.05-.36.09-.54.14-.3.08-.6.15-.9.21-.04,0-.09.02-.14.03-.32.07-.65.13-.97.18h-.03c-.13.03-.28.05-.41.07h-.02c-.34.05-.68.09-1.01.12-.03,0-.05,0-.08,0-.24.03-.49.05-.73.06-.12,0-.25.03-.38.03-.13,0-.26.02-.38.02-.38.02-.76.03-1.14.03H26.1c-.37,0-.74,0-1.09-.02-.03,0-.07,0-.1,0-.12,0-.23,0-.35-.02h-.07c-.35-.02-.7-.05-1.04-.09-.31-.03-.62-.07-.92-.11-.04,0-.08,0-.12-.02-.17-.02-.33-.05-.5-.08-.03,0-.07,0-.1,0-.32-.05-.64-.11-.94-.18-.37-.07-.74-.16-1.09-.25-.05,0-.1-.03-.15-.04-.02,0-.04,0-.05,0-.28-.07-.56-.15-.84-.23-.3-.09-.6-.18-.88-.29-.58-.19-1.14-.4-1.7-.64-.18-.07-.36-.15-.54-.24-.52-.22-1.02-.47-1.52-.73-.02,0-.03-.02-.05-.03-.21-.11-.42-.22-.63-.34-.18-.1-.36-.2-.54-.31-.18-.1-.35-.21-.52-.32-.36-.22-.7-.44-1.03-.68-.16-.11-.32-.22-.48-.34-.16-.11-.32-.23-.47-.35-.48-.36-.94-.74-1.39-1.13-.2-.17-.41-.35-.6-.53l-.02-.02c-.22-.2-.43-.41-.64-.62-.15-.15-.3-.3-.44-.45-.09-.09-.18-.18-.27-.28-.16-.16-.31-.33-.46-.5-.21-.24-.41-.48-.62-.72-.23-.29-.46-.58-.69-.87-.05-.07-.11-.14-.16-.21-.22-.29-.43-.6-.64-.9-.03-.04-.06-.09-.09-.13-.2-.29-.39-.6-.58-.9-.17-.27-.33-.55-.48-.83-.1-.15-.18-.31-.26-.47-.02-.02-.03-.04-.04-.07-.16-.29-.31-.59-.45-.88-.14-.29-.28-.59-.41-.89-.08-.16-.15-.34-.22-.51-.26-.63-.5-1.26-.71-1.92-.05-.15-.1-.3-.14-.45-.11-.34-.2-.68-.29-1.01-.11-.42-.21-.84-.29-1.26-.08-.37-.15-.74-.21-1.11,0-.08-.03-.16-.04-.24-.06-.41-.11-.82-.15-1.23-.03-.3-.06-.6-.08-.9,0-.04,0-.09,0-.13v-.1c0-.1-.02-.2-.02-.31,0-.03,0-.07,0-.1v-.15c0-.32-.02-.64-.02-.96v-88.48c0-.33,0-.65.02-.96v-.15s0-.07,0-.1c0-.11,0-.21.02-.31v-.1s0-.09,0-.13c.02-.31.05-.61.08-.9.04-.42.09-.83.15-1.23,0-.08.03-.16.04-.24.06-.38.13-.75.21-1.11.08-.43.18-.85.29-1.26.09-.34.18-.68.29-1.01.04-.15.09-.3.14-.45.21-.66.45-1.29.71-1.92.07-.17.14-.35.22-.51.13-.31.27-.61.41-.89.14-.3.29-.6.45-.88,0-.03.02-.05.04-.07.08-.16.16-.32.26-.47.15-.28.31-.56.48-.83.19-.31.38-.62.58-.9.03-.04.06-.09.09-.13.21-.31.42-.62.64-.9.05-.07.11-.14.16-.21.23-.3.46-.59.69-.87.21-.24.41-.48.62-.72.15-.17.3-.34.46-.5.09-.1.18-.19.27-.28.14-.15.29-.3.44-.45.21-.21.42-.42.64-.62t.02-.02c.19-.18.4-.36.6-.53.45-.4.91-.78,1.39-1.13.15-.12.31-.24.47-.35.16-.12.32-.23.48-.34.34-.24.68-.46,1.03-.68.17-.11.34-.22.52-.32.18-.11.36-.21.54-.31.21-.12.42-.23.63-.34.02,0,.03-.02.05-.03.5-.26,1-.51,1.52-.73.18-.09.36-.17.54-.24.56-.24,1.12-.45,1.7-.64.29-.11.59-.2.88-.29.28-.08.56-.16.84-.23,0,0,.03,0,.05,0,.05,0,.1-.03.15-.04.36-.09.73-.18,1.09-.25.31-.07.63-.13.94-.18.03,0,.07,0,.1,0,.17-.03.33-.06.5-.08.04,0,.08-.02.12-.02.31-.04.62-.08.92-.11.35-.04.7-.07,1.04-.09h.07c.12,0,.23-.02.35-.02.03,0,.07,0,.1,0,.36,0,.73-.02,1.09-.02h91.06c.39,0,.77,0,1.14.03.12,0,.25,0,.38.02.13,0,.26.02.38.03.24,0,.49.03.73.06.03,0,.05,0,.08,0,.34.03.68.07,1.01.12h.02c.13.02.28.04.41.07h.03c.33.05.66.11.97.18.05,0,.1.02.14.03.31.06.61.13.9.21.18.05.36.09.54.14.02,0,.04,0,.06,0,.32.08.63.18.94.27h0c.41.13.81.27,1.19.42,0,0,.02,0,.03,0,.03,0,.06.02.09.03.23.09.46.17.68.27.04.02.07.03.11.05.04,0,.09.03.13.05.14.05.27.11.4.17.07.02.13.05.19.08.12.05.23.1.33.16.24.1.48.22.71.34.11.04.21.09.3.15,0,0,0,0,0,0,.27.12.52.26.77.41.3.16.59.33.88.51.31.19.62.39.92.6.31.21.62.43.91.65.11.08.22.17.33.25.11.09.22.17.33.25.02.02.03.03.05.04.02,0,.03.03.05.04.03.02.06.05.09.07,0,0,.03.02.04.04.25.2.51.41.75.62.04.03.07.06.11.09.03.02.05.05.08.08.24.2.48.42.71.64.14.13.28.26.42.4.05.05.1.1.14.15l.18.18c.23.22.44.45.65.68.28.31.56.63.83.95.24.29.47.58.7.87.06.08.13.17.19.26.15.21.31.42.45.64.13.17.24.34.34.51.12.17.23.34.33.51.16.23.3.47.44.72.09.15.18.3.26.46.08.13.14.25.21.38.07.12.13.25.19.38.02.04.04.07.06.11.09.16.17.32.24.47.17.35.33.7.48,1.04.05.11.1.21.13.32.12.27.23.55.33.83.13.34.25.67.36,1.01t0,.02s.02.06.03.09c0,.02,0,.04.02.06.05.17.11.33.15.5,0,0,0,.02,0,.03.09.3.17.59.25.88.11.41.2.83.29,1.24v.02c.07.32.13.64.18.96.03.16.06.32.08.49,0,.02,0,.05,0,.07.05.35.1.71.13,1.06.03.29.06.59.07.88.02.08.02.16.02.24,0,.09,0,.18.02.26,0,.09,0,.18,0,.27,0,.33.02.67.02,1Z"/>
    <path class="cls-7" d="M77.44,189.34c-3.98,1.98-43.85,5.35-50.67,22.17-6.83,16.82-14.2,82.49-15.57,68.81-.43-12.17-1.01-58.21-1.01-58.21,0-20.74,16.96-37.71,37.71-37.71l28.26.04c.11,0,5.26,2.92,1.28,4.9Z"/>
    <path class="cls-3" d="M64.64,301.72c3.98-1.98,43.85-5.35,50.67-22.17,6.83-16.82,14.2-82.49,15.57-68.81.43,12.17,1.01,58.21,1.01,58.21,0,20.74-16.96,37.71-37.71,37.71l-28.26-.04c-.11,0-5.26-2.92-1.28-4.9Z"/>
    <path class="cls-4" d="M811.77,204.27v88.48c0,.42,0,.83-.03,1.23,0,.08,0,.15,0,.23,0,.18-.02.36-.04.53,0,.05,0,.09-.02.14,0,.22-.03.44-.06.65-.02.25-.05.49-.08.73,0,.09-.03.18-.04.27,0,.12-.03.23-.05.34-.02.12-.04.23-.06.34-.03.24-.08.47-.13.7,0,.09-.03.18-.06.26,0,.04,0,.07-.02.11-.05.27-.11.53-.18.79,0,0,0,.03,0,.04-.06.25-.12.48-.2.72,0,.07-.03.14-.05.21,0,.05-.03.1-.05.15-.06.21-.12.42-.2.64h0c-.07.23-.14.44-.22.66-.12.35-.25.69-.4,1.02-.07.2-.15.39-.24.57-.02.06-.05.13-.08.19-.11.28-.24.54-.37.81-.13.27-.26.54-.41.81-.02.03-.03.06-.05.09-.12.24-.25.48-.4.72-.13.25-.27.49-.42.72-.18.29-.36.58-.55.86-.02.03-.05.07-.07.1-.11.16-.22.33-.34.48,0,0-.02.03-.03.04-.18.26-.37.51-.56.76-.18.25-.38.5-.58.74-.21.26-.42.51-.65.75-.12.13-.24.27-.37.4-.03.03-.06.07-.09.1-.13.15-.28.31-.43.45-.02.03-.05.05-.07.07-.25.26-.5.51-.76.74-.16.16-.33.32-.51.47-.19.17-.38.34-.58.5l-.18.15c-.26.21-.53.42-.8.62-.09.08-.18.14-.27.2-.23.18-.46.35-.7.5-.09.07-.18.13-.27.19-.27.19-.55.36-.83.53-.07.05-.14.09-.21.13-.03.02-.06.04-.09.06-.17.11-.34.21-.52.3-.03.02-.07.03-.1.05-.19.11-.38.22-.58.32-.19.11-.39.21-.59.3-.32.17-.64.32-.96.46-.1.05-.2.1-.31.14-.29.13-.59.26-.89.37-.03,0-.05.02-.08.03-.22.09-.44.17-.66.25-.25.09-.51.18-.77.26-.23.07-.45.14-.68.2-.07.03-.15.05-.22.07-.11.03-.22.06-.33.09-.24.06-.49.12-.74.18-.16.04-.31.07-.47.1-.35.08-.7.15-1.05.21-.17.03-.34.06-.51.09-.18.02-.35.05-.52.07-.05,0-.09,0-.14.02h-.03c-.22.03-.44.06-.66.08-.36.04-.71.07-1.06.09h-.07c-.11,0-.21,0-.32,0-.37.02-.75.03-1.12.03h-27.38c-.36,0-.71,0-1.06-.02-.17,0-.35-.02-.52-.03-.36-.02-.72-.05-1.07-.09-.32-.03-.64-.07-.94-.12-.2-.02-.4-.05-.6-.09-.06,0-.11-.02-.17-.03-.29-.04-.59-.09-.87-.16-.41-.08-.82-.17-1.22-.28-.34-.09-.69-.18-1.02-.29-.3-.09-.58-.18-.87-.29,0,0-.03,0-.04,0-.03,0-.06-.02-.09-.03s-.05-.02-.08-.03c-.21-.07-.42-.15-.63-.23-.19-.07-.37-.14-.56-.22-.21-.08-.42-.17-.62-.26-.62-.27-1.22-.56-1.81-.87-.3-.16-.59-.32-.87-.49-.23-.13-.46-.27-.67-.4-.03-.02-.05-.03-.08-.05-.61-.38-1.18-.78-1.75-1.2-.16-.11-.31-.23-.45-.35-.38-.29-.75-.59-1.1-.9-.12-.1-.22-.19-.33-.29s-.22-.2-.33-.3c-.1-.09-.19-.18-.29-.28-.18-.16-.35-.33-.51-.5-.44-.44-.86-.89-1.25-1.37-.32-.35-.61-.72-.88-1.08-.13-.16-.26-.33-.38-.5-.4-.54-.77-1.08-1.11-1.65-.14-.23-.28-.46-.41-.69-.16-.27-.31-.54-.46-.82-.15-.27-.29-.56-.43-.84-.02-.04-.05-.09-.06-.13-.13-.26-.25-.52-.36-.78,0,0,0-.02,0-.03-.08-.17-.16-.34-.22-.52,0,0-.02-.02-.02-.03-.13-.31-.25-.62-.37-.92-.11-.31-.22-.62-.32-.93-.05-.17-.11-.34-.16-.51-.02-.05-.03-.1-.05-.15-.09-.31-.18-.63-.26-.95-.1-.39-.19-.78-.27-1.17-.08-.37-.15-.75-.21-1.12-.02-.13-.04-.26-.06-.39,0-.03,0-.05,0-.08-.05-.31-.08-.62-.11-.92,0-.05,0-.1-.02-.15-.03-.25-.05-.5-.06-.75v-.03c-.02-.22-.03-.44-.04-.65-.02-.39-.03-.77-.03-1.15v-88.48c0-.39,0-.77.03-1.15,0-.21.02-.43.04-.65v-.03c0-.25.03-.5.06-.75,0-.05,0-.1.02-.15.03-.31.06-.62.11-.92,0-.03,0-.05,0-.08.02-.13.04-.26.06-.39.06-.38.13-.76.21-1.12.08-.4.17-.79.27-1.17.08-.33.17-.65.26-.95.02-.05.03-.1.05-.15.05-.17.11-.34.16-.51.1-.32.21-.63.32-.93.12-.31.24-.62.37-.92,0,0,0-.02.02-.03.06-.18.14-.35.22-.52,0,0,0-.02,0-.03.11-.26.23-.52.36-.78,0-.04.04-.09.06-.13.14-.28.28-.57.43-.84.15-.28.3-.55.46-.82.13-.23.27-.46.41-.69.35-.57.72-1.11,1.11-1.65.12-.17.25-.34.38-.5.28-.37.57-.74.88-1.08.4-.48.82-.93,1.25-1.37.17-.17.34-.34.51-.5.1-.1.19-.19.29-.28.11-.1.22-.2.33-.3.11-.1.21-.19.33-.29.36-.32.73-.62,1.1-.9.14-.12.29-.24.45-.35.57-.43,1.14-.83,1.75-1.2.03-.02.05-.03.08-.05.21-.13.44-.27.67-.4.29-.17.58-.33.87-.49.59-.32,1.19-.61,1.81-.87.2-.09.41-.18.62-.26.19-.08.37-.15.56-.22.21-.08.42-.16.63-.23.03,0,.05-.02.08-.03s.06-.02.09-.03c0,0,.03,0,.04,0,.3-.11.58-.2.87-.29.34-.11.69-.2,1.02-.29.4-.1.81-.2,1.22-.28.29-.06.58-.12.87-.16.06,0,.11-.02.17-.03.2-.04.4-.07.6-.09.31-.05.63-.09.94-.12.36-.04.72-.07,1.07-.09.17,0,.35-.02.52-.03.36,0,.71-.02,1.06-.02h27.38c.38,0,.76,0,1.12.03.11,0,.21,0,.32,0h.07c.36.02.71.05,1.06.09.22.02.44.05.66.08h.03s.09,0,.14.02c.17.02.34.05.52.07.17.03.34.06.51.09.36.06.71.13,1.05.21.16.03.31.06.47.1.05,0,.09.02.14.03.2.05.39.1.58.14t.02,0c.11.03.22.06.33.09.07.02.15.04.22.07.23.06.45.13.68.2.26.08.52.17.77.26.22.08.44.16.66.25.03,0,.05.02.08.03.31.11.61.24.89.37.11.04.21.09.31.14.33.14.65.29.96.46.2.09.4.19.59.3.2.1.39.21.58.32.03.02.07.03.1.05.18.09.35.19.52.3.03.02.06.04.09.06.07.04.14.08.21.13.28.17.56.34.83.53.09.06.18.12.27.19.24.15.47.32.7.5.09.06.18.12.27.2.27.2.54.41.8.62l.18.15c.2.16.39.33.58.5.18.15.35.31.51.47.15.13.3.27.44.42.11.1.22.21.32.32.02.02.05.04.07.07.15.14.3.3.43.45.03.03.06.07.09.1.13.13.25.27.37.4.23.24.44.49.65.75.2.24.4.49.58.74.19.25.38.5.56.76,0,0,.02.03.03.04.12.15.23.32.34.48.02.03.05.07.07.1.19.28.37.57.55.86.15.23.29.47.42.72.15.24.28.48.4.72.02.03.03.06.05.09.15.27.28.54.41.81.13.27.26.53.37.81.03.06.06.13.08.19.09.18.17.37.24.57.15.34.28.68.4,1.02.08.22.15.43.22.65h0c.08.23.14.44.2.65.02.05.04.1.05.15.02.07.04.14.05.21.08.24.14.47.2.72,0,0,0,.03,0,.04.07.26.13.52.18.79,0,.04,0,.07.02.11.03.08.05.17.06.26.05.23.1.46.13.7.02.11.04.22.06.34.02.11.04.22.05.34,0,.09.03.18.04.27.03.24.06.48.08.73.03.21.05.43.06.65,0,.05,0,.1.02.15.02.17.03.34.04.51,0,.08,0,.16,0,.24.02.41.03.82.03,1.23Z"/>
    <path class="cls-7" d="M789.14,187.6c-2.75,1.37-30.35,3.7-35.07,15.34s-9.83,57.1-10.77,47.63c-.3-8.43-.7-40.28-.7-40.28,0-14.36,11.74-26.1,26.1-26.1l19.56.03c.08,0,3.64,2.02.88,3.39Z"/>
    <path class="cls-3" d="M763.59,309.42c2.75-1.37,30.35-3.7,35.07-15.34s9.83-57.1,10.77-47.63c.3,8.43.7,40.28.7,40.28,0,14.36-11.74,26.1-26.1,26.1l-19.56-.03c-.08,0-3.64-2.02-.88-3.39Z"/>
    <path class="cls-4" d="M812.76,619.85v88.48c0,.42,0,.83-.03,1.23,0,.08,0,.15,0,.23,0,.18-.02.36-.04.53,0,.05,0,.09-.02.14,0,.22-.03.44-.06.65-.02.25-.05.49-.08.73,0,.09-.03.18-.04.27,0,.12-.03.23-.05.34-.02.12-.04.23-.06.34-.03.24-.08.47-.13.7,0,.09-.03.18-.06.26,0,.04,0,.07-.02.11-.05.27-.11.53-.18.79,0,0,0,.03,0,.04-.06.25-.12.48-.2.72,0,.07-.03.14-.05.21,0,.05-.03.1-.05.15-.06.21-.12.42-.2.64h0c-.07.23-.14.44-.22.66-.12.35-.25.69-.4,1.02-.07.2-.15.39-.24.57-.02.06-.05.13-.08.19-.11.28-.24.54-.37.81-.13.27-.26.54-.41.81-.02.03-.03.06-.05.09-.12.24-.25.48-.4.72-.13.25-.27.49-.42.72-.18.29-.36.58-.55.86-.02.03-.05.07-.07.1-.11.16-.22.33-.34.48,0,0-.02.03-.03.04-.18.26-.37.51-.56.76-.18.25-.38.5-.58.74-.21.26-.42.51-.65.75-.12.13-.24.27-.37.4-.03.03-.06.07-.09.1-.13.15-.28.31-.43.45-.02.03-.05.05-.07.07-.25.26-.5.51-.76.74-.16.16-.33.32-.51.47-.19.17-.38.34-.58.5l-.18.15c-.26.21-.53.42-.8.62-.09.08-.18.14-.27.2-.23.18-.46.35-.7.5-.09.07-.18.13-.27.19-.27.19-.55.36-.83.53-.07.05-.14.09-.21.13-.03.02-.06.04-.09.06-.17.11-.34.21-.52.3-.03.02-.07.03-.1.05-.19.11-.38.22-.58.32-.19.11-.39.21-.59.3-.32.17-.64.32-.96.46-.1.05-.2.1-.31.14-.29.13-.59.26-.89.37-.03,0-.05.02-.08.03-.22.09-.44.17-.66.25-.25.09-.51.18-.77.26-.23.07-.45.14-.68.2-.07.03-.15.05-.22.07-.11.03-.22.06-.33.09-.24.06-.49.12-.74.18-.16.04-.31.07-.47.1-.35.08-.7.15-1.05.21-.17.03-.34.06-.51.09-.18.02-.35.05-.52.07-.05,0-.09,0-.14.02h-.03c-.22.03-.44.06-.66.08-.36.04-.71.07-1.06.09h-.07c-.11,0-.21,0-.32,0-.37.02-.75.03-1.12.03h-27.38c-.42,0-.84,0-1.24-.03-.26,0-.52-.03-.77-.06-.25,0-.5-.03-.74-.06-.37-.03-.73-.08-1.08-.13-.23-.04-.46-.08-.68-.12-.31-.05-.62-.11-.92-.18-.32-.06-.64-.14-.94-.22-.08-.02-.16-.04-.24-.06-.23-.06-.46-.13-.68-.19-.03,0-.06-.02-.09-.03-.16-.05-.33-.1-.5-.15-.16-.06-.32-.11-.49-.17,0,0-.02,0-.03,0-.33-.11-.66-.23-.98-.36-.04,0-.07-.03-.11-.04-.05-.02-.09-.04-.14-.06-.26-.1-.51-.21-.77-.32-.6-.26-1.17-.54-1.75-.85-.29-.15-.57-.31-.85-.47-.28-.16-.56-.33-.83-.5h0c-.25-.16-.5-.32-.75-.49-.59-.4-1.16-.83-1.73-1.28-.17-.14-.35-.27-.51-.42-.02,0-.03-.03-.05-.04-.05-.04-.11-.09-.16-.14l-.02-.02c-.21-.17-.41-.35-.61-.54-.62-.56-1.2-1.15-1.77-1.78-.2-.22-.39-.45-.58-.68h0s-.07-.09-.1-.13c-.29-.34-.56-.69-.83-1.04,0-.02-.02-.03-.04-.05-.23-.31-.45-.63-.67-.94-.24-.35-.47-.71-.69-1.06-.22-.36-.43-.72-.63-1.08,0,0,0-.02-.02-.03-.19-.37-.38-.73-.56-1.1-.16-.31-.3-.63-.44-.95-.05-.11-.1-.21-.14-.32-.13-.31-.26-.63-.37-.93-.15-.39-.28-.78-.41-1.17-.05-.15-.1-.31-.15-.47,0-.02,0-.03,0-.05-.07-.24-.14-.49-.21-.73,0-.05-.03-.11-.04-.16-.11-.42-.21-.84-.29-1.26-.07-.32-.13-.64-.18-.96-.02-.08-.03-.15-.04-.23-.03-.16-.05-.33-.07-.5h0s0-.06,0-.08c-.04-.27-.07-.52-.1-.8,0,0,0-.03,0-.05,0-.04,0-.07,0-.11,0-.03,0-.05,0-.08-.02-.16-.03-.32-.04-.48v-.04s0-.11,0-.16c0-.03,0-.05,0-.08,0-.08-.02-.16-.02-.24,0-.07,0-.15,0-.24,0-.03,0-.07,0-.1,0-.37-.02-.74-.02-1.1v-88.48c0-.37,0-.74.02-1.1,0-.03,0-.07,0-.1,0-.09,0-.17,0-.24,0-.08,0-.16.02-.24,0-.03,0-.05,0-.08,0-.05,0-.11,0-.16v-.04c0-.16.02-.32.04-.48,0-.03,0-.05,0-.08,0-.04,0-.07,0-.11,0-.02,0-.04,0-.05.03-.28.06-.53.1-.8,0-.02,0-.05,0-.07h0c.02-.18.04-.35.07-.51,0-.08.02-.15.04-.23.05-.33.11-.65.18-.96.07-.39.16-.77.26-1.13,0-.03,0-.05.02-.08.02-.07.03-.13.05-.2.06-.25.13-.5.21-.74,0-.02,0-.03,0-.05.05-.16.1-.32.15-.47.13-.4.26-.79.41-1.17.12-.32.24-.63.37-.93.04-.11.09-.21.14-.32.14-.33.28-.65.44-.95.18-.38.37-.74.56-1.1,0,0,0-.02.02-.03.2-.37.41-.73.63-1.08.22-.36.45-.72.69-1.06.22-.32.44-.64.67-.94.02-.02.03-.03.04-.05.27-.36.54-.71.83-1.04.03-.04.06-.08.1-.12h0c.19-.24.38-.47.58-.69.57-.63,1.15-1.22,1.77-1.78.2-.19.4-.37.61-.54t.02-.02s.11-.1.16-.14c.02,0,.03-.03.05-.04.16-.15.34-.28.51-.42.19-.15.37-.3.57-.45.12-.09.24-.18.36-.26.05-.03.09-.07.14-.11.22-.16.45-.32.67-.47.25-.17.5-.33.75-.49h0c.27-.17.55-.34.83-.5.28-.16.56-.32.85-.47.58-.31,1.15-.59,1.75-.85.26-.11.51-.22.77-.32.05-.02.09-.04.14-.06.04,0,.07-.03.11-.04.33-.13.66-.25.98-.36,0,0,.02,0,.03,0,.17-.06.33-.11.49-.17.17-.05.34-.1.5-.15.03,0,.06-.02.09-.03.22-.06.45-.13.68-.19.08-.02.16-.04.24-.06.31-.08.63-.16.94-.22.31-.07.62-.13.92-.18.22-.04.45-.08.68-.12.36-.05.72-.1,1.08-.13.24-.03.49-.05.74-.06.25-.03.51-.05.77-.06.41-.02.83-.03,1.24-.03h27.38c.38,0,.76,0,1.12.03.11,0,.21,0,.32,0h.07c.36.02.71.05,1.06.09.22.02.44.05.66.08h.03s.09,0,.14.02c.17.02.34.05.52.07.17.03.34.06.51.09.36.06.71.13,1.05.21.16.03.31.06.47.1.05,0,.09.02.14.03.2.05.39.1.58.14t.02,0c.11.03.22.06.33.09.07.02.15.04.22.07.23.06.45.13.68.2.26.08.52.17.77.26.22.08.44.16.66.25.03,0,.05.02.08.03.31.11.61.24.89.37.11.04.21.09.31.14.33.14.65.29.96.46.2.09.4.19.59.3.2.1.39.21.58.32.03.02.07.03.1.05.18.09.35.19.52.3.03.02.06.04.09.06.07.04.14.08.21.13.28.17.56.34.83.53.09.06.18.12.27.19.24.15.47.32.7.5.09.06.18.12.27.2.27.2.54.41.8.62l.18.15c.2.16.39.33.58.5.18.15.35.31.51.47.15.13.3.27.44.42.11.1.22.21.32.32.02.02.05.04.07.07.15.14.3.3.43.45.03.03.06.07.09.1.13.13.25.27.37.4.23.24.44.49.65.75.2.24.4.49.58.74.19.25.38.5.56.76,0,0,.02.03.03.04.12.15.23.32.34.48.02.03.05.07.07.1.19.28.37.57.55.86.15.23.29.47.42.72.15.24.28.48.4.72.02.03.03.06.05.09.15.27.28.54.41.81.13.27.26.53.37.81.03.06.06.13.08.19.09.18.17.37.24.57.15.34.28.68.4,1.02.08.22.15.43.22.65h0c.08.23.14.44.2.65.02.05.04.1.05.15.02.07.04.14.05.21.08.24.14.47.2.72,0,0,0,.03,0,.04.07.26.13.52.18.79,0,.04,0,.07.02.11.03.08.05.17.06.26.05.23.1.46.13.7.02.11.04.22.06.34.02.11.04.22.05.34,0,.09.03.18.04.27.03.24.06.48.08.73.03.21.05.43.06.65,0,.05,0,.1.02.15.02.17.03.34.04.51,0,.08,0,.16,0,.24.02.41.03.82.03,1.23Z"/>
    <path class="cls-7" d="M789.14,604.7c-2.75,1.37-30.35,3.7-35.07,15.34s-9.83,57.1-10.77,47.63c-.3-8.43-.7-40.28-.7-40.28,0-14.36,11.74-26.1,26.1-26.1l19.56.03c.08,0,3.64,2.02.88,3.39Z"/>
    <path class="cls-3" d="M763.59,726.52c2.75-1.37,30.35-3.7,35.07-15.34s9.83-57.1,10.77-47.63c.3,8.43.7,40.28.7,40.28,0,14.36-11.74,26.1-26.1,26.1l-19.56-.03c-.08,0-3.64-2.02-.88-3.39Z"/>
  </g>
</svg>

  <path d="M680.72 191.34L680.72 178.76L722.46 178.76Q754.43 178.76 754.43 203.47Q754.43 217.09 740.81 224.19Q749.54 226.41 754.50 232.33Q759.46 238.25 759.46 247.73Q759.46 262.08 749.76 269.63Q740.07 277.18 721.57 277.18L679.98 277.18L679.98 265.19L684.87 264.75Q689.16 264.30 689.16 260.60L689.16 191.78L680.72 191.34M721.87 232.33L707.21 232.33L707.21 263.27L721.13 263.27Q740.37 263.27 740.37 247.58Q740.37 240.18 735.56 236.26Q730.75 232.33 721.87 232.33M719.20 192.37L707.21 192.37L707.21 219.16L718.17 219.16Q727.34 219.16 731.71 215.39Q736.07 211.61 736.07 204.81Q736.07 198 731.71 195.19Q727.34 192.37 719.20 192.37M802.97 266.37Q819.10 266.37 819.10 240.33Q819.10 227.15 815.48 220.35Q811.85 213.54 803.34 213.54Q794.83 213.54 790.83 220.05Q786.84 226.56 786.84 237.81Q786.84 258.68 794.53 264Q797.94 266.37 802.97 266.37M768.93 239.88Q768.93 228.93 772.19 220.86Q775.44 212.80 780.92 208.51Q791.43 200.51 804.15 200.51Q813.03 200.51 819.18 203.40Q825.32 206.29 828.80 210.06Q832.27 213.83 834.72 221.01Q837.16 228.19 837.16 237.96Q837.16 258.38 827.24 268.89Q817.33 279.40 801.86 279.40Q786.39 279.40 777.66 269.41Q768.93 259.42 768.93 239.88M852.40 215.17L846.19 214.72L846.19 202.73L871.20 202.73L871.20 212.35Q879.49 200.51 893.92 200.51Q908.35 200.51 913.38 212.35Q921.67 200.51 935.87 200.51Q946.53 200.51 952.30 206.95Q958.07 213.39 958.07 226.27L958.07 264.89L966.51 265.34L966.51 277.18L931.29 277.18L931.29 265.93L936.17 265.49Q938.39 265.19 939.35 264.23Q940.31 263.27 940.46 260.75L940.46 230.11Q940.46 221.97 938.61 218.05Q936.76 214.13 929.95 214.13Q923.15 214.13 919.52 218.27Q915.89 222.42 915.89 229.37L915.89 264.89L924.03 265.34L924.03 277.18L889.11 277.18L889.11 265.93L893.99 265.49Q896.21 265.19 897.25 264.23Q898.28 263.27 898.28 260.60L898.28 230.11Q898.28 221.97 896.43 218.05Q894.58 214.13 887.70 214.13Q880.82 214.13 877.27 218.42Q873.71 222.71 873.71 229.08L873.71 264.89L881.71 265.34L881.71 277.18L846.78 277.18L846.78 265.93L851.66 265.49Q853.88 265.19 854.92 264.23Q855.95 263.27 855.95 260.60L856.10 260.60L856.10 219.75Q856.10 217.24 855.29 216.28Q854.47 215.31 852.40 215.17M981.75 272.74L981.75 187.79Q981.75 184.38 978.05 184.23L972.87 183.94L972.87 171.65L998.92 171.65L998.92 206.73Q1005.58 200.51 1016.83 200.51Q1030.74 200.51 1038.88 209.91Q1047.02 219.31 1047.02 236.33Q1047.02 279.10 1011.21 279.10Q1003.51 279.10 995 277.25Q986.49 275.40 981.75 272.74M998.92 224.79L998.92 263.12Q1004.55 266.08 1011.95 266.08Q1028.82 266.08 1028.82 238.70Q1028.82 213.69 1012.24 213.69Q1006.91 213.69 1002.92 216.79Q998.92 219.90 998.92 224.79M1082.39 196.37L1102.23 256.01L1102.97 256.01L1123.69 191.93L1114.66 191.34L1114.66 178.76L1148.70 178.76L1148.70 190.75L1143.81 191.19Q1141.89 191.34 1141 192.30Q1140.11 193.26 1139.23 195.63L1111.25 277.18L1092.01 277.18L1061.82 191.78L1053.39 191.34L1053.39 178.76L1091.57 178.76L1091.57 190.75L1086.69 191.19Q1082.10 191.49 1082.10 194.74Q1082.10 195.48 1082.39 196.37M1220.77 205.69L1220.77 260.75Q1220.77 263.12 1221.59 264Q1222.40 264.89 1224.47 265.04L1229.21 265.34L1229.21 277.18L1205.68 277.18L1205.68 268.59L1205.23 268.45Q1197.83 279.10 1184.96 279.10Q1169.86 279.10 1162.61 269.48Q1155.36 259.86 1155.36 243.14Q1155.36 223.01 1165.13 211.76Q1174.89 200.51 1194.43 200.51Q1207.01 200.51 1220.77 205.69M1203.61 253.65L1203.61 215.31Q1199.46 213.39 1192.21 213.39Q1182.29 213.39 1177.85 221.38Q1173.41 229.37 1173.41 242.55Q1173.41 266.52 1188.81 266.52Q1195.32 266.52 1199.46 262.60Q1203.61 258.68 1203.61 253.65M1308.54 265.04L1313.72 265.49L1313.72 277.18L1289.74 277.18L1289.74 267.56Q1281.60 279.10 1265.77 279.10Q1242.83 279.10 1242.83 253.50L1242.83 219.31Q1242.83 215.31 1239.13 215.17L1234.39 214.87L1234.39 202.73L1260.44 202.73L1260.44 249.65Q1260.44 257.49 1262.66 261.49Q1264.88 265.49 1271.83 265.49Q1278.79 265.49 1283.01 261.19Q1287.23 256.90 1287.23 250.83L1287.23 219.61Q1287.23 217.24 1286.41 216.28Q1285.60 215.31 1283.53 215.17L1278.79 214.87L1278.79 202.73L1304.84 202.73L1304.84 260.75Q1304.84 263.12 1305.58 263.93Q1306.32 264.75 1308.54 265.04M1322.75 171.65L1349.24 171.65L1349.24 264.89L1357.67 265.34L1357.67 277.18L1322.45 277.18L1322.45 265.93L1327.33 265.49Q1331.63 265.04 1331.63 260.75L1331.63 187.79Q1331.63 184.53 1327.93 184.23L1322.75 183.94L1322.75 171.65M1380.32 187.05L1389.94 187.05L1389.94 202.73L1409.62 202.73L1408.14 215.17L1389.94 215.17L1389.94 254.09Q1389.94 260.60 1392.31 263.19Q1394.67 265.78 1399.63 265.78Q1404.59 265.78 1409.62 262.67L1414.06 274.07Q1406.66 279.25 1395.27 279.25Q1388.61 279.25 1384.02 277.55Q1379.43 275.85 1377.21 273.77Q1374.99 271.70 1373.81 267.71Q1372.62 263.71 1372.47 261.42Q1372.33 259.12 1372.33 254.68L1372.33 215.17L1361.82 215.17L1363.30 204.36Q1370.25 203.77 1373.81 199.40Q1377.36 195.04 1380.32 187.05" fill="#e6edf3"/>
  <path d="M704.88 367.18Q704.88 370.56 703.80 373.34Q702.73 376.11 700.78 378.08Q698.83 380.06 696.09 381.14Q693.35 382.22 690.03 382.22L678.79 382.22L678.79 352.13L690.03 352.13Q693.35 352.13 696.09 353.21Q698.83 354.29 700.78 356.27Q702.73 358.26 703.80 361.03Q704.88 363.80 704.88 367.18M700.70 367.18Q700.70 364.41 699.94 362.23Q699.18 360.04 697.80 358.53Q696.41 357.02 694.44 356.22Q692.46 355.42 690.03 355.42L682.87 355.42L682.87 378.92L690.03 378.92Q692.46 378.92 694.44 378.12Q696.41 377.33 697.80 375.82Q699.18 374.32 699.94 372.14Q700.70 369.96 700.70 367.18M713.15 361.98L713.40 365.21Q714.41 363.03 715.88 361.80Q717.35 360.57 719.47 360.57Q720.14 360.57 720.76 360.72Q721.38 360.86 721.86 361.18L721.59 363.97Q721.47 364.50 720.96 364.50Q720.67 364.50 720.10 364.37Q719.53 364.24 718.82 364.24Q717.81 364.24 717.02 364.54Q716.24 364.83 715.62 365.41Q715 365.99 714.50 366.84Q714.01 367.69 713.61 368.78L713.61 382.22L709.85 382.22L709.85 360.95L711.99 360.95Q712.60 360.95 712.83 361.18Q713.07 361.41 713.15 361.98M734.11 360.61Q736.44 360.61 738.31 361.39Q740.18 362.16 741.50 363.59Q742.82 365.02 743.53 367.05Q744.23 369.07 744.23 371.57Q744.23 374.09 743.53 376.11Q742.82 378.12 741.50 379.55Q740.18 380.98 738.31 381.75Q736.44 382.51 734.11 382.51Q731.76 382.51 729.88 381.75Q728 380.98 726.67 379.55Q725.35 378.12 724.65 376.11Q723.94 374.09 723.94 371.57Q723.94 369.07 724.65 367.05Q725.35 365.02 726.67 363.59Q728 362.16 729.88 361.39Q731.76 360.61 734.11 360.61M734.11 379.59Q737.26 379.59 738.81 377.48Q740.37 375.37 740.37 371.59Q740.37 367.79 738.81 365.67Q737.26 363.55 734.11 363.55Q732.51 363.55 731.33 364.10Q730.14 364.64 729.35 365.67Q728.56 366.70 728.18 368.20Q727.79 369.70 727.79 371.59Q727.79 375.37 729.35 377.48Q730.92 379.59 734.11 379.59M752.71 366.81L752.71 377.10Q753.74 378.48 754.96 379.05Q756.18 379.62 757.69 379.62Q760.67 379.62 762.27 377.49Q763.86 375.37 763.86 371.45Q763.86 369.37 763.50 367.88Q763.13 366.39 762.44 365.43Q761.74 364.47 760.74 364.03Q759.73 363.59 758.45 363.59Q756.62 363.59 755.24 364.43Q753.87 365.27 752.71 366.81M752.19 361.72L752.52 364.24Q753.87 362.58 755.63 361.58Q757.40 360.57 759.66 360.57Q761.51 360.57 763 361.27Q764.49 361.98 765.54 363.35Q766.59 364.73 767.16 366.76Q767.73 368.80 767.73 371.45Q767.73 373.80 767.10 375.82Q766.47 377.85 765.28 379.33Q764.10 380.81 762.38 381.66Q760.67 382.51 758.53 382.51Q756.58 382.51 755.18 381.85Q753.78 381.19 752.71 380.01L752.71 389.42L748.95 389.42L748.95 360.95L751.20 360.95Q752 360.95 752.19 361.72M794.78 377.05L794.78 372.64Q792.19 372.73 790.38 373.05Q788.56 373.38 787.42 373.90Q786.27 374.43 785.76 375.14Q785.24 375.86 785.24 376.74Q785.24 377.58 785.52 378.19Q785.79 378.80 786.26 379.18Q786.73 379.57 787.37 379.75Q788.01 379.93 788.75 379.93Q789.74 379.93 790.56 379.73Q791.37 379.53 792.10 379.15Q792.82 378.78 793.49 378.25Q794.15 377.73 794.78 377.05M783.37 365.15L782.70 363.95Q784.47 362.25 786.50 361.41Q788.54 360.57 791.02 360.57Q792.80 360.57 794.19 361.16Q795.57 361.74 796.52 362.79Q797.46 363.84 797.95 365.34Q798.43 366.83 798.43 368.61L798.43 382.22L796.77 382.22Q796.23 382.22 795.93 382.04Q795.64 381.86 795.47 381.34L795.05 379.32Q794.21 380.10 793.41 380.70Q792.61 381.30 791.73 381.70Q790.85 382.11 789.85 382.33Q788.85 382.56 787.64 382.56Q786.40 382.56 785.31 382.21Q784.21 381.86 783.41 381.17Q782.60 380.48 782.12 379.42Q781.65 378.36 781.65 376.91Q781.65 375.65 782.34 374.48Q783.04 373.32 784.59 372.41Q786.15 371.51 788.64 370.93Q791.14 370.35 794.78 370.27L794.78 368.61Q794.78 366.13 793.71 364.86Q792.63 363.59 790.58 363.59Q789.19 363.59 788.26 363.94Q787.32 364.29 786.64 364.72Q785.96 365.15 785.46 365.49Q784.97 365.84 784.49 365.84Q784.11 365.84 783.84 365.64Q783.56 365.44 783.37 365.15M818.63 366.81L818.63 377.10Q819.66 378.48 820.89 379.05Q822.12 379.62 823.59 379.62Q826.59 379.62 828.19 377.49Q829.78 375.37 829.78 371.17Q829.78 367.27 828.37 365.43Q826.95 363.59 824.32 363.59Q822.50 363.59 821.14 364.43Q819.79 365.27 818.63 366.81M818.63 351.29L818.63 364.01Q819.98 362.46 821.67 361.53Q823.36 360.61 825.56 360.61Q827.43 360.61 828.93 361.32Q830.43 362.04 831.48 363.39Q832.53 364.75 833.09 366.68Q833.65 368.61 833.65 371.03Q833.65 373.61 833.02 375.73Q832.39 377.85 831.20 379.35Q830.01 380.85 828.31 381.68Q826.61 382.51 824.49 382.51Q822.39 382.51 820.95 381.73Q819.51 380.94 818.44 379.49L818.25 381.42Q818.09 382.22 817.29 382.22L814.87 382.22L814.87 351.29L818.63 351.29M849.92 377.05L849.92 372.64Q847.34 372.73 845.52 373.05Q843.71 373.38 842.56 373.90Q841.42 374.43 840.90 375.14Q840.39 375.86 840.39 376.74Q840.39 377.58 840.66 378.19Q840.93 378.80 841.41 379.18Q841.88 379.57 842.52 379.75Q843.16 379.93 843.90 379.93Q844.88 379.93 845.70 379.73Q846.52 379.53 847.25 379.15Q847.97 378.78 848.63 378.25Q849.29 377.73 849.92 377.05M838.52 365.15L837.85 363.95Q839.61 362.25 841.65 361.41Q843.69 360.57 846.16 360.57Q847.95 360.57 849.33 361.16Q850.72 361.74 851.67 362.79Q852.61 363.84 853.09 365.34Q853.58 366.83 853.58 368.61L853.58 382.22L851.92 382.22Q851.37 382.22 851.08 382.04Q850.78 381.86 850.62 381.34L850.20 379.32Q849.36 380.10 848.56 380.70Q847.76 381.30 846.88 381.70Q846 382.11 845 382.33Q844 382.56 842.78 382.56Q841.54 382.56 840.45 382.21Q839.36 381.86 838.55 381.17Q837.74 380.48 837.27 379.42Q836.80 378.36 836.80 376.91Q836.80 375.65 837.49 374.48Q838.18 373.32 839.74 372.41Q841.29 371.51 843.79 370.93Q846.29 370.35 849.92 370.27L849.92 368.61Q849.92 366.13 848.85 364.86Q847.78 363.59 845.72 363.59Q844.34 363.59 843.40 363.94Q842.47 364.29 841.79 364.72Q841.10 365.15 840.61 365.49Q840.12 365.84 839.63 365.84Q839.25 365.84 838.98 365.64Q838.71 365.44 838.52 365.15M875.06 363.38L874.07 364.73Q873.90 364.96 873.74 365.08Q873.57 365.21 873.27 365.21Q872.96 365.21 872.58 364.95Q872.20 364.68 871.65 364.37Q871.09 364.05 870.28 363.79Q869.47 363.53 868.30 363.53Q866.72 363.53 865.53 364.09Q864.33 364.64 863.52 365.69Q862.71 366.74 862.30 368.23Q861.89 369.72 861.89 371.57Q861.89 373.50 862.33 375.01Q862.77 376.51 863.58 377.53Q864.39 378.54 865.54 379.08Q866.68 379.62 868.11 379.62Q869.47 379.62 870.36 379.29Q871.24 378.96 871.82 378.57Q872.39 378.17 872.78 377.84Q873.17 377.52 873.55 377.52Q874.01 377.52 874.26 377.87L875.31 379.24Q874.62 380.10 873.74 380.71Q872.85 381.32 871.84 381.73Q870.82 382.14 869.70 382.32Q868.59 382.51 867.44 382.51Q865.44 382.51 863.73 381.78Q862.02 381.04 860.76 379.65Q859.50 378.25 858.78 376.21Q858.07 374.18 858.07 371.57Q858.07 369.20 858.73 367.18Q859.39 365.17 860.66 363.71Q861.93 362.25 863.79 361.43Q865.65 360.61 868.07 360.61Q870.31 360.61 872.03 361.33Q873.74 362.06 875.06 363.38M879.32 351.29L883.08 351.29L883.08 369.49L884.05 369.49Q884.47 369.49 884.75 369.38Q885.03 369.26 885.35 368.91L892.07 361.70Q892.36 361.35 892.69 361.15Q893.01 360.95 893.56 360.95L896.94 360.95L889.11 369.28Q888.54 370 887.89 370.40Q888.27 370.65 888.57 370.97Q888.88 371.30 889.15 371.72L897.47 382.22L894.13 382.22Q893.64 382.22 893.30 382.06Q892.95 381.90 892.70 381.48L885.71 372.77Q885.39 372.33 885.09 372.19Q884.78 372.06 884.15 372.06L883.08 372.06L883.08 382.22L879.32 382.22L879.32 351.29M914.41 360.95L918.15 360.95L918.15 382.22L915.93 382.22Q915.13 382.22 914.92 381.44L914.62 379.15Q913.24 380.69 911.52 381.62Q909.79 382.56 907.57 382.56Q905.82 382.56 904.49 381.98Q903.16 381.40 902.25 380.35Q901.35 379.30 900.90 377.81Q900.45 376.32 900.45 374.51L900.45 360.95L904.19 360.95L904.19 374.51Q904.19 376.93 905.29 378.25Q906.39 379.57 908.66 379.57Q910.32 379.57 911.76 378.79Q913.20 378 914.41 376.61L914.41 360.95M927.83 366.81L927.83 377.10Q928.86 378.48 930.08 379.05Q931.30 379.62 932.81 379.62Q935.79 379.62 937.39 377.49Q938.98 375.37 938.98 371.45Q938.98 369.37 938.62 367.88Q938.25 366.39 937.56 365.43Q936.86 364.47 935.85 364.03Q934.85 363.59 933.57 363.59Q931.74 363.59 930.36 364.43Q928.99 365.27 927.83 366.81M927.31 361.72L927.64 364.24Q928.99 362.58 930.75 361.58Q932.52 360.57 934.78 360.57Q936.63 360.57 938.12 361.27Q939.61 361.98 940.66 363.35Q941.71 364.73 942.28 366.76Q942.85 368.80 942.85 371.45Q942.85 373.80 942.22 375.82Q941.59 377.85 940.40 379.33Q939.21 380.81 937.50 381.66Q935.79 382.51 933.65 382.51Q931.70 382.51 930.30 381.85Q928.90 381.19 927.83 380.01L927.83 389.42L924.07 389.42L924.07 360.95L926.32 360.95Q927.12 360.95 927.31 361.72M946.98 379.91Q946.98 379.36 947.18 378.88Q947.38 378.40 947.73 378.04Q948.08 377.68 948.56 377.47Q949.04 377.26 949.59 377.26Q950.13 377.26 950.62 377.47Q951.10 377.68 951.46 378.04Q951.81 378.40 952.02 378.88Q952.23 379.36 952.23 379.91Q952.23 380.48 952.02 380.95Q951.81 381.42 951.46 381.78Q951.10 382.14 950.62 382.33Q950.13 382.53 949.59 382.53Q949.04 382.53 948.56 382.33Q948.08 382.14 947.73 381.78Q947.38 381.42 947.18 380.95Q946.98 380.48 946.98 379.91M995.24 367.18Q995.24 370.56 994.17 373.34Q993.10 376.11 991.15 378.08Q989.19 380.06 986.45 381.14Q983.71 382.22 980.40 382.22L969.16 382.22L969.16 352.13L980.40 352.13Q983.71 352.13 986.45 353.21Q989.19 354.29 991.15 356.27Q993.10 358.26 994.17 361.03Q995.24 363.80 995.24 367.18M991.06 367.18Q991.06 364.41 990.31 362.23Q989.55 360.04 988.17 358.53Q986.78 357.02 984.81 356.22Q982.83 355.42 980.40 355.42L973.23 355.42L973.23 378.92L980.40 378.92Q982.83 378.92 984.81 378.12Q986.78 377.33 988.17 375.82Q989.55 374.32 990.31 372.14Q991.06 369.96 991.06 367.18M1002.82 369.26L1014.46 369.26Q1014.46 367.96 1014.09 366.88Q1013.72 365.80 1013.02 365.01Q1012.32 364.22 1011.31 363.79Q1010.30 363.36 1009.02 363.36Q1006.33 363.36 1004.77 364.93Q1003.20 366.49 1002.82 369.26M1016.43 377.87L1017.48 379.24Q1016.79 380.08 1015.82 380.70Q1014.86 381.32 1013.75 381.72Q1012.65 382.11 1011.48 382.31Q1010.30 382.51 1009.14 382.51Q1006.94 382.51 1005.08 381.77Q1003.22 381.02 1001.87 379.58Q1000.51 378.15 999.76 376.02Q999 373.90 999 371.15Q999 368.93 999.68 366.99Q1000.37 365.06 1001.65 363.64Q1002.93 362.23 1004.78 361.42Q1006.62 360.61 1008.93 360.61Q1010.85 360.61 1012.47 361.25Q1014.10 361.89 1015.29 363.10Q1016.47 364.31 1017.15 366.08Q1017.82 367.86 1017.82 370.12Q1017.82 371.01 1017.63 371.30Q1017.44 371.59 1016.91 371.59L1002.70 371.59Q1002.76 373.61 1003.25 375.10Q1003.75 376.59 1004.63 377.59Q1005.51 378.59 1006.73 379.08Q1007.95 379.57 1009.46 379.57Q1010.87 379.57 1011.89 379.25Q1012.90 378.92 1013.64 378.54Q1014.37 378.17 1014.87 377.84Q1015.36 377.52 1015.72 377.52Q1016.18 377.52 1016.43 377.87M1028.93 382.56Q1026.41 382.56 1025.05 381.15Q1023.70 379.74 1023.70 377.10L1023.70 364.08L1021.14 364.08Q1020.80 364.08 1020.57 363.88Q1020.34 363.68 1020.34 363.26L1020.34 361.77L1023.82 361.32L1024.68 354.75Q1024.75 354.44 1024.97 354.24Q1025.19 354.04 1025.55 354.04L1027.44 354.04L1027.44 361.37L1033.59 361.37L1033.59 364.08L1027.44 364.08L1027.44 376.84Q1027.44 378.19 1028.09 378.84Q1028.74 379.49 1029.77 379.49Q1030.35 379.49 1030.79 379.33Q1031.22 379.17 1031.53 378.99Q1031.85 378.80 1032.07 378.64Q1032.29 378.48 1032.45 378.48Q1032.75 378.48 1032.98 378.84L1034.07 380.62Q1033.11 381.53 1031.74 382.04Q1030.38 382.56 1028.93 382.56M1046.42 360.61Q1048.75 360.61 1050.62 361.39Q1052.49 362.16 1053.81 363.59Q1055.13 365.02 1055.84 367.05Q1056.54 369.07 1056.54 371.57Q1056.54 374.09 1055.84 376.11Q1055.13 378.12 1053.81 379.55Q1052.49 380.98 1050.62 381.75Q1048.75 382.51 1046.42 382.51Q1044.07 382.51 1042.19 381.75Q1040.31 380.98 1038.99 379.55Q1037.66 378.12 1036.96 376.11Q1036.26 374.09 1036.26 371.57Q1036.26 369.07 1036.96 367.05Q1037.66 365.02 1038.99 363.59Q1040.31 362.16 1042.19 361.39Q1044.07 360.61 1046.42 360.61M1046.42 379.59Q1049.57 379.59 1051.12 377.48Q1052.68 375.37 1052.68 371.59Q1052.68 367.79 1051.12 365.67Q1049.57 363.55 1046.42 363.55Q1044.82 363.55 1043.64 364.10Q1042.45 364.64 1041.66 365.67Q1040.88 366.70 1040.49 368.20Q1040.10 369.70 1040.10 371.59Q1040.10 375.37 1041.66 377.48Q1043.23 379.59 1046.42 379.59M1064.50 361.72L1064.79 364.03Q1065.49 363.26 1066.26 362.63Q1067.04 362 1067.91 361.54Q1068.78 361.09 1069.76 360.85Q1070.74 360.61 1071.87 360.61Q1073.61 360.61 1074.95 361.19Q1076.28 361.77 1077.17 362.83Q1078.07 363.89 1078.53 365.38Q1078.99 366.87 1078.99 368.67L1078.99 382.22L1075.23 382.22L1075.23 368.67Q1075.23 366.26 1074.13 364.93Q1073.03 363.59 1070.78 363.59Q1069.12 363.59 1067.68 364.39Q1066.24 365.19 1065.03 366.55L1065.03 382.22L1061.27 382.22L1061.27 360.95L1063.51 360.95Q1064.31 360.95 1064.50 361.72M1096.23 377.05L1096.23 372.64Q1093.65 372.73 1091.83 373.05Q1090.02 373.38 1088.87 373.90Q1087.73 374.43 1087.21 375.14Q1086.70 375.86 1086.70 376.74Q1086.70 377.58 1086.97 378.19Q1087.24 378.80 1087.72 379.18Q1088.19 379.57 1088.83 379.75Q1089.47 379.93 1090.20 379.93Q1091.19 379.93 1092.01 379.73Q1092.83 379.53 1093.55 379.15Q1094.28 378.78 1094.94 378.25Q1095.60 377.73 1096.23 377.05M1084.83 365.15L1084.16 363.95Q1085.92 362.25 1087.96 361.41Q1089.99 360.57 1092.47 360.57Q1094.26 360.57 1095.64 361.16Q1097.03 361.74 1097.97 362.79Q1098.92 363.84 1099.40 365.34Q1099.89 366.83 1099.89 368.61L1099.89 382.22L1098.23 382.22Q1097.68 382.22 1097.39 382.04Q1097.09 381.86 1096.92 381.34L1096.50 379.32Q1095.66 380.10 1094.87 380.70Q1094.07 381.30 1093.19 381.70Q1092.30 382.11 1091.31 382.33Q1090.31 382.56 1089.09 382.56Q1087.85 382.56 1086.76 382.21Q1085.67 381.86 1084.86 381.17Q1084.05 380.48 1083.58 379.42Q1083.11 378.36 1083.11 376.91Q1083.11 375.65 1083.80 374.48Q1084.49 373.32 1086.05 372.41Q1087.60 371.51 1090.10 370.93Q1092.60 370.35 1096.23 370.27L1096.23 368.61Q1096.23 366.13 1095.16 364.86Q1094.09 363.59 1092.03 363.59Q1090.65 363.59 1089.71 363.94Q1088.78 364.29 1088.09 364.72Q1087.41 365.15 1086.92 365.49Q1086.42 365.84 1085.94 365.84Q1085.56 365.84 1085.29 365.64Q1085.02 365.44 1084.83 365.15M1112.11 382.56Q1109.59 382.56 1108.23 381.15Q1106.88 379.74 1106.88 377.10L1106.88 364.08L1104.32 364.08Q1103.98 364.08 1103.75 363.88Q1103.52 363.68 1103.52 363.26L1103.52 361.77L1107 361.32L1107.87 354.75Q1107.93 354.44 1108.15 354.24Q1108.37 354.04 1108.73 354.04L1110.62 354.04L1110.62 361.37L1116.77 361.37L1116.77 364.08L1110.62 364.08L1110.62 376.84Q1110.62 378.19 1111.27 378.84Q1111.92 379.49 1112.95 379.49Q1113.54 379.49 1113.97 379.33Q1114.40 379.17 1114.71 378.99Q1115.03 378.80 1115.25 378.64Q1115.47 378.48 1115.64 378.48Q1115.93 378.48 1116.16 378.84L1117.25 380.62Q1116.29 381.53 1114.92 382.04Q1113.56 382.56 1112.11 382.56M1123.24 369.26L1134.87 369.26Q1134.87 367.96 1134.50 366.88Q1134.14 365.80 1133.43 365.01Q1132.73 364.22 1131.72 363.79Q1130.71 363.36 1129.43 363.36Q1126.74 363.36 1125.18 364.93Q1123.62 366.49 1123.24 369.26M1136.85 377.87L1137.90 379.24Q1137.20 380.08 1136.24 380.70Q1135.27 381.32 1134.17 381.72Q1133.07 382.11 1131.89 382.31Q1130.71 382.51 1129.56 382.51Q1127.35 382.51 1125.50 381.77Q1123.64 381.02 1122.28 379.58Q1120.93 378.15 1120.17 376.02Q1119.42 373.90 1119.42 371.15Q1119.42 368.93 1120.10 366.99Q1120.78 365.06 1122.06 363.64Q1123.34 362.23 1125.19 361.42Q1127.04 360.61 1129.35 360.61Q1131.26 360.61 1132.89 361.25Q1134.51 361.89 1135.70 363.10Q1136.89 364.31 1137.56 366.08Q1138.23 367.86 1138.23 370.12Q1138.23 371.01 1138.04 371.30Q1137.85 371.59 1137.33 371.59L1123.11 371.59Q1123.17 373.61 1123.67 375.10Q1124.16 376.59 1125.04 377.59Q1125.93 378.59 1127.14 379.08Q1128.36 379.57 1129.87 379.57Q1131.28 379.57 1132.30 379.25Q1133.32 378.92 1134.05 378.54Q1134.79 378.17 1135.28 377.84Q1135.77 377.52 1136.13 377.52Q1136.59 377.52 1136.85 377.87M1165.09 377.05L1165.09 372.64Q1162.51 372.73 1160.69 373.05Q1158.87 373.38 1157.73 373.90Q1156.59 374.43 1156.07 375.14Q1155.56 375.86 1155.56 376.74Q1155.56 377.58 1155.83 378.19Q1156.10 378.80 1156.58 379.18Q1157.05 379.57 1157.69 379.75Q1158.33 379.93 1159.06 379.93Q1160.05 379.93 1160.87 379.73Q1161.69 379.53 1162.41 379.15Q1163.14 378.78 1163.80 378.25Q1164.46 377.73 1165.09 377.05M1153.69 365.15L1153.02 363.95Q1154.78 362.25 1156.82 361.41Q1158.85 360.57 1161.33 360.57Q1163.12 360.57 1164.50 361.16Q1165.89 361.74 1166.83 362.79Q1167.78 363.84 1168.26 365.34Q1168.74 366.83 1168.74 368.61L1168.74 382.22L1167.09 382.22Q1166.54 382.22 1166.25 382.04Q1165.95 381.86 1165.78 381.34L1165.36 379.32Q1164.52 380.10 1163.73 380.70Q1162.93 381.30 1162.05 381.70Q1161.16 382.11 1160.17 382.33Q1159.17 382.56 1157.95 382.56Q1156.71 382.56 1155.62 382.21Q1154.53 381.86 1153.72 381.17Q1152.91 380.48 1152.44 379.42Q1151.97 378.36 1151.97 376.91Q1151.97 375.65 1152.66 374.48Q1153.35 373.32 1154.91 372.41Q1156.46 371.51 1158.96 370.93Q1161.46 370.35 1165.09 370.27L1165.09 368.61Q1165.09 366.13 1164.02 364.86Q1162.95 363.59 1160.89 363.59Q1159.50 363.59 1158.57 363.94Q1157.64 364.29 1156.95 364.72Q1156.27 365.15 1155.78 365.49Q1155.28 365.84 1154.80 365.84Q1154.42 365.84 1154.15 365.64Q1153.88 365.44 1153.69 365.15M1188.48 361.98L1188.74 365.21Q1189.74 363.03 1191.21 361.80Q1192.68 360.57 1194.81 360.57Q1195.48 360.57 1196.10 360.72Q1196.72 360.86 1197.20 361.18L1196.93 363.97Q1196.80 364.50 1196.30 364.50Q1196 364.50 1195.44 364.37Q1194.87 364.24 1194.15 364.24Q1193.15 364.24 1192.36 364.54Q1191.57 364.83 1190.95 365.41Q1190.33 365.99 1189.84 366.84Q1189.35 367.69 1188.95 368.78L1188.95 382.22L1185.19 382.22L1185.19 360.95L1187.33 360.95Q1187.94 360.95 1188.17 361.18Q1188.40 361.41 1188.48 361.98M1203.08 369.26L1214.71 369.26Q1214.71 367.96 1214.35 366.88Q1213.98 365.80 1213.28 365.01Q1212.57 364.22 1211.56 363.79Q1210.56 363.36 1209.27 363.36Q1206.59 363.36 1205.02 364.93Q1203.46 366.49 1203.08 369.26M1216.69 377.87L1217.74 379.24Q1217.04 380.08 1216.08 380.70Q1215.11 381.32 1214.01 381.72Q1212.91 382.11 1211.73 382.31Q1210.56 382.51 1209.40 382.51Q1207.20 382.51 1205.34 381.77Q1203.48 381.02 1202.12 379.58Q1200.77 378.15 1200.01 376.02Q1199.26 373.90 1199.26 371.15Q1199.26 368.93 1199.94 366.99Q1200.62 365.06 1201.90 363.64Q1203.18 362.23 1205.03 361.42Q1206.88 360.61 1209.19 360.61Q1211.10 360.61 1212.73 361.25Q1214.36 361.89 1215.54 363.10Q1216.73 364.31 1217.40 366.08Q1218.07 367.86 1218.07 370.12Q1218.07 371.01 1217.88 371.30Q1217.70 371.59 1217.17 371.59L1202.95 371.59Q1203.02 373.61 1203.51 375.10Q1204 376.59 1204.89 377.59Q1205.77 378.59 1206.99 379.08Q1208.20 379.57 1209.72 379.57Q1211.12 379.57 1212.14 379.25Q1213.16 378.92 1213.89 378.54Q1214.63 378.17 1215.12 377.84Q1215.62 377.52 1215.97 377.52Q1216.44 377.52 1216.69 377.87M1235.88 363.09L1235.04 364.45Q1234.79 364.92 1234.26 364.92Q1233.95 364.92 1233.55 364.68Q1233.15 364.45 1232.57 364.17Q1232 363.89 1231.20 363.64Q1230.40 363.40 1229.31 363.40Q1228.36 363.40 1227.61 363.64Q1226.85 363.89 1226.32 364.31Q1225.78 364.73 1225.50 365.28Q1225.21 365.84 1225.21 366.49Q1225.21 367.31 1225.69 367.86Q1226.16 368.40 1226.94 368.80Q1227.71 369.20 1228.70 369.50Q1229.69 369.81 1230.73 370.15Q1231.77 370.50 1232.75 370.92Q1233.74 371.34 1234.52 371.97Q1235.29 372.60 1235.77 373.51Q1236.24 374.43 1236.24 375.71Q1236.24 377.18 1235.71 378.43Q1235.19 379.68 1234.16 380.59Q1233.13 381.51 1231.64 382.03Q1230.15 382.56 1228.20 382.56Q1225.97 382.56 1224.16 381.83Q1222.36 381.11 1221.10 379.97L1221.98 378.54Q1222.15 378.27 1222.38 378.12Q1222.61 377.98 1222.97 377.98Q1223.34 377.98 1223.76 378.27Q1224.18 378.57 1224.78 378.92Q1225.38 379.28 1226.24 379.57Q1227.10 379.87 1228.38 379.87Q1229.48 379.87 1230.30 379.58Q1231.11 379.30 1231.66 378.82Q1232.21 378.33 1232.47 377.70Q1232.73 377.07 1232.73 376.36Q1232.73 375.48 1232.26 374.90Q1231.79 374.32 1231.01 373.91Q1230.23 373.50 1229.24 373.20Q1228.24 372.90 1227.20 372.56Q1226.16 372.22 1225.16 371.79Q1224.16 371.36 1223.39 370.71Q1222.61 370.06 1222.14 369.10Q1221.66 368.15 1221.66 366.78Q1221.66 365.57 1222.17 364.44Q1222.67 363.32 1223.64 362.47Q1224.60 361.62 1226.01 361.11Q1227.42 360.61 1229.22 360.61Q1231.32 360.61 1232.99 361.27Q1234.66 361.93 1235.88 363.09M1247.37 382.56Q1244.85 382.56 1243.49 381.15Q1242.14 379.74 1242.14 377.10L1242.14 364.08L1239.58 364.08Q1239.24 364.08 1239.01 363.88Q1238.78 363.68 1238.78 363.26L1238.78 361.77L1242.27 361.32L1243.13 354.75Q1243.19 354.44 1243.41 354.24Q1243.63 354.04 1243.99 354.04L1245.88 354.04L1245.88 361.37L1252.03 361.37L1252.03 364.08L1245.88 364.08L1245.88 376.84Q1245.88 378.19 1246.53 378.84Q1247.18 379.49 1248.21 379.49Q1248.80 379.49 1249.23 379.33Q1249.66 379.17 1249.97 378.99Q1250.29 378.80 1250.51 378.64Q1250.73 378.48 1250.90 378.48Q1251.19 378.48 1251.42 378.84L1252.51 380.62Q1251.55 381.53 1250.18 382.04Q1248.82 382.56 1247.37 382.56M1264.86 360.61Q1267.19 360.61 1269.06 361.39Q1270.93 362.16 1272.25 363.59Q1273.58 365.02 1274.28 367.05Q1274.98 369.07 1274.98 371.57Q1274.98 374.09 1274.28 376.11Q1273.58 378.12 1272.25 379.55Q1270.93 380.98 1269.06 381.75Q1267.19 382.51 1264.86 382.51Q1262.51 382.51 1260.63 381.75Q1258.75 380.98 1257.43 379.55Q1256.10 378.12 1255.40 376.11Q1254.70 374.09 1254.70 371.57Q1254.70 369.07 1255.40 367.05Q1256.10 365.02 1257.43 363.59Q1258.75 362.16 1260.63 361.39Q1262.51 360.61 1264.86 360.61M1264.86 379.59Q1268.01 379.59 1269.57 377.48Q1271.12 375.37 1271.12 371.59Q1271.12 367.79 1269.57 365.67Q1268.01 363.55 1264.86 363.55Q1263.27 363.55 1262.08 364.10Q1260.89 364.64 1260.11 365.67Q1259.32 366.70 1258.93 368.20Q1258.54 369.70 1258.54 371.59Q1258.54 375.37 1260.11 377.48Q1261.67 379.59 1264.86 379.59M1283.01 361.98L1283.26 365.21Q1284.27 363.03 1285.74 361.80Q1287.21 360.57 1289.33 360.57Q1290 360.57 1290.62 360.72Q1291.24 360.86 1291.72 361.18L1291.45 363.97Q1291.32 364.50 1290.82 364.50Q1290.52 364.50 1289.96 364.37Q1289.39 364.24 1288.68 364.24Q1287.67 364.24 1286.88 364.54Q1286.09 364.83 1285.47 365.41Q1284.85 365.99 1284.36 366.84Q1283.87 367.69 1283.47 368.78L1283.47 382.22L1279.71 382.22L1279.71 360.95L1281.85 360.95Q1282.46 360.95 1282.69 361.18Q1282.92 361.41 1283.01 361.98M1297.60 369.26L1309.23 369.26Q1309.23 367.96 1308.87 366.88Q1308.50 365.80 1307.80 365.01Q1307.09 364.22 1306.08 363.79Q1305.08 363.36 1303.80 363.36Q1301.11 363.36 1299.54 364.93Q1297.98 366.49 1297.60 369.26M1311.21 377.87L1312.26 379.24Q1311.57 380.08 1310.60 380.70Q1309.63 381.32 1308.53 381.72Q1307.43 382.11 1306.25 382.31Q1305.08 382.51 1303.92 382.51Q1301.72 382.51 1299.86 381.77Q1298 381.02 1296.65 379.58Q1295.29 378.15 1294.53 376.02Q1293.78 373.90 1293.78 371.15Q1293.78 368.93 1294.46 366.99Q1295.14 365.06 1296.42 363.64Q1297.71 362.23 1299.55 361.42Q1301.40 360.61 1303.71 360.61Q1305.62 360.61 1307.25 361.25Q1308.88 361.89 1310.06 363.10Q1311.25 364.31 1311.92 366.08Q1312.59 367.86 1312.59 370.12Q1312.59 371.01 1312.41 371.30Q1312.22 371.59 1311.69 371.59L1297.47 371.59Q1297.54 373.61 1298.03 375.10Q1298.52 376.59 1299.41 377.59Q1300.29 378.59 1301.51 379.08Q1302.72 379.57 1304.24 379.57Q1305.64 379.57 1306.66 379.25Q1307.68 378.92 1308.42 378.54Q1309.15 378.17 1309.64 377.84Q1310.14 377.52 1310.49 377.52Q1310.96 377.52 1311.21 377.87M1316.54 379.91Q1316.54 379.36 1316.74 378.88Q1316.94 378.40 1317.29 378.04Q1317.63 377.68 1318.12 377.47Q1318.60 377.26 1319.15 377.26Q1319.69 377.26 1320.18 377.47Q1320.66 377.68 1321.02 378.04Q1321.37 378.40 1321.58 378.88Q1321.79 379.36 1321.79 379.91Q1321.79 380.48 1321.58 380.95Q1321.37 381.42 1321.02 381.78Q1320.66 382.14 1320.18 382.33Q1319.69 382.53 1319.15 382.53Q1318.60 382.53 1318.12 382.33Q1317.63 382.14 1317.29 381.78Q1316.94 381.42 1316.74 380.95Q1316.54 380.48 1316.54 379.91" fill="#9aa4ad"/>
</svg>
