<svg xmlns="http://www.w3.org/2000/svg" width="1600" height="500" viewBox="0 0 1600 500">
  <rect width="1600" height="500" fill="#ffffff"/>
  <svg x="186.5" y="45.0" width="423.1" height="410" viewBox="0 0 914.72 886.45" xmlns="http://www.w3.org/2000/svg">
  <defs>
    <style>
      .cls-1 {
        fill: #242626;
      }

      .cls-2 {
        fill: #fff57c;
      }

      .cls-3 {
        fill: #f68e32;
      }

      .cls-4 {
        fill: #353738;
      }

      .cls-5 {
        fill: #5a5d5e;
      }

      .cls-6 {
        fill: #c6c6c6;
      }

      .cls-7 {
        fill: #242626;
      }
    </style>
  </defs>
  <g id="logo_VII">
    <g id="tresor">
      <path class="cls-4" d="M34.5,612.95v141.5h58v-141.5h-58ZM820.47,216.96c0-.08-.01-.16-.01-.24,0-.17-.02-.34-.04-.51-.01-.05-.01-.1-.02-.15-.01-.22-.03-.44-.06-.65-.02-.25-.05-.49-.08-.73-.01-.09-.03-.18-.04-.27-.01-.12-.03-.23-.05-.34-.02-.12-.04-.23-.06-.34-.03-.24-.08-.47-.13-.7-.01-.09-.03-.18-.06-.26-.01-.04-.01-.07-.02-.11-.05-.27-.11-.53-.18-.79,0-.01-.01-.03-.01-.04-.06-.25-.12-.48-.2-.72-.01-.07-.03-.14-.05-.21,0-.05-.03-.1-.05-.15-.06-.21-.12-.42-.2-.64h0c-.07-.23-.14-.44-.22-.66-.12-.35-.25-.69-.4-1.03-.07-.2-.15-.39-.24-.57-.02-.06-.05-.13-.08-.19-.11-.28-.24-.54-.37-.81-.13-.27-.26-.54-.41-.81-.02-.03-.03-.06-.05-.09-.12-.24-.25-.48-.4-.72-.13-.25-.27-.49-.42-.72-.18-.29-.36-.58-.55-.86-.02-.03-.05-.07-.07-.1-.11-.16-.22-.33-.34-.48-.01-.01-.02-.03-.03-.04-.18-.26-.37-.51-.56-.76-.18-.25-.38-.5-.58-.74-.21-.26-.42-.51-.65-.75-.12-.13-.24-.27-.37-.4-.03-.03-.06-.07-.09-.1-.13-.15-.28-.31-.43-.45-.02-.03-.05-.05-.07-.07-.1-.11-.21-.22-.32-.32-.14-.15-.29-.29-.44-.42-.16-.16-.33-.32-.51-.47-.19-.17-.38-.34-.58-.5l-.18-.15c-.26-.21-.53-.42-.8-.62-.09-.08-.18-.14-.27-.2-.23-.18-.46-.35-.7-.5-.09-.07-.18-.13-.27-.19-.27-.19-.55-.36-.83-.53-.07-.05-.14-.09-.21-.13-.03-.02-.06-.04-.09-.06-.17-.11-.34-.21-.52-.3-.03-.02-.07-.03-.1-.05-.19-.11-.38-.22-.58-.32-.19-.11-.39-.21-.59-.3-.32-.17-.64-.32-.97-.46-.1-.05-.2-.1-.31-.14-.29-.13-.59-.26-.9-.37-.03-.01-.05-.02-.08-.03-.22-.09-.44-.17-.66-.25-.25-.09-.51-.18-.77-.26-.23-.07-.45-.14-.68-.2-.07-.03-.15-.05-.22-.07-.11-.03-.22-.06-.33-.09t-.02-.01c-.19-.04-.38-.09-.58-.14-.05-.01-.09-.02-.14-.03-.16-.04-.31-.07-.47-.1-.35-.08-.7-.15-1.06-.21-.17-.03-.34-.06-.51-.09-.18-.02-.35-.05-.52-.07-.05-.01-.09-.01-.14-.02h-.03v141.08h.03s.09,0,.14-.02c.17-.02.34-.05.52-.07.17-.03.34-.06.51-.09.36-.06.71-.13,1.06-.21.16-.03.31-.06.47-.1.25-.06.5-.12.74-.18.11-.03.22-.06.33-.09.07-.02.15-.04.22-.07.23-.06.45-.13.68-.2.26-.08.52-.17.77-.26.22-.08.44-.16.66-.25.03-.01.05-.02.08-.03.31-.11.61-.24.9-.37.11-.04.21-.09.31-.14.33-.14.65-.29.97-.46.2-.09.4-.19.59-.3.2-.1.39-.21.58-.32.03-.02.07-.03.1-.05.18-.09.35-.19.52-.3.03-.02.06-.04.09-.06.07-.04.14-.08.21-.13.28-.17.56-.34.83-.53.09-.06.18-.12.27-.19.24-.15.47-.32.7-.5.09-.06.18-.12.27-.2.27-.2.54-.41.8-.62l.18-.15c.2-.16.39-.33.58-.5.18-.15.35-.31.51-.47.26-.23.51-.48.76-.74.02-.02.05-.04.07-.07.15-.14.3-.3.43-.45.03-.03.06-.07.09-.1.13-.13.25-.27.37-.4.23-.24.44-.49.65-.75.2-.24.4-.49.58-.74.19-.25.38-.5.56-.76,0-.01.02-.03.03-.04.12-.15.23-.32.34-.48.02-.03.05-.07.07-.1.19-.28.37-.57.55-.86.15-.23.29-.47.42-.72.15-.24.28-.48.4-.72.02-.03.03-.06.05-.09.15-.27.28-.54.41-.81.13-.27.26-.53.37-.81.03-.06.06-.13.08-.19.09-.18.17-.37.24-.57.15-.34.28-.68.4-1.03.08-.22.15-.43.22-.65h0c.08-.23.14-.44.2-.65.02-.05.04-.1.05-.15.02-.07.04-.14.05-.21.08-.24.14-.47.2-.72,0-.01.01-.03.01-.04.07-.26.13-.52.18-.79.01-.04.01-.07.02-.11.03-.08.05-.17.06-.26.05-.23.1-.46.13-.7.02-.11.04-.22.06-.34.02-.11.04-.22.05-.34.01-.09.03-.18.04-.27.03-.24.06-.48.08-.73.03-.21.05-.43.06-.65.01-.05.01-.09.02-.14.02-.17.03-.35.04-.53,0-.08.01-.15.01-.23.02-.41.03-.82.03-1.24v-89c0-.42-.01-.83-.03-1.24ZM853.58,158.33c-10.01-2.25-10.86-.13-11.76,2.11-.48,1.21-3.58,19.74-6.37,36.77,3.23,6.3,5.05,13.43,5.05,20.99v89c0,24.41-19,44.47-43,46.13v239.74c24,1.66,43,21.72,43,46.13v89c0,24.41-19,44.47-43,46.13v20.12c0,18.7-15.3,34-34,34H126.5c-18.7,0-34-15.3-34-34v-20h-58v60.5c0,28.33,23.18,51.5,51.5,51.5h718c28.33,0,51.5-23.17,51.5-51.5V158.79c-.64-.16-1.29-.32-1.92-.46ZM92.5,157.45c0-18.7,15.3-34,34-34h617.12c-22.7-4.1-63.98-9.43-63.98-9.43,0,0,68.48-21.77,76.32-26.96,3.63-2.4,4.49-4.09,4.69-4.71.64-1.95.27-3.21-1.59-7.74-.2-.48-.4-.97-.6-1.47l-5.58-7.69H86c-28.32,0-51.5,23.18-51.5,51.5v55h58v-14.5ZM820.47,637.96c0-.08-.01-.16-.01-.24,0-.17-.02-.34-.04-.51-.01-.05-.01-.1-.02-.15-.01-.22-.03-.44-.06-.65-.02-.25-.05-.49-.08-.73-.01-.09-.03-.18-.04-.27-.01-.12-.03-.23-.05-.34-.02-.12-.04-.23-.06-.34-.03-.24-.08-.47-.13-.7-.01-.09-.03-.18-.06-.26-.01-.04-.01-.07-.02-.11-.05-.27-.11-.53-.18-.79,0-.01-.01-.03-.01-.04-.06-.25-.12-.48-.2-.72-.01-.07-.03-.14-.05-.21,0-.05-.03-.1-.05-.15-.06-.21-.12-.42-.2-.64h0c-.07-.23-.14-.44-.22-.66-.12-.35-.25-.69-.4-1.03-.07-.2-.15-.39-.24-.57-.02-.06-.05-.13-.08-.19-.11-.28-.24-.54-.37-.81-.13-.27-.26-.54-.41-.81-.02-.03-.03-.06-.05-.09-.12-.24-.25-.48-.4-.72-.13-.25-.27-.49-.42-.72-.18-.29-.36-.58-.55-.86-.02-.03-.05-.07-.07-.1-.11-.16-.22-.33-.34-.48-.01-.01-.02-.03-.03-.04-.18-.26-.37-.51-.56-.76-.18-.25-.38-.5-.58-.74-.21-.26-.42-.51-.65-.75-.12-.13-.24-.27-.37-.4-.03-.03-.06-.07-.09-.1-.13-.15-.28-.31-.43-.45-.02-.03-.05-.05-.07-.07-.1-.11-.21-.22-.32-.32-.14-.15-.29-.29-.44-.42-.16-.16-.33-.32-.51-.47-.19-.17-.38-.34-.58-.5l-.18-.15c-.26-.21-.53-.42-.8-.62-.09-.08-.18-.14-.27-.2-.23-.18-.46-.35-.7-.5-.09-.07-.18-.13-.27-.19-.27-.19-.55-.36-.83-.53-.07-.05-.14-.09-.21-.13-.03-.02-.06-.04-.09-.06-.17-.11-.34-.21-.52-.3-.03-.02-.07-.03-.1-.05-.19-.11-.38-.22-.58-.32-.19-.11-.39-.21-.59-.3-.32-.17-.64-.32-.97-.46-.1-.05-.2-.1-.31-.14-.29-.13-.59-.26-.9-.37-.03-.01-.05-.02-.08-.03-.22-.09-.44-.17-.66-.25-.25-.09-.51-.18-.77-.26-.23-.07-.45-.14-.68-.2-.07-.03-.15-.05-.22-.07-.11-.03-.22-.06-.33-.09t-.02-.01c-.19-.04-.38-.09-.58-.14-.05-.01-.09-.02-.14-.03-.16-.04-.31-.07-.47-.1-.35-.08-.7-.15-1.06-.21-.17-.03-.34-.06-.51-.09-.18-.02-.35-.05-.52-.07-.05-.01-.09-.01-.14-.02h-.03v141.08h.03s.09,0,.14-.02c.17-.02.34-.05.52-.07.17-.03.34-.06.51-.09.36-.06.71-.13,1.06-.21.16-.03.31-.06.47-.1.25-.06.5-.12.74-.18.11-.03.22-.06.33-.09.07-.02.15-.04.22-.07.23-.06.45-.13.68-.2.26-.08.52-.17.77-.26.22-.08.44-.16.66-.25.03-.01.05-.02.08-.03.31-.11.61-.24.9-.37.11-.04.21-.09.31-.14.33-.14.65-.29.97-.46.2-.09.4-.19.59-.3.2-.1.39-.21.58-.32.03-.02.07-.03.1-.05.18-.09.35-.19.52-.3.03-.02.06-.04.09-.06.07-.04.14-.08.21-.13.28-.17.56-.34.83-.53.09-.06.18-.12.27-.19.24-.15.47-.32.7-.5.09-.06.18-.12.27-.2.27-.2.54-.41.8-.62l.18-.15c.2-.16.39-.33.58-.5.18-.15.35-.31.51-.47.26-.23.51-.48.76-.74.02-.02.05-.04.07-.07.15-.14.3-.3.43-.45.03-.03.06-.07.09-.1.13-.13.25-.27.37-.4.23-.24.44-.49.65-.75.2-.24.4-.49.58-.74.19-.25.38-.5.56-.76,0-.01.02-.03.03-.04.12-.15.23-.32.34-.48.02-.03.05-.07.07-.1.19-.28.37-.57.55-.86.15-.23.29-.47.42-.72.15-.24.28-.48.4-.72.02-.03.03-.06.05-.09.15-.27.28-.54.41-.81.13-.27.26-.53.37-.81.03-.06.06-.13.08-.19.09-.18.17-.37.24-.57.15-.34.28-.68.4-1.03.08-.22.15-.43.22-.65h0c.08-.23.14-.44.2-.65.02-.05.04-.1.05-.15.02-.07.04-.14.05-.21.08-.24.14-.47.2-.72,0-.01.01-.03.01-.04.07-.26.13-.52.18-.79.01-.04.01-.07.02-.11.03-.08.05-.17.06-.26.05-.23.1-.46.13-.7.02-.11.04-.22.06-.34.02-.11.04-.22.05-.34.01-.09.03-.18.04-.27.03-.24.06-.48.08-.73.03-.21.05-.43.06-.65.01-.05.01-.09.02-.14.02-.17.03-.35.04-.53,0-.08.01-.15.01-.23.02-.41.03-.82.03-1.24v-89c0-.42-.01-.83-.03-1.24ZM820.47,216.96c0-.08-.01-.16-.01-.24,0-.17-.02-.34-.04-.51-.01-.05-.01-.1-.02-.15-.01-.22-.03-.44-.06-.65-.02-.25-.05-.49-.08-.73-.01-.09-.03-.18-.04-.27-.01-.12-.03-.23-.05-.34-.02-.12-.04-.23-.06-.34-.03-.24-.08-.47-.13-.7-.01-.09-.03-.18-.06-.26-.01-.04-.01-.07-.02-.11-.05-.27-.11-.53-.18-.79,0-.01-.01-.03-.01-.04-.06-.25-.12-.48-.2-.72-.01-.07-.03-.14-.05-.21,0-.05-.03-.1-.05-.15-.06-.21-.12-.42-.2-.64h0c-.07-.23-.14-.44-.22-.66-.12-.35-.25-.69-.4-1.03-.07-.2-.15-.39-.24-.57-.02-.06-.05-.13-.08-.19-.11-.28-.24-.54-.37-.81-.13-.27-.26-.54-.41-.81-.02-.03-.03-.06-.05-.09-.12-.24-.25-.48-.4-.72-.13-.25-.27-.49-.42-.72-.18-.29-.36-.58-.55-.86-.02-.03-.05-.07-.07-.1-.11-.16-.22-.33-.34-.48-.01-.01-.02-.03-.03-.04-.18-.26-.37-.51-.56-.76-.18-.25-.38-.5-.58-.74-.21-.26-.42-.51-.65-.75-.12-.13-.24-.27-.37-.4-.03-.03-.06-.07-.09-.1-.13-.15-.28-.31-.43-.45-.02-.03-.05-.05-.07-.07-.1-.11-.21-.22-.32-.32-.14-.15-.29-.29-.44-.42-.16-.16-.33-.32-.51-.47-.19-.17-.38-.34-.58-.5l-.18-.15c-.26-.21-.53-.42-.8-.62-.09-.08-.18-.14-.27-.2-.23-.18-.46-.35-.7-.5-.09-.07-.18-.13-.27-.19-.27-.19-.55-.36-.83-.53-.07-.05-.14-.09-.21-.13-.03-.02-.06-.04-.09-.06-.17-.11-.34-.21-.52-.3-.03-.02-.07-.03-.1-.05-.19-.11-.38-.22-.58-.32-.19-.11-.39-.21-.59-.3-.32-.17-.64-.32-.97-.46-.1-.05-.2-.1-.31-.14-.29-.13-.59-.26-.9-.37-.03-.01-.05-.02-.08-.03-.22-.09-.44-.17-.66-.25-.25-.09-.51-.18-.77-.26-.23-.07-.45-.14-.68-.2-.07-.03-.15-.05-.22-.07-.11-.03-.22-.06-.33-.09t-.02-.01c-.19-.04-.38-.09-.58-.14-.05-.01-.09-.02-.14-.03-.16-.04-.31-.07-.47-.1-.35-.08-.7-.15-1.06-.21-.17-.03-.34-.06-.51-.09-.18-.02-.35-.05-.52-.07-.05-.01-.09-.01-.14-.02h-.03v141.08h.03s.09,0,.14-.02c.17-.02.34-.05.52-.07.17-.03.34-.06.51-.09.36-.06.71-.13,1.06-.21.16-.03.31-.06.47-.1.25-.06.5-.12.74-.18.11-.03.22-.06.33-.09.07-.02.15-.04.22-.07.23-.06.45-.13.68-.2.26-.08.52-.17.77-.26.22-.08.44-.16.66-.25.03-.01.05-.02.08-.03.31-.11.61-.24.9-.37.11-.04.21-.09.31-.14.33-.14.65-.29.97-.46.2-.09.4-.19.59-.3.2-.1.39-.21.58-.32.03-.02.07-.03.1-.05.18-.09.35-.19.52-.3.03-.02.06-.04.09-.06.07-.04.14-.08.21-.13.28-.17.56-.34.83-.53.09-.06.18-.12.27-.19.24-.15.47-.32.7-.5.09-.06.18-.12.27-.2.27-.2.54-.41.8-.62l.18-.15c.2-.16.39-.33.58-.5.18-.15.35-.31.51-.47.26-.23.51-.48.76-.74.02-.02.05-.04.07-.07.15-.14.3-.3.43-.45.03-.03.06-.07.09-.1.13-.13.25-.27.37-.4.23-.24.44-.49.65-.75.2-.24.4-.49.58-.74.19-.25.38-.5.56-.76,0-.01.02-.03.03-.04.12-.15.23-.32.34-.48.02-.03.05-.07.07-.1.19-.28.37-.57.55-.86.15-.23.29-.47.42-.72.15-.24.28-.48.4-.72.02-.03.03-.06.05-.09.15-.27.28-.54.41-.81.13-.27.26-.53.37-.81.03-.06.06-.13.08-.19.09-.18.17-.37.24-.57.15-.34.28-.68.4-1.03.08-.22.15-.43.22-.65h0c.08-.23.14-.44.2-.65.02-.05.04-.1.05-.15.02-.07.04-.14.05-.21.08-.24.14-.47.2-.72,0-.01.01-.03.01-.04.07-.26.13-.52.18-.79.01-.04.01-.07.02-.11.03-.08.05-.17.06-.26.05-.23.1-.46.13-.7.02-.11.04-.22.06-.34.02-.11.04-.22.05-.34.01-.09.03-.18.04-.27.03-.24.06-.48.08-.73.03-.21.05-.43.06-.65.01-.05.01-.09.02-.14.02-.17.03-.35.04-.53,0-.08.01-.15.01-.23.02-.41.03-.82.03-1.24v-89c0-.42-.01-.83-.03-1.24ZM34.5,191.95v141.5h58v-141.5h-58ZM34.5,353.45v239.5h58v-239.5h-58Z"/>
      <path class="cls-6" d="M720.46,307.2v-89c0-5.92,1.13-11.57,3.16-16.78-1.24.08-2.49.14-3.76.18-32.27,1.06-48.35,6.47-64.83,25l21.3,14.95,16.26,11.42-11.31,16.34c-8.76,12.65-18.14,26.31-24.6,35.82,46.8,57.75,68.82,131.33,60.64,204.25-7.48,66.65-39.35,128.15-89.74,173.18-50.24,44.89-114.56,69.62-181.1,69.62-4.74,0-9.55-.13-14.34-.38-2.46-.14-4.71-.28-6.87-.45-9.64-.74-19.31-1.99-28.78-3.7-2.36-.43-4.72-.9-6.98-1.37-11.52-2.4-22.9-5.54-33.8-9.33-2.08-.72-4.27-1.51-6.49-2.35-2.2-.82-4.35-1.67-6.41-2.5-4.2-1.69-8.41-3.52-12.52-5.45-1.03-.47-2.07-.96-3.1-1.46l-.04-.02-.04-.02c-3.24-1.57-6.19-3.06-9.01-4.55-2.97-1.56-5.96-3.21-8.91-4.92-1.83-1.05-3.71-2.17-5.77-3.43l-.05-.03-.05-.03-.64-.4c-1.17-.72-2.33-1.44-3.5-2.18l-.05-.03-.05-.03c-1.37-.88-2.73-1.77-4.08-2.66l-.04-.03-.04-.03c-1.46-.97-2.8-1.87-4.09-2.76l-.08-.05-.05-.03c-.69-.48-1.39-.96-2.07-1.45-1.23-.87-2.51-1.8-3.92-2.82-.7-.5-1.37-1-2.08-1.53-1.19-.89-2.44-1.85-3.94-3.01-3.41-2.64-6.87-5.46-10.29-8.4-10.78-9.24-20.95-19.45-30.23-30.32-15.58-18.28-28.75-38.56-39.15-60.34-.77-1.61-1.77-3.75-2.76-5.97l-.35-.79c-.2-.45-.41-.91-.61-1.38l-1.06-2.39v-.04c-.18-.43-.37-.86-.56-1.31-.4-.95-.85-2.03-1.3-3.16-.75-1.85-1.51-3.78-2.32-5.89-.44-1.13-.84-2.23-1.21-3.25-.73-2-1.45-4.04-2.14-6.06l-1.36-3.98v-.12c-1.57-4.91-3.02-9.88-4.31-14.84-8.66-33.17-10.98-67.11-6.88-100.87,4.31-35.52,15.62-69.75,33.62-101.76,8.07-14.35,17.55-28.06,28.18-40.75l.03-.03.03-.03c1.01-1.19,2.05-2.42,3.15-3.68,1-1.16,2.07-2.35,3.24-3.65,1.2-1.33,2.28-2.51,3.31-3.61,1.52-1.63,3.15-3.33,5-5.21l.08-.08.08-.08c1.09-1.08,2.17-2.16,3.26-3.23l.06-.06.06-.06c1.72-1.67,3.48-3.34,5.24-4.97l.02-.02.02-.02c1.17-1.08,2.34-2.14,3.53-3.21.97-.87,1.94-1.71,2.91-2.56l.66-.58.05-.05.05-.05c24.78-21.32,53-37.95,83.87-49.42,30.91-11.48,63.16-17.31,95.86-17.31,6.91,0,13.89.27,20.76.8,3.97.31,7.92.7,11.77,1.17,1.53.19,3.06.39,4.61.6,2.33.32,4.7.68,7.04,1.07h.04s.04.01.04.01c1.53.26,3.06.53,4.62.81,10.35,1.91,20.67,4.46,30.67,7.58.36.11.72.22,1.09.34l27.61-37.84,11.58-15.87,16.07,11.28,23.36,16.4c12.87-15.51,25.82-26.36,40.59-34.21,13.82-7.34,29.15-11.97,47.95-14.36H126.5c-7.72,0-14,6.28-14,14v14.5h5.34c25.51,0,46.25,20.75,46.25,46.25v89c0,25.5-20.74,46.25-46.25,46.25h-5.34v239.5h5.34c25.51,0,46.25,20.75,46.25,46.25v89c0,25.5-20.74,46.25-46.25,46.25h-5.34v20c0,7.72,6.28,14,14,14h637c7.72,0,14-6.28,14-14v-20h-10.79c-25.5,0-46.25-20.75-46.25-46.25v-89c0-25.5,20.75-46.25,46.25-46.25h10.79v-239.5h-10.79c-25.5,0-46.25-20.75-46.25-46.25Z"/>
      <path class="cls-4" d="M144.09,218.2v89c0,14.44-11.81,26.25-26.25,26.25H26.25c-14.43,0-26.25-11.81-26.25-26.25v-89c0-14.44,11.82-26.25,26.25-26.25h91.59c14.44,0,26.25,11.81,26.25,26.25Z"/>
      <path class="cls-4" d="M144.09,639.2v89c0,14.44-11.81,26.25-26.25,26.25H26.25c-14.43,0-26.25-11.81-26.25-26.25v-89c0-14.44,11.82-26.25,26.25-26.25h91.59c14.44,0,26.25,11.81,26.25,26.25Z"/>
      <path class="cls-4" d="M820.5,218.2v89c0,.42-.01.83-.03,1.24,0,.08-.01.15-.01.23,0,.18-.02.36-.04.53-.01.05-.01.09-.02.14-.01.22-.03.44-.06.65-.02.25-.05.49-.08.73-.01.09-.03.18-.04.27-.01.12-.03.23-.05.34-.02.12-.04.23-.06.34-.03.24-.08.47-.13.7-.01.09-.03.18-.06.26-.01.04-.01.07-.02.11-.05.27-.11.53-.18.79,0,.01-.01.03-.01.04-.06.25-.12.48-.2.72-.01.07-.03.14-.05.21,0,.05-.03.1-.05.15-.06.21-.12.42-.2.64h0c-.07.23-.14.44-.22.66-.12.35-.25.69-.4,1.03-.07.2-.15.39-.24.57-.02.06-.05.13-.08.19-.11.28-.24.54-.37.81-.13.27-.26.54-.41.81-.02.03-.03.06-.05.09-.12.24-.25.48-.4.72-.13.25-.27.49-.42.72-.18.29-.36.58-.55.86-.02.03-.05.07-.07.1-.11.16-.22.33-.34.48-.01.01-.02.03-.03.04-.18.26-.37.51-.56.76-.18.25-.38.5-.58.74-.21.26-.42.51-.65.75-.12.13-.24.27-.37.4-.03.03-.06.07-.09.1-.13.15-.28.31-.43.45-.02.03-.05.05-.07.07-.25.26-.5.51-.76.74-.16.16-.33.32-.51.47-.19.17-.38.34-.58.5l-.18.15c-.26.21-.53.42-.8.62-.09.08-.18.14-.27.2-.23.18-.46.35-.7.5-.09.07-.18.13-.27.19-.27.19-.55.36-.83.53-.07.05-.14.09-.21.13-.03.02-.06.04-.09.06-.17.11-.34.21-.52.3-.03.02-.07.03-.1.05-.19.11-.38.22-.58.32-.19.11-.39.21-.59.3-.32.17-.64.32-.97.46-.1.05-.2.1-.31.14-.29.13-.59.26-.9.37-.03.01-.05.02-.08.03-.22.09-.44.17-.66.25-.25.09-.51.18-.77.26-.23.07-.45.14-.68.2-.07.03-.15.05-.22.07-.11.03-.22.06-.33.09-.24.06-.49.12-.74.18-.16.04-.31.07-.47.1-.35.08-.7.15-1.06.21-.17.03-.34.06-.51.09-.18.02-.35.05-.52.07-.05.01-.09.01-.14.02h-.03c-.22.03-.44.06-.66.08-.36.04-.71.07-1.07.09h-.07c-.11,0-.21,0-.32,0-.37.02-.75.03-1.13.03h-27.54c-14.44,0-26.25-11.81-26.25-26.25v-89c0-14.44,11.81-26.25,26.25-26.25h27.54c.38,0,.76.01,1.13.03.11,0,.21,0,.32,0h.07c.36.02.71.05,1.07.09.22.02.44.05.66.08h.03s.09,0,.14.02c.17.02.34.05.52.07.17.03.34.06.51.09.36.06.71.13,1.06.21.16.03.31.06.47.1.05.01.09.02.14.03.2.05.39.1.58.14t.02.01c.11.03.22.06.33.09.07.02.15.04.22.07.23.06.45.13.68.2.26.08.52.17.77.26.22.08.44.16.66.25.03.01.05.02.08.03.31.11.61.24.9.37.11.04.21.09.31.14.33.14.65.29.97.46.2.09.4.19.59.3.2.1.39.21.58.32.03.02.07.03.1.05.18.09.35.19.52.3.03.02.06.04.09.06.07.04.14.08.21.13.28.17.56.34.83.53.09.06.18.12.27.19.24.15.47.32.7.5.09.06.18.12.27.2.27.2.54.41.8.62l.18.15c.2.16.39.33.58.5.18.15.35.31.51.47.15.13.3.27.44.42.11.1.22.21.32.32.02.02.05.04.07.07.15.14.3.3.43.45.03.03.06.07.09.1.13.13.25.27.37.4.23.24.44.49.65.75.2.24.4.49.58.74.19.25.38.5.56.76,0,.01.02.03.03.04.12.15.23.32.34.48.02.03.05.07.07.1.19.28.37.57.55.86.15.23.29.47.42.72.15.24.28.48.4.72.02.03.03.06.05.09.15.27.28.54.41.81.13.27.26.53.37.81.03.06.06.13.08.19.09.18.17.37.24.57.15.34.28.68.4,1.03.08.22.15.43.22.65h0c.08.23.14.44.2.65.02.05.04.1.05.15.02.07.04.14.05.21.08.24.14.47.2.72,0,.01.01.03.01.04.07.26.13.52.18.79.01.04.01.07.02.11.03.08.05.17.06.26.05.23.1.46.13.7.02.11.04.22.06.34.02.11.04.22.05.34.01.09.03.18.04.27.03.24.06.48.08.73.03.21.05.43.06.65.01.05.01.1.02.15.02.17.03.34.04.51,0,.08.01.16.01.24.02.41.03.82.03,1.24Z"/>
      <path class="cls-4" d="M820.5,639.2v89c0,.42-.01.83-.03,1.24,0,.08-.01.15-.01.23,0,.18-.02.36-.04.53-.01.05-.01.09-.02.14-.01.22-.03.44-.06.65-.02.25-.05.49-.08.73-.01.09-.03.18-.04.27-.01.12-.03.23-.05.34-.02.12-.04.23-.06.34-.03.24-.08.47-.13.7-.01.09-.03.18-.06.26-.01.04-.01.07-.02.11-.05.27-.11.53-.18.79,0,.01-.01.03-.01.04-.06.25-.12.48-.2.72-.01.07-.03.14-.05.21,0,.05-.03.1-.05.15-.06.21-.12.42-.2.64h0c-.07.23-.14.44-.22.66-.12.35-.25.69-.4,1.03-.07.2-.15.39-.24.57-.02.06-.05.13-.08.19-.11.28-.24.54-.37.81-.13.27-.26.54-.41.81-.02.03-.03.06-.05.09-.12.24-.25.48-.4.72-.13.25-.27.49-.42.72-.18.29-.36.58-.55.86-.02.03-.05.07-.07.1-.11.16-.22.33-.34.48-.01.01-.02.03-.03.04-.18.26-.37.51-.56.76-.18.25-.38.5-.58.74-.21.26-.42.51-.65.75-.12.13-.24.27-.37.4-.03.03-.06.07-.09.1-.13.15-.28.31-.43.45-.02.03-.05.05-.07.07-.25.26-.5.51-.76.74-.16.16-.33.32-.51.47-.19.17-.38.34-.58.5l-.18.15c-.26.21-.53.42-.8.62-.09.08-.18.14-.27.2-.23.18-.46.35-.7.5-.09.07-.18.13-.27.19-.27.19-.55.36-.83.53-.07.05-.14.09-.21.13-.03.02-.06.04-.09.06-.17.11-.34.21-.52.3-.03.02-.07.03-.1.05-.19.11-.38.22-.58.32-.19.11-.39.21-.59.3-.32.17-.64.32-.97.46-.1.05-.2.1-.31.14-.29.13-.59.26-.9.37-.03.01-.05.02-.08.03-.22.09-.44.17-.66.25-.25.09-.51.18-.77.26-.23.07-.45.14-.68.2-.07.03-.15.05-.22.07-.11.03-.22.06-.33.09-.24.06-.49.12-.74.18-.16.04-.31.07-.47.1-.35.08-.7.15-1.06.21-.17.03-.34.06-.51.09-.18.02-.35.05-.52.07-.05.01-.09.01-.14.02h-.03c-.22.03-.44.06-.66.08-.36.04-.71.07-1.07.09h-.07c-.11,0-.21,0-.32,0-.37.02-.75.03-1.13.03h-27.54c-14.44,0-26.25-11.81-26.25-26.25v-89c0-14.44,11.81-26.25,26.25-26.25h27.54c.38,0,.76.01,1.13.03.11,0,.21,0,.32,0h.07c.36.02.71.05,1.07.09.22.02.44.05.66.08h.03s.09,0,.14.02c.17.02.34.05.52.07.17.03.34.06.51.09.36.06.71.13,1.06.21.16.03.31.06.47.1.05.01.09.02.14.03.2.05.39.1.58.14t.02.01c.11.03.22.06.33.09.07.02.15.04.22.07.23.06.45.13.68.2.26.08.52.17.77.26.22.08.44.16.66.25.03.01.05.02.08.03.31.11.61.24.9.37.11.04.21.09.31.14.33.14.65.29.97.46.2.09.4.19.59.3.2.1.39.21.58.32.03.02.07.03.1.05.18.09.35.19.52.3.03.02.06.04.09.06.07.04.14.08.21.13.28.17.56.34.83.53.09.06.18.12.27.19.24.15.47.32.7.5.09.06.18.12.27.2.27.2.54.41.8.62l.18.15c.2.16.39.33.58.5.18.15.35.31.51.47.15.13.3.27.44.42.11.1.22.21.32.32.02.02.05.04.07.07.15.14.3.3.43.45.03.03.06.07.09.1.13.13.25.27.37.4.23.24.44.49.65.75.2.24.4.49.58.74.19.25.38.5.56.76,0,.01.02.03.03.04.12.15.23.32.34.48.02.03.05.07.07.1.19.28.37.57.55.86.15.23.29.47.42.72.15.24.28.48.4.72.02.03.03.06.05.09.15.27.28.54.41.81.13.27.26.53.37.81.03.06.06.13.08.19.09.18.17.37.24.57.15.34.28.68.4,1.03.08.22.15.43.22.65h0c.08.23.14.44.2.65.02.05.04.1.05.15.02.07.04.14.05.21.08.24.14.47.2.72,0,.01.01.03.01.04.07.26.13.52.18.79.01.04.01.07.02.11.03.08.05.17.06.26.05.23.1.46.13.7.02.11.04.22.06.34.02.11.04.22.05.34.01.09.03.18.04.27.03.24.06.48.08.73.03.21.05.43.06.65.01.05.01.1.02.15.02.17.03.34.04.51,0,.08.01.16.01.24.02.41.03.82.03,1.24Z"/>
      <path class="cls-5" d="M793.74,623.97c-2.77,1.38-30.52,3.72-35.28,15.43s-9.88,57.43-10.84,47.9c-.3-8.47-.7-40.52-.7-40.52,0-14.44,11.81-26.25,26.25-26.25l19.67.03c.08,0,3.66,2.03.89,3.41Z"/>
      <path class="cls-7" d="M768.04,746.49c2.77-1.38,30.52-3.72,35.28-15.43s9.88-57.43,10.84-47.9c.3,8.47.7,40.52.7,40.52,0,14.44-11.81,26.25-26.25,26.25l-19.67-.03c-.08,0-3.66-2.03-.89-3.41Z"/>
      <path class="cls-5" d="M793.74,201.43c-2.77,1.38-30.52,3.72-35.28,15.43s-9.88,57.43-10.84,47.9c-.3-8.47-.7-40.52-.7-40.52,0-14.44,11.81-26.25,26.25-26.25l19.67.03c.08,0,3.66,2.03.89,3.41Z"/>
      <path class="cls-7" d="M768.04,323.96c2.77-1.38,30.52-3.72,35.28-15.43s9.88-57.43,10.84-47.9c.3,8.47.7,40.52.7,40.52,0,14.44-11.81,26.25-26.25,26.25l-19.67-.03c-.08,0-3.66-2.03-.89-3.41Z"/>
      <path class="cls-5" d="M77.89,626.8c-4,1.99-44.1,5.38-50.97,22.29s-14.28,82.98-15.66,69.21c-.43-12.24-1.01-58.55-1.01-58.55,0-20.86,17.06-37.93,37.93-37.93l28.43.04c.12,0,5.29,2.94,1.28,4.93Z"/>
      <path class="cls-7" d="M65.02,739.83c4-1.99,44.1-5.38,50.97-22.29,6.87-16.92,14.28-82.98,15.66-69.21.43,12.24,1.01,58.55,1.01,58.55,0,20.86-17.06,37.93-37.93,37.93l-28.43-.04c-.12,0-5.29-2.94-1.28-4.93Z"/>
      <path class="cls-5" d="M77.89,206.18c-4,1.99-44.1,5.38-50.97,22.29s-14.28,82.98-15.66,69.21c-.43-12.24-1.01-58.55-1.01-58.55,0-20.86,17.06-37.93,37.93-37.93l28.43.04c.12,0,5.29,2.94,1.28,4.93Z"/>
      <path class="cls-7" d="M65.02,319.21c4-1.99,44.1-5.38,50.97-22.29,6.87-16.92,14.28-82.98,15.66-69.21.43,12.24,1.01,58.55,1.01,58.55,0,20.86-17.06,37.93-37.93,37.93l-28.43-.04c-.12,0-5.29-2.94-1.28-4.93Z"/>
    </g>
    <g id="funken">
      <path class="cls-3" d="M875.16,110.63l39.56-14.28s-22.85-.67-33.96-2.93c-20.94-4.27-21.81-12.79-12.43-30.45,5.45-10.26,20.46-28.85,20.46-28.85l-33.23,21.08c-23.74,10.55-28.8-7.13-33.28-25.88-1.69-7.08-4.81-29.32-4.81-29.32,0,0-4.49,27.13-8.2,38.85-1.89,5.98-3.98,10.75-6.68,14.14-5.04,6.31-12.21,7.8-24.19,3.22-2.4-.91-4.79-2-7.17-3.22-9.77-4.97-28.03-17.89-28.03-17.89l12.99,17.89,11.11,15.3c2.32,6,5.02,10.58,2.86,17.16-1.26,3.87-4.42,7.14-8.67,9.95-12.28,8.13-45.24,15.89-45.24,15.89,0,0,30.27.62,44.14,5.76,6.51,2.41,11.37,6,12.49,11.39.41,1.94.39,4.21.08,6.65-.94,7.48-4.69,16.62-7.8,23.32-.65,1.41-1.28,2.71-1.84,3.86-2.78,5.66-11.81,6.07-11.81,6.07,0,0,20.34-6.35,30.27-12.54,6.34-3.95,11.56-5.36,15.96-4.93,11.71,1.13,17.58,15.27,23.42,28.96.45,1.05.96,2.38,1.51,3.86,2.55,6.81,5.78,16.75,5.78,16.75l.51-25.41c0-3.54,2.19-14.83,3.59-18.32,4.27-10.62,13.86-10.24,23.19-8.14,1.81.4,3.6.87,5.35,1.34l40.88,17.59s-56.26-40.74-26.81-56.87Z"/>
      <path class="cls-2" d="M822.97,147.64c-.21,3.53-1.62.14-2.23-1.26-1.99-4.55-6.5-18.99-11.43-20.45-9.19-2.73-19.49,10.67-23.23,12.74s8.6-13.56,8.05-22.44-13.57-9.04-20.54-9.42c-1.29-.07-8.47.08-3.73-1.49s19.83-4.2,22.95-11.25c3.39-7.64-17.32-26.48-12.22-24.69s11.58,7.72,17.9,9.58c2.58.76,4.88,1.61,7.58.51,6.68-2.11,8.42-22.62,9.85-24.8s1.92,5.95,2.51,8.36c.93,3.79,2.99,11.72,5.52,14.41,8.01,8.5,24.03-9.35,25.94-7.48l-10.76,18.67c-1.7,7.54,16.1,10.34,22.71,11.58s-19.13,4.59-21.4,9.59c-3.67,8.11,8.56,15,12.44,20.89-7.2-1.03-19.31-10.48-25.99-5.53-1.21.9-1.55,2.41-2.51,5.12s-1.21,13.82-1.42,17.35Z"/>
    </g>
    <g id="bombe">
      <path class="cls-4" d="M821.06,99.41c-4.33-3.43-10.62-2.7-14.05,1.63-1.53,1.93-3.14,4.01-4.82,6.2-17.25,22.36-40.88,52.99-83.64,54.39-52.1,1.71-79.23,15.93-108.5,57.84l-39.14-27.48-36.33,49.8c-3.52-1.33-7.05-2.59-10.6-3.75-1.29-.42-2.58-.84-3.87-1.24-9.38-2.92-18.86-5.25-28.36-7-1.44-.26-2.89-.52-4.33-.76-2.16-.36-4.33-.69-6.51-.99-1.44-.2-2.89-.39-4.33-.56-3.62-.44-7.23-.8-10.85-1.08-67.51-5.2-134.91,17.28-185.9,61.15-1.13.98-2.25,1.96-3.37,2.96-1.12,1-2.23,2.01-3.33,3.02-1.65,1.53-3.28,3.07-4.89,4.64-1.07,1.06-2.13,2.11-3.2,3.18-1.58,1.61-3.15,3.24-4.69,4.89-1.03,1.1-2.04,2.2-3.06,3.33-1.01,1.12-2.02,2.24-3,3.38-1,1.14-1.97,2.3-2.95,3.45-9.72,11.6-18.48,24.2-26.08,37.71-34.44,61.24-40.49,127.81-24.83,187.78,1.54,5.9,3.29,11.74,5.25,17.51h0c.66,1.92,1.33,3.83,2.03,5.73.35.96.69,1.92,1.06,2.86.72,1.89,1.47,3.78,2.23,5.66.37.94.76,1.88,1.16,2.81.79,1.87,1.6,3.72,2.43,5.56h0c.82,1.86,1.68,3.69,2.55,5.52,9.6,20.1,21.8,38.94,36.3,55.94,8.57,10.05,17.93,19.46,28.02,28.12,3.1,2.66,6.28,5.25,9.53,7.77,1.22.94,2.44,1.88,3.67,2.81.61.46,1.23.91,1.86,1.37,1.24.91,2.5,1.82,3.76,2.71.62.45,1.26.89,1.9,1.33,1.27.87,2.55,1.74,3.85,2.6,1.28.84,2.58,1.7,3.89,2.54,1.32.84,2.64,1.65,3.96,2.47,1.77,1.08,3.55,2.15,5.36,3.19,2.7,1.57,5.43,3.08,8.21,4.53,2.76,1.47,5.57,2.88,8.41,4.25.95.46,1.9.9,2.85,1.34,3.81,1.79,7.68,3.47,11.61,5.05,1.96.8,3.95,1.58,5.94,2.32s4,1.47,6.02,2.18c10.11,3.51,20.56,6.4,31.33,8.65,2.14.45,4.31.88,6.49,1.27,8.72,1.58,17.63,2.74,26.72,3.44,2.13.16,4.28.3,6.43.42,132.69,7.02,249.36-92.3,264.21-224.68,8.22-73.29-16.65-146.28-65.79-200.5,3.57-5.95,33.18-48.73,33.18-48.73l-38.42-26.97c25.76-37.04,46.59-47.82,92.79-49.34,52.18-1.71,81.37-39.56,98.82-62.16,1.63-2.11,3.18-4.12,4.66-5.99,3.43-4.33,2.7-10.62-1.63-14.05Z"/>
      <path class="cls-1" d="M662.53,261.28c-7.02,10.15-27.73,40.19-30.83,45.32-26.4-28.58-59.39-51.16-96.8-65.22l4.33-5.94c28.16,13.89,59.4,22.75,92.63,25.31,10.34.8,20.58.96,30.68.53Z"/>
      <path class="cls-7" d="M658.73,342.19c30.87,48.6,45.26,106.69,38.72,164.97-14.85,132.38-131.53,231.7-264.21,224.68-2.15-.12-4.3-.26-6.43-.42-9.09-.7-18-1.86-26.72-3.44-2.18-.4-4.34-.82-6.49-1.27-10.77-2.25-21.22-5.13-31.33-8.65-2.02-.7-4.03-1.43-6.02-2.18s-3.97-1.52-5.94-2.32c-3.93-1.58-7.8-3.27-11.61-5.05-.95-.44-1.9-.88-2.85-1.34-2.84-1.38-5.65-2.79-8.41-4.25-2.77-1.46-5.51-2.97-8.21-4.53-1.8-1.04-3.59-2.1-5.36-3.19-1.32-.82-2.64-1.63-3.96-2.47-1.3-.84-2.6-1.69-3.89-2.54-1.3-.87-2.58-1.73-3.85-2.6-.64-.44-1.27-.88-1.9-1.33-1.26-.89-2.52-1.8-3.76-2.71-.63-.46-1.25-.91-1.86-1.37-1.24-.93-2.46-1.86-3.67-2.81-3.25-2.52-6.42-5.11-9.53-7.77-10.1-8.66-19.46-18.07-28.02-28.12-3.03-3.54-5.94-7.17-8.75-10.87,38.88,28.72,86.04,47.23,137.8,51.22,146.84,11.32,275.05-98.55,286.37-245.4,2.58-33.44-1.13-65.92-10.12-96.27Z"/>
      <path class="cls-5" d="M247.11,420.67c12.78,14.15,38.17-23.54,79.25-60.63,41.07-37.09,82.27-59.54,69.49-73.69-12.78-14.15-56.43,4.45-97.51,41.54s-64.01,78.63-51.24,92.78Z"/>
      <circle class="cls-5" cx="437.87" cy="271.98" r="17.7"/>
    </g>
    <g id="nieten">
      <g>
        <circle class="cls-4" cx="197.16" cy="779.47" r="20.44"/>
        <path class="cls-7" d="M214.66,768.95c.38,1.6.6,3.26.6,4.97,0,11.84-9.6,21.43-21.43,21.43-5.45,0-10.41-2.05-14.2-5.41,3.57,5.96,10.07,9.97,17.53,9.97,11.29,0,20.44-9.15,20.44-20.44,0-3.86-1.09-7.45-2.94-10.53Z"/>
        <path class="cls-5" d="M181.48,779.21c1.41,1.34,3.71-2.7,7.6-6.8s7.92-6.71,6.5-8.06-5.72.9-9.61,5c-3.89,4.1-5.91,8.52-4.49,9.86Z"/>
      </g>
      <g>
        <circle class="cls-4" cx="144.09" cy="546.69" r="20.44"/>
        <path class="cls-7" d="M161.59,536.17c.38,1.6.6,3.26.6,4.97,0,11.84-9.6,21.43-21.43,21.43-5.45,0-10.41-2.05-14.2-5.41,3.57,5.96,10.07,9.97,17.53,9.97,11.29,0,20.44-9.15,20.44-20.44,0-3.86-1.09-7.45-2.94-10.53Z"/>
        <path class="cls-5" d="M128.41,546.43c1.41,1.34,3.71-2.7,7.6-6.8s7.92-6.71,6.5-8.06-5.72.9-9.61,5c-3.89,4.1-5.91,8.52-4.49,9.86Z"/>
      </g>
      <g>
        <circle class="cls-4" cx="144.09" cy="412.55" r="20.44"/>
        <path class="cls-7" d="M161.59,402.02c.38,1.6.6,3.26.6,4.97,0,11.84-9.6,21.43-21.43,21.43-5.45,0-10.41-2.05-14.2-5.41,3.57,5.96,10.07,9.97,17.53,9.97,11.29,0,20.44-9.15,20.44-20.44,0-3.86-1.09-7.45-2.94-10.53Z"/>
        <path class="cls-5" d="M128.41,412.28c1.41,1.34,3.71-2.7,7.6-6.8s7.92-6.71,6.5-8.06-5.72.9-9.61,5c-3.89,4.1-5.91,8.52-4.49,9.86Z"/>
      </g>
      <g>
        <circle class="cls-4" cx="746.93" cy="546.69" r="20.44"/>
        <path class="cls-7" d="M764.43,536.17c.38,1.6.6,3.26.6,4.97,0,11.84-9.6,21.43-21.43,21.43-5.45,0-10.41-2.05-14.2-5.41,3.57,5.96,10.07,9.97,17.53,9.97,11.29,0,20.44-9.15,20.44-20.44,0-3.86-1.09-7.45-2.94-10.53Z"/>
        <path class="cls-5" d="M731.25,546.43c1.41,1.34,3.71-2.7,7.6-6.8s7.92-6.71,6.5-8.06-5.72.9-9.61,5-5.91,8.52-4.49,9.86Z"/>
      </g>
      <g>
        <circle class="cls-4" cx="746.93" cy="412.55" r="20.44"/>
        <path class="cls-7" d="M764.43,402.02c.38,1.6.6,3.26.6,4.97,0,11.84-9.6,21.43-21.43,21.43-5.45,0-10.41-2.05-14.2-5.41,3.57,5.96,10.07,9.97,17.53,9.97,11.29,0,20.44-9.15,20.44-20.44,0-3.86-1.09-7.45-2.94-10.53Z"/>
        <path class="cls-5" d="M731.25,412.28c1.41,1.34,3.71-2.7,7.6-6.8s7.92-6.71,6.5-8.06-5.72.9-9.61,5-5.91,8.52-4.49,9.86Z"/>
      </g>
      <g>
        <circle class="cls-4" cx="680.11" cy="779.47" r="20.44"/>
        <path class="cls-7" d="M697.61,768.95c.38,1.6.6,3.26.6,4.97,0,11.84-9.6,21.43-21.43,21.43-5.45,0-10.41-2.05-14.2-5.41,3.57,5.96,10.07,9.97,17.53,9.97,11.29,0,20.44-9.15,20.44-20.44,0-3.86-1.09-7.45-2.94-10.53Z"/>
        <path class="cls-5" d="M664.43,779.21c1.41,1.34,3.71-2.7,7.6-6.8s7.92-6.71,6.5-8.06-5.72.9-9.61,5-5.91,8.52-4.49,9.86Z"/>
      </g>
      <g>
        <circle class="cls-4" cx="519.13" cy="779.47" r="20.44"/>
        <path class="cls-7" d="M536.62,768.95c.38,1.6.6,3.26.6,4.97,0,11.84-9.6,21.43-21.43,21.43-5.45,0-10.41-2.05-14.2-5.41,3.57,5.96,10.07,9.97,17.53,9.97,11.29,0,20.44-9.15,20.44-20.44,0-3.86-1.09-7.45-2.94-10.53Z"/>
        <path class="cls-5" d="M503.45,779.21c1.41,1.34,3.71-2.7,7.6-6.8s7.92-6.71,6.5-8.06-5.72.9-9.61,5-5.91,8.52-4.49,9.86Z"/>
      </g>
      <g>
        <circle class="cls-4" cx="358.14" cy="779.47" r="20.44"/>
        <path class="cls-7" d="M375.64,768.95c.38,1.6.6,3.26.6,4.97,0,11.84-9.6,21.43-21.43,21.43-5.45,0-10.41-2.05-14.2-5.41,3.57,5.96,10.07,9.97,17.53,9.97,11.29,0,20.44-9.15,20.44-20.44,0-3.86-1.09-7.45-2.94-10.53Z"/>
        <path class="cls-5" d="M342.46,779.21c1.41,1.34,3.71-2.7,7.6-6.8s7.92-6.71,6.5-8.06-5.72.9-9.61,5-5.91,8.52-4.49,9.86Z"/>
      </g>
      <g>
        <circle class="cls-4" cx="197.16" cy="174.81" r="20.44"/>
        <path class="cls-7" d="M214.66,164.28c.38,1.6.6,3.26.6,4.97,0,11.84-9.6,21.43-21.43,21.43-5.45,0-10.41-2.05-14.2-5.41,3.57,5.96,10.07,9.97,17.53,9.97,11.29,0,20.44-9.15,20.44-20.44,0-3.86-1.09-7.45-2.94-10.53Z"/>
        <path class="cls-5" d="M181.48,174.54c1.41,1.34,3.71-2.7,7.6-6.8s7.92-6.71,6.5-8.06-5.72.9-9.61,5c-3.89,4.1-5.91,8.52-4.49,9.86Z"/>
      </g>
      <g>
        <path class="cls-4" d="M533.74,160.53l-2.79,4.52-15.83,25.62-2.23,3.61c-.16-.06-.32-.11-.47-.16-.19-.07-.38-.14-.56-.21-.41-.15-.82-.32-1.21-.51-.2-.09-.4-.18-.59-.28-.2-.1-.39-.2-.58-.3s-.38-.21-.57-.32c-6.11-3.52-10.22-10.13-10.22-17.69,0-11.29,9.15-20.44,20.44-20.44,5.73,0,10.91,2.36,14.61,6.16Z"/>
        <path class="cls-7" d="M501.6,185.28c3.62,3.21,8.33,5.23,13.52,5.39l-2.23,3.61c-.16-.06-.32-.11-.47-.16-.19-.07-.38-.14-.56-.21-.41-.15-.82-.32-1.21-.51-.2-.09-.4-.18-.59-.28-.2-.1-.39-.2-.58-.3s-.38-.21-.57-.32c-3.01-1.75-5.52-4.24-7.31-7.22Z"/>
        <path class="cls-5" d="M503.45,174.54c1.41,1.34,3.71-2.7,7.6-6.8s7.92-6.71,6.5-8.06-5.72.9-9.61,5-5.91,8.52-4.49,9.86Z"/>
      </g>
      <g>
        <circle class="cls-4" cx="358.14" cy="174.81" r="20.44"/>
        <path class="cls-7" d="M375.64,164.28c.38,1.6.6,3.26.6,4.97,0,11.84-9.6,21.43-21.43,21.43-5.45,0-10.41-2.05-14.2-5.41,3.57,5.96,10.07,9.97,17.53,9.97,11.29,0,20.44-9.15,20.44-20.44,0-3.86-1.09-7.45-2.94-10.53Z"/>
        <path class="cls-5" d="M342.46,174.54c1.41,1.34,3.71-2.7,7.6-6.8s7.92-6.71,6.5-8.06-5.72.9-9.61,5-5.91,8.52-4.49,9.86Z"/>
      </g>
      <g>
        <circle class="cls-4" cx="517.84" cy="174.81" r="20.44"/>
        <path class="cls-7" d="M535.34,164.28c.38,1.6.6,3.26.6,4.97,0,11.84-9.6,21.43-21.43,21.43-5.45,0-10.41-2.05-14.2-5.41,3.57,5.96,10.07,9.97,17.53,9.97,11.29,0,20.44-9.15,20.44-20.44,0-3.86-1.09-7.45-2.94-10.53Z"/>
        <path class="cls-5" d="M502.16,174.54c1.41,1.34,3.71-2.7,7.6-6.8s7.92-6.71,6.5-8.06-5.72.9-9.61,5-5.91,8.52-4.49,9.86Z"/>
      </g>
    </g>
  </g>
</svg>

  <path d="M679.38 189.45L679.38 176.87L721.12 176.87Q753.09 176.87 753.09 201.58Q753.09 215.20 739.47 222.30Q748.20 224.52 753.16 230.44Q758.12 236.36 758.12 245.84Q758.12 260.19 748.43 267.74Q738.73 275.29 720.23 275.29L678.64 275.29L678.64 263.30L683.53 262.86Q687.82 262.41 687.82 258.71L687.82 189.89L679.38 189.45M720.53 230.44L705.88 230.44L705.88 261.38L719.79 261.38Q739.03 261.38 739.03 245.69Q739.03 238.29 734.22 234.37Q729.41 230.44 720.53 230.44M717.86 190.48L705.88 190.48L705.88 217.27L716.83 217.27Q726 217.27 730.37 213.50Q734.74 209.72 734.74 202.92Q734.74 196.11 730.37 193.30Q726 190.48 717.86 190.48M801.63 264.48Q817.76 264.48 817.76 238.44Q817.76 225.26 814.14 218.46Q810.51 211.65 802 211.65Q793.49 211.65 789.50 218.16Q785.50 224.67 785.50 235.92Q785.50 256.79 793.20 262.12Q796.60 264.48 801.63 264.48M767.59 237.99Q767.59 227.04 770.85 218.97Q774.10 210.91 779.58 206.62Q790.09 198.62 802.82 198.62Q811.70 198.62 817.84 201.51Q823.98 204.40 827.46 208.17Q830.94 211.94 833.38 219.12Q835.82 226.30 835.82 236.07Q835.82 256.49 825.90 267Q815.99 277.51 800.52 277.51Q785.06 277.51 776.32 267.52Q767.59 257.53 767.59 237.99M851.06 213.28L844.85 212.83L844.85 200.84L869.86 200.84L869.86 210.46Q878.15 198.62 892.58 198.62Q907.01 198.62 912.04 210.46Q920.33 198.62 934.54 198.62Q945.19 198.62 950.96 205.06Q956.74 211.50 956.74 224.38L956.74 263L965.17 263.45L965.17 275.29L929.95 275.29L929.95 264.04L934.83 263.60Q937.05 263.30 938.01 262.34Q938.98 261.38 939.12 258.86L939.12 228.22Q939.12 220.08 937.27 216.16Q935.42 212.24 928.62 212.24Q921.81 212.24 918.18 216.38Q914.56 220.53 914.56 227.48L914.56 263L922.70 263.45L922.70 275.29L887.77 275.29L887.77 264.04L892.65 263.60Q894.87 263.30 895.91 262.34Q896.94 261.38 896.94 258.71L896.94 228.22Q896.94 220.08 895.09 216.16Q893.24 212.24 886.36 212.24Q879.48 212.24 875.93 216.53Q872.38 220.82 872.38 227.19L872.38 263L880.37 263.45L880.37 275.29L845.44 275.29L845.44 264.04L850.32 263.60Q852.54 263.30 853.58 262.34Q854.62 261.38 854.62 258.71L854.76 258.71L854.76 217.86Q854.76 215.35 853.95 214.39Q853.14 213.42 851.06 213.28M980.42 270.85L980.42 185.90Q980.42 182.49 976.72 182.34L971.54 182.05L971.54 169.76L997.58 169.76L997.58 204.84Q1004.24 198.62 1015.49 198.62Q1029.40 198.62 1037.54 208.02Q1045.68 217.42 1045.68 234.44Q1045.68 277.21 1009.87 277.21Q1002.17 277.21 993.66 275.36Q985.15 273.51 980.42 270.85M997.58 222.90L997.58 261.23Q1003.21 264.19 1010.61 264.19Q1027.48 264.19 1027.48 236.81Q1027.48 211.80 1010.90 211.80Q1005.58 211.80 1001.58 214.90Q997.58 218.01 997.58 222.90M1081.06 194.48L1100.89 254.12L1101.63 254.12L1122.35 190.04L1113.32 189.45L1113.32 176.87L1147.36 176.87L1147.36 188.86L1142.48 189.30Q1140.55 189.45 1139.66 190.41Q1138.78 191.37 1137.89 193.74L1109.92 275.29L1090.68 275.29L1060.48 189.89L1052.05 189.45L1052.05 176.87L1090.23 176.87L1090.23 188.86L1085.35 189.30Q1080.76 189.60 1080.76 192.85Q1080.76 193.59 1081.06 194.48M1219.44 203.80L1219.44 258.86Q1219.44 261.23 1220.25 262.12Q1221.06 263 1223.14 263.15L1227.87 263.45L1227.87 275.29L1204.34 275.29L1204.34 266.70L1203.90 266.56Q1196.50 277.21 1183.62 277.21Q1168.52 277.21 1161.27 267.59Q1154.02 257.97 1154.02 241.25Q1154.02 221.12 1163.79 209.87Q1173.56 198.62 1193.09 198.62Q1205.67 198.62 1219.44 203.80M1202.27 251.76L1202.27 213.42Q1198.12 211.50 1190.87 211.50Q1180.96 211.50 1176.52 219.49Q1172.08 227.48 1172.08 240.66Q1172.08 264.63 1187.47 264.63Q1193.98 264.63 1198.12 260.71Q1202.27 256.79 1202.27 251.76M1307.20 263.15L1312.38 263.60L1312.38 275.29L1288.40 275.29L1288.40 265.67Q1280.26 277.21 1264.43 277.21Q1241.49 277.21 1241.49 251.61L1241.49 217.42Q1241.49 213.42 1237.79 213.28L1233.05 212.98L1233.05 200.84L1259.10 200.84L1259.10 247.76Q1259.10 255.60 1261.32 259.60Q1263.54 263.60 1270.50 263.60Q1277.45 263.60 1281.67 259.30Q1285.89 255.01 1285.89 248.94L1285.89 217.72Q1285.89 215.35 1285.07 214.39Q1284.26 213.42 1282.19 213.28L1277.45 212.98L1277.45 200.84L1303.50 200.84L1303.50 258.86Q1303.50 261.23 1304.24 262.04Q1304.98 262.86 1307.20 263.15M1321.41 169.76L1347.90 169.76L1347.90 263L1356.34 263.45L1356.34 275.29L1321.11 275.29L1321.11 264.04L1326 263.60Q1330.29 263.15 1330.29 258.86L1330.29 185.90Q1330.29 182.64 1326.59 182.34L1321.41 182.05L1321.41 169.76M1378.98 185.16L1388.60 185.16L1388.60 200.84L1408.28 200.84L1406.80 213.28L1388.60 213.28L1388.60 252.20Q1388.60 258.71 1390.97 261.30Q1393.34 263.89 1398.29 263.89Q1403.25 263.89 1408.28 260.78L1412.72 272.18Q1405.32 277.36 1393.93 277.36Q1387.27 277.36 1382.68 275.66Q1378.09 273.96 1375.87 271.88Q1373.65 269.81 1372.47 265.82Q1371.28 261.82 1371.14 259.53Q1370.99 257.23 1370.99 252.79L1370.99 213.28L1360.48 213.28L1361.96 202.47Q1368.92 201.88 1372.47 197.51Q1376.02 193.15 1378.98 185.16" fill="#242626"/>
  <path d="M686.97 384.11L675.04 384.11L675.04 380.71L676.43 380.58Q677.64 380.46 677.64 379.41L677.64 359.88L675.25 359.75L675.25 356.18L686.76 356.18Q692.93 356.18 696.40 359.46Q699.86 362.73 699.86 369.16Q699.86 373.15 698.81 376.11Q697.76 379.07 695.96 380.75Q692.34 384.11 686.97 384.11M686.51 360.25L682.77 360.25L682.77 380.08L687.05 380.08Q690.66 380.08 692.68 377.47Q694.70 374.87 694.70 369.91Q694.70 360.25 686.51 360.25M705.53 379.41L705.53 367.77Q705.53 367.10 705.30 366.83Q705.07 366.55 704.48 366.51L702.72 366.39L702.72 362.98L709.82 362.98L709.82 366.13Q710.57 364.50 712.17 363.42Q713.76 362.35 715.84 362.35Q717.92 362.35 719.81 363.28L719.81 369.54L715.91 369.83L715.91 367.90Q715.91 367.06 715.49 366.85Q715.02 366.64 714.35 366.64Q712.67 366.64 711.60 367.83Q710.53 369.03 710.53 370.88L710.53 380.62L714.18 380.79L714.18 384.11L702.93 384.11L702.93 380.92L704.31 380.79Q704.94 380.71 705.24 380.43Q705.53 380.16 705.53 379.41M731.15 381.04Q735.73 381.04 735.73 373.65Q735.73 369.91 734.70 367.98Q733.67 366.05 731.26 366.05Q728.84 366.05 727.71 367.90Q726.57 369.75 726.57 372.94Q726.57 378.86 728.76 380.37Q729.72 381.04 731.15 381.04M721.49 373.53Q721.49 370.42 722.42 368.13Q723.34 365.84 724.89 364.62Q727.88 362.35 731.49 362.35Q734.01 362.35 735.75 363.17Q737.49 363.99 738.48 365.06Q739.47 366.13 740.16 368.17Q740.85 370.21 740.85 372.98Q740.85 378.78 738.04 381.76Q735.23 384.74 730.84 384.74Q726.45 384.74 723.97 381.90Q721.49 379.07 721.49 373.53M746.02 388.10L746.02 367.77Q746.02 367.06 745.79 366.78Q745.56 366.51 744.97 366.51L743.21 366.39L743.21 362.98L750.30 362.98L750.30 365.71Q750.98 364.45 752.74 363.40Q754.50 362.35 756.94 362.35Q764.54 362.35 764.54 373.02Q764.54 378.69 762.06 381.72Q759.59 384.74 755.34 384.74Q752.82 384.74 750.85 383.52L750.85 389.32L754.25 389.49L754.25 392.80L743.42 392.80L743.42 389.61L744.80 389.49Q745.43 389.40 745.73 389.13Q746.02 388.86 746.02 388.10M759.33 373.44Q759.33 366.43 755.09 366.43Q753.33 366.43 752.09 367.50Q750.85 368.57 750.85 370.04L750.85 379.70Q752.45 380.75 754.73 380.75Q757.02 380.75 758.18 378.65Q759.33 376.55 759.33 373.44M794.78 363.82L794.78 379.45Q794.78 380.12 795.01 380.37Q795.24 380.62 795.83 380.67L797.18 380.75L797.18 384.11L790.50 384.11L790.50 381.67L790.37 381.63Q788.27 384.66 784.62 384.66Q780.33 384.66 778.28 381.93Q776.22 379.20 776.22 374.45Q776.22 368.74 778.99 365.55Q781.76 362.35 787.31 362.35Q790.88 362.35 794.78 363.82M789.91 377.43L789.91 366.55Q788.73 366.01 786.68 366.01Q783.86 366.01 782.60 368.28Q781.34 370.54 781.34 374.28Q781.34 381.09 785.71 381.09Q787.56 381.09 788.73 379.97Q789.91 378.86 789.91 377.43M809.99 382.85L809.99 358.74Q809.99 357.78 808.94 357.73L807.47 357.65L807.47 354.16L814.86 354.16L814.86 364.12Q816.75 362.35 819.94 362.35Q823.89 362.35 826.20 365.02Q828.51 367.69 828.51 372.52Q828.51 384.66 818.34 384.66Q816.16 384.66 813.74 384.13Q811.33 383.61 809.99 382.85M814.86 369.24L814.86 380.12Q816.45 380.96 818.55 380.96Q823.34 380.96 823.34 373.19Q823.34 366.09 818.64 366.09Q817.13 366.09 815.99 366.97Q814.86 367.86 814.86 369.24M850.35 363.82L850.35 379.45Q850.35 380.12 850.58 380.37Q850.81 380.62 851.40 380.67L852.74 380.75L852.74 384.11L846.06 384.11L846.06 381.67L845.94 381.63Q843.84 384.66 840.18 384.66Q835.90 384.66 833.84 381.93Q831.78 379.20 831.78 374.45Q831.78 368.74 834.56 365.55Q837.33 362.35 842.87 362.35Q846.44 362.35 850.35 363.82M845.48 377.43L845.48 366.55Q844.30 366.01 842.24 366.01Q839.43 366.01 838.17 368.28Q836.91 370.54 836.91 374.28Q836.91 381.09 841.28 381.09Q843.12 381.09 844.30 379.97Q845.48 378.86 845.48 377.43M860.39 373.32Q860.39 376.89 861.73 378.86Q863.07 380.83 865.61 380.83Q868.16 380.83 870.63 379.03L872.44 382.26Q869.46 384.70 864.96 384.70Q860.47 384.70 857.89 381.86Q855.30 379.03 855.30 373.48Q855.30 367.94 858.26 365.15Q861.23 362.35 864.94 362.35Q868.66 362.35 871.85 364.08L871.85 369.54L867.99 369.83L867.99 367.81Q867.99 366.68 867.17 366.41Q866.35 366.13 865.47 366.13Q860.39 366.13 860.39 373.32M877.48 379.41L877.48 358.95Q877.48 358.28 877.25 358.03Q877.02 357.78 876.43 357.73L874.96 357.65L874.96 354.16L882.44 354.16L882.44 372.35Q884.75 372.14 886.47 370.92Q888.19 369.70 888.82 367.73Q888.95 367.31 888.95 367.06Q888.95 366.34 888.15 366.34L886.55 366.26L886.55 362.98L895.25 362.98L895.25 366.39L893.23 366.47Q892.68 370.75 889.53 373.23L893.65 380.62L896.21 380.75L896.21 384.11L890.08 384.11L885.29 375.37Q883.91 375.75 882.44 375.96L882.44 380.62L882.48 380.62L884.87 380.75L884.87 384.11L874.88 384.11L874.88 380.92L876.26 380.79Q876.89 380.71 877.19 380.43Q877.48 380.16 877.48 379.41M918.18 380.67L919.65 380.79L919.65 384.11L912.84 384.11L912.84 381.38Q910.53 384.66 906.04 384.66Q899.53 384.66 899.53 377.39L899.53 367.69Q899.53 366.55 898.48 366.51L897.14 366.43L897.14 362.98L904.53 362.98L904.53 376.30Q904.53 378.52 905.16 379.66Q905.79 380.79 907.76 380.79Q909.74 380.79 910.93 379.57Q912.13 378.36 912.13 376.63L912.13 367.77Q912.13 367.10 911.90 366.83Q911.67 366.55 911.08 366.51L909.74 366.43L909.74 362.98L917.13 362.98L917.13 379.45Q917.13 380.12 917.34 380.35Q917.55 380.58 918.18 380.67M924.14 388.10L924.14 367.77Q924.14 367.06 923.91 366.78Q923.68 366.51 923.09 366.51L921.33 366.39L921.33 362.98L928.43 362.98L928.43 365.71Q929.10 364.45 930.86 363.40Q932.63 362.35 935.06 362.35Q942.66 362.35 942.66 373.02Q942.66 378.69 940.19 381.72Q937.71 384.74 933.47 384.74Q930.95 384.74 928.97 383.52L928.97 389.32L932.37 389.49L932.37 392.80L921.54 392.80L921.54 389.61L922.92 389.49Q923.55 389.40 923.85 389.13Q924.14 388.86 924.14 388.10M937.46 373.44Q937.46 366.43 933.21 366.43Q931.45 366.43 930.21 367.50Q928.97 368.57 928.97 370.04L928.97 379.70Q930.57 380.75 932.86 380.75Q935.15 380.75 936.30 378.65Q937.46 376.55 937.46 373.44M949.01 384.74Q947.54 384.74 946.74 383.92Q945.94 383.10 945.94 381.78Q945.94 380.46 946.76 379.59Q947.58 378.73 948.98 378.73Q950.39 378.73 951.23 379.55Q952.07 380.37 952.07 381.69Q952.07 383.02 951.27 383.88Q950.48 384.74 949.01 384.74M975.51 384.11L963.58 384.11L963.58 380.71L964.97 380.58Q966.18 380.46 966.18 379.41L966.18 359.88L963.79 359.75L963.79 356.18L975.30 356.18Q981.47 356.18 984.94 359.46Q988.40 362.73 988.40 369.16Q988.40 373.15 987.35 376.11Q986.30 379.07 984.50 380.75Q980.88 384.11 975.51 384.11M975.05 360.25L971.31 360.25L971.31 380.08L975.59 380.08Q979.20 380.08 981.22 377.47Q983.24 374.87 983.24 369.91Q983.24 360.25 975.05 360.25M1002.01 362.35Q1005.16 362.35 1007.01 363.89Q1008.86 365.42 1008.86 368.19Q1008.86 370.04 1008.06 371.45Q1007.26 372.85 1006.08 373.65Q1004.91 374.45 1003.23 374.95Q1000.41 375.79 996.89 375.79Q997.01 378.02 998.27 379.38Q999.53 380.75 1002.14 380.75Q1004.74 380.75 1007.34 378.90L1008.94 382.30Q1008.10 383.06 1006.10 383.86Q1004.11 384.66 1001.55 384.66Q996.42 384.66 994.03 381.82Q991.64 378.99 991.64 374.03Q991.64 369.07 994.37 365.71Q997.10 362.35 1002.01 362.35M1000.10 371.95Q1001.63 371.68 1002.93 370.73Q1004.24 369.79 1004.24 368.49Q1004.24 365.92 1001.72 365.92Q999.36 365.92 998.10 367.79Q996.84 369.66 996.72 372.27Q998.57 372.22 1000.10 371.95M1016.46 358.53L1019.19 358.53L1019.19 362.98L1024.77 362.98L1024.35 366.51L1019.19 366.51L1019.19 377.56Q1019.19 379.41 1019.86 380.14Q1020.53 380.88 1021.94 380.88Q1023.35 380.88 1024.77 379.99L1026.03 383.23Q1023.93 384.70 1020.70 384.70Q1018.81 384.70 1017.51 384.21Q1016.21 383.73 1015.58 383.14Q1014.95 382.56 1014.61 381.42Q1014.27 380.29 1014.23 379.64Q1014.19 378.99 1014.19 377.73L1014.19 366.51L1011.21 366.51L1011.63 363.45Q1013.60 363.28 1014.61 362.04Q1015.62 360.80 1016.46 358.53M1036.45 381.04Q1041.03 381.04 1041.03 373.65Q1041.03 369.91 1040 367.98Q1038.97 366.05 1036.55 366.05Q1034.14 366.05 1033.01 367.90Q1031.87 369.75 1031.87 372.94Q1031.87 378.86 1034.06 380.37Q1035.02 381.04 1036.45 381.04M1026.79 373.53Q1026.79 370.42 1027.71 368.13Q1028.64 365.84 1030.19 364.62Q1033.17 362.35 1036.79 362.35Q1039.31 362.35 1041.05 363.17Q1042.79 363.99 1043.78 365.06Q1044.77 366.13 1045.46 368.17Q1046.15 370.21 1046.15 372.98Q1046.15 378.78 1043.34 381.76Q1040.52 384.74 1036.13 384.74Q1031.75 384.74 1029.27 381.90Q1026.79 379.07 1026.79 373.53M1050.48 366.47L1048.71 366.34L1048.71 362.98L1055.81 362.98L1055.81 365.71Q1056.90 364.16 1058.71 363.26Q1060.52 362.35 1062.62 362.35Q1065.81 362.35 1067.55 364.18Q1069.29 366.01 1069.29 369.66L1069.29 380.62L1071.69 380.75L1071.69 384.11L1061.69 384.11L1061.69 380.92L1063.08 380.79Q1063.71 380.71 1064 380.43Q1064.30 380.16 1064.30 379.41L1064.30 370.75Q1064.30 368.44 1063.58 367.33Q1062.87 366.22 1060.87 366.22Q1058.88 366.22 1057.70 367.48Q1056.53 368.74 1056.53 370.46L1056.53 380.62L1058.92 380.75L1058.92 384.11L1048.92 384.11L1048.92 380.92L1050.31 380.79Q1050.94 380.71 1051.23 380.43Q1051.53 380.16 1051.53 379.41L1051.53 367.77Q1051.53 366.51 1050.48 366.47M1093.02 363.82L1093.02 379.45Q1093.02 380.12 1093.25 380.37Q1093.49 380.62 1094.07 380.67L1095.42 380.75L1095.42 384.11L1088.74 384.11L1088.74 381.67L1088.61 381.63Q1086.51 384.66 1082.86 384.66Q1078.58 384.66 1076.52 381.93Q1074.46 379.20 1074.46 374.45Q1074.46 368.74 1077.23 365.55Q1080 362.35 1085.55 362.35Q1089.12 362.35 1093.02 363.82M1088.15 377.43L1088.15 366.55Q1086.98 366.01 1084.92 366.01Q1082.10 366.01 1080.84 368.28Q1079.58 370.54 1079.58 374.28Q1079.58 381.09 1083.95 381.09Q1085.80 381.09 1086.98 379.97Q1088.15 378.86 1088.15 377.43M1101.80 358.53L1104.53 358.53L1104.53 362.98L1110.12 362.98L1109.70 366.51L1104.53 366.51L1104.53 377.56Q1104.53 379.41 1105.20 380.14Q1105.88 380.88 1107.28 380.88Q1108.69 380.88 1110.12 379.99L1111.38 383.23Q1109.28 384.70 1106.04 384.70Q1104.15 384.70 1102.85 384.21Q1101.55 383.73 1100.92 383.14Q1100.29 382.56 1099.95 381.42Q1099.62 380.29 1099.58 379.64Q1099.53 378.99 1099.53 377.73L1099.53 366.51L1096.55 366.51L1096.97 363.45Q1098.95 363.28 1099.95 362.04Q1100.96 360.80 1101.80 358.53M1123.52 362.35Q1126.67 362.35 1128.51 363.89Q1130.36 365.42 1130.36 368.19Q1130.36 370.04 1129.56 371.45Q1128.77 372.85 1127.59 373.65Q1126.41 374.45 1124.73 374.95Q1121.92 375.79 1118.39 375.79Q1118.52 378.02 1119.78 379.38Q1121.04 380.75 1123.64 380.75Q1126.25 380.75 1128.85 378.90L1130.45 382.30Q1129.61 383.06 1127.61 383.86Q1125.62 384.66 1123.05 384.66Q1117.93 384.66 1115.54 381.82Q1113.14 378.99 1113.14 374.03Q1113.14 369.07 1115.87 365.71Q1118.60 362.35 1123.52 362.35M1121.60 371.95Q1123.14 371.68 1124.44 370.73Q1125.74 369.79 1125.74 368.49Q1125.74 365.92 1123.22 365.92Q1120.87 365.92 1119.61 367.79Q1118.35 369.66 1118.22 372.27Q1120.07 372.22 1121.60 371.95M1160.56 363.82L1160.56 379.45Q1160.56 380.12 1160.79 380.37Q1161.02 380.62 1161.61 380.67L1162.95 380.75L1162.95 384.11L1156.28 384.11L1156.28 381.67L1156.15 381.63Q1154.05 384.66 1150.40 384.66Q1146.11 384.66 1144.05 381.93Q1142 379.20 1142 374.45Q1142 368.74 1144.77 365.55Q1147.54 362.35 1153.08 362.35Q1156.65 362.35 1160.56 363.82M1155.69 377.43L1155.69 366.55Q1154.51 366.01 1152.45 366.01Q1149.64 366.01 1148.38 368.28Q1147.12 370.54 1147.12 374.28Q1147.12 381.09 1151.49 381.09Q1153.34 381.09 1154.51 379.97Q1155.69 378.86 1155.69 377.43M1176.52 379.41L1176.52 367.77Q1176.52 367.10 1176.29 366.83Q1176.06 366.55 1175.47 366.51L1173.71 366.39L1173.71 362.98L1180.80 362.98L1180.80 366.13Q1181.56 364.50 1183.16 363.42Q1184.75 362.35 1186.83 362.35Q1188.91 362.35 1190.80 363.28L1190.80 369.54L1186.89 369.83L1186.89 367.90Q1186.89 367.06 1186.47 366.85Q1186.01 366.64 1185.34 366.64Q1183.66 366.64 1182.59 367.83Q1181.52 369.03 1181.52 370.88L1181.52 380.62L1185.17 380.79L1185.17 384.11L1173.92 384.11L1173.92 380.92L1175.30 380.79Q1175.93 380.71 1176.23 380.43Q1176.52 380.16 1176.52 379.41M1203.86 362.35Q1207.01 362.35 1208.86 363.89Q1210.71 365.42 1210.71 368.19Q1210.71 370.04 1209.91 371.45Q1209.11 372.85 1207.94 373.65Q1206.76 374.45 1205.08 374.95Q1202.27 375.79 1198.74 375.79Q1198.86 378.02 1200.12 379.38Q1201.38 380.75 1203.99 380.75Q1206.59 380.75 1209.20 378.90L1210.79 382.30Q1209.95 383.06 1207.96 383.86Q1205.96 384.66 1203.40 384.66Q1198.28 384.66 1195.88 381.82Q1193.49 378.99 1193.49 374.03Q1193.49 369.07 1196.22 365.71Q1198.95 362.35 1203.86 362.35M1201.95 371.95Q1203.48 371.68 1204.79 370.73Q1206.09 369.79 1206.09 368.49Q1206.09 365.92 1203.57 365.92Q1201.22 365.92 1199.96 367.79Q1198.70 369.66 1198.57 372.27Q1200.42 372.22 1201.95 371.95M1224.65 366.18Q1223.64 365.80 1222.22 365.80Q1220.79 365.80 1219.93 366.45Q1219.07 367.10 1219.07 368.04Q1219.07 368.99 1219.38 369.51Q1219.70 370.04 1220.37 370.42Q1221.42 370.96 1222.89 371.36Q1224.36 371.76 1225.07 371.99Q1225.79 372.22 1226.86 372.77Q1227.93 373.32 1228.47 373.95Q1229.94 375.50 1229.94 377.94Q1229.94 381.09 1227.65 382.87Q1225.37 384.66 1221.84 384.66Q1216.71 384.66 1214.11 383.35L1214.11 377.52L1217.89 377.22L1217.89 379.24Q1217.89 381.09 1221.42 381.09Q1224.95 381.09 1224.95 378.52Q1224.95 377.60 1224.34 377.01Q1223.73 376.42 1223.14 376.21Q1222.55 376 1221.73 375.79Q1220.91 375.58 1220.14 375.37Q1219.36 375.16 1218.46 374.81Q1217.55 374.45 1216.46 373.78Q1214.32 372.39 1214.32 369.14Q1214.32 365.88 1216.63 364.12Q1218.94 362.35 1222.45 362.35Q1225.95 362.35 1229.40 364.03L1229.40 369.07L1225.62 369.37L1225.62 367.60Q1225.62 366.55 1224.65 366.18M1236.83 358.53L1239.56 358.53L1239.56 362.98L1245.15 362.98L1244.73 366.51L1239.56 366.51L1239.56 377.56Q1239.56 379.41 1240.23 380.14Q1240.91 380.88 1242.31 380.88Q1243.72 380.88 1245.15 379.99L1246.41 383.23Q1244.31 384.70 1241.07 384.70Q1239.18 384.70 1237.88 384.21Q1236.58 383.73 1235.95 383.14Q1235.32 382.56 1234.98 381.42Q1234.65 380.29 1234.61 379.64Q1234.56 378.99 1234.56 377.73L1234.56 366.51L1231.58 366.51L1232 363.45Q1233.98 363.28 1234.98 362.04Q1235.99 360.80 1236.83 358.53M1256.82 381.04Q1261.40 381.04 1261.40 373.65Q1261.40 369.91 1260.37 367.98Q1259.34 366.05 1256.93 366.05Q1254.51 366.05 1253.38 367.90Q1252.25 369.75 1252.25 372.94Q1252.25 378.86 1254.43 380.37Q1255.40 381.04 1256.82 381.04M1247.16 373.53Q1247.16 370.42 1248.09 368.13Q1249.01 365.84 1250.57 364.62Q1253.55 362.35 1257.16 362.35Q1259.68 362.35 1261.42 363.17Q1263.17 363.99 1264.15 365.06Q1265.14 366.13 1265.83 368.17Q1266.53 370.21 1266.53 372.98Q1266.53 378.78 1263.71 381.76Q1260.90 384.74 1256.51 384.74Q1252.12 384.74 1249.64 381.90Q1247.16 379.07 1247.16 373.53M1271.94 379.41L1271.94 367.77Q1271.94 367.10 1271.71 366.83Q1271.48 366.55 1270.89 366.51L1269.13 366.39L1269.13 362.98L1276.23 362.98L1276.23 366.13Q1276.98 364.50 1278.58 363.42Q1280.18 362.35 1282.25 362.35Q1284.33 362.35 1286.22 363.28L1286.22 369.54L1282.32 369.83L1282.32 367.90Q1282.32 367.06 1281.90 366.85Q1281.44 366.64 1280.76 366.64Q1279.08 366.64 1278.01 367.83Q1276.94 369.03 1276.94 370.88L1276.94 380.62L1280.60 380.79L1280.60 384.11L1269.34 384.11L1269.34 380.92L1270.73 380.79Q1271.36 380.71 1271.65 380.43Q1271.94 380.16 1271.94 379.41M1299.29 362.35Q1302.44 362.35 1304.28 363.89Q1306.13 365.42 1306.13 368.19Q1306.13 370.04 1305.33 371.45Q1304.54 372.85 1303.36 373.65Q1302.18 374.45 1300.50 374.95Q1297.69 375.79 1294.16 375.79Q1294.29 378.02 1295.55 379.38Q1296.81 380.75 1299.41 380.75Q1302.02 380.75 1304.62 378.90L1306.22 382.30Q1305.38 383.06 1303.38 383.86Q1301.39 384.66 1298.82 384.66Q1293.70 384.66 1291.31 381.82Q1288.91 378.99 1288.91 374.03Q1288.91 369.07 1291.64 365.71Q1294.37 362.35 1299.29 362.35M1297.37 371.95Q1298.91 371.68 1300.21 370.73Q1301.51 369.79 1301.51 368.49Q1301.51 365.92 1298.99 365.92Q1296.64 365.92 1295.38 367.79Q1294.12 369.66 1293.99 372.27Q1295.84 372.22 1297.37 371.95M1312.43 384.74Q1310.96 384.74 1310.16 383.92Q1309.37 383.10 1309.37 381.78Q1309.37 380.46 1310.18 379.59Q1311 378.73 1312.41 378.73Q1313.82 378.73 1314.66 379.55Q1315.50 380.37 1315.50 381.69Q1315.50 383.02 1314.70 383.88Q1313.90 384.74 1312.43 384.74" fill="#5a5d5e"/>
</svg>
