<svg xmlns="http://www.w3.org/2000/svg" width="1600" height="500" viewBox="0 0 1600 500">
  <rect width="1600" height="500" fill="#0d1117"/>
  <svg x="165.0" y="44.2" width="400.8" height="386" viewBox="0 0 898.34 865.1" xmlns="http://www.w3.org/2000/svg">
  <defs>
    <style>
      .cls-1 {
        fill: #fff57c;
      }

      .cls-2 {
        fill: #f68e32;
      }

      .cls-3 {
        fill: #353738;
      }

      .cls-4 {
        fill: #4e5051;
      }

      .cls-5 {
        fill: #5a5d5e;
      }

      .cls-6 {
        fill: #c6c6c6;
      }

      .cls-7 {
        fill: #7e8182;
      }
    </style>
  </defs>
  <g id="logo_2.0_hell">
    <path class="cls-6" d="M579.04,158.95l-13.8-9.68h64.39c-9.54,6.79-18.48,15.27-27.37,26l-23.22-16.31Z"/>
    <path class="cls-6" d="M713.3,619.85v88.48c0,22.1,15.68,40.61,36.5,45v12.35H133.39v-14.33c7.57-2.86,14.18-7.67,19.24-13.79.47-.57.92-1.14,1.36-1.74.44-.59.87-1.18,1.28-1.8.42-.62.82-1.23,1.2-1.87.38-.63.76-1.27,1.1-1.92.54-.98,1.03-1.98,1.49-3,2-4.4,3.32-9.19,3.83-14.21.08-.77.14-1.55.18-2.33.04-.79.06-1.57.06-2.37v-88.48c0-.8-.02-1.58-.06-2.37-.04-.78-.1-1.56-.18-2.33-.51-5.02-1.83-9.8-3.83-14.21-.46-1.02-.95-2.02-1.49-3-.35-.65-.73-1.29-1.1-1.92-.39-.64-.79-1.25-1.2-1.87s-.85-1.21-1.28-1.8c-.44-.6-.89-1.17-1.36-1.74-5.06-6.12-11.67-10.93-19.24-13.79v-244.04c7.57-2.86,14.18-7.67,19.24-13.79.47-.57.92-1.14,1.36-1.74.44-.59.87-1.18,1.28-1.8.42-.62.82-1.23,1.2-1.87.38-.63.76-1.27,1.1-1.92.54-.98,1.03-1.98,1.49-3,2-4.4,3.32-9.19,3.83-14.21.08-.77.14-1.55.18-2.33.04-.79.06-1.57.06-2.37v-88.48c0-.8-.02-1.58-.06-2.37-.04-.78-.1-1.56-.18-2.33-.51-5.02-1.83-9.8-3.83-14.21-.46-1.02-.95-2.02-1.49-3-.35-.65-.73-1.29-1.1-1.92-.39-.64-.79-1.25-1.2-1.87s-.85-1.21-1.28-1.8c-.44-.6-.89-1.17-1.36-1.74-5.06-6.12-11.67-10.93-19.24-13.79v-9h428.55l-10.4,14.25-27.45,37.62c-.37-.12-.73-.23-1.08-.34-9.94-3.1-20.2-5.63-30.49-7.54-1.55-.28-3.07-.55-4.59-.81h-.04s-.04,0-.04,0c-2.33-.39-4.68-.75-7-1.06-1.54-.22-3.06-.42-4.58-.6-3.83-.47-7.75-.86-11.7-1.16-6.83-.53-13.77-.8-20.64-.8-32.51,0-64.57,5.79-95.29,17.21-30.69,11.39-58.75,27.93-83.38,49.13l-.05.04-.06.05-.66.57c-.96.85-1.93,1.69-2.89,2.56-1.18,1.05-2.36,2.12-3.51,3.18l-.03.02-.02.02c-1.74,1.62-3.49,3.28-5.2,4.94l-.13.13c-1.08,1.07-2.16,2.14-3.24,3.22l-.08.07-.07.08c-1.83,1.87-3.46,3.56-4.97,5.18-1.02,1.08-2.1,2.26-3.29,3.58-1.17,1.29-2.23,2.48-3.22,3.63-1.09,1.25-2.13,2.48-3.13,3.66l-.03.04-.02.03c-10.58,12.62-20,26.25-28.02,40.51-17.9,31.82-29.15,65.86-33.44,101.17-4.08,33.57-1.77,67.32,6.84,100.29,1.29,4.93,2.73,9.87,4.3,14.75v.12s1.34,3.96,1.34,3.96c.69,2.01,1.4,4.04,2.13,6.02.37,1.01.77,2.11,1.2,3.23.81,2.1,1.56,4.02,2.31,5.86.44,1.12.89,2.2,1.29,3.14.19.44.37.87.56,1.3v.04s1.04,2.38,1.04,2.38c.21.47.42.92.62,1.37l.35.79c.97,2.21,1.98,4.33,2.74,5.94,10.33,21.65,23.42,41.83,38.91,59.99,9.22,10.82,19.33,20.96,30.05,30.14,3.4,2.92,6.84,5.73,10.23,8.35,1.49,1.15,2.73,2.11,3.92,2.99.7.52,1.37,1.01,2.07,1.51,1.39,1.02,2.66,1.94,3.89,2.81.69.49,1.37.96,2.06,1.44l.05.03.08.05c1.28.88,2.61,1.79,4.07,2.75l.04.02.04.03c1.33.88,2.69,1.77,4.05,2.64l.05.03.05.03c1.16.74,2.32,1.45,3.48,2.17l.65.4.04.03.05.03c2.05,1.25,3.92,2.37,5.74,3.41,2.92,1.7,5.91,3.34,8.85,4.89,2.8,1.48,5.74,2.96,8.96,4.53h.04s.04.03.04.03c1.02.5,2.05.97,3.07,1.45,4.09,1.91,8.27,3.73,12.45,5.41,2.04.84,4.19,1.67,6.37,2.5,2.21.83,4.38,1.61,6.45,2.33,10.84,3.77,22.15,6.89,33.6,9.28,2.25.48,4.59.93,6.94,1.36,9.42,1.71,19.03,2.94,28.61,3.69,2.15.16,4.37.31,6.83.44,4.75.26,9.53.38,14.26.38,66.15,0,130.1-24.58,180.05-69.21,50.1-44.77,81.79-105.92,89.22-172.18,8.13-72.51-13.75-145.66-60.29-203.08,6.42-9.45,15.76-23.04,24.46-35.61l11.24-16.24-16.17-11.35-21.18-14.86c16.39-18.43,32.38-23.81,64.45-24.87.33,0,.66-.02.98-.04-2.8,5.93-4.36,12.55-4.36,19.53v88.48c0,22.45,16.19,41.2,37.49,45.2v236.9c-20.82,4.38-36.5,22.9-36.5,45Z"/>
    <g>
      <path class="cls-4" d="M113.51,155.31H33.97v-53.26c0-28.78,23.41-52.2,52.2-52.2h652.14l7,12.08c.05.12.11.25.16.37.07.18.15.38.23.58-6.13,3.78-46.75,33.22-46.75,33.22,0,0,34.13,19.89,43.08,21.52-8.16,4.36-17.44,7.2-28.3,7.56-14.27.47-26.7,1.83-37.87,4.22H125.94c-3.42,0-6.52,1.39-8.78,3.65-.28.28-.55.58-.81.88-.25.31-.49.63-.72.95-.56.84-1.02,1.73-1.37,2.67-.35.95-.59,1.96-.7,3-.04.41-.06.84-.06,1.26v13.49Z"/>
      <path class="cls-4" d="M849.22,152.14v660.76c0,28.78-23.41,52.2-52.2,52.2H86.17c-28.78,0-52.2-23.41-52.2-52.2v-58.59h79.54v18.82c0,.43.02.86.06,1.26.11,1.04.35,2.05.7,3,.35.94.82,1.84,1.37,2.67.23.33.47.65.72.95.26.31.53.61.81.88.28.28.58.55.88.81.31.25.63.49.95.72.84.56,1.73,1.02,2.67,1.37.95.35,1.96.59,3,.7.41.04.84.06,1.26.06h631.32c.43,0,.86-.02,1.26-.06,1.04-.11,2.05-.35,3-.7.94-.35,1.84-.82,2.67-1.37.33-.23.65-.47.95-.72.31-.26.61-.53.88-.81,2.26-2.26,3.65-5.36,3.65-8.78v-18.82h16.98c.61,0,1.21-.02,1.81-.04h.26l.55-.03c.59-.04,1.16-.08,1.76-.14h.83l1.28-.25.27-.03.63-.12.43-.07c.59-.1,1.15-.21,1.74-.34.31-.06.68-.14,1.1-.25.29-.07.58-.14.86-.21l.21-.05.2-.06.33-.09.12-.03.07-.02c.2-.06.41-.12.61-.18.19-.05.38-.11.58-.17l.08-.03h.03s.03-.02.03-.02c.53-.16,1.05-.34,1.65-.55h.03s.03-.03.03-.03c.21-.07.41-.14.61-.22l.1-.03.32-.13c.62-.23,1.15-.46,1.6-.66.3-.12.56-.24.8-.35.51-.23,1-.46,1.49-.71.41-.2.82-.41,1.21-.63.24-.12.45-.24.63-.35.6-.31,1.17-.65,1.76-1.01.09-.06.19-.12.29-.18.38-.23.87-.55,1.43-.93.1-.06.21-.14.32-.22.39-.26.78-.53,1.16-.83.23-.17.49-.36.77-.58.35-.26.71-.55,1.06-.83l.12-.1.11-.1.07-.06c.43-.34.78-.65,1.03-.87.36-.32.72-.64,1.07-.97.46-.43.85-.82,1.15-1.13.05-.04.09-.08.13-.12.35-.35.7-.72,1.03-1.09.15-.16.27-.29.36-.39.6-.64,1.07-1.21,1.42-1.63.3-.37.59-.73.86-1.08l.35-.35.84-1.24c.17-.23.31-.45.45-.64.05-.08.11-.17.16-.24.37-.55.68-1.03.9-1.4.31-.49.61-.98.88-1.48.23-.41.46-.82.68-1.24.37-.68.65-1.24.82-1.6l.04-.07c.15-.31.4-.83.67-1.47.02-.03.03-.07.04-.1.17-.37.33-.75.48-1.12.25-.6.48-1.19.7-1.82.14-.4.27-.79.4-1.18.07-.23.14-.43.2-.61l.76-2.4v-.09l.5-1.51v-1.11c.05-.23.1-.5.14-.79,0-.04.02-.08.02-.12.06-.29.12-.66.17-1.07.02-.16.05-.34.07-.54.03-.24.08-.58.12-.98.03-.3.06-.61.09-.9.06-.65.09-1.16.11-1.45l.03-.56v-.11c.03-.63.04-1.27.04-1.9v-88.48c0-.64,0-1.27-.04-1.9v-.16l-.03-.59c-.02-.27-.05-.74-.11-1.33-.03-.32-.06-.64-.09-.95-.04-.4-.09-.74-.12-.97-.02-.2-.05-.38-.07-.54-.05-.43-.11-.79-.17-1.07,0-.05,0-.09-.02-.13-.04-.28-.09-.54-.13-.77v-1.11l-.51-1.52v-.09l-.75-2.35c-.06-.2-.13-.42-.21-.66-.13-.4-.26-.79-.4-1.18-.22-.63-.45-1.23-.7-1.82-.15-.38-.31-.76-.48-1.13,0-.03-.02-.06-.04-.09-.27-.66-.52-1.16-.67-1.47l-.04-.08c-.17-.36-.45-.92-.82-1.59-.22-.43-.45-.85-.68-1.24-.28-.51-.58-1-.88-1.48-.23-.38-.54-.86-.9-1.4-.05-.08-.11-.16-.17-.25-.13-.19-.27-.4-.43-.62l-.83-1.23-.36-.36c-.27-.36-.56-.72-.86-1.09-.35-.42-.83-.99-1.42-1.64-.1-.1-.22-.23-.36-.38-.34-.38-.69-.75-1.03-1.09l-.51-.51c-.27-.27-.55-.54-.84-.81-.34-.32-.68-.63-1.01-.91-.26-.23-.61-.54-1.03-.88l-.07-.06-.11-.09-.12-.1c-.36-.29-.72-.57-1.06-.84-.28-.22-.54-.41-.77-.58-.39-.29-.78-.56-1.16-.82-.11-.09-.22-.16-.32-.23-.56-.39-1.05-.7-1.43-.92-.1-.07-.2-.13-.29-.18-.59-.38-1.16-.71-1.76-1.02-.18-.1-.39-.22-.63-.35-.4-.21-.81-.42-1.21-.62-.49-.25-.98-.48-1.49-.71-.24-.11-.5-.23-.8-.36-.18-.08-.37-.16-.58-.25l-.96-.96-5.29-1.11-1.91-.52h-.47c-.36-.07-.72-.14-1.07-.2l-.43-.08-.63-.11-.25-.03-1.27-.25h-.86c-.6-.06-1.17-.11-1.76-.14l-.55-.03h-.26c-.6-.03-1.2-.04-1.81-.04h-16.98v-235.13h15.99c.61,0,1.21-.02,1.81-.04h.26l.55-.03c.59-.04,1.16-.08,1.76-.14h.83l1.28-.25.27-.03.63-.12.43-.07c.59-.1,1.15-.21,1.74-.34.31-.06.68-.14,1.1-.25.29-.07.58-.14.86-.21l.21-.05.2-.06.33-.09.12-.03.07-.02c.2-.06.41-.12.61-.18.19-.05.38-.11.58-.17l.08-.03h.03s.03-.02.03-.02c.53-.16,1.05-.34,1.65-.55h.03s.03-.03.03-.03c.21-.07.41-.14.61-.22l.1-.03.32-.13c.62-.23,1.15-.46,1.6-.66.3-.12.56-.24.8-.35.51-.23,1-.46,1.49-.71.41-.2.82-.41,1.21-.63.24-.12.45-.24.63-.35.6-.31,1.17-.65,1.76-1.01.09-.06.19-.12.29-.18.38-.23.87-.55,1.43-.93.1-.06.21-.14.32-.22.39-.26.78-.53,1.16-.83.23-.17.49-.36.77-.57.35-.27.71-.56,1.06-.84l.12-.1.11-.1.07-.06c.43-.34.78-.65,1.03-.87.36-.32.72-.64,1.07-.97.46-.43.85-.82,1.15-1.13.05-.04.09-.08.13-.12.35-.35.7-.72,1.03-1.09.15-.16.27-.29.36-.39.6-.64,1.07-1.21,1.42-1.63.3-.37.59-.73.86-1.08l.35-.35.84-1.24c.17-.23.31-.45.45-.64.05-.08.11-.17.16-.24.37-.55.68-1.03.9-1.4.31-.49.61-.98.88-1.48.23-.41.46-.82.68-1.24.37-.68.65-1.24.82-1.6l.04-.07c.15-.31.4-.83.67-1.47.02-.03.03-.07.04-.1.17-.37.33-.75.48-1.12.25-.6.48-1.19.7-1.82.14-.4.27-.79.4-1.18.07-.23.14-.43.2-.61l.76-2.4v-.09l.5-1.51v-1.11c.05-.23.1-.5.14-.79,0-.04.02-.08.02-.12.06-.29.12-.66.17-1.07.02-.16.05-.34.07-.54.03-.24.08-.58.12-.98.03-.3.06-.61.09-.9.06-.65.09-1.16.11-1.45l.03-.56v-.11c.03-.63.04-1.27.04-1.9v-64.65c3.37-19.09,13.16-74.61,13.65-76.88.34.07.71.15,1.1.24h.04s.04.02.04.02c.88.19,1.82.43,2.73.67Z"/>
      <rect class="cls-4" x="33.97" y="335.75" width="79.54" height="238.11"/>
    </g>
    <g id="funken">
      <path class="cls-2" d="M895.61,87.15c-14.31-4.92-32.9-8.57-35.34-22.15s16.28-43.35,2.62-34.69-25.66,18.19-32.75,15.51-13.68-33.73-16.34-43.51c-2.67-13.78-9.89,38.2-16.48,42.1s-37.5-13.58-46.11-17.39,16.11,32.6,14.48,42.28-25.19,20.79-35.41,23.46,11.91,2.85,25.7,7.96c6.47,2.4,11.3,5.97,12.42,11.32.41,1.93.39,4.19.08,6.61-.93,7.44-4.66,16.52-7.75,23.18-.65,1.4-1.27,2.69-1.83,3.84-2.76,5.63-11.74,6.04-11.74,6.04,0,0,20.22-6.31,30.1-12.47,6.3-3.93,11.49-5.33,15.87-4.9,11.64,1.12,19.86,27.15,24.62,37.34s8.48-39.03,17.49-43.53,29.5,5.06,41.94,10.39-23.65-26.99-18.71-36.27,51.47-10.19,37.16-15.11Z"/>
      <path class="cls-1" d="M818.2,131.14c.08,5.63-8.68-20.13-13.58-21.58-9.14-2.71-19.38,10.61-23.1,12.67s8.55-13.48,8-22.31-36.41-7.11-24.13-10.85,19.71-4.17,22.82-11.18c3.37-7.6-23.15-30.92-11.71-24.13s11.07,7.26,17.35,9.11c2.56.76,4.85,1.6,7.54.51,6.64-2.1,7.58-14.7,9.79-24.65s5.47,19.97,7.99,22.64c7.97,8.45,32.65-13.72,27.22-6.37s-11.66,15.84-10.49,20.51,31.52,10.4,21.84,11.39-21.09,2.29-22.16,6.64,7.59,14.3,12.37,20.1-19.19-9.76-25.84-4.83c-1.2.89-1.54,2.39-2.5,5.09s-1.49,11.62-1.41,17.25Z"/>
    </g>
    <g id="bombe">
      <path class="cls-4" d="M816.3,83.18c-4.3-3.41-10.56-2.69-13.97,1.62-1.52,1.92-3.12,3.99-4.8,6.16-17.15,22.23-40.64,52.68-83.15,54.08-51.79,1.7-78.77,15.84-107.87,57.51l-38.91-27.32-36.12,49.51c-3.5-1.32-7.01-2.57-10.54-3.73-1.28-.42-2.57-.83-3.85-1.23-9.33-2.91-18.75-5.22-28.2-6.96-1.43-.26-2.87-.52-4.3-.76-2.15-.36-4.3-.68-6.47-.98-1.43-.2-2.87-.38-4.3-.56-3.6-.44-7.19-.79-10.79-1.07-67.12-5.17-134.13,17.18-184.83,60.79-1.12.98-2.24,1.95-3.35,2.94-1.11,1-2.22,2-3.31,3-1.64,1.52-3.26,3.06-4.86,4.62-1.06,1.05-2.12,2.1-3.18,3.16-1.57,1.6-3.13,3.22-4.66,4.86-1.02,1.09-2.03,2.19-3.04,3.31-1.01,1.11-2.01,2.23-2.99,3.36-.99,1.13-1.96,2.28-2.94,3.43-9.66,11.54-18.37,24.06-25.93,37.49-34.24,60.89-40.26,127.07-24.68,186.69,1.53,5.87,3.27,11.67,5.22,17.41h0c.65,1.91,1.32,3.81,2.01,5.7.34.96.69,1.91,1.05,2.85.72,1.88,1.46,3.76,2.22,5.63.37.93.76,1.86,1.15,2.8.79,1.86,1.59,3.7,2.42,5.53h0c.82,1.85,1.67,3.66,2.53,5.49,9.54,19.98,21.67,38.71,36.09,55.62,8.52,9.99,17.82,19.35,27.86,27.95,3.08,2.64,6.24,5.22,9.47,7.73,1.21.94,2.42,1.87,3.65,2.79.61.46,1.22.9,1.85,1.36,1.23.9,2.48,1.81,3.74,2.69.62.45,1.25.89,1.88,1.32,1.26.87,2.54,1.73,3.83,2.59,1.28.84,2.57,1.69,3.86,2.52,1.31.83,2.62,1.64,3.94,2.45,1.76,1.08,3.53,2.14,5.33,3.17,2.68,1.56,5.4,3.06,8.16,4.51,2.75,1.46,5.54,2.86,8.36,4.23.94.45,1.89.9,2.83,1.33,3.79,1.77,7.63,3.45,11.54,5.02,1.95.8,3.93,1.57,5.91,2.31s3.97,1.47,5.98,2.16c10.05,3.49,20.44,6.37,31.15,8.6,2.13.45,4.29.87,6.45,1.27,8.67,1.57,17.53,2.72,26.57,3.42,2.12.16,4.25.3,6.39.42,131.92,6.98,247.92-91.76,262.68-223.38,8.17-72.87-16.55-145.43-65.41-199.33,3.54-5.91,32.99-48.45,32.99-48.45l-38.2-26.82c25.61-36.83,46.32-47.55,92.25-49.06,51.88-1.7,80.9-39.33,98.24-61.8,1.62-2.1,3.16-4.1,4.64-5.96,3.41-4.3,2.69-10.56-1.62-13.97Z"/>
      <path class="cls-3" d="M658.69,244.12c-6.97,10.09-27.57,39.96-30.66,45.06-26.25-28.42-59.05-50.87-96.24-64.84l4.3-5.9c28,13.81,59.06,22.62,92.09,25.17,10.28.79,20.46.96,30.5.53Z"/>
      <path class="cls-3" d="M654.91,324.56c30.69,48.32,44.99,106.07,38.49,164.01-14.76,131.61-130.76,230.36-262.68,223.37-2.14-.12-4.28-.25-6.39-.42-9.04-.7-17.9-1.85-26.57-3.42-2.17-.39-4.32-.82-6.45-1.27-10.71-2.23-21.1-5.1-31.15-8.6-2.01-.7-4.01-1.42-5.98-2.16s-3.95-1.51-5.91-2.31c-3.91-1.57-7.75-3.25-11.54-5.02-.95-.43-1.89-.88-2.83-1.33-2.82-1.37-5.61-2.77-8.36-4.23-2.76-1.45-5.48-2.95-8.16-4.51-1.79-1.03-3.56-2.09-5.33-3.17-1.32-.81-2.62-1.62-3.94-2.45-1.3-.83-2.59-1.68-3.86-2.52-1.29-.86-2.57-1.72-3.83-2.59-.63-.44-1.26-.88-1.88-1.32-1.25-.89-2.5-1.79-3.74-2.69-.63-.46-1.24-.9-1.85-1.36-1.23-.92-2.44-1.85-3.65-2.79-3.23-2.5-6.39-5.08-9.47-7.73-10.04-8.61-19.35-17.96-27.86-27.95-3.01-3.52-5.9-7.13-8.7-10.8,38.65,28.56,85.54,46.96,137,50.92,145.99,11.25,273.46-97.98,284.71-243.97,2.56-33.25-1.13-65.54-10.06-95.71Z"/>
      <path class="cls-7" d="M245.68,402.59c12.7,14.07,37.95-23.4,78.79-60.28,40.84-36.88,81.79-59.2,69.09-73.26-12.7-14.07-56.1,4.43-96.94,41.3-40.84,36.88-63.64,78.17-50.94,92.24Z"/>
      <circle class="cls-7" cx="435.33" cy="254.76" r="17.59"/>
    </g>
    <g id="nieten">
      <g>
        <circle class="cls-4" cx="155.19" cy="527.88" r="20.32"/>
        <path class="cls-3" d="M172.58,517.42c.38,1.59.6,3.24.6,4.94,0,11.77-9.54,21.31-21.31,21.31-5.42,0-10.35-2.04-14.11-5.37,3.55,5.93,10.02,9.91,17.43,9.91,11.22,0,20.32-9.1,20.32-20.32,0-3.83-1.08-7.41-2.93-10.46Z"/>
        <path class="cls-5" d="M139.59,527.62c1.4,1.33,3.68-2.68,7.56-6.76s7.87-6.68,6.47-8.01-5.68.89-9.55,4.97c-3.87,4.08-5.87,8.47-4.47,9.8Z"/>
      </g>
      <g>
        <circle class="cls-4" cx="155.19" cy="394.51" r="20.32"/>
        <path class="cls-3" d="M172.58,384.04c.38,1.59.6,3.24.6,4.94,0,11.77-9.54,21.31-21.31,21.31-5.42,0-10.35-2.04-14.11-5.37,3.55,5.93,10.02,9.91,17.43,9.91,11.22,0,20.32-9.1,20.32-20.32,0-3.83-1.08-7.41-2.93-10.46Z"/>
        <path class="cls-5" d="M139.59,394.25c1.4,1.33,3.68-2.68,7.56-6.76,3.87-4.08,7.87-6.68,6.47-8.01s-5.68.89-9.55,4.97c-3.87,4.08-5.87,8.47-4.47,9.8Z"/>
      </g>
      <g>
        <circle class="cls-4" cx="728.69" cy="527.88" r="20.32"/>
        <path class="cls-3" d="M746.08,517.42c.38,1.59.6,3.24.6,4.94,0,11.77-9.54,21.31-21.31,21.31-5.42,0-10.35-2.04-14.11-5.37,3.55,5.93,10.02,9.91,17.43,9.91,11.22,0,20.32-9.1,20.32-20.32,0-3.83-1.08-7.41-2.93-10.46Z"/>
        <path class="cls-5" d="M713.09,527.62c1.4,1.33,3.68-2.68,7.56-6.76s7.87-6.68,6.47-8.01-5.68.89-9.55,4.97-5.87,8.47-4.47,9.8Z"/>
      </g>
      <g>
        <circle class="cls-4" cx="728.69" cy="394.51" r="20.32"/>
        <path class="cls-3" d="M746.08,384.04c.38,1.59.6,3.24.6,4.94,0,11.77-9.54,21.31-21.31,21.31-5.42,0-10.35-2.04-14.11-5.37,3.55,5.93,10.02,9.91,17.43,9.91,11.22,0,20.32-9.1,20.32-20.32,0-3.83-1.08-7.41-2.93-10.46Z"/>
        <path class="cls-5" d="M713.09,394.25c1.4,1.33,3.68-2.68,7.56-6.76s7.87-6.68,6.47-8.01-5.68.89-9.55,4.97-5.87,8.47-4.47,9.8Z"/>
      </g>
      <g>
        <circle class="cls-4" cx="196.02" cy="744.39" r="20.32"/>
        <path class="cls-3" d="M213.41,733.93c.38,1.59.6,3.24.6,4.94,0,11.77-9.54,21.31-21.31,21.31-5.42,0-10.35-2.04-14.11-5.37,3.55,5.93,10.02,9.91,17.43,9.91,11.22,0,20.32-9.1,20.32-20.32,0-3.83-1.08-7.41-2.93-10.46Z"/>
        <path class="cls-5" d="M180.43,744.13c1.4,1.33,3.68-2.68,7.56-6.76s7.87-6.68,6.47-8.01-5.68.89-9.55,4.97c-3.87,4.08-5.87,8.47-4.47,9.8Z"/>
      </g>
      <g>
        <circle class="cls-4" cx="676.17" cy="744.39" r="20.32"/>
        <path class="cls-3" d="M693.57,733.93c.38,1.59.6,3.24.6,4.94,0,11.77-9.54,21.31-21.31,21.31-5.42,0-10.35-2.04-14.11-5.37,3.55,5.93,10.02,9.91,17.43,9.91,11.22,0,20.32-9.1,20.32-20.32,0-3.83-1.08-7.41-2.93-10.46Z"/>
        <path class="cls-5" d="M660.58,744.13c1.4,1.33,3.68-2.68,7.56-6.76s7.87-6.68,6.47-8.01-5.68.89-9.55,4.97c-3.87,4.08-5.87,8.47-4.47,9.8Z"/>
      </g>
      <g>
        <circle class="cls-4" cx="516.12" cy="744.39" r="20.32"/>
        <path class="cls-3" d="M533.52,733.93c.38,1.59.6,3.24.6,4.94,0,11.77-9.54,21.31-21.31,21.31-5.42,0-10.35-2.04-14.11-5.37,3.55,5.93,10.02,9.91,17.43,9.91,11.22,0,20.32-9.1,20.32-20.32,0-3.83-1.08-7.41-2.93-10.46Z"/>
        <path class="cls-5" d="M500.53,744.13c1.4,1.33,3.68-2.68,7.56-6.76,3.87-4.08,7.87-6.68,6.47-8.01s-5.68.89-9.55,4.97-5.87,8.47-4.47,9.8Z"/>
      </g>
      <g>
        <circle class="cls-4" cx="356.07" cy="744.39" r="20.32"/>
        <path class="cls-3" d="M373.46,733.93c.38,1.59.6,3.24.6,4.94,0,11.77-9.54,21.31-21.31,21.31-5.42,0-10.35-2.04-14.11-5.37,3.55,5.93,10.02,9.91,17.43,9.91,11.22,0,20.32-9.1,20.32-20.32,0-3.83-1.08-7.41-2.93-10.46Z"/>
        <path class="cls-5" d="M340.48,744.13c1.4,1.33,3.68-2.68,7.56-6.76s7.87-6.68,6.47-8.01-5.68.89-9.55,4.97c-3.87,4.08-5.87,8.47-4.47,9.8Z"/>
      </g>
      <g>
        <circle class="cls-4" cx="196.02" cy="175.05" r="20.32"/>
        <path class="cls-3" d="M213.41,164.58c.38,1.59.6,3.24.6,4.94,0,11.77-9.54,21.31-21.31,21.31-5.42,0-10.35-2.04-14.11-5.37,3.55,5.93,10.02,9.91,17.43,9.91,11.22,0,20.32-9.1,20.32-20.32,0-3.83-1.08-7.41-2.93-10.46Z"/>
        <path class="cls-5" d="M180.43,174.79c1.4,1.33,3.68-2.68,7.56-6.76s7.87-6.68,6.47-8.01-5.68.89-9.55,4.97-5.87,8.47-4.47,9.8Z"/>
      </g>
      <g>
        <circle class="cls-4" cx="356.07" cy="175.05" r="20.32"/>
        <path class="cls-3" d="M373.46,164.58c.38,1.59.6,3.24.6,4.94,0,11.77-9.54,21.31-21.31,21.31-5.42,0-10.35-2.04-14.11-5.37,3.55,5.93,10.02,9.91,17.43,9.91,11.22,0,20.32-9.1,20.32-20.32,0-3.83-1.08-7.41-2.93-10.46Z"/>
        <path class="cls-5" d="M340.48,174.79c1.4,1.33,3.68-2.68,7.56-6.76s7.87-6.68,6.47-8.01-5.68.89-9.55,4.97-5.87,8.47-4.47,9.8Z"/>
      </g>
      <g>
        <circle class="cls-4" cx="514.84" cy="175.05" r="20.32"/>
        <path class="cls-3" d="M532.23,164.58c.38,1.59.6,3.24.6,4.94,0,11.77-9.54,21.31-21.31,21.31-5.42,0-10.35-2.04-14.11-5.37,3.55,5.93,10.02,9.91,17.43,9.91,11.22,0,20.32-9.1,20.32-20.32,0-3.83-1.08-7.41-2.93-10.46Z"/>
        <path class="cls-5" d="M499.25,174.79c1.4,1.33,3.68-2.68,7.56-6.76,3.87-4.08,7.87-6.68,6.47-8.01s-5.68.89-9.55,4.97-5.87,8.47-4.47,9.8Z"/>
      </g>
    </g>
    <path class="cls-4" d="M143.26,619.85v88.48c0,.34,0,.68-.02,1,0,.18,0,.36-.03.53,0,.08,0,.16-.02.24,0,.3-.04.6-.07.88-.03.36-.08.72-.13,1.06,0,.02,0,.05,0,.07-.02.17-.05.33-.08.49-.05.33-.11.65-.18.96v.02c-.09.42-.18.84-.29,1.24-.08.3-.16.59-.25.88,0,0,0,.02,0,.03-.04.17-.1.33-.15.5,0,.02,0,.04-.02.06,0,.03-.02.06-.03.09t0,.02c-.11.35-.23.68-.36,1.01-.1.28-.21.56-.33.83-.03.11-.08.21-.13.32-.15.35-.31.7-.48,1.04-.09.19-.18.39-.3.58-.06.13-.12.26-.19.38-.07.13-.13.25-.21.38-.08.16-.17.31-.26.46-.14.25-.28.49-.44.72-.1.17-.21.34-.33.51-.1.17-.21.34-.34.51-.14.22-.3.43-.45.64-.06.09-.13.18-.19.26-.23.3-.46.59-.7.87-.27.33-.55.65-.83.95-.21.23-.42.46-.65.68l-.18.18s-.09.1-.14.15c-.14.14-.28.27-.42.4-.23.22-.47.44-.71.64-.03.03-.05.06-.08.08-.04.03-.07.06-.11.09-.24.21-.5.42-.75.62,0,.02-.03.03-.04.04-.03.02-.06.05-.09.07-.02,0-.03.03-.05.04-.02,0-.03.02-.05.04-.11.08-.22.16-.33.25-.11.08-.22.17-.33.25-.3.22-.61.44-.91.65s-.62.41-.92.6c-.3.18-.59.35-.88.51-.25.15-.5.29-.77.41,0,0,0,0,0,0-.09.06-.19.11-.3.15-.23.12-.47.24-.71.34-.15.07-.3.15-.46.21-.15.07-.3.14-.46.2-.04.02-.09.04-.13.05-.04.02-.07.03-.11.05-.22.1-.45.19-.68.27-.03,0-.06.02-.09.03,0,0-.02,0-.03,0-.39.15-.79.29-1.19.42h0c-.31.09-.63.19-.94.27-.02,0-.04,0-.06,0-.18.05-.36.09-.54.14-.3.08-.6.15-.9.21-.04,0-.09.02-.14.03-.32.07-.65.13-.97.18h-.03c-.13.03-.28.05-.41.07h-.02c-.34.05-.68.09-1.01.12-.03,0-.05,0-.08,0-.24.03-.49.05-.73.06-.12,0-.25.03-.38.03-.13,0-.26.02-.38.02-.38.02-.76.03-1.14.03H26.1c-.37,0-.74,0-1.09-.02-.03,0-.07,0-.1,0-.12,0-.23,0-.35-.02h-.07c-.35-.02-.7-.05-1.04-.09-.31-.03-.62-.07-.92-.11-.04,0-.08,0-.12-.02-.17-.02-.33-.05-.5-.08-.03,0-.07,0-.1,0-.32-.05-.64-.11-.94-.18-.37-.07-.74-.16-1.09-.25-.05,0-.1-.03-.15-.04-.02,0-.04,0-.05,0-.28-.07-.56-.15-.84-.23-.3-.09-.6-.18-.88-.29-.58-.19-1.14-.4-1.7-.64-.18-.07-.36-.15-.54-.24-.52-.22-1.02-.47-1.52-.73-.02,0-.03-.02-.05-.03-.21-.11-.42-.22-.63-.34-.18-.1-.36-.2-.54-.31-.18-.1-.35-.21-.52-.32-.36-.22-.7-.44-1.03-.68-.16-.11-.32-.22-.48-.34-.16-.11-.32-.23-.47-.35-.48-.36-.94-.74-1.39-1.13-.2-.17-.41-.35-.6-.53l-.02-.02c-.22-.2-.43-.41-.64-.62-.15-.15-.3-.3-.44-.45-.09-.09-.18-.18-.27-.28-.16-.16-.31-.33-.46-.5-.21-.24-.41-.48-.62-.72-.23-.29-.46-.58-.69-.87-.05-.07-.11-.14-.16-.21-.22-.29-.43-.6-.64-.9-.03-.04-.06-.09-.09-.13-.2-.29-.39-.6-.58-.9-.17-.27-.33-.55-.48-.83-.1-.15-.18-.31-.26-.47-.02-.02-.03-.04-.04-.07-.16-.29-.31-.59-.45-.88-.14-.29-.28-.59-.41-.89-.08-.16-.15-.34-.22-.51-.26-.63-.5-1.26-.71-1.92-.05-.15-.1-.3-.14-.45-.11-.34-.2-.68-.29-1.01-.11-.42-.21-.84-.29-1.26-.08-.37-.15-.74-.21-1.11,0-.08-.03-.16-.04-.24-.06-.41-.11-.82-.15-1.23-.03-.3-.06-.6-.08-.9,0-.04,0-.09,0-.13v-.1c0-.1-.02-.2-.02-.31,0-.03,0-.07,0-.1v-.15c0-.32-.02-.64-.02-.96v-88.48c0-.33,0-.65.02-.96v-.15s0-.07,0-.1c0-.11,0-.21.02-.31v-.1s0-.09,0-.13c.02-.31.05-.61.08-.9.04-.42.09-.83.15-1.23,0-.08.03-.16.04-.24.06-.38.13-.75.21-1.11.08-.43.18-.85.29-1.26.09-.34.18-.68.29-1.01.04-.15.09-.3.14-.45.21-.66.45-1.29.71-1.92.07-.17.14-.35.22-.51.13-.31.27-.61.41-.89.14-.3.29-.6.45-.88,0-.03.02-.05.04-.07.08-.16.16-.32.26-.47.15-.28.31-.56.48-.83.19-.31.38-.62.58-.9.03-.04.06-.09.09-.13.21-.31.42-.62.64-.9.05-.07.11-.14.16-.21.23-.3.46-.59.69-.87.21-.24.41-.48.62-.72.15-.17.3-.34.46-.5.09-.1.18-.19.27-.28.14-.15.29-.3.44-.45.21-.21.42-.42.64-.62t.02-.02c.19-.18.4-.36.6-.53.45-.4.91-.78,1.39-1.13.15-.12.31-.24.47-.35.16-.12.32-.23.48-.34.34-.24.68-.46,1.03-.68.17-.11.34-.22.52-.32.18-.11.36-.21.54-.31.21-.12.42-.23.63-.34.02,0,.03-.02.05-.03.5-.26,1-.51,1.52-.73.18-.09.36-.17.54-.24.56-.24,1.12-.45,1.7-.64.29-.11.59-.2.88-.29.28-.08.56-.16.84-.23,0,0,.03,0,.05,0,.05,0,.1-.03.15-.04.36-.09.73-.18,1.09-.25.31-.07.63-.13.94-.18.03,0,.07,0,.1,0,.17-.03.33-.06.5-.08.04,0,.08-.02.12-.02.31-.04.62-.08.92-.11.35-.04.7-.07,1.04-.09h.07c.12,0,.23-.02.35-.02.03,0,.07,0,.1,0,.36,0,.73-.02,1.09-.02h91.06c.39,0,.77,0,1.14.03.12,0,.25,0,.38.02.13,0,.26.02.38.03.24,0,.49.03.73.06.03,0,.05,0,.08,0,.34.03.68.07,1.01.12h.02c.13.02.28.04.41.07h.03c.33.05.66.11.97.18.05,0,.1.02.14.03.31.06.61.13.9.21.18.05.36.09.54.14.02,0,.04,0,.06,0,.32.08.63.18.94.27h0c.41.13.81.27,1.19.42,0,0,.02,0,.03,0,.03,0,.06.02.09.03.23.09.46.17.68.27.04.02.07.03.11.05.04,0,.09.03.13.05.14.05.27.11.4.17.07.02.13.05.19.08.12.05.23.1.33.16.24.1.48.22.71.34.11.04.21.09.3.15,0,0,0,0,0,0,.27.12.52.26.77.41.3.16.59.33.88.51.31.19.62.39.92.6.31.21.62.43.91.65.11.08.22.17.33.25.11.09.22.17.33.25.02.02.03.03.05.04.02,0,.03.03.05.04.03.02.06.05.09.07,0,0,.03.02.04.04.25.2.51.41.75.62.04.03.07.06.11.09.03.02.05.05.08.08.24.2.48.42.71.64.14.13.28.26.42.4.05.05.1.1.14.15l.18.18c.23.22.44.45.65.68.28.31.56.63.83.95.24.29.47.58.7.87.06.08.13.17.19.26.15.21.31.42.45.64.13.17.24.34.34.51.12.17.23.34.33.51.16.23.3.47.44.72.09.15.18.3.26.46.08.13.14.25.21.38.07.12.13.25.19.38.02.04.04.07.06.11.09.16.17.32.24.47.17.35.33.7.48,1.04.05.11.1.21.13.32.12.27.23.55.33.83.13.34.25.67.36,1.01t0,.02s.02.06.03.09c0,.02,0,.04.02.06.05.17.11.33.15.5,0,0,0,.02,0,.03.09.3.17.59.25.88.11.41.2.83.29,1.24v.02c.07.32.13.64.18.96.03.16.06.32.08.49,0,.02,0,.05,0,.07.05.35.1.71.13,1.06.03.29.06.59.07.88.02.08.02.16.02.24,0,.09,0,.18.02.26,0,.09,0,.18,0,.27,0,.33.02.67.02,1Z"/>
    <path class="cls-7" d="M77.44,607.52c-3.98,1.98-43.85,5.35-50.67,22.17s-14.2,82.49-15.57,68.81c-.43-12.17-1.01-58.21-1.01-58.21,0-20.74,16.96-37.71,37.71-37.71l28.26.04c.11,0,5.26,2.92,1.28,4.9Z"/>
    <path class="cls-3" d="M64.64,719.9c3.98-1.98,43.85-5.35,50.67-22.17,6.83-16.82,14.2-82.49,15.57-68.81.43,12.17,1.01,58.21,1.01,58.21,0,20.74-16.96,37.71-37.71,37.71l-28.26-.04c-.11,0-5.26-2.92-1.28-4.9Z"/>
    <path class="cls-4" d="M143.26,201.29v88.48c0,.34,0,.68-.02,1,0,.18,0,.36-.03.53,0,.08,0,.16-.02.24,0,.3-.04.6-.07.88-.03.36-.08.72-.13,1.06,0,.02,0,.05,0,.07-.02.17-.05.33-.08.49-.05.33-.11.65-.18.96v.02c-.09.42-.18.84-.29,1.24-.08.3-.16.59-.25.88,0,0,0,.02,0,.03-.04.17-.1.33-.15.5,0,.02,0,.04-.02.06,0,.03-.02.06-.03.09t0,.02c-.11.35-.23.68-.36,1.01-.1.28-.21.56-.33.83-.03.11-.08.21-.13.32-.15.35-.31.7-.48,1.04-.09.19-.18.39-.3.58-.06.13-.12.26-.19.38-.07.13-.13.25-.21.38-.08.16-.17.31-.26.46-.14.25-.28.49-.44.72-.1.17-.21.34-.33.51-.1.17-.21.34-.34.51-.14.22-.3.43-.45.64-.06.09-.13.18-.19.26-.23.3-.46.59-.7.87-.27.33-.55.65-.83.95-.21.23-.42.46-.65.68l-.18.18s-.09.1-.14.15c-.14.14-.28.27-.42.4-.23.22-.47.44-.71.64-.03.03-.05.06-.08.08-.04.03-.07.06-.11.09-.24.21-.5.42-.75.62,0,.02-.03.03-.04.04-.03.02-.06.05-.09.07-.02,0-.03.03-.05.04-.02,0-.03.02-.05.04-.11.08-.22.16-.33.25-.11.08-.22.17-.33.25-.3.22-.61.44-.91.65s-.62.41-.92.6c-.3.18-.59.35-.88.51-.25.15-.5.29-.77.41,0,0,0,0,0,0-.09.06-.19.11-.3.15-.23.12-.47.24-.71.34-.15.07-.3.15-.46.21-.15.07-.3.14-.46.2-.04.02-.09.04-.13.05-.04.02-.07.03-.11.05-.22.1-.45.19-.68.27-.03,0-.06.02-.09.03,0,0-.02,0-.03,0-.39.15-.79.29-1.19.42h0c-.31.09-.63.19-.94.27-.02,0-.04,0-.06,0-.18.05-.36.09-.54.14-.3.08-.6.15-.9.21-.04,0-.09.02-.14.03-.32.07-.65.13-.97.18h-.03c-.13.03-.28.05-.41.07h-.02c-.34.05-.68.09-1.01.12-.03,0-.05,0-.08,0-.24.03-.49.05-.73.06-.12,0-.25.03-.38.03-.13,0-.26.02-.38.02-.38.02-.76.03-1.14.03H26.1c-.37,0-.74,0-1.09-.02-.03,0-.07,0-.1,0-.12,0-.23,0-.35-.02h-.07c-.35-.02-.7-.05-1.04-.09-.31-.03-.62-.07-.92-.11-.04,0-.08,0-.12-.02-.17-.02-.33-.05-.5-.08-.03,0-.07,0-.1,0-.32-.05-.64-.11-.94-.18-.37-.07-.74-.16-1.09-.25-.05,0-.1-.03-.15-.04-.02,0-.04,0-.05,0-.28-.07-.56-.15-.84-.23-.3-.09-.6-.18-.88-.29-.58-.19-1.14-.4-1.7-.64-.18-.07-.36-.15-.54-.24-.52-.22-1.02-.47-1.52-.73-.02,0-.03-.02-.05-.03-.21-.11-.42-.22-.63-.34-.18-.1-.36-.2-.54-.31-.18-.1-.35-.21-.52-.32-.36-.22-.7-.44-1.03-.68-.16-.11-.32-.22-.48-.34-.16-.11-.32-.23-.47-.35-.48-.36-.94-.74-1.39-1.13-.2-.17-.41-.35-.6-.53l-.02-.02c-.22-.2-.43-.41-.64-.62-.15-.15-.3-.3-.44-.45-.09-.09-.18-.18-.27-.28-.16-.16-.31-.33-.46-.5-.21-.24-.41-.48-.62-.72-.23-.29-.46-.58-.69-.87-.05-.07-.11-.14-.16-.21-.22-.29-.43-.6-.64-.9-.03-.04-.06-.09-.09-.13-.2-.29-.39-.6-.58-.9-.17-.27-.33-.55-.48-.83-.1-.15-.18-.31-.26-.47-.02-.02-.03-.04-.04-.07-.16-.29-.31-.59-.45-.88-.14-.29-.28-.59-.41-.89-.08-.16-.15-.34-.22-.51-.26-.63-.5-1.26-.71-1.92-.05-.15-.1-.3-.14-.45-.11-.34-.2-.68-.29-1.01-.11-.42-.21-.84-.29-1.26-.08-.37-.15-.74-.21-1.11,0-.08-.03-.16-.04-.24-.06-.41-.11-.82-.15-1.23-.03-.3-.06-.6-.08-.9,0-.04,0-.09,0-.13v-.1c0-.1-.02-.2-.02-.31,0-.03,0-.07,0-.1v-.15c0-.32-.02-.64-.02-.96v-88.48c0-.33,0-.65.02-.96v-.15s0-.07,0-.1c0-.11,0-.21.02-.31v-.1s0-.09,0-.13c.02-.31.05-.61.08-.9.04-.42.09-.83.15-1.23,0-.08.03-.16.04-.24.06-.38.13-.75.21-1.11.08-.43.18-.85.29-1.26.09-.34.18-.68.29-1.01.04-.15.09-.3.14-.45.21-.66.45-1.29.71-1.92.07-.17.14-.35.22-.51.13-.31.27-.61.41-.89.14-.3.29-.6.45-.88,0-.03.02-.05.04-.07.08-.16.16-.32.26-.47.15-.28.31-.56.48-.83.19-.31.38-.62.58-.9.03-.04.06-.09.09-.13.21-.31.42-.62.64-.9.05-.07.11-.14.16-.21.23-.3.46-.59.69-.87.21-.24.41-.48.62-.72.15-.17.3-.34.46-.5.09-.1.18-.19.27-.28.14-.15.29-.3.44-.45.21-.21.42-.42.64-.62t.02-.02c.19-.18.4-.36.6-.53.45-.4.91-.78,1.39-1.13.15-.12.31-.24.47-.35.16-.12.32-.23.48-.34.34-.24.68-.46,1.03-.68.17-.11.34-.22.52-.32.18-.11.36-.21.54-.31.21-.12.42-.23.63-.34.02,0,.03-.02.05-.03.5-.26,1-.51,1.52-.73.18-.09.36-.17.54-.24.56-.24,1.12-.45,1.7-.64.29-.11.59-.2.88-.29.28-.08.56-.16.84-.23,0,0,.03,0,.05,0,.05,0,.1-.03.15-.04.36-.09.73-.18,1.09-.25.31-.07.63-.13.94-.18.03,0,.07,0,.1,0,.17-.03.33-.06.5-.08.04,0,.08-.02.12-.02.31-.04.62-.08.92-.11.35-.04.7-.07,1.04-.09h.07c.12,0,.23-.02.35-.02.03,0,.07,0,.1,0,.36,0,.73-.02,1.09-.02h91.06c.39,0,.77,0,1.14.03.12,0,.25,0,.38.02.13,0,.26.02.38.03.24,0,.49.03.73.06.03,0,.05,0,.08,0,.34.03.68.07,1.01.12h.02c.13.02.28.04.41.07h.03c.33.05.66.11.97.18.05,0,.1.02.14.03.31.06.61.13.9.21.18.05.36.09.54.14.02,0,.04,0,.06,0,.32.08.63.18.94.27h0c.41.13.81.27,1.19.42,0,0,.02,0,.03,0,.03,0,.06.02.09.03.23.09.46.17.68.27.04.02.07.03.11.05.04,0,.09.03.13.05.14.05.27.11.4.17.07.02.13.05.19.08.12.05.23.1.33.16.24.1.48.22.71.34.11.04.21.09.3.15,0,0,0,0,0,0,.27.12.52.26.77.41.3.16.59.33.88.51.31.19.62.39.92.6.31.21.62.43.91.65.11.08.22.17.33.25.11.09.22.17.33.25.02.02.03.03.05.04.02,0,.03.03.05.04.03.02.06.05.09.07,0,0,.03.02.04.04.25.2.51.41.75.62.04.03.07.06.11.09.03.02.05.05.08.08.24.2.48.42.71.64.14.13.28.26.42.4.05.05.1.1.14.15l.18.18c.23.22.44.45.65.68.28.31.56.63.83.95.24.29.47.58.7.87.06.08.13.17.19.26.15.21.31.42.45.64.13.17.24.34.34.51.12.17.23.34.33.51.16.23.3.47.44.72.09.15.18.3.26.46.08.13.14.25.21.38.07.12.13.25.19.38.02.04.04.07.06.11.09.16.17.32.24.47.17.35.33.7.48,1.04.05.11.1.21.13.32.12.27.23.55.33.83.13.34.25.67.36,1.01t0,.02s.02.06.03.09c0,.02,0,.04.02.06.05.17.11.33.15.5,0,0,0,.02,0,.03.09.3.17.59.25.88.11.41.2.83.29,1.24v.02c.07.32.13.64.18.96.03.16.06.32.08.49,0,.02,0,.05,0,.07.05.35.1.71.13,1.06.03.29.06.59.07.88.02.08.02.16.02.24,0,.09,0,.18.02.26,0,.09,0,.18,0,.27,0,.33.02.67.02,1Z"/>
    <path class="cls-7" d="M77.44,189.34c-3.98,1.98-43.85,5.35-50.67,22.17-6.83,16.82-14.2,82.49-15.57,68.81-.43-12.17-1.01-58.21-1.01-58.21,0-20.74,16.96-37.71,37.71-37.71l28.26.04c.11,0,5.26,2.92,1.28,4.9Z"/>
    <path class="cls-3" d="M64.64,301.72c3.98-1.98,43.85-5.35,50.67-22.17,6.83-16.82,14.2-82.49,15.57-68.81.43,12.17,1.01,58.21,1.01,58.21,0,20.74-16.96,37.71-37.71,37.71l-28.26-.04c-.11,0-5.26-2.92-1.28-4.9Z"/>
    <path class="cls-4" d="M811.77,204.27v88.48c0,.42,0,.83-.03,1.23,0,.08,0,.15,0,.23,0,.18-.02.36-.04.53,0,.05,0,.09-.02.14,0,.22-.03.44-.06.65-.02.25-.05.49-.08.73,0,.09-.03.18-.04.27,0,.12-.03.23-.05.34-.02.12-.04.23-.06.34-.03.24-.08.47-.13.7,0,.09-.03.18-.06.26,0,.04,0,.07-.02.11-.05.27-.11.53-.18.79,0,0,0,.03,0,.04-.06.25-.12.48-.2.72,0,.07-.03.14-.05.21,0,.05-.03.1-.05.15-.06.21-.12.42-.2.64h0c-.07.23-.14.44-.22.66-.12.35-.25.69-.4,1.02-.07.2-.15.39-.24.57-.02.06-.05.13-.08.19-.11.28-.24.54-.37.81-.13.27-.26.54-.41.81-.02.03-.03.06-.05.09-.12.24-.25.48-.4.72-.13.25-.27.49-.42.72-.18.29-.36.58-.55.86-.02.03-.05.07-.07.1-.11.16-.22.33-.34.48,0,0-.02.03-.03.04-.18.26-.37.51-.56.76-.18.25-.38.5-.58.74-.21.26-.42.51-.65.75-.12.13-.24.27-.37.4-.03.03-.06.07-.09.1-.13.15-.28.31-.43.45-.02.03-.05.05-.07.07-.25.26-.5.51-.76.74-.16.16-.33.32-.51.47-.19.17-.38.34-.58.5l-.18.15c-.26.21-.53.42-.8.62-.09.08-.18.14-.27.2-.23.18-.46.35-.7.5-.09.07-.18.13-.27.19-.27.19-.55.36-.83.53-.07.05-.14.09-.21.13-.03.02-.06.04-.09.06-.17.11-.34.21-.52.3-.03.02-.07.03-.1.05-.19.11-.38.22-.58.32-.19.11-.39.21-.59.3-.32.17-.64.32-.96.46-.1.05-.2.1-.31.14-.29.13-.59.26-.89.37-.03,0-.05.02-.08.03-.22.09-.44.17-.66.25-.25.09-.51.18-.77.26-.23.07-.45.14-.68.2-.07.03-.15.05-.22.07-.11.03-.22.06-.33.09-.24.06-.49.12-.74.18-.16.04-.31.07-.47.1-.35.08-.7.15-1.05.21-.17.03-.34.06-.51.09-.18.02-.35.05-.52.07-.05,0-.09,0-.14.02h-.03c-.22.03-.44.06-.66.08-.36.04-.71.07-1.06.09h-.07c-.11,0-.21,0-.32,0-.37.02-.75.03-1.12.03h-27.38c-.36,0-.71,0-1.06-.02-.17,0-.35-.02-.52-.03-.36-.02-.72-.05-1.07-.09-.32-.03-.64-.07-.94-.12-.2-.02-.4-.05-.6-.09-.06,0-.11-.02-.17-.03-.29-.04-.59-.09-.87-.16-.41-.08-.82-.17-1.22-.28-.34-.09-.69-.18-1.02-.29-.3-.09-.58-.18-.87-.29,0,0-.03,0-.04,0-.03,0-.06-.02-.09-.03s-.05-.02-.08-.03c-.21-.07-.42-.15-.63-.23-.19-.07-.37-.14-.56-.22-.21-.08-.42-.17-.62-.26-.62-.27-1.22-.56-1.81-.87-.3-.16-.59-.32-.87-.49-.23-.13-.46-.27-.67-.4-.03-.02-.05-.03-.08-.05-.61-.38-1.18-.78-1.75-1.2-.16-.11-.31-.23-.45-.35-.38-.29-.75-.59-1.1-.9-.12-.1-.22-.19-.33-.29s-.22-.2-.33-.3c-.1-.09-.19-.18-.29-.28-.18-.16-.35-.33-.51-.5-.44-.44-.86-.89-1.25-1.37-.32-.35-.61-.72-.88-1.08-.13-.16-.26-.33-.38-.5-.4-.54-.77-1.08-1.11-1.65-.14-.23-.28-.46-.41-.69-.16-.27-.31-.54-.46-.82-.15-.27-.29-.56-.43-.84-.02-.04-.05-.09-.06-.13-.13-.26-.25-.52-.36-.78,0,0,0-.02,0-.03-.08-.17-.16-.34-.22-.52,0,0-.02-.02-.02-.03-.13-.31-.25-.62-.37-.92-.11-.31-.22-.62-.32-.93-.05-.17-.11-.34-.16-.51-.02-.05-.03-.1-.05-.15-.09-.31-.18-.63-.26-.95-.1-.39-.19-.78-.27-1.17-.08-.37-.15-.75-.21-1.12-.02-.13-.04-.26-.06-.39,0-.03,0-.05,0-.08-.05-.31-.08-.62-.11-.92,0-.05,0-.1-.02-.15-.03-.25-.05-.5-.06-.75v-.03c-.02-.22-.03-.44-.04-.65-.02-.39-.03-.77-.03-1.15v-88.48c0-.39,0-.77.03-1.15,0-.21.02-.43.04-.65v-.03c0-.25.03-.5.06-.75,0-.05,0-.1.02-.15.03-.31.06-.62.11-.92,0-.03,0-.05,0-.08.02-.13.04-.26.06-.39.06-.38.13-.76.21-1.12.08-.4.17-.79.27-1.17.08-.33.17-.65.26-.95.02-.05.03-.1.05-.15.05-.17.11-.34.16-.51.1-.32.21-.63.32-.93.12-.31.24-.62.37-.92,0,0,0-.02.02-.03.06-.18.14-.35.22-.52,0,0,0-.02,0-.03.11-.26.23-.52.36-.78,0-.04.04-.09.06-.13.14-.28.28-.57.43-.84.15-.28.3-.55.46-.82.13-.23.27-.46.41-.69.35-.57.72-1.11,1.11-1.65.12-.17.25-.34.38-.5.28-.37.57-.74.88-1.08.4-.48.82-.93,1.25-1.37.17-.17.34-.34.51-.5.1-.1.19-.19.29-.28.11-.1.22-.2.33-.3.11-.1.21-.19.33-.29.36-.32.73-.62,1.1-.9.14-.12.29-.24.45-.35.57-.43,1.14-.83,1.75-1.2.03-.02.05-.03.08-.05.21-.13.44-.27.67-.4.29-.17.58-.33.87-.49.59-.32,1.19-.61,1.81-.87.2-.09.41-.18.62-.26.19-.08.37-.15.56-.22.21-.08.42-.16.63-.23.03,0,.05-.02.08-.03s.06-.02.09-.03c0,0,.03,0,.04,0,.3-.11.58-.2.87-.29.34-.11.69-.2,1.02-.29.4-.1.81-.2,1.22-.28.29-.06.58-.12.87-.16.06,0,.11-.02.17-.03.2-.04.4-.07.6-.09.31-.05.63-.09.94-.12.36-.04.72-.07,1.07-.09.17,0,.35-.02.52-.03.36,0,.71-.02,1.06-.02h27.38c.38,0,.76,0,1.12.03.11,0,.21,0,.32,0h.07c.36.02.71.05,1.06.09.22.02.44.05.66.08h.03s.09,0,.14.02c.17.02.34.05.52.07.17.03.34.06.51.09.36.06.71.13,1.05.21.16.03.31.06.47.1.05,0,.09.02.14.03.2.05.39.1.58.14t.02,0c.11.03.22.06.33.09.07.02.15.04.22.07.23.06.45.13.68.2.26.08.52.17.77.26.22.08.44.16.66.25.03,0,.05.02.08.03.31.11.61.24.89.37.11.04.21.09.31.14.33.14.65.29.96.46.2.09.4.19.59.3.2.1.39.21.58.32.03.02.07.03.1.05.18.09.35.19.52.3.03.02.06.04.09.06.07.04.14.08.21.13.28.17.56.34.83.53.09.06.18.12.27.19.24.15.47.32.7.5.09.06.18.12.27.2.27.2.54.41.8.62l.18.15c.2.16.39.33.58.5.18.15.35.31.51.47.15.13.3.27.44.42.11.1.22.21.32.32.02.02.05.04.07.07.15.14.3.3.43.45.03.03.06.07.09.1.13.13.25.27.37.4.23.24.44.49.65.75.2.24.4.49.58.74.19.25.38.5.56.76,0,0,.02.03.03.04.12.15.23.32.34.48.02.03.05.07.07.1.19.28.37.57.55.86.15.23.29.47.42.72.15.24.28.48.4.72.02.03.03.06.05.09.15.27.28.54.41.81.13.27.26.53.37.81.03.06.06.13.08.19.09.18.17.37.24.57.15.34.28.68.4,1.02.08.22.15.43.22.65h0c.08.23.14.44.2.65.02.05.04.1.05.15.02.07.04.14.05.21.08.24.14.47.2.72,0,0,0,.03,0,.04.07.26.13.52.18.79,0,.04,0,.07.02.11.03.08.05.17.06.26.05.23.1.46.13.7.02.11.04.22.06.34.02.11.04.22.05.34,0,.09.03.18.04.27.03.24.06.48.08.73.03.21.05.43.06.65,0,.05,0,.1.02.15.02.17.03.34.04.51,0,.08,0,.16,0,.24.02.41.03.82.03,1.23Z"/>
    <path class="cls-7" d="M789.14,187.6c-2.75,1.37-30.35,3.7-35.07,15.34s-9.83,57.1-10.77,47.63c-.3-8.43-.7-40.28-.7-40.28,0-14.36,11.74-26.1,26.1-26.1l19.56.03c.08,0,3.64,2.02.88,3.39Z"/>
    <path class="cls-3" d="M763.59,309.42c2.75-1.37,30.35-3.7,35.07-15.34s9.83-57.1,10.77-47.63c.3,8.43.7,40.28.7,40.28,0,14.36-11.74,26.1-26.1,26.1l-19.56-.03c-.08,0-3.64-2.02-.88-3.39Z"/>
    <path class="cls-4" d="M812.76,619.85v88.48c0,.42,0,.83-.03,1.23,0,.08,0,.15,0,.23,0,.18-.02.36-.04.53,0,.05,0,.09-.02.14,0,.22-.03.44-.06.65-.02.25-.05.49-.08.73,0,.09-.03.18-.04.27,0,.12-.03.23-.05.34-.02.12-.04.23-.06.34-.03.24-.08.47-.13.7,0,.09-.03.18-.06.26,0,.04,0,.07-.02.11-.05.27-.11.53-.18.79,0,0,0,.03,0,.04-.06.25-.12.48-.2.72,0,.07-.03.14-.05.21,0,.05-.03.1-.05.15-.06.21-.12.42-.2.64h0c-.07.23-.14.44-.22.66-.12.35-.25.69-.4,1.02-.07.2-.15.39-.24.57-.02.06-.05.13-.08.19-.11.28-.24.54-.37.81-.13.27-.26.54-.41.81-.02.03-.03.06-.05.09-.12.24-.25.48-.4.72-.13.25-.27.49-.42.72-.18.29-.36.58-.55.86-.02.03-.05.07-.07.1-.11.16-.22.33-.34.48,0,0-.02.03-.03.04-.18.26-.37.51-.56.76-.18.25-.38.5-.58.74-.21.26-.42.51-.65.75-.12.13-.24.27-.37.4-.03.03-.06.07-.09.1-.13.15-.28.31-.43.45-.02.03-.05.05-.07.07-.25.26-.5.51-.76.74-.16.16-.33.32-.51.47-.19.17-.38.34-.58.5l-.18.15c-.26.21-.53.42-.8.62-.09.08-.18.14-.27.2-.23.18-.46.35-.7.5-.09.07-.18.13-.27.19-.27.19-.55.36-.83.53-.07.05-.14.09-.21.13-.03.02-.06.04-.09.06-.17.11-.34.21-.52.3-.03.02-.07.03-.1.05-.19.11-.38.22-.58.32-.19.11-.39.21-.59.3-.32.17-.64.32-.96.46-.1.05-.2.1-.31.14-.29.13-.59.26-.89.37-.03,0-.05.02-.08.03-.22.09-.44.17-.66.25-.25.09-.51.18-.77.26-.23.07-.45.14-.68.2-.07.03-.15.05-.22.07-.11.03-.22.06-.33.09-.24.06-.49.12-.74.18-.16.04-.31.07-.47.1-.35.08-.7.15-1.05.21-.17.03-.34.06-.51.09-.18.02-.35.05-.52.07-.05,0-.09,0-.14.02h-.03c-.22.03-.44.06-.66.08-.36.04-.71.07-1.06.09h-.07c-.11,0-.21,0-.32,0-.37.02-.75.03-1.12.03h-27.38c-.42,0-.84,0-1.24-.03-.26,0-.52-.03-.77-.06-.25,0-.5-.03-.74-.06-.37-.03-.73-.08-1.08-.13-.23-.04-.46-.08-.68-.12-.31-.05-.62-.11-.92-.18-.32-.06-.64-.14-.94-.22-.08-.02-.16-.04-.24-.06-.23-.06-.46-.13-.68-.19-.03,0-.06-.02-.09-.03-.16-.05-.33-.1-.5-.15-.16-.06-.32-.11-.49-.17,0,0-.02,0-.03,0-.33-.11-.66-.23-.98-.36-.04,0-.07-.03-.11-.04-.05-.02-.09-.04-.14-.06-.26-.1-.51-.21-.77-.32-.6-.26-1.17-.54-1.75-.85-.29-.15-.57-.31-.85-.47-.28-.16-.56-.33-.83-.5h0c-.25-.16-.5-.32-.75-.49-.59-.4-1.16-.83-1.73-1.28-.17-.14-.35-.27-.51-.42-.02,0-.03-.03-.05-.04-.05-.04-.11-.09-.16-.14l-.02-.02c-.21-.17-.41-.35-.61-.54-.62-.56-1.2-1.15-1.77-1.78-.2-.22-.39-.45-.58-.68h0s-.07-.09-.1-.13c-.29-.34-.56-.69-.83-1.04,0-.02-.02-.03-.04-.05-.23-.31-.45-.63-.67-.94-.24-.35-.47-.71-.69-1.06-.22-.36-.43-.72-.63-1.08,0,0,0-.02-.02-.03-.19-.37-.38-.73-.56-1.1-.16-.31-.3-.63-.44-.95-.05-.11-.1-.21-.14-.32-.13-.31-.26-.63-.37-.93-.15-.39-.28-.78-.41-1.17-.05-.15-.1-.31-.15-.47,0-.02,0-.03,0-.05-.07-.24-.14-.49-.21-.73,0-.05-.03-.11-.04-.16-.11-.42-.21-.84-.29-1.26-.07-.32-.13-.64-.18-.96-.02-.08-.03-.15-.04-.23-.03-.16-.05-.33-.07-.5h0s0-.06,0-.08c-.04-.27-.07-.52-.1-.8,0,0,0-.03,0-.05,0-.04,0-.07,0-.11,0-.03,0-.05,0-.08-.02-.16-.03-.32-.04-.48v-.04s0-.11,0-.16c0-.03,0-.05,0-.08,0-.08-.02-.16-.02-.24,0-.07,0-.15,0-.24,0-.03,0-.07,0-.1,0-.37-.02-.74-.02-1.1v-88.48c0-.37,0-.74.02-1.1,0-.03,0-.07,0-.1,0-.09,0-.17,0-.24,0-.08,0-.16.02-.24,0-.03,0-.05,0-.08,0-.05,0-.11,0-.16v-.04c0-.16.02-.32.04-.48,0-.03,0-.05,0-.08,0-.04,0-.07,0-.11,0-.02,0-.04,0-.05.03-.28.06-.53.1-.8,0-.02,0-.05,0-.07h0c.02-.18.04-.35.07-.51,0-.08.02-.15.04-.23.05-.33.11-.65.18-.96.07-.39.16-.77.26-1.13,0-.03,0-.05.02-.08.02-.07.03-.13.05-.2.06-.25.13-.5.21-.74,0-.02,0-.03,0-.05.05-.16.1-.32.15-.47.13-.4.26-.79.41-1.17.12-.32.24-.63.37-.93.04-.11.09-.21.14-.32.14-.33.28-.65.44-.95.18-.38.37-.74.56-1.1,0,0,0-.02.02-.03.2-.37.41-.73.63-1.08.22-.36.45-.72.69-1.06.22-.32.44-.64.67-.94.02-.02.03-.03.04-.05.27-.36.54-.71.83-1.04.03-.04.06-.08.1-.12h0c.19-.24.38-.47.58-.69.57-.63,1.15-1.22,1.77-1.78.2-.19.4-.37.61-.54t.02-.02s.11-.1.16-.14c.02,0,.03-.03.05-.04.16-.15.34-.28.51-.42.19-.15.37-.3.57-.45.12-.09.24-.18.36-.26.05-.03.09-.07.14-.11.22-.16.45-.32.67-.47.25-.17.5-.33.75-.49h0c.27-.17.55-.34.83-.5.28-.16.56-.32.85-.47.58-.31,1.15-.59,1.75-.85.26-.11.51-.22.77-.32.05-.02.09-.04.14-.06.04,0,.07-.03.11-.04.33-.13.66-.25.98-.36,0,0,.02,0,.03,0,.17-.06.33-.11.49-.17.17-.05.34-.1.5-.15.03,0,.06-.02.09-.03.22-.06.45-.13.68-.19.08-.02.16-.04.24-.06.31-.08.63-.16.94-.22.31-.07.62-.13.92-.18.22-.04.45-.08.68-.12.36-.05.72-.1,1.08-.13.24-.03.49-.05.74-.06.25-.03.51-.05.77-.06.41-.02.83-.03,1.24-.03h27.38c.38,0,.76,0,1.12.03.11,0,.21,0,.32,0h.07c.36.02.71.05,1.06.09.22.02.44.05.66.08h.03s.09,0,.14.02c.17.02.34.05.52.07.17.03.34.06.51.09.36.06.71.13,1.05.21.16.03.31.06.47.1.05,0,.09.02.14.03.2.05.39.1.58.14t.02,0c.11.03.22.06.33.09.07.02.15.04.22.07.23.06.45.13.68.2.26.08.52.17.77.26.22.08.44.16.66.25.03,0,.05.02.08.03.31.11.61.24.89.37.11.04.21.09.31.14.33.14.65.29.96.46.2.09.4.19.59.3.2.1.39.21.58.32.03.02.07.03.1.05.18.09.35.19.52.3.03.02.06.04.09.06.07.04.14.08.21.13.28.17.56.34.83.53.09.06.18.12.27.19.24.15.47.32.7.5.09.06.18.12.27.2.27.2.54.41.8.62l.18.15c.2.16.39.33.58.5.18.15.35.31.51.47.15.13.3.27.44.42.11.1.22.21.32.32.02.02.05.04.07.07.15.14.3.3.43.45.03.03.06.07.09.1.13.13.25.27.37.4.23.24.44.49.65.75.2.24.4.49.58.74.19.25.38.5.56.76,0,0,.02.03.03.04.12.15.23.32.34.48.02.03.05.07.07.1.19.28.37.57.55.86.15.23.29.47.42.72.15.24.28.48.4.72.02.03.03.06.05.09.15.27.28.54.41.81.13.27.26.53.37.81.03.06.06.13.08.19.09.18.17.37.24.57.15.34.28.68.4,1.02.08.22.15.43.22.65h0c.08.23.14.44.2.65.02.05.04.1.05.15.02.07.04.14.05.21.08.24.14.47.2.72,0,0,0,.03,0,.04.07.26.13.52.18.79,0,.04,0,.07.02.11.03.08.05.17.06.26.05.23.1.46.13.7.02.11.04.22.06.34.02.11.04.22.05.34,0,.09.03.18.04.27.03.24.06.48.08.73.03.21.05.43.06.65,0,.05,0,.1.02.15.02.17.03.34.04.51,0,.08,0,.16,0,.24.02.41.03.82.03,1.23Z"/>
    <path class="cls-7" d="M789.14,604.7c-2.75,1.37-30.35,3.7-35.07,15.34s-9.83,57.1-10.77,47.63c-.3-8.43-.7-40.28-.7-40.28,0-14.36,11.74-26.1,26.1-26.1l19.56.03c.08,0,3.64,2.02.88,3.39Z"/>
    <path class="cls-3" d="M763.59,726.52c2.75-1.37,30.35-3.7,35.07-15.34s9.83-57.1,10.77-47.63c.3,8.43.7,40.28.7,40.28,0,14.36-11.74,26.1-26.1,26.1l-19.56-.03c-.08,0-3.64-2.02-.88-3.39Z"/>
  </g>
</svg>

  <path d="M640.98 200.26L640.98 189.04L678.20 189.04Q706.72 189.04 706.72 211.09Q706.72 223.23 694.57 229.57Q702.36 231.55 706.78 236.83Q711.20 242.11 711.20 250.55Q711.20 263.36 702.56 270.09Q693.91 276.82 677.41 276.82L640.32 276.82L640.32 266.13L644.68 265.73Q648.50 265.34 648.50 262.04L648.50 200.66L640.98 200.26M677.68 236.83L664.61 236.83L664.61 264.41L677.02 264.41Q694.18 264.41 694.18 250.42Q694.18 243.82 689.89 240.32Q685.60 236.83 677.68 236.83M675.30 201.19L664.61 201.19L664.61 225.08L674.38 225.08Q682.56 225.08 686.45 221.71Q690.35 218.35 690.35 212.27Q690.35 206.20 686.45 203.69Q682.56 201.19 675.30 201.19" fill="#e6edf3"/><path d="M750.01 267.19Q764.40 267.19 764.40 243.95Q764.40 232.21 761.17 226.13Q757.93 220.06 750.34 220.06Q742.75 220.06 739.19 225.87Q735.62 231.68 735.62 241.71Q735.62 260.32 742.49 265.07Q745.52 267.19 750.01 267.19M719.65 243.56Q719.65 233.79 722.56 226.60Q725.46 219.40 730.34 215.57Q739.72 208.45 751.07 208.45Q758.99 208.45 764.47 211.02Q769.94 213.59 773.05 216.96Q776.15 220.33 778.33 226.73Q780.50 233.13 780.50 241.84Q780.50 260.06 771.66 269.43Q762.82 278.80 749.02 278.80Q735.23 278.80 727.44 269.89Q719.65 260.98 719.65 243.56" fill="#e6edf3"/><path d="M794.10 221.51L788.56 221.12L788.56 210.43L810.86 210.43L810.86 219.01Q818.26 208.45 831.13 208.45Q844 208.45 848.48 219.01Q855.88 208.45 868.55 208.45Q878.05 208.45 883.20 214.19Q888.35 219.93 888.35 231.41L888.35 265.87L895.87 266.26L895.87 276.82L864.46 276.82L864.46 266.79L868.81 266.39Q870.79 266.13 871.65 265.27Q872.51 264.41 872.64 262.17L872.64 234.85Q872.64 227.59 870.99 224.09Q869.34 220.59 863.27 220.59Q857.20 220.59 853.96 224.29Q850.73 227.98 850.73 234.19L850.73 265.87L857.99 266.26L857.99 276.82L826.84 276.82L826.84 266.79L831.19 266.39Q833.17 266.13 834.10 265.27Q835.02 264.41 835.02 262.04L835.02 234.85Q835.02 227.59 833.37 224.09Q831.72 220.59 825.58 220.59Q819.44 220.59 816.28 224.42Q813.11 228.25 813.11 233.92L813.11 265.87L820.24 266.26L820.24 276.82L789.08 276.82L789.08 266.79L793.44 266.39Q795.42 266.13 796.34 265.27Q797.27 264.41 797.27 262.04L797.40 262.04L797.40 225.61Q797.40 223.36 796.67 222.50Q795.95 221.65 794.10 221.51" fill="#e6edf3"/><path d="M909.47 272.86L909.47 197.09Q909.47 194.06 906.17 193.93L901.55 193.66L901.55 182.71L924.78 182.71L924.78 213.99Q930.72 208.45 940.75 208.45Q953.16 208.45 960.42 216.83Q967.68 225.21 967.68 240.39Q967.68 278.54 935.74 278.54Q928.87 278.54 921.28 276.89Q913.69 275.24 909.47 272.86M924.78 230.09L924.78 264.28Q929.80 266.92 936.40 266.92Q951.44 266.92 951.44 242.50Q951.44 220.19 936.66 220.19Q931.91 220.19 928.34 222.97Q924.78 225.74 924.78 230.09" fill="#e6edf3"/><path d="M999.23 204.75L1016.92 257.95L1017.58 257.95L1036.06 200.79L1028 200.26L1028 189.04L1058.36 189.04L1058.36 199.73L1054.01 200.13Q1052.29 200.26 1051.50 201.12Q1050.71 201.98 1049.92 204.09L1024.97 276.82L1007.81 276.82L980.88 200.66L973.36 200.26L973.36 189.04L1007.41 189.04L1007.41 199.73L1003.06 200.13Q998.96 200.39 998.96 203.30Q998.96 203.96 999.23 204.75" fill="#e6edf3"/><path d="M1122.65 213.07L1122.65 262.17Q1122.65 264.28 1123.37 265.07Q1124.10 265.87 1125.95 266L1130.17 266.26L1130.17 276.82L1109.18 276.82L1109.18 269.17L1108.79 269.03Q1102.19 278.54 1090.70 278.54Q1077.24 278.54 1070.77 269.96Q1064.30 261.38 1064.30 246.46Q1064.30 228.51 1073.02 218.48Q1081.73 208.45 1099.15 208.45Q1110.37 208.45 1122.65 213.07M1107.34 255.83L1107.34 221.65Q1103.64 219.93 1097.17 219.93Q1088.33 219.93 1084.37 227.06Q1080.41 234.19 1080.41 245.93Q1080.41 267.32 1094.14 267.32Q1099.94 267.32 1103.64 263.82Q1107.34 260.32 1107.34 255.83" fill="#e6edf3"/><path d="M1200.92 266L1205.54 266.39L1205.54 276.82L1184.16 276.82L1184.16 268.24Q1176.90 278.54 1162.78 278.54Q1142.32 278.54 1142.32 255.70L1142.32 225.21Q1142.32 221.65 1139.02 221.51L1134.79 221.25L1134.79 210.43L1158.02 210.43L1158.02 252.27Q1158.02 259.27 1160 262.83Q1161.98 266.39 1168.19 266.39Q1174.39 266.39 1178.15 262.57Q1181.92 258.74 1181.92 253.33L1181.92 225.47Q1181.92 223.36 1181.19 222.50Q1180.46 221.65 1178.62 221.51L1174.39 221.25L1174.39 210.43L1197.62 210.43L1197.62 262.17Q1197.62 264.28 1198.28 265.01Q1198.94 265.73 1200.92 266" fill="#e6edf3"/><path d="M1213.60 182.71L1237.22 182.71L1237.22 265.87L1244.75 266.26L1244.75 276.82L1213.33 276.82L1213.33 266.79L1217.69 266.39Q1221.52 266 1221.52 262.17L1221.52 197.09Q1221.52 194.19 1218.22 193.93L1213.60 193.66" fill="#e6edf3"/><path d="M1264.94 196.43L1273.52 196.43L1273.52 210.43L1291.08 210.43L1289.76 221.51L1273.52 221.51L1273.52 256.23Q1273.52 262.04 1275.64 264.35Q1277.75 266.66 1282.17 266.66Q1286.59 266.66 1291.08 263.89L1295.04 274.05Q1288.44 278.67 1278.28 278.67Q1272.34 278.67 1268.24 277.15Q1264.15 275.63 1262.17 273.79Q1260.19 271.94 1259.14 268.37Q1258.08 264.81 1257.95 262.76Q1257.82 260.72 1257.82 256.76L1257.82 221.51L1248.44 221.51L1249.76 211.88Q1255.97 211.35 1259.14 207.46Q1262.30 203.56 1264.94 196.43" fill="#e6edf3"/>
  <path d="M667.18 349.59Q667.18 353.13 666.06 356.04Q664.94 358.94 662.89 361.01Q660.85 363.08 657.97 364.21Q655.10 365.34 651.63 365.34L639.86 365.34L639.86 333.82L651.63 333.82Q655.10 333.82 657.97 334.95Q660.85 336.08 662.89 338.16Q664.94 340.24 666.06 343.14Q667.18 346.05 667.18 349.59M662.80 349.59Q662.80 346.69 662.01 344.40Q661.22 342.11 659.77 340.53Q658.32 338.94 656.25 338.11Q654.18 337.27 651.63 337.27L644.13 337.27L644.13 361.89L651.63 361.89Q654.18 361.89 656.25 361.05Q658.32 360.22 659.77 358.64Q661.22 357.07 662.01 354.78Q662.80 352.49 662.80 349.59" fill="#9aa4ad"/><path d="M675.85 344.13L676.11 347.52Q677.17 345.23 678.71 343.95Q680.25 342.66 682.47 342.66Q683.18 342.66 683.82 342.81Q684.47 342.97 684.98 343.30L684.69 346.22Q684.56 346.77 684.03 346.77Q683.73 346.77 683.13 346.64Q682.54 346.51 681.79 346.51Q680.73 346.51 679.91 346.82Q679.08 347.13 678.43 347.73Q677.79 348.34 677.27 349.23Q676.75 350.12 676.33 351.26L676.33 365.34L672.40 365.34L672.40 343.06L674.64 343.06Q675.28 343.06 675.52 343.30Q675.76 343.54 675.85 344.13" fill="#9aa4ad"/><path d="M697.81 342.70Q700.25 342.70 702.21 343.52Q704.16 344.33 705.55 345.83Q706.94 347.32 707.67 349.45Q708.41 351.57 708.41 354.19Q708.41 356.83 707.67 358.94Q706.94 361.05 705.55 362.55Q704.16 364.04 702.21 364.85Q700.25 365.65 697.81 365.65Q695.34 365.65 693.37 364.85Q691.40 364.04 690.02 362.55Q688.63 361.05 687.89 358.94Q687.16 356.83 687.16 354.19Q687.16 351.57 687.89 349.45Q688.63 347.32 690.02 345.83Q691.40 344.33 693.37 343.52Q695.34 342.70 697.81 342.70M697.81 362.59Q701.11 362.59 702.73 360.38Q704.36 358.17 704.36 354.21Q704.36 350.23 702.73 348.01Q701.11 345.78 697.81 345.78Q696.13 345.78 694.89 346.36Q693.65 346.93 692.82 348.01Q692 349.08 691.59 350.66Q691.18 352.23 691.18 354.21Q691.18 358.17 692.82 360.38Q694.46 362.59 697.81 362.59" fill="#9aa4ad"/><path d="M717.30 349.19L717.30 359.97Q718.38 361.43 719.65 362.02Q720.93 362.61 722.51 362.61Q725.64 362.61 727.31 360.39Q728.98 358.17 728.98 354.06Q728.98 351.88 728.59 350.32Q728.21 348.75 727.48 347.75Q726.76 346.75 725.70 346.29Q724.65 345.83 723.30 345.83Q721.39 345.83 719.95 346.71Q718.51 347.59 717.30 349.19M716.75 343.87L717.10 346.51Q718.51 344.77 720.36 343.72Q722.20 342.66 724.58 342.66Q726.52 342.66 728.08 343.40Q729.64 344.13 730.74 345.57Q731.84 347.02 732.43 349.15Q733.03 351.28 733.03 354.06Q733.03 356.52 732.37 358.64Q731.71 360.77 730.46 362.32Q729.22 363.87 727.43 364.76Q725.64 365.65 723.39 365.65Q721.35 365.65 719.88 364.96Q718.42 364.26 717.30 363.03L717.30 372.89L713.36 372.89L713.36 343.06L715.71 343.06Q716.55 343.06 716.75 343.87" fill="#9aa4ad"/><path d="M761.36 359.93L761.36 355.31Q758.66 355.40 756.75 355.74Q754.85 356.08 753.65 356.63Q752.45 357.18 751.91 357.93Q751.38 358.68 751.38 359.60Q751.38 360.48 751.66 361.12Q751.95 361.76 752.44 362.16Q752.94 362.57 753.61 362.76Q754.28 362.94 755.05 362.94Q756.08 362.94 756.94 362.73Q757.80 362.53 758.56 362.13Q759.32 361.73 760.01 361.18Q760.70 360.63 761.36 359.93M749.42 347.46L748.71 346.20Q750.56 344.42 752.70 343.54Q754.83 342.66 757.43 342.66Q759.30 342.66 760.75 343.28Q762.20 343.89 763.19 344.99Q764.18 346.09 764.69 347.65Q765.19 349.22 765.19 351.09L765.19 365.34L763.45 365.34Q762.88 365.34 762.57 365.15Q762.27 364.97 762.09 364.42L761.65 362.31Q760.77 363.12 759.93 363.75Q759.10 364.37 758.17 364.80Q757.25 365.23 756.20 365.46Q755.16 365.69 753.88 365.69Q752.59 365.69 751.44 365.33Q750.30 364.97 749.45 364.24Q748.60 363.52 748.11 362.40Q747.61 361.29 747.61 359.78Q747.61 358.46 748.34 357.24Q749.07 356.01 750.69 355.07Q752.32 354.12 754.94 353.52Q757.56 352.91 761.36 352.82L761.36 351.09Q761.36 348.49 760.24 347.16Q759.12 345.83 756.96 345.83Q755.51 345.83 754.53 346.19Q753.55 346.55 752.84 347Q752.12 347.46 751.61 347.82Q751.09 348.18 750.58 348.18Q750.19 348.18 749.90 347.97Q749.62 347.76 749.42 347.46" fill="#9aa4ad"/><path d="M786.36 349.19L786.36 359.97Q787.43 361.43 788.72 362.02Q790.01 362.61 791.55 362.61Q794.69 362.61 796.37 360.39Q798.04 358.17 798.04 353.77Q798.04 349.68 796.55 347.75Q795.07 345.83 792.32 345.83Q790.40 345.83 788.98 346.71Q787.57 347.59 786.36 349.19M786.36 332.94L786.36 346.27Q787.76 344.64 789.53 343.67Q791.31 342.70 793.62 342.70Q795.57 342.70 797.15 343.45Q798.72 344.20 799.82 345.62Q800.92 347.04 801.50 349.06Q802.09 351.09 802.09 353.62Q802.09 356.32 801.43 358.54Q800.77 360.77 799.52 362.34Q798.28 363.91 796.50 364.78Q794.72 365.65 792.49 365.65Q790.29 365.65 788.79 364.82Q787.28 364 786.16 362.48L785.96 364.51Q785.78 365.34 784.95 365.34L782.42 365.34L782.42 332.94" fill="#9aa4ad"/><path d="M819.14 359.93L819.14 355.31Q816.43 355.40 814.53 355.74Q812.62 356.08 811.42 356.63Q810.23 357.18 809.69 357.93Q809.15 358.68 809.15 359.60Q809.15 360.48 809.43 361.12Q809.72 361.76 810.21 362.16Q810.71 362.57 811.38 362.76Q812.05 362.94 812.82 362.94Q813.86 362.94 814.71 362.73Q815.57 362.53 816.33 362.13Q817.09 361.73 817.78 361.18Q818.48 360.63 819.14 359.93M807.19 347.46L806.49 346.20Q808.33 344.42 810.47 343.54Q812.60 342.66 815.20 342.66Q817.07 342.66 818.52 343.28Q819.97 343.89 820.96 344.99Q821.95 346.09 822.46 347.65Q822.96 349.22 822.96 351.09L822.96 365.34L821.23 365.34Q820.65 365.34 820.35 365.15Q820.04 364.97 819.86 364.42L819.42 362.31Q818.54 363.12 817.71 363.75Q816.87 364.37 815.95 364.80Q815.02 365.23 813.98 365.46Q812.93 365.69 811.66 365.69Q810.36 365.69 809.21 365.33Q808.07 364.97 807.22 364.24Q806.38 363.52 805.88 362.40Q805.39 361.29 805.39 359.78Q805.39 358.46 806.11 357.24Q806.84 356.01 808.47 355.07Q810.09 354.12 812.71 353.52Q815.33 352.91 819.14 352.82L819.14 351.09Q819.14 348.49 818.01 347.16Q816.89 345.83 814.74 345.83Q813.28 345.83 812.30 346.19Q811.33 346.55 810.61 347Q809.90 347.46 809.38 347.82Q808.86 348.18 808.36 348.18Q807.96 348.18 807.67 347.97Q807.39 347.76 807.19 347.46" fill="#9aa4ad"/><path d="M845.47 345.61L844.44 347.02Q844.26 347.26 844.08 347.39Q843.91 347.52 843.60 347.52Q843.27 347.52 842.87 347.25Q842.48 346.97 841.89 346.64Q841.31 346.31 840.46 346.04Q839.62 345.76 838.39 345.76Q836.74 345.76 835.48 346.34Q834.23 346.93 833.38 348.03Q832.53 349.13 832.10 350.69Q831.68 352.25 831.68 354.19Q831.68 356.21 832.14 357.78Q832.60 359.36 833.45 360.43Q834.29 361.49 835.49 362.05Q836.69 362.61 838.19 362.61Q839.62 362.61 840.54 362.27Q841.47 361.93 842.07 361.51Q842.68 361.10 843.08 360.75Q843.49 360.41 843.89 360.41Q844.37 360.41 844.63 360.79L845.73 362.22Q845.01 363.12 844.08 363.76Q843.16 364.40 842.09 364.82Q841.03 365.25 839.86 365.45Q838.69 365.65 837.48 365.65Q835.39 365.65 833.60 364.88Q831.81 364.11 830.49 362.65Q829.17 361.18 828.42 359.05Q827.67 356.92 827.67 354.19Q827.67 351.70 828.36 349.59Q829.06 347.48 830.39 345.95Q831.72 344.42 833.67 343.56Q835.61 342.70 838.14 342.70Q840.50 342.70 842.29 343.46Q844.08 344.22 845.47 345.61" fill="#9aa4ad"/><path d="M849.94 332.94L853.87 332.94L853.87 352.01L854.89 352.01Q855.33 352.01 855.62 351.89Q855.92 351.77 856.25 351.39L863.29 343.85Q863.60 343.47 863.94 343.26Q864.28 343.06 864.85 343.06L868.39 343.06L860.19 351.79Q859.59 352.54 858.91 352.96Q859.31 353.22 859.63 353.56Q859.95 353.90 860.23 354.34L868.94 365.34L865.45 365.34Q864.94 365.34 864.58 365.18Q864.21 365.01 863.95 364.57L856.62 355.44Q856.29 354.98 855.97 354.84Q855.66 354.69 855 354.69L853.87 354.69L853.87 365.34L849.94 365.34" fill="#9aa4ad"/><path d="M886.70 343.06L890.61 343.06L890.61 365.34L888.28 365.34Q887.45 365.34 887.23 364.53L886.92 362.13Q885.47 363.74 883.66 364.71Q881.86 365.69 879.53 365.69Q877.70 365.69 876.30 365.09Q874.91 364.48 873.96 363.38Q873.01 362.28 872.54 360.72Q872.07 359.16 872.07 357.27L872.07 343.06L875.98 343.06L875.98 357.27Q875.98 359.80 877.14 361.18Q878.29 362.57 880.67 362.57Q882.41 362.57 883.91 361.75Q885.42 360.92 886.70 359.47" fill="#9aa4ad"/><path d="M900.76 349.19L900.76 359.97Q901.83 361.43 903.11 362.02Q904.39 362.61 905.97 362.61Q909.09 362.61 910.77 360.39Q912.44 358.17 912.44 354.06Q912.44 351.88 912.05 350.32Q911.67 348.75 910.94 347.75Q910.22 346.75 909.16 346.29Q908.10 345.83 906.76 345.83Q904.85 345.83 903.41 346.71Q901.97 347.59 900.76 349.19M900.21 343.87L900.56 346.51Q901.97 344.77 903.81 343.72Q905.66 342.66 908.04 342.66Q909.97 342.66 911.54 343.40Q913.10 344.13 914.20 345.57Q915.30 347.02 915.89 349.15Q916.49 351.28 916.49 354.06Q916.49 356.52 915.83 358.64Q915.17 360.77 913.92 362.32Q912.68 363.87 910.89 364.76Q909.09 365.65 906.85 365.65Q904.80 365.65 903.34 364.96Q901.88 364.26 900.76 363.03L900.76 372.89L896.82 372.89L896.82 343.06L899.17 343.06Q900.01 343.06 900.21 343.87" fill="#9aa4ad"/><path d="M920.82 362.92Q920.82 362.35 921.03 361.84Q921.24 361.34 921.60 360.96Q921.96 360.59 922.47 360.37Q922.98 360.15 923.55 360.15Q924.12 360.15 924.63 360.37Q925.13 360.59 925.51 360.96Q925.88 361.34 926.10 361.84Q926.32 362.35 926.32 362.92Q926.32 363.52 926.10 364.01Q925.88 364.51 925.51 364.88Q925.13 365.25 924.63 365.46Q924.12 365.67 923.55 365.67Q922.98 365.67 922.47 365.46Q921.96 365.25 921.60 364.88Q921.24 364.51 921.03 364.01Q920.82 363.52 920.82 362.92" fill="#9aa4ad"/><path d="M971.38 349.59Q971.38 353.13 970.25 356.04Q969.13 358.94 967.09 361.01Q965.04 363.08 962.17 364.21Q959.30 365.34 955.82 365.34L944.05 365.34L944.05 333.82L955.82 333.82Q959.30 333.82 962.17 334.95Q965.04 336.08 967.09 338.16Q969.13 340.24 970.25 343.14Q971.38 346.05 971.38 349.59M967 349.59Q967 346.69 966.21 344.40Q965.41 342.11 963.96 340.53Q962.51 338.94 960.44 338.11Q958.37 337.27 955.82 337.27L948.32 337.27L948.32 361.89L955.82 361.89Q958.37 361.89 960.44 361.05Q962.51 360.22 963.96 358.64Q965.41 357.07 966.21 354.78Q967 352.49 967 349.59" fill="#9aa4ad"/><path d="M979.32 351.77L991.51 351.77Q991.51 350.40 991.12 349.27Q990.74 348.14 990 347.31Q989.26 346.49 988.21 346.04Q987.15 345.59 985.81 345.59Q982.99 345.59 981.35 347.22Q979.71 348.86 979.32 351.77M993.57 360.79L994.67 362.22Q993.95 363.10 992.94 363.75Q991.92 364.40 990.77 364.81Q989.61 365.23 988.38 365.44Q987.15 365.65 985.94 365.65Q983.63 365.65 981.68 364.87Q979.74 364.09 978.32 362.58Q976.90 361.07 976.11 358.85Q975.31 356.63 975.31 353.75Q975.31 351.42 976.03 349.39Q976.74 347.37 978.09 345.88Q979.43 344.40 981.36 343.55Q983.30 342.70 985.72 342.70Q987.72 342.70 989.43 343.38Q991.13 344.05 992.37 345.31Q993.62 346.58 994.32 348.44Q995.03 350.29 995.03 352.67Q995.03 353.59 994.83 353.90Q994.63 354.21 994.08 354.21L979.19 354.21Q979.25 356.32 979.77 357.88Q980.29 359.45 981.21 360.49Q982.13 361.54 983.41 362.05Q984.69 362.57 986.27 362.57Q987.74 362.57 988.81 362.23Q989.88 361.89 990.65 361.49Q991.42 361.10 991.93 360.75Q992.45 360.41 992.83 360.41Q993.31 360.41 993.57 360.79" fill="#9aa4ad"/><path d="M1006.66 365.69Q1004.02 365.69 1002.60 364.22Q1001.19 362.75 1001.19 359.97L1001.19 346.33L998.50 346.33Q998.15 346.33 997.91 346.13Q997.67 345.92 997.67 345.48L997.67 343.91L1001.32 343.45L1002.22 336.57Q1002.29 336.24 1002.52 336.03Q1002.75 335.82 1003.12 335.82L1005.10 335.82L1005.10 343.50L1011.55 343.50L1011.55 346.33L1005.10 346.33L1005.10 359.71Q1005.10 361.12 1005.78 361.80Q1006.47 362.48 1007.54 362.48Q1008.16 362.48 1008.61 362.32Q1009.06 362.15 1009.39 361.95Q1009.72 361.76 1009.95 361.59Q1010.18 361.43 1010.36 361.43Q1010.67 361.43 1010.91 361.80L1012.05 363.67Q1011.04 364.62 1009.61 365.15Q1008.18 365.69 1006.66 365.69" fill="#9aa4ad"/><path d="M1024.99 342.70Q1027.43 342.70 1029.39 343.52Q1031.35 344.33 1032.73 345.83Q1034.12 347.32 1034.86 349.45Q1035.59 351.57 1035.59 354.19Q1035.59 356.83 1034.86 358.94Q1034.12 361.05 1032.73 362.55Q1031.35 364.04 1029.39 364.85Q1027.43 365.65 1024.99 365.65Q1022.53 365.65 1020.56 364.85Q1018.59 364.04 1017.20 362.55Q1015.82 361.05 1015.08 358.94Q1014.34 356.83 1014.34 354.19Q1014.34 351.57 1015.08 349.45Q1015.82 347.32 1017.20 345.83Q1018.59 344.33 1020.56 343.52Q1022.53 342.70 1024.99 342.70M1024.99 362.59Q1028.29 362.59 1029.92 360.38Q1031.55 358.17 1031.55 354.21Q1031.55 350.23 1029.92 348.01Q1028.29 345.78 1024.99 345.78Q1023.32 345.78 1022.07 346.36Q1020.83 346.93 1020.01 348.01Q1019.18 349.08 1018.77 350.66Q1018.37 352.23 1018.37 354.21Q1018.37 358.17 1020.01 360.38Q1021.65 362.59 1024.99 362.59" fill="#9aa4ad"/><path d="M1043.93 343.87L1044.24 346.29Q1044.97 345.48 1045.78 344.82Q1046.59 344.16 1047.51 343.68Q1048.42 343.21 1049.44 342.96Q1050.47 342.70 1051.65 342.70Q1053.48 342.70 1054.88 343.31Q1056.27 343.91 1057.21 345.02Q1058.14 346.14 1058.63 347.70Q1059.11 349.26 1059.11 351.15L1059.11 365.34L1055.17 365.34L1055.17 351.15Q1055.17 348.62 1054.02 347.22Q1052.86 345.83 1050.51 345.83Q1048.77 345.83 1047.26 346.66Q1045.76 347.50 1044.48 348.93L1044.48 365.34L1040.54 365.34L1040.54 343.06L1042.90 343.06Q1043.73 343.06 1043.93 343.87" fill="#9aa4ad"/><path d="M1077.17 359.93L1077.17 355.31Q1074.47 355.40 1072.56 355.74Q1070.66 356.08 1069.46 356.63Q1068.26 357.18 1067.72 357.93Q1067.19 358.68 1067.19 359.60Q1067.19 360.48 1067.47 361.12Q1067.76 361.76 1068.25 362.16Q1068.75 362.57 1069.42 362.76Q1070.09 362.94 1070.86 362.94Q1071.89 362.94 1072.75 362.73Q1073.61 362.53 1074.37 362.13Q1075.13 361.73 1075.82 361.18Q1076.51 360.63 1077.17 359.93M1065.23 347.46L1064.52 346.20Q1066.37 344.42 1068.51 343.54Q1070.64 342.66 1073.24 342.66Q1075.11 342.66 1076.56 343.28Q1078.01 343.89 1079 344.99Q1079.99 346.09 1080.50 347.65Q1081 349.22 1081 351.09L1081 365.34L1079.26 365.34Q1078.69 365.34 1078.38 365.15Q1078.08 364.97 1077.90 364.42L1077.46 362.31Q1076.58 363.12 1075.74 363.75Q1074.91 364.37 1073.98 364.80Q1073.06 365.23 1072.01 365.46Q1070.97 365.69 1069.69 365.69Q1068.40 365.69 1067.25 365.33Q1066.11 364.97 1065.26 364.24Q1064.41 363.52 1063.92 362.40Q1063.42 361.29 1063.42 359.78Q1063.42 358.46 1064.15 357.24Q1064.88 356.01 1066.50 355.07Q1068.13 354.12 1070.75 353.52Q1073.37 352.91 1077.17 352.82L1077.17 351.09Q1077.17 348.49 1076.05 347.16Q1074.93 345.83 1072.77 345.83Q1071.32 345.83 1070.34 346.19Q1069.36 346.55 1068.65 347Q1067.93 347.46 1067.42 347.82Q1066.90 348.18 1066.39 348.18Q1066 348.18 1065.71 347.97Q1065.43 347.76 1065.23 347.46" fill="#9aa4ad"/><path d="M1093.81 365.69Q1091.17 365.69 1089.75 364.22Q1088.33 362.75 1088.33 359.97L1088.33 346.33L1085.64 346.33Q1085.29 346.33 1085.05 346.13Q1084.81 345.92 1084.81 345.48L1084.81 343.91L1088.46 343.45L1089.36 336.57Q1089.43 336.24 1089.66 336.03Q1089.89 335.82 1090.26 335.82L1092.24 335.82L1092.24 343.50L1098.69 343.50L1098.69 346.33L1092.24 346.33L1092.24 359.71Q1092.24 361.12 1092.93 361.80Q1093.61 362.48 1094.69 362.48Q1095.30 362.48 1095.75 362.32Q1096.20 362.15 1096.53 361.95Q1096.86 361.76 1097.09 361.59Q1097.33 361.43 1097.50 361.43Q1097.81 361.43 1098.05 361.80L1099.20 363.67Q1098.18 364.62 1096.75 365.15Q1095.32 365.69 1093.81 365.69" fill="#9aa4ad"/><path d="M1105.47 351.77L1117.65 351.77Q1117.65 350.40 1117.27 349.27Q1116.88 348.14 1116.15 347.31Q1115.41 346.49 1114.35 346.04Q1113.30 345.59 1111.96 345.59Q1109.14 345.59 1107.50 347.22Q1105.86 348.86 1105.47 351.77M1119.72 360.79L1120.82 362.22Q1120.10 363.10 1119.08 363.75Q1118.07 364.40 1116.92 364.81Q1115.76 365.23 1114.53 365.44Q1113.30 365.65 1112.09 365.65Q1109.78 365.65 1107.83 364.87Q1105.88 364.09 1104.46 362.58Q1103.05 361.07 1102.25 358.85Q1101.46 356.63 1101.46 353.75Q1101.46 351.42 1102.18 349.39Q1102.89 347.37 1104.23 345.88Q1105.58 344.40 1107.51 343.55Q1109.45 342.70 1111.87 342.70Q1113.87 342.70 1115.57 343.38Q1117.28 344.05 1118.52 345.31Q1119.77 346.58 1120.47 348.44Q1121.17 350.29 1121.17 352.67Q1121.17 353.59 1120.98 353.90Q1120.78 354.21 1120.23 354.21L1105.33 354.21Q1105.40 356.32 1105.92 357.88Q1106.43 359.45 1107.36 360.49Q1108.28 361.54 1109.56 362.05Q1110.83 362.57 1112.42 362.57Q1113.89 362.57 1114.96 362.23Q1116.03 361.89 1116.80 361.49Q1117.57 361.10 1118.08 360.75Q1118.60 360.41 1118.97 360.41Q1119.46 360.41 1119.72 360.79" fill="#9aa4ad"/><path d="M1149.31 359.93L1149.31 355.31Q1146.61 355.40 1144.70 355.74Q1142.80 356.08 1141.60 356.63Q1140.40 357.18 1139.86 357.93Q1139.32 358.68 1139.32 359.60Q1139.32 360.48 1139.61 361.12Q1139.90 361.76 1140.39 362.16Q1140.89 362.57 1141.56 362.76Q1142.23 362.94 1143 362.94Q1144.03 362.94 1144.89 362.73Q1145.75 362.53 1146.51 362.13Q1147.27 361.73 1147.96 361.18Q1148.65 360.63 1149.31 359.93M1137.37 347.46L1136.66 346.20Q1138.51 344.42 1140.64 343.54Q1142.78 342.66 1145.37 342.66Q1147.24 342.66 1148.70 343.28Q1150.15 343.89 1151.14 344.99Q1152.13 346.09 1152.63 347.65Q1153.14 349.22 1153.14 351.09L1153.14 365.34L1151.40 365.34Q1150.83 365.34 1150.52 365.15Q1150.21 364.97 1150.04 364.42L1149.60 362.31Q1148.72 363.12 1147.88 363.75Q1147.05 364.37 1146.12 364.80Q1145.20 365.23 1144.15 365.46Q1143.11 365.69 1141.83 365.69Q1140.53 365.69 1139.39 365.33Q1138.25 364.97 1137.40 364.24Q1136.55 363.52 1136.06 362.40Q1135.56 361.29 1135.56 359.78Q1135.56 358.46 1136.29 357.24Q1137.01 356.01 1138.64 355.07Q1140.27 354.12 1142.89 353.52Q1145.51 352.91 1149.31 352.82L1149.31 351.09Q1149.31 348.49 1148.19 347.16Q1147.07 345.83 1144.91 345.83Q1143.46 345.83 1142.48 346.19Q1141.50 346.55 1140.79 347Q1140.07 347.46 1139.55 347.82Q1139.04 348.18 1138.53 348.18Q1138.14 348.18 1137.85 347.97Q1137.56 347.76 1137.37 347.46" fill="#9aa4ad"/><path d="M1173.82 344.13L1174.08 347.52Q1175.14 345.23 1176.68 343.95Q1178.22 342.66 1180.44 342.66Q1181.15 342.66 1181.79 342.81Q1182.44 342.97 1182.95 343.30L1182.66 346.22Q1182.53 346.77 1182 346.77Q1181.70 346.77 1181.10 346.64Q1180.51 346.51 1179.76 346.51Q1178.70 346.51 1177.88 346.82Q1177.05 347.13 1176.40 347.73Q1175.76 348.34 1175.24 349.23Q1174.72 350.12 1174.30 351.26L1174.30 365.34L1170.37 365.34L1170.37 343.06L1172.61 343.06Q1173.25 343.06 1173.49 343.30Q1173.73 343.54 1173.82 344.13" fill="#9aa4ad"/><path d="M1189.11 351.77L1201.30 351.77Q1201.30 350.40 1200.91 349.27Q1200.53 348.14 1199.79 347.31Q1199.05 346.49 1198 346.04Q1196.94 345.59 1195.60 345.59Q1192.78 345.59 1191.14 347.22Q1189.51 348.86 1189.11 351.77M1203.37 360.79L1204.47 362.22Q1203.74 363.10 1202.73 363.75Q1201.72 364.40 1200.56 364.81Q1199.41 365.23 1198.17 365.44Q1196.94 365.65 1195.73 365.65Q1193.42 365.65 1191.47 364.87Q1189.53 364.09 1188.11 362.58Q1186.69 361.07 1185.90 358.85Q1185.11 356.63 1185.11 353.75Q1185.11 351.42 1185.82 349.39Q1186.54 347.37 1187.88 345.88Q1189.22 344.40 1191.16 343.55Q1193.09 342.70 1195.51 342.70Q1197.51 342.70 1199.22 343.38Q1200.92 344.05 1202.17 345.31Q1203.41 346.58 1204.11 348.44Q1204.82 350.29 1204.82 352.67Q1204.82 353.59 1204.62 353.90Q1204.42 354.21 1203.87 354.21L1188.98 354.21Q1189.04 356.32 1189.56 357.88Q1190.08 359.45 1191 360.49Q1191.93 361.54 1193.20 362.05Q1194.48 362.57 1196.06 362.57Q1197.54 362.57 1198.60 362.23Q1199.67 361.89 1200.44 361.49Q1201.21 361.10 1201.73 360.75Q1202.24 360.41 1202.62 360.41Q1203.10 360.41 1203.37 360.79" fill="#9aa4ad"/><path d="M1223.47 345.30L1222.59 346.73Q1222.33 347.21 1221.78 347.21Q1221.45 347.21 1221.03 346.97Q1220.61 346.73 1220.01 346.43Q1219.40 346.14 1218.57 345.88Q1217.73 345.63 1216.59 345.63Q1215.60 345.63 1214.81 345.88Q1214.01 346.14 1213.45 346.58Q1212.89 347.02 1212.59 347.60Q1212.30 348.18 1212.30 348.86Q1212.30 349.72 1212.79 350.29Q1213.29 350.87 1214.10 351.28Q1214.92 351.70 1215.95 352.02Q1216.98 352.34 1218.07 352.70Q1219.16 353.07 1220.20 353.51Q1221.23 353.95 1222.04 354.61Q1222.86 355.27 1223.35 356.22Q1223.85 357.18 1223.85 358.52Q1223.85 360.06 1223.30 361.37Q1222.75 362.68 1221.67 363.64Q1220.59 364.59 1219.03 365.14Q1217.47 365.69 1215.42 365.69Q1213.09 365.69 1211.20 364.94Q1209.31 364.18 1207.99 362.99L1208.91 361.49Q1209.09 361.21 1209.33 361.05Q1209.57 360.90 1209.94 360.90Q1210.34 360.90 1210.78 361.21Q1211.22 361.51 1211.85 361.89Q1212.47 362.26 1213.38 362.57Q1214.28 362.88 1215.62 362.88Q1216.76 362.88 1217.62 362.58Q1218.48 362.28 1219.05 361.78Q1219.62 361.27 1219.90 360.61Q1220.17 359.95 1220.17 359.20Q1220.17 358.28 1219.68 357.68Q1219.18 357.07 1218.37 356.64Q1217.56 356.21 1216.51 355.89Q1215.47 355.57 1214.38 355.22Q1213.29 354.87 1212.24 354.42Q1211.20 353.97 1210.38 353.29Q1209.57 352.60 1209.07 351.60Q1208.58 350.60 1208.58 349.17Q1208.58 347.90 1209.11 346.72Q1209.64 345.54 1210.65 344.65Q1211.66 343.76 1213.13 343.23Q1214.61 342.70 1216.50 342.70Q1218.70 342.70 1220.45 343.40Q1222.20 344.09 1223.47 345.30" fill="#9aa4ad"/><path d="M1235.51 365.69Q1232.87 365.69 1231.45 364.22Q1230.03 362.75 1230.03 359.97L1230.03 346.33L1227.35 346.33Q1226.99 346.33 1226.75 346.13Q1226.51 345.92 1226.51 345.48L1226.51 343.91L1230.16 343.45L1231.06 336.57Q1231.13 336.24 1231.36 336.03Q1231.59 335.82 1231.97 335.82L1233.95 335.82L1233.95 343.50L1240.39 343.50L1240.39 346.33L1233.95 346.33L1233.95 359.71Q1233.95 361.12 1234.63 361.80Q1235.31 362.48 1236.39 362.48Q1237 362.48 1237.45 362.32Q1237.91 362.15 1238.24 361.95Q1238.57 361.76 1238.80 361.59Q1239.03 361.43 1239.20 361.43Q1239.51 361.43 1239.75 361.80L1240.90 363.67Q1239.89 364.62 1238.46 365.15Q1237.03 365.69 1235.51 365.69" fill="#9aa4ad"/><path d="M1253.83 342.70Q1256.28 342.70 1258.23 343.52Q1260.19 344.33 1261.58 345.83Q1262.96 347.32 1263.70 349.45Q1264.44 351.57 1264.44 354.19Q1264.44 356.83 1263.70 358.94Q1262.96 361.05 1261.58 362.55Q1260.19 364.04 1258.23 364.85Q1256.28 365.65 1253.83 365.65Q1251.37 365.65 1249.40 364.85Q1247.43 364.04 1246.05 362.55Q1244.66 361.05 1243.92 358.94Q1243.19 356.83 1243.19 354.19Q1243.19 351.57 1243.92 349.45Q1244.66 347.32 1246.05 345.83Q1247.43 344.33 1249.40 343.52Q1251.37 342.70 1253.83 342.70M1253.83 362.59Q1257.13 362.59 1258.76 360.38Q1260.39 358.17 1260.39 354.21Q1260.39 350.23 1258.76 348.01Q1257.13 345.78 1253.83 345.78Q1252.16 345.78 1250.92 346.36Q1249.68 346.93 1248.85 348.01Q1248.03 349.08 1247.62 350.66Q1247.21 352.23 1247.21 354.21Q1247.21 358.17 1248.85 360.38Q1250.49 362.59 1253.83 362.59" fill="#9aa4ad"/><path d="M1272.84 344.13L1273.11 347.52Q1274.16 345.23 1275.70 343.95Q1277.24 342.66 1279.46 342.66Q1280.17 342.66 1280.82 342.81Q1281.47 342.97 1281.97 343.30L1281.69 346.22Q1281.55 346.77 1281.03 346.77Q1280.72 346.77 1280.12 346.64Q1279.53 346.51 1278.78 346.51Q1277.73 346.51 1276.90 346.82Q1276.08 347.13 1275.43 347.73Q1274.78 348.34 1274.26 349.23Q1273.74 350.12 1273.33 351.26L1273.33 365.34L1269.39 365.34L1269.39 343.06L1271.63 343.06Q1272.27 343.06 1272.51 343.30Q1272.75 343.54 1272.84 344.13" fill="#9aa4ad"/><path d="M1288.13 351.77L1300.32 351.77Q1300.32 350.40 1299.93 349.27Q1299.55 348.14 1298.81 347.31Q1298.08 346.49 1297.02 346.04Q1295.96 345.59 1294.62 345.59Q1291.81 345.59 1290.17 347.22Q1288.53 348.86 1288.13 351.77M1302.39 360.79L1303.49 362.22Q1302.76 363.10 1301.75 363.75Q1300.74 364.40 1299.58 364.81Q1298.43 365.23 1297.20 365.44Q1295.96 365.65 1294.75 365.65Q1292.44 365.65 1290.50 364.87Q1288.55 364.09 1287.13 362.58Q1285.71 361.07 1284.92 358.85Q1284.13 356.63 1284.13 353.75Q1284.13 351.42 1284.84 349.39Q1285.56 347.37 1286.90 345.88Q1288.24 344.40 1290.18 343.55Q1292.11 342.70 1294.53 342.70Q1296.54 342.70 1298.24 343.38Q1299.95 344.05 1301.19 345.31Q1302.43 346.58 1303.14 348.44Q1303.84 350.29 1303.84 352.67Q1303.84 353.59 1303.64 353.90Q1303.44 354.21 1302.89 354.21L1288 354.21Q1288.07 356.32 1288.58 357.88Q1289.10 359.45 1290.02 360.49Q1290.95 361.54 1292.22 362.05Q1293.50 362.57 1295.08 362.57Q1296.56 362.57 1297.62 362.23Q1298.69 361.89 1299.46 361.49Q1300.23 361.10 1300.75 360.75Q1301.27 360.41 1301.64 360.41Q1302.12 360.41 1302.39 360.79" fill="#9aa4ad"/><path d="M1307.98 362.92Q1307.98 362.35 1308.18 361.84Q1308.39 361.34 1308.76 360.96Q1309.12 360.59 1309.63 360.37Q1310.13 360.15 1310.70 360.15Q1311.28 360.15 1311.78 360.37Q1312.29 360.59 1312.66 360.96Q1313.04 361.34 1313.26 361.84Q1313.48 362.35 1313.48 362.92Q1313.48 363.52 1313.26 364.01Q1313.04 364.51 1312.66 364.88Q1312.29 365.25 1311.78 365.46Q1311.28 365.67 1310.70 365.67Q1310.13 365.67 1309.63 365.46Q1309.12 365.25 1308.76 364.88Q1308.39 364.51 1308.18 364.01Q1307.98 363.52 1307.98 362.92" fill="#9aa4ad"/>
</svg>
