<svg xmlns="http://www.w3.org/2000/svg" width="1600" height="500" viewBox="0 0 1600 500">
  <rect width="1600" height="500" fill="#ffffff"/>
  <svg x="279.3" y="70.0" width="371.5" height="360" viewBox="0 0 914.72 886.45" xmlns="http://www.w3.org/2000/svg">
  <defs>
    <style>
      .cls-1 {
        fill: #242626;
      }

      .cls-2 {
        fill: #fff57c;
      }

      .cls-3 {
        fill: #f68e32;
      }

      .cls-4 {
        fill: #353738;
      }

      .cls-5 {
        fill: #5a5d5e;
      }

      .cls-6 {
        fill: #c6c6c6;
      }

      .cls-7 {
        fill: #242626;
      }
    </style>
  </defs>
  <g id="logo_VII">
    <g id="tresor">
      <path class="cls-4" d="M34.5,612.95v141.5h58v-141.5h-58ZM820.47,216.96c0-.08-.01-.16-.01-.24,0-.17-.02-.34-.04-.51-.01-.05-.01-.1-.02-.15-.01-.22-.03-.44-.06-.65-.02-.25-.05-.49-.08-.73-.01-.09-.03-.18-.04-.27-.01-.12-.03-.23-.05-.34-.02-.12-.04-.23-.06-.34-.03-.24-.08-.47-.13-.7-.01-.09-.03-.18-.06-.26-.01-.04-.01-.07-.02-.11-.05-.27-.11-.53-.18-.79,0-.01-.01-.03-.01-.04-.06-.25-.12-.48-.2-.72-.01-.07-.03-.14-.05-.21,0-.05-.03-.1-.05-.15-.06-.21-.12-.42-.2-.64h0c-.07-.23-.14-.44-.22-.66-.12-.35-.25-.69-.4-1.03-.07-.2-.15-.39-.24-.57-.02-.06-.05-.13-.08-.19-.11-.28-.24-.54-.37-.81-.13-.27-.26-.54-.41-.81-.02-.03-.03-.06-.05-.09-.12-.24-.25-.48-.4-.72-.13-.25-.27-.49-.42-.72-.18-.29-.36-.58-.55-.86-.02-.03-.05-.07-.07-.1-.11-.16-.22-.33-.34-.48-.01-.01-.02-.03-.03-.04-.18-.26-.37-.51-.56-.76-.18-.25-.38-.5-.58-.74-.21-.26-.42-.51-.65-.75-.12-.13-.24-.27-.37-.4-.03-.03-.06-.07-.09-.1-.13-.15-.28-.31-.43-.45-.02-.03-.05-.05-.07-.07-.1-.11-.21-.22-.32-.32-.14-.15-.29-.29-.44-.42-.16-.16-.33-.32-.51-.47-.19-.17-.38-.34-.58-.5l-.18-.15c-.26-.21-.53-.42-.8-.62-.09-.08-.18-.14-.27-.2-.23-.18-.46-.35-.7-.5-.09-.07-.18-.13-.27-.19-.27-.19-.55-.36-.83-.53-.07-.05-.14-.09-.21-.13-.03-.02-.06-.04-.09-.06-.17-.11-.34-.21-.52-.3-.03-.02-.07-.03-.1-.05-.19-.11-.38-.22-.58-.32-.19-.11-.39-.21-.59-.3-.32-.17-.64-.32-.97-.46-.1-.05-.2-.1-.31-.14-.29-.13-.59-.26-.9-.37-.03-.01-.05-.02-.08-.03-.22-.09-.44-.17-.66-.25-.25-.09-.51-.18-.77-.26-.23-.07-.45-.14-.68-.2-.07-.03-.15-.05-.22-.07-.11-.03-.22-.06-.33-.09t-.02-.01c-.19-.04-.38-.09-.58-.14-.05-.01-.09-.02-.14-.03-.16-.04-.31-.07-.47-.1-.35-.08-.7-.15-1.06-.21-.17-.03-.34-.06-.51-.09-.18-.02-.35-.05-.52-.07-.05-.01-.09-.01-.14-.02h-.03v141.08h.03s.09,0,.14-.02c.17-.02.34-.05.52-.07.17-.03.34-.06.51-.09.36-.06.71-.13,1.06-.21.16-.03.31-.06.47-.1.25-.06.5-.12.74-.18.11-.03.22-.06.33-.09.07-.02.15-.04.22-.07.23-.06.45-.13.68-.2.26-.08.52-.17.77-.26.22-.08.44-.16.66-.25.03-.01.05-.02.08-.03.31-.11.61-.24.9-.37.11-.04.21-.09.31-.14.33-.14.65-.29.97-.46.2-.09.4-.19.59-.3.2-.1.39-.21.58-.32.03-.02.07-.03.1-.05.18-.09.35-.19.52-.3.03-.02.06-.04.09-.06.07-.04.14-.08.21-.13.28-.17.56-.34.83-.53.09-.06.18-.12.27-.19.24-.15.47-.32.7-.5.09-.06.18-.12.27-.2.27-.2.54-.41.8-.62l.18-.15c.2-.16.39-.33.58-.5.18-.15.35-.31.51-.47.26-.23.51-.48.76-.74.02-.02.05-.04.07-.07.15-.14.3-.3.43-.45.03-.03.06-.07.09-.1.13-.13.25-.27.37-.4.23-.24.44-.49.65-.75.2-.24.4-.49.58-.74.19-.25.38-.5.56-.76,0-.01.02-.03.03-.04.12-.15.23-.32.34-.48.02-.03.05-.07.07-.1.19-.28.37-.57.55-.86.15-.23.29-.47.42-.72.15-.24.28-.48.4-.72.02-.03.03-.06.05-.09.15-.27.28-.54.41-.81.13-.27.26-.53.37-.81.03-.06.06-.13.08-.19.09-.18.17-.37.24-.57.15-.34.28-.68.4-1.03.08-.22.15-.43.22-.65h0c.08-.23.14-.44.2-.65.02-.05.04-.1.05-.15.02-.07.04-.14.05-.21.08-.24.14-.47.2-.72,0-.01.01-.03.01-.04.07-.26.13-.52.18-.79.01-.04.01-.07.02-.11.03-.08.05-.17.06-.26.05-.23.1-.46.13-.7.02-.11.04-.22.06-.34.02-.11.04-.22.05-.34.01-.09.03-.18.04-.27.03-.24.06-.48.08-.73.03-.21.05-.43.06-.65.01-.05.01-.09.02-.14.02-.17.03-.35.04-.53,0-.08.01-.15.01-.23.02-.41.03-.82.03-1.24v-89c0-.42-.01-.83-.03-1.24ZM853.58,158.33c-10.01-2.25-10.86-.13-11.76,2.11-.48,1.21-3.58,19.74-6.37,36.77,3.23,6.3,5.05,13.43,5.05,20.99v89c0,24.41-19,44.47-43,46.13v239.74c24,1.66,43,21.72,43,46.13v89c0,24.41-19,44.47-43,46.13v20.12c0,18.7-15.3,34-34,34H126.5c-18.7,0-34-15.3-34-34v-20h-58v60.5c0,28.33,23.18,51.5,51.5,51.5h718c28.33,0,51.5-23.17,51.5-51.5V158.79c-.64-.16-1.29-.32-1.92-.46ZM92.5,157.45c0-18.7,15.3-34,34-34h617.12c-22.7-4.1-63.98-9.43-63.98-9.43,0,0,68.48-21.77,76.32-26.96,3.63-2.4,4.49-4.09,4.69-4.71.64-1.95.27-3.21-1.59-7.74-.2-.48-.4-.97-.6-1.47l-5.58-7.69H86c-28.32,0-51.5,23.18-51.5,51.5v55h58v-14.5ZM820.47,637.96c0-.08-.01-.16-.01-.24,0-.17-.02-.34-.04-.51-.01-.05-.01-.1-.02-.15-.01-.22-.03-.44-.06-.65-.02-.25-.05-.49-.08-.73-.01-.09-.03-.18-.04-.27-.01-.12-.03-.23-.05-.34-.02-.12-.04-.23-.06-.34-.03-.24-.08-.47-.13-.7-.01-.09-.03-.18-.06-.26-.01-.04-.01-.07-.02-.11-.05-.27-.11-.53-.18-.79,0-.01-.01-.03-.01-.04-.06-.25-.12-.48-.2-.72-.01-.07-.03-.14-.05-.21,0-.05-.03-.1-.05-.15-.06-.21-.12-.42-.2-.64h0c-.07-.23-.14-.44-.22-.66-.12-.35-.25-.69-.4-1.03-.07-.2-.15-.39-.24-.57-.02-.06-.05-.13-.08-.19-.11-.28-.24-.54-.37-.81-.13-.27-.26-.54-.41-.81-.02-.03-.03-.06-.05-.09-.12-.24-.25-.48-.4-.72-.13-.25-.27-.49-.42-.72-.18-.29-.36-.58-.55-.86-.02-.03-.05-.07-.07-.1-.11-.16-.22-.33-.34-.48-.01-.01-.02-.03-.03-.04-.18-.26-.37-.51-.56-.76-.18-.25-.38-.5-.58-.74-.21-.26-.42-.51-.65-.75-.12-.13-.24-.27-.37-.4-.03-.03-.06-.07-.09-.1-.13-.15-.28-.31-.43-.45-.02-.03-.05-.05-.07-.07-.1-.11-.21-.22-.32-.32-.14-.15-.29-.29-.44-.42-.16-.16-.33-.32-.51-.47-.19-.17-.38-.34-.58-.5l-.18-.15c-.26-.21-.53-.42-.8-.62-.09-.08-.18-.14-.27-.2-.23-.18-.46-.35-.7-.5-.09-.07-.18-.13-.27-.19-.27-.19-.55-.36-.83-.53-.07-.05-.14-.09-.21-.13-.03-.02-.06-.04-.09-.06-.17-.11-.34-.21-.52-.3-.03-.02-.07-.03-.1-.05-.19-.11-.38-.22-.58-.32-.19-.11-.39-.21-.59-.3-.32-.17-.64-.32-.97-.46-.1-.05-.2-.1-.31-.14-.29-.13-.59-.26-.9-.37-.03-.01-.05-.02-.08-.03-.22-.09-.44-.17-.66-.25-.25-.09-.51-.18-.77-.26-.23-.07-.45-.14-.68-.2-.07-.03-.15-.05-.22-.07-.11-.03-.22-.06-.33-.09t-.02-.01c-.19-.04-.38-.09-.58-.14-.05-.01-.09-.02-.14-.03-.16-.04-.31-.07-.47-.1-.35-.08-.7-.15-1.06-.21-.17-.03-.34-.06-.51-.09-.18-.02-.35-.05-.52-.07-.05-.01-.09-.01-.14-.02h-.03v141.08h.03s.09,0,.14-.02c.17-.02.34-.05.52-.07.17-.03.34-.06.51-.09.36-.06.71-.13,1.06-.21.16-.03.31-.06.47-.1.25-.06.5-.12.74-.18.11-.03.22-.06.33-.09.07-.02.15-.04.22-.07.23-.06.45-.13.68-.2.26-.08.52-.17.77-.26.22-.08.44-.16.66-.25.03-.01.05-.02.08-.03.31-.11.61-.24.9-.37.11-.04.21-.09.31-.14.33-.14.65-.29.97-.46.2-.09.4-.19.59-.3.2-.1.39-.21.58-.32.03-.02.07-.03.1-.05.18-.09.35-.19.52-.3.03-.02.06-.04.09-.06.07-.04.14-.08.21-.13.28-.17.56-.34.83-.53.09-.06.18-.12.27-.19.24-.15.47-.32.7-.5.09-.06.18-.12.27-.2.27-.2.54-.41.8-.62l.18-.15c.2-.16.39-.33.58-.5.18-.15.35-.31.51-.47.26-.23.51-.48.76-.74.02-.02.05-.04.07-.07.15-.14.3-.3.43-.45.03-.03.06-.07.09-.1.13-.13.25-.27.37-.4.23-.24.44-.49.65-.75.2-.24.4-.49.58-.74.19-.25.38-.5.56-.76,0-.01.02-.03.03-.04.12-.15.23-.32.34-.48.02-.03.05-.07.07-.1.19-.28.37-.57.55-.86.15-.23.29-.47.42-.72.15-.24.28-.48.4-.72.02-.03.03-.06.05-.09.15-.27.28-.54.41-.81.13-.27.26-.53.37-.81.03-.06.06-.13.08-.19.09-.18.17-.37.24-.57.15-.34.28-.68.4-1.03.08-.22.15-.43.22-.65h0c.08-.23.14-.44.2-.65.02-.05.04-.1.05-.15.02-.07.04-.14.05-.21.08-.24.14-.47.2-.72,0-.01.01-.03.01-.04.07-.26.13-.52.18-.79.01-.04.01-.07.02-.11.03-.08.05-.17.06-.26.05-.23.1-.46.13-.7.02-.11.04-.22.06-.34.02-.11.04-.22.05-.34.01-.09.03-.18.04-.27.03-.24.06-.48.08-.73.03-.21.05-.43.06-.65.01-.05.01-.09.02-.14.02-.17.03-.35.04-.53,0-.08.01-.15.01-.23.02-.41.03-.82.03-1.24v-89c0-.42-.01-.83-.03-1.24ZM820.47,216.96c0-.08-.01-.16-.01-.24,0-.17-.02-.34-.04-.51-.01-.05-.01-.1-.02-.15-.01-.22-.03-.44-.06-.65-.02-.25-.05-.49-.08-.73-.01-.09-.03-.18-.04-.27-.01-.12-.03-.23-.05-.34-.02-.12-.04-.23-.06-.34-.03-.24-.08-.47-.13-.7-.01-.09-.03-.18-.06-.26-.01-.04-.01-.07-.02-.11-.05-.27-.11-.53-.18-.79,0-.01-.01-.03-.01-.04-.06-.25-.12-.48-.2-.72-.01-.07-.03-.14-.05-.21,0-.05-.03-.1-.05-.15-.06-.21-.12-.42-.2-.64h0c-.07-.23-.14-.44-.22-.66-.12-.35-.25-.69-.4-1.03-.07-.2-.15-.39-.24-.57-.02-.06-.05-.13-.08-.19-.11-.28-.24-.54-.37-.81-.13-.27-.26-.54-.41-.81-.02-.03-.03-.06-.05-.09-.12-.24-.25-.48-.4-.72-.13-.25-.27-.49-.42-.72-.18-.29-.36-.58-.55-.86-.02-.03-.05-.07-.07-.1-.11-.16-.22-.33-.34-.48-.01-.01-.02-.03-.03-.04-.18-.26-.37-.51-.56-.76-.18-.25-.38-.5-.58-.74-.21-.26-.42-.51-.65-.75-.12-.13-.24-.27-.37-.4-.03-.03-.06-.07-.09-.1-.13-.15-.28-.31-.43-.45-.02-.03-.05-.05-.07-.07-.1-.11-.21-.22-.32-.32-.14-.15-.29-.29-.44-.42-.16-.16-.33-.32-.51-.47-.19-.17-.38-.34-.58-.5l-.18-.15c-.26-.21-.53-.42-.8-.62-.09-.08-.18-.14-.27-.2-.23-.18-.46-.35-.7-.5-.09-.07-.18-.13-.27-.19-.27-.19-.55-.36-.83-.53-.07-.05-.14-.09-.21-.13-.03-.02-.06-.04-.09-.06-.17-.11-.34-.21-.52-.3-.03-.02-.07-.03-.1-.05-.19-.11-.38-.22-.58-.32-.19-.11-.39-.21-.59-.3-.32-.17-.64-.32-.97-.46-.1-.05-.2-.1-.31-.14-.29-.13-.59-.26-.9-.37-.03-.01-.05-.02-.08-.03-.22-.09-.44-.17-.66-.25-.25-.09-.51-.18-.77-.26-.23-.07-.45-.14-.68-.2-.07-.03-.15-.05-.22-.07-.11-.03-.22-.06-.33-.09t-.02-.01c-.19-.04-.38-.09-.58-.14-.05-.01-.09-.02-.14-.03-.16-.04-.31-.07-.47-.1-.35-.08-.7-.15-1.06-.21-.17-.03-.34-.06-.51-.09-.18-.02-.35-.05-.52-.07-.05-.01-.09-.01-.14-.02h-.03v141.08h.03s.09,0,.14-.02c.17-.02.34-.05.52-.07.17-.03.34-.06.51-.09.36-.06.71-.13,1.06-.21.16-.03.31-.06.47-.1.25-.06.5-.12.74-.18.11-.03.22-.06.33-.09.07-.02.15-.04.22-.07.23-.06.45-.13.68-.2.26-.08.52-.17.77-.26.22-.08.44-.16.66-.25.03-.01.05-.02.08-.03.31-.11.61-.24.9-.37.11-.04.21-.09.31-.14.33-.14.65-.29.97-.46.2-.09.4-.19.59-.3.2-.1.39-.21.58-.32.03-.02.07-.03.1-.05.18-.09.35-.19.52-.3.03-.02.06-.04.09-.06.07-.04.14-.08.21-.13.28-.17.56-.34.83-.53.09-.06.18-.12.27-.19.24-.15.47-.32.7-.5.09-.06.18-.12.27-.2.27-.2.54-.41.8-.62l.18-.15c.2-.16.39-.33.58-.5.18-.15.35-.31.51-.47.26-.23.51-.48.76-.74.02-.02.05-.04.07-.07.15-.14.3-.3.43-.45.03-.03.06-.07.09-.1.13-.13.25-.27.37-.4.23-.24.44-.49.65-.75.2-.24.4-.49.58-.74.19-.25.38-.5.56-.76,0-.01.02-.03.03-.04.12-.15.23-.32.34-.48.02-.03.05-.07.07-.1.19-.28.37-.57.55-.86.15-.23.29-.47.42-.72.15-.24.28-.48.4-.72.02-.03.03-.06.05-.09.15-.27.28-.54.41-.81.13-.27.26-.53.37-.81.03-.06.06-.13.08-.19.09-.18.17-.37.24-.57.15-.34.28-.68.4-1.03.08-.22.15-.43.22-.65h0c.08-.23.14-.44.2-.65.02-.05.04-.1.05-.15.02-.07.04-.14.05-.21.08-.24.14-.47.2-.72,0-.01.01-.03.01-.04.07-.26.13-.52.18-.79.01-.04.01-.07.02-.11.03-.08.05-.17.06-.26.05-.23.1-.46.13-.7.02-.11.04-.22.06-.34.02-.11.04-.22.05-.34.01-.09.03-.18.04-.27.03-.24.06-.48.08-.73.03-.21.05-.43.06-.65.01-.05.01-.09.02-.14.02-.17.03-.35.04-.53,0-.08.01-.15.01-.23.02-.41.03-.82.03-1.24v-89c0-.42-.01-.83-.03-1.24ZM34.5,191.95v141.5h58v-141.5h-58ZM34.5,353.45v239.5h58v-239.5h-58Z"/>
      <path class="cls-6" d="M720.46,307.2v-89c0-5.92,1.13-11.57,3.16-16.78-1.24.08-2.49.14-3.76.18-32.27,1.06-48.35,6.47-64.83,25l21.3,14.95,16.26,11.42-11.31,16.34c-8.76,12.65-18.14,26.31-24.6,35.82,46.8,57.75,68.82,131.33,60.64,204.25-7.48,66.65-39.35,128.15-89.74,173.18-50.24,44.89-114.56,69.62-181.1,69.62-4.74,0-9.55-.13-14.34-.38-2.46-.14-4.71-.28-6.87-.45-9.64-.74-19.31-1.99-28.78-3.7-2.36-.43-4.72-.9-6.98-1.37-11.52-2.4-22.9-5.54-33.8-9.33-2.08-.72-4.27-1.51-6.49-2.35-2.2-.82-4.35-1.67-6.41-2.5-4.2-1.69-8.41-3.52-12.52-5.45-1.03-.47-2.07-.96-3.1-1.46l-.04-.02-.04-.02c-3.24-1.57-6.19-3.06-9.01-4.55-2.97-1.56-5.96-3.21-8.91-4.92-1.83-1.05-3.71-2.17-5.77-3.43l-.05-.03-.05-.03-.64-.4c-1.17-.72-2.33-1.44-3.5-2.18l-.05-.03-.05-.03c-1.37-.88-2.73-1.77-4.08-2.66l-.04-.03-.04-.03c-1.46-.97-2.8-1.87-4.09-2.76l-.08-.05-.05-.03c-.69-.48-1.39-.96-2.07-1.45-1.23-.87-2.51-1.8-3.92-2.82-.7-.5-1.37-1-2.08-1.53-1.19-.89-2.44-1.85-3.94-3.01-3.41-2.64-6.87-5.46-10.29-8.4-10.78-9.24-20.95-19.45-30.23-30.32-15.58-18.28-28.75-38.56-39.15-60.34-.77-1.61-1.77-3.75-2.76-5.97l-.35-.79c-.2-.45-.41-.91-.61-1.38l-1.06-2.39v-.04c-.18-.43-.37-.86-.56-1.31-.4-.95-.85-2.03-1.3-3.16-.75-1.85-1.51-3.78-2.32-5.89-.44-1.13-.84-2.23-1.21-3.25-.73-2-1.45-4.04-2.14-6.06l-1.36-3.98v-.12c-1.57-4.91-3.02-9.88-4.31-14.84-8.66-33.17-10.98-67.11-6.88-100.87,4.31-35.52,15.62-69.75,33.62-101.76,8.07-14.35,17.55-28.06,28.18-40.75l.03-.03.03-.03c1.01-1.19,2.05-2.42,3.15-3.68,1-1.16,2.07-2.35,3.24-3.65,1.2-1.33,2.28-2.51,3.31-3.61,1.52-1.63,3.15-3.33,5-5.21l.08-.08.08-.08c1.09-1.08,2.17-2.16,3.26-3.23l.06-.06.06-.06c1.72-1.67,3.48-3.34,5.24-4.97l.02-.02.02-.02c1.17-1.08,2.34-2.14,3.53-3.21.97-.87,1.94-1.71,2.91-2.56l.66-.58.05-.05.05-.05c24.78-21.32,53-37.95,83.87-49.42,30.91-11.48,63.16-17.31,95.86-17.31,6.91,0,13.89.27,20.76.8,3.97.31,7.92.7,11.77,1.17,1.53.19,3.06.39,4.61.6,2.33.32,4.7.68,7.04,1.07h.04s.04.01.04.01c1.53.26,3.06.53,4.62.81,10.35,1.91,20.67,4.46,30.67,7.58.36.11.72.22,1.09.34l27.61-37.84,11.58-15.87,16.07,11.28,23.36,16.4c12.87-15.51,25.82-26.36,40.59-34.21,13.82-7.34,29.15-11.97,47.95-14.36H126.5c-7.72,0-14,6.28-14,14v14.5h5.34c25.51,0,46.25,20.75,46.25,46.25v89c0,25.5-20.74,46.25-46.25,46.25h-5.34v239.5h5.34c25.51,0,46.25,20.75,46.25,46.25v89c0,25.5-20.74,46.25-46.25,46.25h-5.34v20c0,7.72,6.28,14,14,14h637c7.72,0,14-6.28,14-14v-20h-10.79c-25.5,0-46.25-20.75-46.25-46.25v-89c0-25.5,20.75-46.25,46.25-46.25h10.79v-239.5h-10.79c-25.5,0-46.25-20.75-46.25-46.25Z"/>
      <path class="cls-4" d="M144.09,218.2v89c0,14.44-11.81,26.25-26.25,26.25H26.25c-14.43,0-26.25-11.81-26.25-26.25v-89c0-14.44,11.82-26.25,26.25-26.25h91.59c14.44,0,26.25,11.81,26.25,26.25Z"/>
      <path class="cls-4" d="M144.09,639.2v89c0,14.44-11.81,26.25-26.25,26.25H26.25c-14.43,0-26.25-11.81-26.25-26.25v-89c0-14.44,11.82-26.25,26.25-26.25h91.59c14.44,0,26.25,11.81,26.25,26.25Z"/>
      <path class="cls-4" d="M820.5,218.2v89c0,.42-.01.83-.03,1.24,0,.08-.01.15-.01.23,0,.18-.02.36-.04.53-.01.05-.01.09-.02.14-.01.22-.03.44-.06.65-.02.25-.05.49-.08.73-.01.09-.03.18-.04.27-.01.12-.03.23-.05.34-.02.12-.04.23-.06.34-.03.24-.08.47-.13.7-.01.09-.03.18-.06.26-.01.04-.01.07-.02.11-.05.27-.11.53-.18.79,0,.01-.01.03-.01.04-.06.25-.12.48-.2.72-.01.07-.03.14-.05.21,0,.05-.03.1-.05.15-.06.21-.12.42-.2.64h0c-.07.23-.14.44-.22.66-.12.35-.25.69-.4,1.03-.07.2-.15.39-.24.57-.02.06-.05.13-.08.19-.11.28-.24.54-.37.81-.13.27-.26.54-.41.81-.02.03-.03.06-.05.09-.12.24-.25.48-.4.72-.13.25-.27.49-.42.72-.18.29-.36.58-.55.86-.02.03-.05.07-.07.1-.11.16-.22.33-.34.48-.01.01-.02.03-.03.04-.18.26-.37.51-.56.76-.18.25-.38.5-.58.74-.21.26-.42.51-.65.75-.12.13-.24.27-.37.4-.03.03-.06.07-.09.1-.13.15-.28.31-.43.45-.02.03-.05.05-.07.07-.25.26-.5.51-.76.74-.16.16-.33.32-.51.47-.19.17-.38.34-.58.5l-.18.15c-.26.21-.53.42-.8.62-.09.08-.18.14-.27.2-.23.18-.46.35-.7.5-.09.07-.18.13-.27.19-.27.19-.55.36-.83.53-.07.05-.14.09-.21.13-.03.02-.06.04-.09.06-.17.11-.34.21-.52.3-.03.02-.07.03-.1.05-.19.11-.38.22-.58.32-.19.11-.39.21-.59.3-.32.17-.64.32-.97.46-.1.05-.2.1-.31.14-.29.13-.59.26-.9.37-.03.01-.05.02-.08.03-.22.09-.44.17-.66.25-.25.09-.51.18-.77.26-.23.07-.45.14-.68.2-.07.03-.15.05-.22.07-.11.03-.22.06-.33.09-.24.06-.49.12-.74.18-.16.04-.31.07-.47.1-.35.08-.7.15-1.06.21-.17.03-.34.06-.51.09-.18.02-.35.05-.52.07-.05.01-.09.01-.14.02h-.03c-.22.03-.44.06-.66.08-.36.04-.71.07-1.07.09h-.07c-.11,0-.21,0-.32,0-.37.02-.75.03-1.13.03h-27.54c-14.44,0-26.25-11.81-26.25-26.25v-89c0-14.44,11.81-26.25,26.25-26.25h27.54c.38,0,.76.01,1.13.03.11,0,.21,0,.32,0h.07c.36.02.71.05,1.07.09.22.02.44.05.66.08h.03s.09,0,.14.02c.17.02.34.05.52.07.17.03.34.06.51.09.36.06.71.13,1.06.21.16.03.31.06.47.1.05.01.09.02.14.03.2.05.39.1.58.14t.02.01c.11.03.22.06.33.09.07.02.15.04.22.07.23.06.45.13.68.2.26.08.52.17.77.26.22.08.44.16.66.25.03.01.05.02.08.03.31.11.61.24.9.37.11.04.21.09.31.14.33.14.65.29.97.46.2.09.4.19.59.3.2.1.39.21.58.32.03.02.07.03.1.05.18.09.35.19.52.3.03.02.06.04.09.06.07.04.14.08.21.13.28.17.56.34.83.53.09.06.18.12.27.19.24.15.47.32.7.5.09.06.18.12.27.2.27.2.54.41.8.62l.18.15c.2.16.39.33.58.5.18.15.35.31.51.47.15.13.3.27.44.42.11.1.22.21.32.32.02.02.05.04.07.07.15.14.3.3.43.45.03.03.06.07.09.1.13.13.25.27.37.4.23.24.44.49.65.75.2.24.4.49.58.74.19.25.38.5.56.76,0,.01.02.03.03.04.12.15.23.32.34.48.02.03.05.07.07.1.19.28.37.57.55.86.15.23.29.47.42.72.15.24.28.48.4.72.02.03.03.06.05.09.15.27.28.54.41.81.13.27.26.53.37.81.03.06.06.13.08.19.09.18.17.37.24.57.15.34.28.68.4,1.03.08.22.15.43.22.65h0c.08.23.14.44.2.65.02.05.04.1.05.15.02.07.04.14.05.21.08.24.14.47.2.72,0,.01.01.03.01.04.07.26.13.52.18.79.01.04.01.07.02.11.03.08.05.17.06.26.05.23.1.46.13.7.02.11.04.22.06.34.02.11.04.22.05.34.01.09.03.18.04.27.03.24.06.48.08.73.03.21.05.43.06.65.01.05.01.1.02.15.02.17.03.34.04.51,0,.08.01.16.01.24.02.41.03.82.03,1.24Z"/>
      <path class="cls-4" d="M820.5,639.2v89c0,.42-.01.83-.03,1.24,0,.08-.01.15-.01.23,0,.18-.02.36-.04.53-.01.05-.01.09-.02.14-.01.22-.03.44-.06.65-.02.25-.05.49-.08.73-.01.09-.03.18-.04.27-.01.12-.03.23-.05.34-.02.12-.04.23-.06.34-.03.24-.08.47-.13.7-.01.09-.03.18-.06.26-.01.04-.01.07-.02.11-.05.27-.11.53-.18.79,0,.01-.01.03-.01.04-.06.25-.12.48-.2.72-.01.07-.03.14-.05.21,0,.05-.03.1-.05.15-.06.21-.12.42-.2.64h0c-.07.23-.14.44-.22.66-.12.35-.25.69-.4,1.03-.07.2-.15.39-.24.57-.02.06-.05.13-.08.19-.11.28-.24.54-.37.81-.13.27-.26.54-.41.81-.02.03-.03.06-.05.09-.12.24-.25.48-.4.72-.13.25-.27.49-.42.72-.18.29-.36.58-.55.86-.02.03-.05.07-.07.1-.11.16-.22.33-.34.48-.01.01-.02.03-.03.04-.18.26-.37.51-.56.76-.18.25-.38.5-.58.74-.21.26-.42.51-.65.75-.12.13-.24.27-.37.4-.03.03-.06.07-.09.1-.13.15-.28.31-.43.45-.02.03-.05.05-.07.07-.25.26-.5.51-.76.74-.16.16-.33.32-.51.47-.19.17-.38.34-.58.5l-.18.15c-.26.21-.53.42-.8.62-.09.08-.18.14-.27.2-.23.18-.46.35-.7.5-.09.07-.18.13-.27.19-.27.19-.55.36-.83.53-.07.05-.14.09-.21.13-.03.02-.06.04-.09.06-.17.11-.34.21-.52.3-.03.02-.07.03-.1.05-.19.11-.38.22-.58.32-.19.11-.39.21-.59.3-.32.17-.64.32-.97.46-.1.05-.2.1-.31.14-.29.13-.59.26-.9.37-.03.01-.05.02-.08.03-.22.09-.44.17-.66.25-.25.09-.51.18-.77.26-.23.07-.45.14-.68.2-.07.03-.15.05-.22.07-.11.03-.22.06-.33.09-.24.06-.49.12-.74.18-.16.04-.31.07-.47.1-.35.08-.7.15-1.06.21-.17.03-.34.06-.51.09-.18.02-.35.05-.52.07-.05.01-.09.01-.14.02h-.03c-.22.03-.44.06-.66.08-.36.04-.71.07-1.07.09h-.07c-.11,0-.21,0-.32,0-.37.02-.75.03-1.13.03h-27.54c-14.44,0-26.25-11.81-26.25-26.25v-89c0-14.44,11.81-26.25,26.25-26.25h27.54c.38,0,.76.01,1.13.03.11,0,.21,0,.32,0h.07c.36.02.71.05,1.07.09.22.02.44.05.66.08h.03s.09,0,.14.02c.17.02.34.05.52.07.17.03.34.06.51.09.36.06.71.13,1.06.21.16.03.31.06.47.1.05.01.09.02.14.03.2.05.39.1.58.14t.02.01c.11.03.22.06.33.09.07.02.15.04.22.07.23.06.45.13.68.2.26.08.52.17.77.26.22.08.44.16.66.25.03.01.05.02.08.03.31.11.61.24.9.37.11.04.21.09.31.14.33.14.65.29.97.46.2.09.4.19.59.3.2.1.39.21.58.32.03.02.07.03.1.05.18.09.35.19.52.3.03.02.06.04.09.06.07.04.14.08.21.13.28.17.56.34.83.53.09.06.18.12.27.19.24.15.47.32.7.5.09.06.18.12.27.2.27.2.54.41.8.62l.18.15c.2.16.39.33.58.5.18.15.35.31.51.47.15.13.3.27.44.42.11.1.22.21.32.32.02.02.05.04.07.07.15.14.3.3.43.45.03.03.06.07.09.1.13.13.25.27.37.4.23.24.44.49.65.75.2.24.4.49.58.74.19.25.38.5.56.76,0,.01.02.03.03.04.12.15.23.32.34.48.02.03.05.07.07.1.19.28.37.57.55.86.15.23.29.47.42.72.15.24.28.48.4.72.02.03.03.06.05.09.15.27.28.54.41.81.13.27.26.53.37.81.03.06.06.13.08.19.09.18.17.37.24.57.15.34.28.68.4,1.03.08.22.15.43.22.65h0c.08.23.14.44.2.65.02.05.04.1.05.15.02.07.04.14.05.21.08.24.14.47.2.72,0,.01.01.03.01.04.07.26.13.52.18.79.01.04.01.07.02.11.03.08.05.17.06.26.05.23.1.46.13.7.02.11.04.22.06.34.02.11.04.22.05.34.01.09.03.18.04.27.03.24.06.48.08.73.03.21.05.43.06.65.01.05.01.1.02.15.02.17.03.34.04.51,0,.08.01.16.01.24.02.41.03.82.03,1.24Z"/>
      <path class="cls-5" d="M793.74,623.97c-2.77,1.38-30.52,3.72-35.28,15.43s-9.88,57.43-10.84,47.9c-.3-8.47-.7-40.52-.7-40.52,0-14.44,11.81-26.25,26.25-26.25l19.67.03c.08,0,3.66,2.03.89,3.41Z"/>
      <path class="cls-7" d="M768.04,746.49c2.77-1.38,30.52-3.72,35.28-15.43s9.88-57.43,10.84-47.9c.3,8.47.7,40.52.7,40.52,0,14.44-11.81,26.25-26.25,26.25l-19.67-.03c-.08,0-3.66-2.03-.89-3.41Z"/>
      <path class="cls-5" d="M793.74,201.43c-2.77,1.38-30.52,3.72-35.28,15.43s-9.88,57.43-10.84,47.9c-.3-8.47-.7-40.52-.7-40.52,0-14.44,11.81-26.25,26.25-26.25l19.67.03c.08,0,3.66,2.03.89,3.41Z"/>
      <path class="cls-7" d="M768.04,323.96c2.77-1.38,30.52-3.72,35.28-15.43s9.88-57.43,10.84-47.9c.3,8.47.7,40.52.7,40.52,0,14.44-11.81,26.25-26.25,26.25l-19.67-.03c-.08,0-3.66-2.03-.89-3.41Z"/>
      <path class="cls-5" d="M77.89,626.8c-4,1.99-44.1,5.38-50.97,22.29s-14.28,82.98-15.66,69.21c-.43-12.24-1.01-58.55-1.01-58.55,0-20.86,17.06-37.93,37.93-37.93l28.43.04c.12,0,5.29,2.94,1.28,4.93Z"/>
      <path class="cls-7" d="M65.02,739.83c4-1.99,44.1-5.38,50.97-22.29,6.87-16.92,14.28-82.98,15.66-69.21.43,12.24,1.01,58.55,1.01,58.55,0,20.86-17.06,37.93-37.93,37.93l-28.43-.04c-.12,0-5.29-2.94-1.28-4.93Z"/>
      <path class="cls-5" d="M77.89,206.18c-4,1.99-44.1,5.38-50.97,22.29s-14.28,82.98-15.66,69.21c-.43-12.24-1.01-58.55-1.01-58.55,0-20.86,17.06-37.93,37.93-37.93l28.43.04c.12,0,5.29,2.94,1.28,4.93Z"/>
      <path class="cls-7" d="M65.02,319.21c4-1.99,44.1-5.38,50.97-22.29,6.87-16.92,14.28-82.98,15.66-69.21.43,12.24,1.01,58.55,1.01,58.55,0,20.86-17.06,37.93-37.93,37.93l-28.43-.04c-.12,0-5.29-2.94-1.28-4.93Z"/>
    </g>
    <g id="funken">
      <path class="cls-3" d="M875.16,110.63l39.56-14.28s-22.85-.67-33.96-2.93c-20.94-4.27-21.81-12.79-12.43-30.45,5.45-10.26,20.46-28.85,20.46-28.85l-33.23,21.08c-23.74,10.55-28.8-7.13-33.28-25.88-1.69-7.08-4.81-29.32-4.81-29.32,0,0-4.49,27.13-8.2,38.85-1.89,5.98-3.98,10.75-6.68,14.14-5.04,6.31-12.21,7.8-24.19,3.22-2.4-.91-4.79-2-7.17-3.22-9.77-4.97-28.03-17.89-28.03-17.89l12.99,17.89,11.11,15.3c2.32,6,5.02,10.58,2.86,17.16-1.26,3.87-4.42,7.14-8.67,9.95-12.28,8.13-45.24,15.89-45.24,15.89,0,0,30.27.62,44.14,5.76,6.51,2.41,11.37,6,12.49,11.39.41,1.94.39,4.21.08,6.65-.94,7.48-4.69,16.62-7.8,23.32-.65,1.41-1.28,2.71-1.84,3.86-2.78,5.66-11.81,6.07-11.81,6.07,0,0,20.34-6.35,30.27-12.54,6.34-3.95,11.56-5.36,15.96-4.93,11.71,1.13,17.58,15.27,23.42,28.96.45,1.05.96,2.38,1.51,3.86,2.55,6.81,5.78,16.75,5.78,16.75l.51-25.41c0-3.54,2.19-14.83,3.59-18.32,4.27-10.62,13.86-10.24,23.19-8.14,1.81.4,3.6.87,5.35,1.34l40.88,17.59s-56.26-40.74-26.81-56.87Z"/>
      <path class="cls-2" d="M822.97,147.64c-.21,3.53-1.62.14-2.23-1.26-1.99-4.55-6.5-18.99-11.43-20.45-9.19-2.73-19.49,10.67-23.23,12.74s8.6-13.56,8.05-22.44-13.57-9.04-20.54-9.42c-1.29-.07-8.47.08-3.73-1.49s19.83-4.2,22.95-11.25c3.39-7.64-17.32-26.48-12.22-24.69s11.58,7.72,17.9,9.58c2.58.76,4.88,1.61,7.58.51,6.68-2.11,8.42-22.62,9.85-24.8s1.92,5.95,2.51,8.36c.93,3.79,2.99,11.72,5.52,14.41,8.01,8.5,24.03-9.35,25.94-7.48l-10.76,18.67c-1.7,7.54,16.1,10.34,22.71,11.58s-19.13,4.59-21.4,9.59c-3.67,8.11,8.56,15,12.44,20.89-7.2-1.03-19.31-10.48-25.99-5.53-1.21.9-1.55,2.41-2.51,5.12s-1.21,13.82-1.42,17.35Z"/>
    </g>
    <g id="bombe">
      <path class="cls-4" d="M821.06,99.41c-4.33-3.43-10.62-2.7-14.05,1.63-1.53,1.93-3.14,4.01-4.82,6.2-17.25,22.36-40.88,52.99-83.64,54.39-52.1,1.71-79.23,15.93-108.5,57.84l-39.14-27.48-36.33,49.8c-3.52-1.33-7.05-2.59-10.6-3.75-1.29-.42-2.58-.84-3.87-1.24-9.38-2.92-18.86-5.25-28.36-7-1.44-.26-2.89-.52-4.33-.76-2.16-.36-4.33-.69-6.51-.99-1.44-.2-2.89-.39-4.33-.56-3.62-.44-7.23-.8-10.85-1.08-67.51-5.2-134.91,17.28-185.9,61.15-1.13.98-2.25,1.96-3.37,2.96-1.12,1-2.23,2.01-3.33,3.02-1.65,1.53-3.28,3.07-4.89,4.64-1.07,1.06-2.13,2.11-3.2,3.18-1.58,1.61-3.15,3.24-4.69,4.89-1.03,1.1-2.04,2.2-3.06,3.33-1.01,1.12-2.02,2.24-3,3.38-1,1.14-1.97,2.3-2.95,3.45-9.72,11.6-18.48,24.2-26.08,37.71-34.44,61.24-40.49,127.81-24.83,187.78,1.54,5.9,3.29,11.74,5.25,17.51h0c.66,1.92,1.33,3.83,2.03,5.73.35.96.69,1.92,1.06,2.86.72,1.89,1.47,3.78,2.23,5.66.37.94.76,1.88,1.16,2.81.79,1.87,1.6,3.72,2.43,5.56h0c.82,1.86,1.68,3.69,2.55,5.52,9.6,20.1,21.8,38.94,36.3,55.94,8.57,10.05,17.93,19.46,28.02,28.12,3.1,2.66,6.28,5.25,9.53,7.77,1.22.94,2.44,1.88,3.67,2.81.61.46,1.23.91,1.86,1.37,1.24.91,2.5,1.82,3.76,2.71.62.45,1.26.89,1.9,1.33,1.27.87,2.55,1.74,3.85,2.6,1.28.84,2.58,1.7,3.89,2.54,1.32.84,2.64,1.65,3.96,2.47,1.77,1.08,3.55,2.15,5.36,3.19,2.7,1.57,5.43,3.08,8.21,4.53,2.76,1.47,5.57,2.88,8.41,4.25.95.46,1.9.9,2.85,1.34,3.81,1.79,7.68,3.47,11.61,5.05,1.96.8,3.95,1.58,5.94,2.32s4,1.47,6.02,2.18c10.11,3.51,20.56,6.4,31.33,8.65,2.14.45,4.31.88,6.49,1.27,8.72,1.58,17.63,2.74,26.72,3.44,2.13.16,4.28.3,6.43.42,132.69,7.02,249.36-92.3,264.21-224.68,8.22-73.29-16.65-146.28-65.79-200.5,3.57-5.95,33.18-48.73,33.18-48.73l-38.42-26.97c25.76-37.04,46.59-47.82,92.79-49.34,52.18-1.71,81.37-39.56,98.82-62.16,1.63-2.11,3.18-4.12,4.66-5.99,3.43-4.33,2.7-10.62-1.63-14.05Z"/>
      <path class="cls-1" d="M662.53,261.28c-7.02,10.15-27.73,40.19-30.83,45.32-26.4-28.58-59.39-51.16-96.8-65.22l4.33-5.94c28.16,13.89,59.4,22.75,92.63,25.31,10.34.8,20.58.96,30.68.53Z"/>
      <path class="cls-7" d="M658.73,342.19c30.87,48.6,45.26,106.69,38.72,164.97-14.85,132.38-131.53,231.7-264.21,224.68-2.15-.12-4.3-.26-6.43-.42-9.09-.7-18-1.86-26.72-3.44-2.18-.4-4.34-.82-6.49-1.27-10.77-2.25-21.22-5.13-31.33-8.65-2.02-.7-4.03-1.43-6.02-2.18s-3.97-1.52-5.94-2.32c-3.93-1.58-7.8-3.27-11.61-5.05-.95-.44-1.9-.88-2.85-1.34-2.84-1.38-5.65-2.79-8.41-4.25-2.77-1.46-5.51-2.97-8.21-4.53-1.8-1.04-3.59-2.1-5.36-3.19-1.32-.82-2.64-1.63-3.96-2.47-1.3-.84-2.6-1.69-3.89-2.54-1.3-.87-2.58-1.73-3.85-2.6-.64-.44-1.27-.88-1.9-1.33-1.26-.89-2.52-1.8-3.76-2.71-.63-.46-1.25-.91-1.86-1.37-1.24-.93-2.46-1.86-3.67-2.81-3.25-2.52-6.42-5.11-9.53-7.77-10.1-8.66-19.46-18.07-28.02-28.12-3.03-3.54-5.94-7.17-8.75-10.87,38.88,28.72,86.04,47.23,137.8,51.22,146.84,11.32,275.05-98.55,286.37-245.4,2.58-33.44-1.13-65.92-10.12-96.27Z"/>
      <path class="cls-5" d="M247.11,420.67c12.78,14.15,38.17-23.54,79.25-60.63,41.07-37.09,82.27-59.54,69.49-73.69-12.78-14.15-56.43,4.45-97.51,41.54s-64.01,78.63-51.24,92.78Z"/>
      <circle class="cls-5" cx="437.87" cy="271.98" r="17.7"/>
    </g>
    <g id="nieten">
      <g>
        <circle class="cls-4" cx="197.16" cy="779.47" r="20.44"/>
        <path class="cls-7" d="M214.66,768.95c.38,1.6.6,3.26.6,4.97,0,11.84-9.6,21.43-21.43,21.43-5.45,0-10.41-2.05-14.2-5.41,3.57,5.96,10.07,9.97,17.53,9.97,11.29,0,20.44-9.15,20.44-20.44,0-3.86-1.09-7.45-2.94-10.53Z"/>
        <path class="cls-5" d="M181.48,779.21c1.41,1.34,3.71-2.7,7.6-6.8s7.92-6.71,6.5-8.06-5.72.9-9.61,5c-3.89,4.1-5.91,8.52-4.49,9.86Z"/>
      </g>
      <g>
        <circle class="cls-4" cx="144.09" cy="546.69" r="20.44"/>
        <path class="cls-7" d="M161.59,536.17c.38,1.6.6,3.26.6,4.97,0,11.84-9.6,21.43-21.43,21.43-5.45,0-10.41-2.05-14.2-5.41,3.57,5.96,10.07,9.97,17.53,9.97,11.29,0,20.44-9.15,20.44-20.44,0-3.86-1.09-7.45-2.94-10.53Z"/>
        <path class="cls-5" d="M128.41,546.43c1.41,1.34,3.71-2.7,7.6-6.8s7.92-6.71,6.5-8.06-5.72.9-9.61,5c-3.89,4.1-5.91,8.52-4.49,9.86Z"/>
      </g>
      <g>
        <circle class="cls-4" cx="144.09" cy="412.55" r="20.44"/>
        <path class="cls-7" d="M161.59,402.02c.38,1.6.6,3.26.6,4.97,0,11.84-9.6,21.43-21.43,21.43-5.45,0-10.41-2.05-14.2-5.41,3.57,5.96,10.07,9.97,17.53,9.97,11.29,0,20.44-9.15,20.44-20.44,0-3.86-1.09-7.45-2.94-10.53Z"/>
        <path class="cls-5" d="M128.41,412.28c1.41,1.34,3.71-2.7,7.6-6.8s7.92-6.71,6.5-8.06-5.72.9-9.61,5c-3.89,4.1-5.91,8.52-4.49,9.86Z"/>
      </g>
      <g>
        <circle class="cls-4" cx="746.93" cy="546.69" r="20.44"/>
        <path class="cls-7" d="M764.43,536.17c.38,1.6.6,3.26.6,4.97,0,11.84-9.6,21.43-21.43,21.43-5.45,0-10.41-2.05-14.2-5.41,3.57,5.96,10.07,9.97,17.53,9.97,11.29,0,20.44-9.15,20.44-20.44,0-3.86-1.09-7.45-2.94-10.53Z"/>
        <path class="cls-5" d="M731.25,546.43c1.41,1.34,3.71-2.7,7.6-6.8s7.92-6.71,6.5-8.06-5.72.9-9.61,5-5.91,8.52-4.49,9.86Z"/>
      </g>
      <g>
        <circle class="cls-4" cx="746.93" cy="412.55" r="20.44"/>
        <path class="cls-7" d="M764.43,402.02c.38,1.6.6,3.26.6,4.97,0,11.84-9.6,21.43-21.43,21.43-5.45,0-10.41-2.05-14.2-5.41,3.57,5.96,10.07,9.97,17.53,9.97,11.29,0,20.44-9.15,20.44-20.44,0-3.86-1.09-7.45-2.94-10.53Z"/>
        <path class="cls-5" d="M731.25,412.28c1.41,1.34,3.71-2.7,7.6-6.8s7.92-6.71,6.5-8.06-5.72.9-9.61,5-5.91,8.52-4.49,9.86Z"/>
      </g>
      <g>
        <circle class="cls-4" cx="680.11" cy="779.47" r="20.44"/>
        <path class="cls-7" d="M697.61,768.95c.38,1.6.6,3.26.6,4.97,0,11.84-9.6,21.43-21.43,21.43-5.45,0-10.41-2.05-14.2-5.41,3.57,5.96,10.07,9.97,17.53,9.97,11.29,0,20.44-9.15,20.44-20.44,0-3.86-1.09-7.45-2.94-10.53Z"/>
        <path class="cls-5" d="M664.43,779.21c1.41,1.34,3.71-2.7,7.6-6.8s7.92-6.71,6.5-8.06-5.72.9-9.61,5-5.91,8.52-4.49,9.86Z"/>
      </g>
      <g>
        <circle class="cls-4" cx="519.13" cy="779.47" r="20.44"/>
        <path class="cls-7" d="M536.62,768.95c.38,1.6.6,3.26.6,4.97,0,11.84-9.6,21.43-21.43,21.43-5.45,0-10.41-2.05-14.2-5.41,3.57,5.96,10.07,9.97,17.53,9.97,11.29,0,20.44-9.15,20.44-20.44,0-3.86-1.09-7.45-2.94-10.53Z"/>
        <path class="cls-5" d="M503.45,779.21c1.41,1.34,3.71-2.7,7.6-6.8s7.92-6.71,6.5-8.06-5.72.9-9.61,5-5.91,8.52-4.49,9.86Z"/>
      </g>
      <g>
        <circle class="cls-4" cx="358.14" cy="779.47" r="20.44"/>
        <path class="cls-7" d="M375.64,768.95c.38,1.6.6,3.26.6,4.97,0,11.84-9.6,21.43-21.43,21.43-5.45,0-10.41-2.05-14.2-5.41,3.57,5.96,10.07,9.97,17.53,9.97,11.29,0,20.44-9.15,20.44-20.44,0-3.86-1.09-7.45-2.94-10.53Z"/>
        <path class="cls-5" d="M342.46,779.21c1.41,1.34,3.71-2.7,7.6-6.8s7.92-6.71,6.5-8.06-5.72.9-9.61,5-5.91,8.52-4.49,9.86Z"/>
      </g>
      <g>
        <circle class="cls-4" cx="197.16" cy="174.81" r="20.44"/>
        <path class="cls-7" d="M214.66,164.28c.38,1.6.6,3.26.6,4.97,0,11.84-9.6,21.43-21.43,21.43-5.45,0-10.41-2.05-14.2-5.41,3.57,5.96,10.07,9.97,17.53,9.97,11.29,0,20.44-9.15,20.44-20.44,0-3.86-1.09-7.45-2.94-10.53Z"/>
        <path class="cls-5" d="M181.48,174.54c1.41,1.34,3.71-2.7,7.6-6.8s7.92-6.71,6.5-8.06-5.72.9-9.61,5c-3.89,4.1-5.91,8.52-4.49,9.86Z"/>
      </g>
      <g>
        <path class="cls-4" d="M533.74,160.53l-2.79,4.52-15.83,25.62-2.23,3.61c-.16-.06-.32-.11-.47-.16-.19-.07-.38-.14-.56-.21-.41-.15-.82-.32-1.21-.51-.2-.09-.4-.18-.59-.28-.2-.1-.39-.2-.58-.3s-.38-.21-.57-.32c-6.11-3.52-10.22-10.13-10.22-17.69,0-11.29,9.15-20.44,20.44-20.44,5.73,0,10.91,2.36,14.61,6.16Z"/>
        <path class="cls-7" d="M501.6,185.28c3.62,3.21,8.33,5.23,13.52,5.39l-2.23,3.61c-.16-.06-.32-.11-.47-.16-.19-.07-.38-.14-.56-.21-.41-.15-.82-.32-1.21-.51-.2-.09-.4-.18-.59-.28-.2-.1-.39-.2-.58-.3s-.38-.21-.57-.32c-3.01-1.75-5.52-4.24-7.31-7.22Z"/>
        <path class="cls-5" d="M503.45,174.54c1.41,1.34,3.71-2.7,7.6-6.8s7.92-6.71,6.5-8.06-5.72.9-9.61,5-5.91,8.52-4.49,9.86Z"/>
      </g>
      <g>
        <circle class="cls-4" cx="358.14" cy="174.81" r="20.44"/>
        <path class="cls-7" d="M375.64,164.28c.38,1.6.6,3.26.6,4.97,0,11.84-9.6,21.43-21.43,21.43-5.45,0-10.41-2.05-14.2-5.41,3.57,5.96,10.07,9.97,17.53,9.97,11.29,0,20.44-9.15,20.44-20.44,0-3.86-1.09-7.45-2.94-10.53Z"/>
        <path class="cls-5" d="M342.46,174.54c1.41,1.34,3.71-2.7,7.6-6.8s7.92-6.71,6.5-8.06-5.72.9-9.61,5-5.91,8.52-4.49,9.86Z"/>
      </g>
      <g>
        <circle class="cls-4" cx="517.84" cy="174.81" r="20.44"/>
        <path class="cls-7" d="M535.34,164.28c.38,1.6.6,3.26.6,4.97,0,11.84-9.6,21.43-21.43,21.43-5.45,0-10.41-2.05-14.2-5.41,3.57,5.96,10.07,9.97,17.53,9.97,11.29,0,20.44-9.15,20.44-20.44,0-3.86-1.09-7.45-2.94-10.53Z"/>
        <path class="cls-5" d="M502.16,174.54c1.41,1.34,3.71-2.7,7.6-6.8s7.92-6.71,6.5-8.06-5.72.9-9.61,5-5.91,8.52-4.49,9.86Z"/>
      </g>
    </g>
  </g>
</svg>

  <path d="M715.56 199.49L715.56 189.12L749.96 189.12Q776.32 189.12 776.32 209.49Q776.32 220.72 765.09 226.57Q772.29 228.40 776.38 233.28Q780.46 238.16 780.46 245.97Q780.46 257.80 772.47 264.03Q764.48 270.25 749.23 270.25L714.95 270.25L714.95 260.37L718.98 260Q722.51 259.63 722.51 256.58L722.51 199.85L715.56 199.49M749.48 233.28L737.40 233.28L737.40 258.78L748.87 258.78Q764.73 258.78 764.73 245.85Q764.73 239.75 760.76 236.51Q756.80 233.28 749.48 233.28M747.28 200.34L737.40 200.34L737.40 222.42L746.43 222.42Q753.99 222.42 757.59 219.31Q761.19 216.20 761.19 210.59Q761.19 204.98 757.59 202.66Q753.99 200.34 747.28 200.34M816.33 261.34Q829.63 261.34 829.63 239.87Q829.63 229.01 826.64 223.40Q823.65 217.79 816.64 217.79Q809.62 217.79 806.33 223.16Q803.03 228.52 803.03 237.80Q803.03 255 809.38 259.39Q812.18 261.34 816.33 261.34M788.27 239.50Q788.27 230.48 790.96 223.83Q793.64 217.18 798.15 213.64Q806.82 207.05 817.31 207.05Q824.63 207.05 829.69 209.43Q834.75 211.81 837.62 214.92Q840.49 218.03 842.50 223.95Q844.51 229.87 844.51 237.92Q844.51 254.75 836.34 263.42Q828.17 272.08 815.42 272.08Q802.67 272.08 795.47 263.84Q788.27 255.61 788.27 239.50M857.08 219.13L851.96 218.76L851.96 208.88L872.57 208.88L872.57 216.81Q879.41 207.05 891.30 207.05Q903.20 207.05 907.34 216.81Q914.18 207.05 925.89 207.05Q934.67 207.05 939.43 212.36Q944.19 217.67 944.19 228.28L944.19 260.12L951.14 260.49L951.14 270.25L922.11 270.25L922.11 260.98L926.13 260.61Q927.96 260.37 928.75 259.57Q929.55 258.78 929.67 256.71L929.67 231.45Q929.67 224.74 928.14 221.51Q926.62 218.28 921.01 218.28Q915.40 218.28 912.41 221.69Q909.42 225.11 909.42 230.84L909.42 260.12L916.13 260.49L916.13 270.25L887.34 270.25L887.34 260.98L891.36 260.61Q893.19 260.37 894.05 259.57Q894.90 258.78 894.90 256.58L894.90 231.45Q894.90 224.74 893.37 221.51Q891.85 218.28 886.18 218.28Q880.50 218.28 877.58 221.81Q874.65 225.35 874.65 230.60L874.65 260.12L881.24 260.49L881.24 270.25L852.44 270.25L852.44 260.98L856.47 260.61Q858.30 260.37 859.15 259.57Q860.01 258.78 860.01 256.58L860.13 256.58L860.13 222.91Q860.13 220.84 859.46 220.04Q858.79 219.25 857.08 219.13M963.71 266.59L963.71 196.56Q963.71 193.75 960.66 193.63L956.39 193.39L956.39 183.26L977.86 183.26L977.86 212.18Q983.35 207.05 992.62 207.05Q1004.09 207.05 1010.80 214.80Q1017.51 222.55 1017.51 236.58Q1017.51 271.83 987.99 271.83Q981.64 271.83 974.63 270.31Q967.61 268.78 963.71 266.59M977.86 227.06L977.86 258.66Q982.50 261.10 988.60 261.10Q1002.50 261.10 1002.50 238.53Q1002.50 217.91 988.84 217.91Q984.45 217.91 981.15 220.47Q977.86 223.03 977.86 227.06M1046.67 203.64L1063.02 252.80L1063.63 252.80L1080.71 199.98L1073.26 199.49L1073.26 189.12L1101.32 189.12L1101.32 199L1097.30 199.37Q1095.71 199.49 1094.98 200.28Q1094.25 201.07 1093.52 203.03L1070.46 270.25L1054.60 270.25L1029.71 199.85L1022.76 199.49L1022.76 189.12L1054.23 189.12L1054.23 199L1050.21 199.37Q1046.42 199.61 1046.42 202.29Q1046.42 202.90 1046.67 203.64M1160.74 211.32L1160.74 256.71Q1160.74 258.66 1161.41 259.39Q1162.08 260.12 1163.79 260.24L1167.69 260.49L1167.69 270.25L1148.29 270.25L1148.29 263.17L1147.93 263.05Q1141.83 271.83 1131.21 271.83Q1118.77 271.83 1112.79 263.90Q1106.81 255.97 1106.81 242.19Q1106.81 225.60 1114.87 216.32Q1122.92 207.05 1139.02 207.05Q1149.39 207.05 1160.74 211.32M1146.59 250.85L1146.59 219.25Q1143.17 217.67 1137.19 217.67Q1129.02 217.67 1125.36 224.25Q1121.70 230.84 1121.70 241.70Q1121.70 261.46 1134.39 261.46Q1139.75 261.46 1143.17 258.23Q1146.59 255 1146.59 250.85M1233.08 260.24L1237.35 260.61L1237.35 270.25L1217.59 270.25L1217.59 262.32Q1210.88 271.83 1197.83 271.83Q1178.92 271.83 1178.92 250.73L1178.92 222.55Q1178.92 219.25 1175.87 219.13L1171.96 218.89L1171.96 208.88L1193.43 208.88L1193.43 247.56Q1193.43 254.02 1195.26 257.31Q1197.09 260.61 1202.83 260.61Q1208.56 260.61 1212.04 257.07Q1215.52 253.53 1215.52 248.53L1215.52 222.79Q1215.52 220.84 1214.84 220.04Q1214.17 219.25 1212.47 219.13L1208.56 218.89L1208.56 208.88L1230.03 208.88L1230.03 256.71Q1230.03 258.66 1230.64 259.33Q1231.25 260 1233.08 260.24M1244.80 183.26L1266.63 183.26L1266.63 260.12L1273.59 260.49L1273.59 270.25L1244.55 270.25L1244.55 260.98L1248.58 260.61Q1252.12 260.24 1252.12 256.71L1252.12 196.56Q1252.12 193.88 1249.07 193.63L1244.80 193.39L1244.80 183.26M1292.25 195.95L1300.18 195.95L1300.18 208.88L1316.41 208.88L1315.19 219.13L1300.18 219.13L1300.18 251.22Q1300.18 256.58 1302.14 258.72Q1304.09 260.85 1308.17 260.85Q1312.26 260.85 1316.41 258.29L1320.07 267.69Q1313.97 271.96 1304.58 271.96Q1299.09 271.96 1295.30 270.55Q1291.52 269.15 1289.69 267.44Q1287.86 265.73 1286.89 262.44Q1285.91 259.15 1285.79 257.25Q1285.67 255.36 1285.67 251.70L1285.67 219.13L1277 219.13L1278.22 210.22Q1283.96 209.74 1286.89 206.14Q1289.81 202.54 1292.25 195.95" fill="#242626"/>
  <path d="M721.61 361.15L711.96 361.15L711.96 358.39L713.08 358.29Q714.07 358.19 714.07 357.34L714.07 341.53L712.13 341.43L712.13 338.54L721.44 338.54Q726.44 338.54 729.25 341.19Q732.05 343.84 732.05 349.04Q732.05 352.27 731.20 354.67Q730.35 357.07 728.89 358.43Q725.97 361.15 721.61 361.15M721.24 341.83L718.21 341.83L718.21 357.88L721.68 357.88Q724.61 357.88 726.24 355.77Q727.87 353.67 727.87 349.65Q727.87 341.83 721.24 341.83M736.64 357.34L736.64 347.92Q736.64 347.38 736.45 347.16Q736.27 346.94 735.79 346.90L734.36 346.80L734.36 344.05L740.11 344.05L740.11 346.59Q740.72 345.27 742.01 344.40Q743.31 343.53 744.99 343.53Q746.67 343.53 748.20 344.28L748.20 349.35L745.04 349.59L745.04 348.02Q745.04 347.34 744.70 347.17Q744.33 347 743.78 347Q742.42 347 741.55 347.97Q740.69 348.94 740.69 350.44L740.69 358.32L743.65 358.46L743.65 361.15L734.53 361.15L734.53 358.56L735.66 358.46Q736.17 358.39 736.40 358.17Q736.64 357.95 736.64 357.34M757.38 358.66Q761.09 358.66 761.09 352.68Q761.09 349.65 760.25 348.09Q759.42 346.53 757.47 346.53Q755.51 346.53 754.59 348.02Q753.68 349.52 753.68 352.10Q753.68 356.90 755.44 358.12Q756.23 358.66 757.38 358.66M749.56 352.58Q749.56 350.06 750.31 348.21Q751.06 346.36 752.32 345.37Q754.73 343.53 757.65 343.53Q759.69 343.53 761.10 344.20Q762.52 344.86 763.31 345.73Q764.11 346.59 764.67 348.24Q765.24 349.89 765.24 352.14Q765.24 356.83 762.96 359.24Q760.68 361.66 757.13 361.66Q753.57 361.66 751.57 359.36Q749.56 357.07 749.56 352.58M769.42 364.38L769.42 347.92Q769.42 347.34 769.23 347.12Q769.04 346.90 768.57 346.90L767.14 346.80L767.14 344.05L772.89 344.05L772.89 346.25Q773.43 345.24 774.86 344.38Q776.29 343.53 778.26 343.53Q784.41 343.53 784.41 352.17Q784.41 356.76 782.41 359.21Q780.40 361.66 776.97 361.66Q774.93 361.66 773.33 360.67L773.33 365.36L776.08 365.50L776.08 368.19L767.31 368.19L767.31 365.60L768.43 365.50Q768.94 365.43 769.18 365.21Q769.42 364.99 769.42 364.38M780.20 352.51Q780.20 346.83 776.76 346.83Q775.33 346.83 774.33 347.70Q773.33 348.57 773.33 349.76L773.33 357.58Q774.62 358.43 776.47 358.43Q778.33 358.43 779.26 356.73Q780.20 355.03 780.20 352.51M808.89 344.72L808.89 357.37Q808.89 357.92 809.08 358.12Q809.27 358.32 809.74 358.36L810.83 358.43L810.83 361.15L805.42 361.15L805.42 359.18L805.32 359.14Q803.62 361.59 800.66 361.59Q797.20 361.59 795.53 359.38Q793.86 357.17 793.86 353.33Q793.86 348.70 796.11 346.12Q798.35 343.53 802.84 343.53Q805.73 343.53 808.89 344.72M804.95 355.74L804.95 346.94Q804 346.49 802.33 346.49Q800.05 346.49 799.03 348.33Q798.01 350.16 798.01 353.19Q798.01 358.70 801.55 358.70Q803.04 358.70 804 357.80Q804.95 356.90 804.95 355.74M821.20 360.13L821.20 340.61Q821.20 339.83 820.35 339.80L819.16 339.73L819.16 336.90L825.14 336.90L825.14 344.96Q826.67 343.53 829.26 343.53Q832.45 343.53 834.32 345.69Q836.19 347.85 836.19 351.76Q836.19 361.59 827.97 361.59Q826.20 361.59 824.24 361.16Q822.29 360.74 821.20 360.13M825.14 349.11L825.14 357.92Q826.44 358.60 828.14 358.60Q832.01 358.60 832.01 352.31Q832.01 346.56 828.20 346.56Q826.98 346.56 826.06 347.27Q825.14 347.99 825.14 349.11M853.87 344.72L853.87 357.37Q853.87 357.92 854.06 358.12Q854.25 358.32 854.72 358.36L855.81 358.43L855.81 361.15L850.41 361.15L850.41 359.18L850.30 359.14Q848.60 361.59 845.65 361.59Q842.18 361.59 840.51 359.38Q838.85 357.17 838.85 353.33Q838.85 348.70 841.09 346.12Q843.33 343.53 847.82 343.53Q850.71 343.53 853.87 344.72M849.93 355.74L849.93 346.94Q848.98 346.49 847.31 346.49Q845.03 346.49 844.01 348.33Q842.99 350.16 842.99 353.19Q842.99 358.70 846.53 358.70Q848.03 358.70 848.98 357.80Q849.93 356.90 849.93 355.74M862 352.41Q862 355.30 863.09 356.90Q864.18 358.50 866.23 358.50Q868.29 358.50 870.30 357.03L871.76 359.65Q869.34 361.62 865.71 361.62Q862.07 361.62 859.98 359.33Q857.89 357.03 857.89 352.55Q857.89 348.06 860.28 345.80Q862.68 343.53 865.69 343.53Q868.70 343.53 871.28 344.93L871.28 349.35L868.15 349.59L868.15 347.95Q868.15 347.04 867.49 346.82Q866.83 346.59 866.11 346.59Q862 346.59 862 352.41M875.84 357.34L875.84 340.78Q875.84 340.24 875.65 340.03Q875.46 339.83 874.99 339.80L873.80 339.73L873.80 336.90L879.85 336.90L879.85 351.63Q881.72 351.46 883.11 350.47Q884.51 349.49 885.02 347.89Q885.12 347.55 885.12 347.34Q885.12 346.76 884.47 346.76L883.18 346.70L883.18 344.05L890.22 344.05L890.22 346.80L888.59 346.87Q888.15 350.33 885.60 352.34L888.93 358.32L891 358.43L891 361.15L886.04 361.15L882.16 354.07Q881.04 354.38 879.85 354.55L879.85 358.32L879.88 358.32L881.82 358.43L881.82 361.15L873.73 361.15L873.73 358.56L874.85 358.46Q875.36 358.39 875.60 358.17Q875.84 357.95 875.84 357.34M908.78 358.36L909.97 358.46L909.97 361.15L904.47 361.15L904.47 358.94Q902.60 361.59 898.96 361.59Q893.69 361.59 893.69 355.71L893.69 347.85Q893.69 346.94 892.84 346.90L891.75 346.83L891.75 344.05L897.73 344.05L897.73 354.82Q897.73 356.63 898.24 357.54Q898.75 358.46 900.35 358.46Q901.95 358.46 902.92 357.47Q903.89 356.49 903.89 355.09L903.89 347.92Q903.89 347.38 903.70 347.16Q903.51 346.94 903.04 346.90L901.95 346.83L901.95 344.05L907.93 344.05L907.93 357.37Q907.93 357.92 908.10 358.10Q908.27 358.29 908.78 358.36M913.61 364.38L913.61 347.92Q913.61 347.34 913.42 347.12Q913.24 346.90 912.76 346.90L911.33 346.80L911.33 344.05L917.08 344.05L917.08 346.25Q917.62 345.24 919.05 344.38Q920.48 343.53 922.45 343.53Q928.61 343.53 928.61 352.17Q928.61 356.76 926.60 359.21Q924.59 361.66 921.16 361.66Q919.12 361.66 917.52 360.67L917.52 365.36L920.28 365.50L920.28 368.19L911.50 368.19L911.50 365.60L912.63 365.50Q913.14 365.43 913.37 365.21Q913.61 364.99 913.61 364.38M924.39 352.51Q924.39 346.83 920.96 346.83Q919.53 346.83 918.52 347.70Q917.52 348.57 917.52 349.76L917.52 357.58Q918.81 358.43 920.67 358.43Q922.52 358.43 923.45 356.73Q924.39 355.03 924.39 352.51M933.74 361.66Q932.55 361.66 931.90 360.99Q931.26 360.33 931.26 359.26Q931.26 358.19 931.92 357.49Q932.58 356.80 933.72 356.80Q934.86 356.80 935.54 357.46Q936.22 358.12 936.22 359.19Q936.22 360.26 935.58 360.96Q934.93 361.66 933.74 361.66M955.19 361.15L945.54 361.15L945.54 358.39L946.66 358.29Q947.65 358.19 947.65 357.34L947.65 341.53L945.71 341.43L945.71 338.54L955.02 338.54Q960.02 338.54 962.83 341.19Q965.63 343.84 965.63 349.04Q965.63 352.27 964.78 354.67Q963.93 357.07 962.47 358.43Q959.55 361.15 955.19 361.15M954.82 341.83L951.79 341.83L951.79 357.88L955.26 357.88Q958.19 357.88 959.82 355.77Q961.45 353.67 961.45 349.65Q961.45 341.83 954.82 341.83M976.65 343.53Q979.20 343.53 980.69 344.78Q982.19 346.02 982.19 348.26Q982.19 349.76 981.54 350.90Q980.90 352.03 979.95 352.68Q978.99 353.33 977.63 353.74Q975.36 354.41 972.50 354.41Q972.60 356.22 973.62 357.32Q974.64 358.43 976.75 358.43Q978.86 358.43 980.97 356.93L982.26 359.69Q981.58 360.30 979.96 360.94Q978.35 361.59 976.27 361.59Q972.13 361.59 970.19 359.29Q968.25 357 968.25 352.99Q968.25 348.97 970.46 346.25Q972.67 343.53 976.65 343.53M975.10 351.30Q976.34 351.08 977.40 350.32Q978.45 349.55 978.45 348.50Q978.45 346.43 976.41 346.43Q974.51 346.43 973.49 347.94Q972.47 349.45 972.36 351.56Q973.86 351.52 975.10 351.30M988.34 340.44L990.55 340.44L990.55 344.05L995.08 344.05L994.74 346.90L990.55 346.90L990.55 355.84Q990.55 357.34 991.10 357.93Q991.64 358.53 992.78 358.53Q993.92 358.53 995.08 357.81L996.10 360.43Q994.40 361.62 991.78 361.62Q990.25 361.62 989.19 361.23Q988.14 360.84 987.63 360.37Q987.12 359.89 986.85 358.97Q986.58 358.05 986.54 357.53Q986.51 357 986.51 355.98L986.51 346.90L984.09 346.90L984.43 344.42Q986.03 344.28 986.85 343.28Q987.66 342.28 988.34 340.44M1004.53 358.66Q1008.23 358.66 1008.23 352.68Q1008.23 349.65 1007.40 348.09Q1006.57 346.53 1004.61 346.53Q1002.66 346.53 1001.74 348.02Q1000.82 349.52 1000.82 352.10Q1000.82 356.90 1002.59 358.12Q1003.37 358.66 1004.53 358.66M996.71 352.58Q996.71 350.06 997.46 348.21Q998.20 346.36 999.46 345.37Q1001.88 343.53 1004.80 343.53Q1006.84 343.53 1008.25 344.20Q1009.66 344.86 1010.46 345.73Q1011.26 346.59 1011.82 348.24Q1012.38 349.89 1012.38 352.14Q1012.38 356.83 1010.10 359.24Q1007.83 361.66 1004.27 361.66Q1000.72 361.66 998.71 359.36Q996.71 357.07 996.71 352.58M1015.88 346.87L1014.46 346.76L1014.46 344.05L1020.20 344.05L1020.20 346.25Q1021.09 345 1022.55 344.27Q1024.01 343.53 1025.71 343.53Q1028.29 343.53 1029.70 345.01Q1031.12 346.49 1031.12 349.45L1031.12 358.32L1033.05 358.43L1033.05 361.15L1024.96 361.15L1024.96 358.56L1026.08 358.46Q1026.59 358.39 1026.83 358.17Q1027.07 357.95 1027.07 357.34L1027.07 350.33Q1027.07 348.46 1026.49 347.56Q1025.91 346.66 1024.30 346.66Q1022.68 346.66 1021.73 347.68Q1020.78 348.70 1020.78 350.10L1020.78 358.32L1022.72 358.43L1022.72 361.15L1014.63 361.15L1014.63 358.56L1015.75 358.46Q1016.26 358.39 1016.50 358.17Q1016.73 357.95 1016.73 357.34L1016.73 347.92Q1016.73 346.90 1015.88 346.87M1050.33 344.72L1050.33 357.37Q1050.33 357.92 1050.51 358.12Q1050.70 358.32 1051.18 358.36L1052.26 358.43L1052.26 361.15L1046.86 361.15L1046.86 359.18L1046.76 359.14Q1045.06 361.59 1042.10 361.59Q1038.63 361.59 1036.96 359.38Q1035.30 357.17 1035.30 353.33Q1035.30 348.70 1037.54 346.12Q1039.79 343.53 1044.27 343.53Q1047.16 343.53 1050.33 344.72M1046.38 355.74L1046.38 346.94Q1045.43 346.49 1043.76 346.49Q1041.49 346.49 1040.47 348.33Q1039.45 350.16 1039.45 353.19Q1039.45 358.70 1042.98 358.70Q1044.48 358.70 1045.43 357.80Q1046.38 356.90 1046.38 355.74M1057.43 340.44L1059.64 340.44L1059.64 344.05L1064.16 344.05L1063.82 346.90L1059.64 346.90L1059.64 355.84Q1059.64 357.34 1060.19 357.93Q1060.73 358.53 1061.87 358.53Q1063.01 358.53 1064.16 357.81L1065.18 360.43Q1063.48 361.62 1060.87 361.62Q1059.34 361.62 1058.28 361.23Q1057.23 360.84 1056.72 360.37Q1056.21 359.89 1055.94 358.97Q1055.66 358.05 1055.63 357.53Q1055.60 357 1055.60 355.98L1055.60 346.90L1053.18 346.90L1053.52 344.42Q1055.12 344.28 1055.94 343.28Q1056.75 342.28 1057.43 340.44M1075.01 343.53Q1077.56 343.53 1079.06 344.78Q1080.55 346.02 1080.55 348.26Q1080.55 349.76 1079.91 350.90Q1079.26 352.03 1078.31 352.68Q1077.36 353.33 1076 353.74Q1073.72 354.41 1070.86 354.41Q1070.96 356.22 1071.98 357.32Q1073 358.43 1075.11 358.43Q1077.22 358.43 1079.33 356.93L1080.62 359.69Q1079.94 360.30 1078.32 360.94Q1076.71 361.59 1074.64 361.59Q1070.49 361.59 1068.55 359.29Q1066.61 357 1066.61 352.99Q1066.61 348.97 1068.82 346.25Q1071.03 343.53 1075.01 343.53M1073.46 351.30Q1074.70 351.08 1075.76 350.32Q1076.81 349.55 1076.81 348.50Q1076.81 346.43 1074.77 346.43Q1072.87 346.43 1071.85 347.94Q1070.83 349.45 1070.73 351.56Q1072.22 351.52 1073.46 351.30M1105 344.72L1105 357.37Q1105 357.92 1105.18 358.12Q1105.37 358.32 1105.85 358.36L1106.94 358.43L1106.94 361.15L1101.53 361.15L1101.53 359.18L1101.43 359.14Q1099.73 361.59 1096.77 361.59Q1093.30 361.59 1091.64 359.38Q1089.97 357.17 1089.97 353.33Q1089.97 348.70 1092.21 346.12Q1094.46 343.53 1098.95 343.53Q1101.84 343.53 1105 344.72M1101.05 355.74L1101.05 346.94Q1100.10 346.49 1098.44 346.49Q1096.16 346.49 1095.14 348.33Q1094.12 350.16 1094.12 353.19Q1094.12 358.70 1097.65 358.70Q1099.15 358.70 1100.10 357.80Q1101.05 356.90 1101.05 355.74M1117.92 357.34L1117.92 347.92Q1117.92 347.38 1117.73 347.16Q1117.54 346.94 1117.07 346.90L1115.64 346.80L1115.64 344.05L1121.39 344.05L1121.39 346.59Q1122 345.27 1123.29 344.40Q1124.58 343.53 1126.26 343.53Q1127.95 343.53 1129.48 344.28L1129.48 349.35L1126.32 349.59L1126.32 348.02Q1126.32 347.34 1125.98 347.17Q1125.60 347 1125.06 347Q1123.70 347 1122.83 347.97Q1121.96 348.94 1121.96 350.44L1121.96 358.32L1124.92 358.46L1124.92 361.15L1115.81 361.15L1115.81 358.56L1116.93 358.46Q1117.44 358.39 1117.68 358.17Q1117.92 357.95 1117.92 357.34M1140.05 343.53Q1142.60 343.53 1144.10 344.78Q1145.59 346.02 1145.59 348.26Q1145.59 349.76 1144.95 350.90Q1144.30 352.03 1143.35 352.68Q1142.40 353.33 1141.04 353.74Q1138.76 354.41 1135.90 354.41Q1136.01 356.22 1137.03 357.32Q1138.05 358.43 1140.15 358.43Q1142.26 358.43 1144.37 356.93L1145.66 359.69Q1144.98 360.30 1143.37 360.94Q1141.75 361.59 1139.68 361.59Q1135.53 361.59 1133.59 359.29Q1131.65 357 1131.65 352.99Q1131.65 348.97 1133.86 346.25Q1136.07 343.53 1140.05 343.53M1138.50 351.30Q1139.75 351.08 1140.80 350.32Q1141.85 349.55 1141.85 348.50Q1141.85 346.43 1139.81 346.43Q1137.91 346.43 1136.89 347.94Q1135.87 349.45 1135.77 351.56Q1137.26 351.52 1138.50 351.30M1156.88 346.63Q1156.07 346.32 1154.91 346.32Q1153.75 346.32 1153.06 346.85Q1152.36 347.38 1152.36 348.14Q1152.36 348.91 1152.61 349.33Q1152.87 349.76 1153.41 350.06Q1154.26 350.50 1155.45 350.83Q1156.64 351.15 1157.22 351.34Q1157.80 351.52 1158.67 351.97Q1159.53 352.41 1159.98 352.92Q1161.17 354.18 1161.17 356.15Q1161.17 358.70 1159.31 360.14Q1157.46 361.59 1154.60 361.59Q1150.46 361.59 1148.35 360.53L1148.35 355.81L1151.41 355.57L1151.41 357.20Q1151.41 358.70 1154.26 358.70Q1157.12 358.70 1157.12 356.63Q1157.12 355.88 1156.63 355.40Q1156.13 354.93 1155.66 354.75Q1155.18 354.58 1154.52 354.41Q1153.86 354.25 1153.23 354.07Q1152.60 353.90 1151.87 353.62Q1151.14 353.33 1150.25 352.78Q1148.52 351.66 1148.52 349.03Q1148.52 346.39 1150.39 344.96Q1152.26 343.53 1155.10 343.53Q1157.94 343.53 1160.72 344.89L1160.72 348.97L1157.66 349.21L1157.66 347.78Q1157.66 346.94 1156.88 346.63M1166.74 340.44L1168.95 340.44L1168.95 344.05L1173.47 344.05L1173.13 346.90L1168.95 346.90L1168.95 355.84Q1168.95 357.34 1169.50 357.93Q1170.04 358.53 1171.18 358.53Q1172.32 358.53 1173.47 357.81L1174.49 360.43Q1172.79 361.62 1170.18 361.62Q1168.65 361.62 1167.59 361.23Q1166.54 360.84 1166.03 360.37Q1165.52 359.89 1165.25 358.97Q1164.97 358.05 1164.94 357.53Q1164.91 357 1164.91 355.98L1164.91 346.90L1162.49 346.90L1162.83 344.42Q1164.43 344.28 1165.25 343.28Q1166.06 342.28 1166.74 340.44M1182.93 358.66Q1186.63 358.66 1186.63 352.68Q1186.63 349.65 1185.80 348.09Q1184.97 346.53 1183.01 346.53Q1181.06 346.53 1180.14 348.02Q1179.22 349.52 1179.22 352.10Q1179.22 356.90 1180.99 358.12Q1181.77 358.66 1182.93 358.66M1175.11 352.58Q1175.11 350.06 1175.85 348.21Q1176.60 346.36 1177.86 345.37Q1180.27 343.53 1183.20 343.53Q1185.24 343.53 1186.65 344.20Q1188.06 344.86 1188.86 345.73Q1189.66 346.59 1190.22 348.24Q1190.78 349.89 1190.78 352.14Q1190.78 356.83 1188.50 359.24Q1186.22 361.66 1182.67 361.66Q1179.12 361.66 1177.11 359.36Q1175.11 357.07 1175.11 352.58M1195.17 357.34L1195.17 347.92Q1195.17 347.38 1194.98 347.16Q1194.79 346.94 1194.32 346.90L1192.89 346.80L1192.89 344.05L1198.63 344.05L1198.63 346.59Q1199.25 345.27 1200.54 344.40Q1201.83 343.53 1203.51 343.53Q1205.20 343.53 1206.73 344.28L1206.73 349.35L1203.56 349.59L1203.56 348.02Q1203.56 347.34 1203.22 347.17Q1202.85 347 1202.31 347Q1200.95 347 1200.08 347.97Q1199.21 348.94 1199.21 350.44L1199.21 358.32L1202.17 358.46L1202.17 361.15L1193.06 361.15L1193.06 358.56L1194.18 358.46Q1194.69 358.39 1194.93 358.17Q1195.17 357.95 1195.17 357.34M1217.30 343.53Q1219.85 343.53 1221.35 344.78Q1222.84 346.02 1222.84 348.26Q1222.84 349.76 1222.20 350.90Q1221.55 352.03 1220.60 352.68Q1219.65 353.33 1218.29 353.74Q1216.01 354.41 1213.15 354.41Q1213.25 356.22 1214.27 357.32Q1215.29 358.43 1217.40 358.43Q1219.51 358.43 1221.62 356.93L1222.91 359.69Q1222.23 360.30 1220.61 360.94Q1219 361.59 1216.93 361.59Q1212.78 361.59 1210.84 359.29Q1208.90 357 1208.90 352.99Q1208.90 348.97 1211.11 346.25Q1213.32 343.53 1217.30 343.53M1215.75 351.30Q1216.99 351.08 1218.05 350.32Q1219.10 349.55 1219.10 348.50Q1219.10 346.43 1217.06 346.43Q1215.16 346.43 1214.14 347.94Q1213.12 349.45 1213.02 351.56Q1214.51 351.52 1215.75 351.30M1227.94 361.66Q1226.75 361.66 1226.11 360.99Q1225.46 360.33 1225.46 359.26Q1225.46 358.19 1226.12 357.49Q1226.79 356.80 1227.92 356.80Q1229.06 356.80 1229.74 357.46Q1230.42 358.12 1230.42 359.19Q1230.42 360.26 1229.78 360.96Q1229.13 361.66 1227.94 361.66" fill="#5a5d5e"/>
</svg>
