<svg xmlns="http://www.w3.org/2000/svg" width="1600" height="500" viewBox="0 0 1600 500">
  <rect width="1600" height="500" fill="#ffffff"/>
  <svg x="187.6" y="45.0" width="421.0" height="410" viewBox="0 0 956.33 931.39" xmlns="http://www.w3.org/2000/svg">
  <defs>
    <style>
      .cls-1 {
        fill: #fff;
      }

      .cls-2 {
        fill: #242626;
      }

      .cls-3 {
        fill: #fff57c;
      }

      .cls-4 {
        fill: #f68e32;
      }

      .cls-5 {
        fill: #353738;
      }

      .cls-6 {
        fill: #5a5d5e;
      }

      .cls-7 {
        fill: #c6c6c6;
      }

      .cls-8 {
        fill: #242626;
      }
    </style>
  </defs>
  <g id="logo_Kopie" data-name="logo Kopie">
    <g>
      <path class="cls-1" d="M105.5,921.39c-33.75,0-61.2-27.46-61.2-61.2v-70.08c-19.07-.94-34.3-16.75-34.3-36.05v-88.48c0-19.3,15.23-35.11,34.3-36.05v-257.97c-19.07-.94-34.3-16.75-34.3-36.05v-88.48c0-19.3,15.23-35.11,34.3-36.05v-64.61c0-33.75,27.46-61.2,61.2-61.2h662.24l-11.49-23.14,28.18,15.73c1.23.69,2.79,1.59,4.58,2.63,12.58,7.29,21.36,11.75,26.21,13.31,2.5-6.39,6.63-18.94,8.9-26.69l9.41-32.09,9.75,31.98c.65,2.15.96,4.75,1.34,8.05,1.92,16.42,4.33,18.2,5.28,18.2.52,0,1.71-.14,3.78-1.05.59-.28,6.98-3.38,18.87-10.9l32.49-20.56-18.35,33.79c-1.2,2.21-2.52,4.41-3.8,6.55-1.99,3.32-5.14,8.59-5.91,11.39.6.24,1.53.54,2.92.83,11.08,2.25,23.72,5.28,24.25,5.41l24.91,5.97-41.48,23.15c-9.62,5.27-12.79,8.5-13.79,9.8,1.11,1.5,3.85,3.93,5.76,5.63l34.02,30.36-33.05-9.69v676.39c0,33.75-27.46,61.2-61.2,61.2H105.5Z"/>
      <path class="cls-1" d="M833.73,69.8c1.83,6.01.86,33.34,16.19,33.34,2.27,0,4.89-.6,7.93-1.95,0,0,6.72-3.1,20.08-11.56-7.29,13.42-20.82,29.09,0,33.33,11.05,2.25,23.92,5.33,23.92,5.33l-19.11,10.67c-28.92,15.84-19.4,23.06-8.89,32.44-.92-.27-1.72-.39-2.41-.39-8.04,0-1.47,16.78-.89,16.93v672.24c0,28.16-23.04,51.2-51.2,51.2H105.5c-28.16,0-51.2-23.04-51.2-51.2v-80.03h-8.2c-14.35,0-26.1-11.74-26.1-26.1v-88.48c0-14.36,11.75-26.1,26.1-26.1h8.2v-277.88h-8.2c-14.35,0-26.1-11.74-26.1-26.1v-88.48c0-14.36,11.75-26.1,26.1-26.1h8.2v-74.57c0-28.16,23.04-51.2,51.2-51.2h663.02l3.87,5.33s11.92-4.47,7.18-14.01c7.87,4.39,29.38,17.83,38.68,17.83,1.61,0,2.86-.4,3.6-1.33,2.68-3.37,10.25-27.57,11.89-33.17M833.36,0l-18.82,64.17c-1.27,4.33-3.23,10.5-5.1,16.04-4.08-2.08-9.22-4.92-15.41-8.5-1.81-1.05-3.38-1.96-4.72-2.71l-56.37-31.46,18.67,37.61H105.5c-39.26,0-71.2,31.94-71.2,71.2v56.1C14.58,207.67,0,225.67,0,247.01v88.48c0,21.34,14.58,39.34,34.3,44.57v240.94c-19.72,5.23-34.3,23.23-34.3,44.57v88.48c0,21.34,14.58,39.34,34.3,44.57v61.56c0,39.26,31.94,71.2,71.2,71.2h713.84c39.26,0,71.2-31.94,71.2-71.2V197.15l62.82,18.42-64.18-57.27c.94-.55,1.98-1.15,3.15-1.79l.07-.04.07-.04,19.11-10.67,44.74-24.97-49.82-11.94c-.38-.09-6.89-1.65-14.65-3.36,1.22-2.03,2.46-4.13,3.64-6.31l36.71-67.57-64.98,41.12c-4.98,3.15-8.93,5.48-11.84,7.13-.38-2.38-.65-4.74-.81-6.08-.43-3.65-.79-6.8-1.71-9.81L833.36,0h0Z"/>
    </g>
    <path class="cls-7" d="M599.04,204.68l-13.8-9.68h64.39c-9.54,6.79-18.48,15.27-27.37,26l-23.22-16.31Z"/>
    <path class="cls-7" d="M733.3,665.57v88.48c0,22.1,15.68,40.61,36.5,45v12.35H153.39v-14.33c7.57-2.86,14.18-7.67,19.24-13.79.47-.57.92-1.14,1.36-1.74.44-.59.87-1.18,1.28-1.8.42-.62.82-1.23,1.2-1.87.38-.63.76-1.27,1.1-1.92.54-.98,1.03-1.98,1.49-3,2-4.4,3.32-9.19,3.83-14.21.08-.77.14-1.55.18-2.33.04-.79.06-1.57.06-2.37v-88.48c0-.8-.02-1.58-.06-2.37-.04-.78-.1-1.56-.18-2.33-.51-5.02-1.83-9.8-3.83-14.21-.46-1.02-.95-2.02-1.49-3-.35-.65-.73-1.29-1.1-1.92-.39-.64-.79-1.25-1.2-1.87s-.85-1.21-1.28-1.8c-.44-.6-.89-1.17-1.36-1.74-5.06-6.12-11.67-10.93-19.24-13.79v-244.04c7.57-2.86,14.18-7.67,19.24-13.79.47-.57.92-1.14,1.36-1.74.44-.59.87-1.18,1.28-1.8.42-.62.82-1.23,1.2-1.87.38-.63.76-1.27,1.1-1.92.54-.98,1.03-1.98,1.49-3,2-4.4,3.32-9.19,3.83-14.21.08-.77.14-1.55.18-2.33.04-.79.06-1.57.06-2.37v-88.48c0-.8-.02-1.58-.06-2.37-.04-.78-.1-1.56-.18-2.33-.51-5.02-1.83-9.8-3.83-14.21-.46-1.02-.95-2.02-1.49-3-.35-.65-.73-1.29-1.1-1.92-.39-.64-.79-1.25-1.2-1.87s-.85-1.21-1.28-1.8c-.44-.6-.89-1.17-1.36-1.74-5.06-6.12-11.67-10.93-19.24-13.79v-9h428.55l-10.4,14.25-27.45,37.62c-.37-.12-.73-.23-1.08-.34-9.94-3.1-20.2-5.63-30.49-7.54-1.55-.28-3.07-.55-4.59-.81h-.04s-.04,0-.04,0c-2.33-.39-4.68-.75-7-1.06-1.54-.22-3.06-.42-4.58-.6-3.83-.47-7.75-.86-11.7-1.16-6.83-.53-13.77-.8-20.64-.8-32.51,0-64.57,5.79-95.29,17.21-30.69,11.39-58.75,27.93-83.38,49.13l-.05.04-.06.05-.66.57c-.96.85-1.93,1.69-2.89,2.56-1.18,1.05-2.36,2.12-3.51,3.18l-.03.02-.02.02c-1.74,1.62-3.49,3.28-5.2,4.94l-.13.13c-1.08,1.07-2.16,2.14-3.24,3.22l-.08.07-.07.08c-1.83,1.87-3.46,3.56-4.97,5.18-1.02,1.08-2.1,2.26-3.29,3.58-1.17,1.29-2.23,2.48-3.22,3.63-1.09,1.25-2.13,2.48-3.13,3.66l-.03.04-.02.03c-10.58,12.62-20,26.25-28.02,40.51-17.9,31.82-29.15,65.86-33.44,101.17-4.08,33.57-1.77,67.32,6.84,100.29,1.29,4.93,2.73,9.87,4.3,14.75v.12s1.34,3.96,1.34,3.96c.69,2.01,1.4,4.04,2.13,6.02.37,1.01.77,2.11,1.2,3.23.81,2.1,1.56,4.02,2.31,5.86.44,1.12.89,2.2,1.29,3.14.19.44.37.87.56,1.3v.04s1.04,2.38,1.04,2.38c.21.47.42.92.62,1.37l.35.79c.97,2.21,1.98,4.33,2.74,5.94,10.33,21.65,23.42,41.83,38.91,59.99,9.22,10.82,19.33,20.96,30.05,30.14,3.4,2.92,6.84,5.73,10.23,8.35,1.49,1.15,2.73,2.11,3.92,2.99.7.52,1.37,1.01,2.07,1.51,1.39,1.02,2.66,1.94,3.89,2.81.69.49,1.37.96,2.06,1.44l.05.03.08.05c1.28.88,2.61,1.79,4.07,2.75l.04.02.04.03c1.33.88,2.69,1.77,4.05,2.64l.05.03.05.03c1.16.74,2.32,1.45,3.48,2.17l.65.4.04.03.05.03c2.05,1.25,3.92,2.37,5.74,3.41,2.92,1.7,5.91,3.34,8.85,4.89,2.8,1.48,5.74,2.96,8.96,4.53h.04s.04.03.04.03c1.02.5,2.05.97,3.07,1.45,4.09,1.91,8.27,3.73,12.45,5.41,2.04.84,4.19,1.67,6.37,2.5,2.21.83,4.38,1.61,6.45,2.33,10.84,3.77,22.15,6.89,33.6,9.28,2.25.48,4.59.93,6.94,1.36,9.42,1.71,19.03,2.94,28.61,3.69,2.15.16,4.37.31,6.83.44,4.75.26,9.53.38,14.26.38,66.15,0,130.1-24.58,180.05-69.21,50.1-44.77,81.79-105.92,89.22-172.18,8.13-72.51-13.75-145.66-60.29-203.08,6.42-9.45,15.76-23.04,24.46-35.61l11.24-16.24-16.17-11.35-21.18-14.86c16.39-18.43,32.38-23.81,64.45-24.87.33,0,.66-.02.98-.04-2.8,5.93-4.36,12.55-4.36,19.53v88.48c0,22.45,16.19,41.2,37.49,45.2v236.9c-20.82,4.38-36.5,22.9-36.5,45Z"/>
    <path class="cls-5" d="M133.51,201.03H53.97v-53.26c0-28.78,23.41-52.2,52.2-52.2h652.14l7,12.08c.05.12.11.25.16.37.07.18.15.38.23.58-6.13,3.78-82.93,35.72-82.93,35.72,0,0,70.31,17.39,79.26,19.02-8.16,4.36-17.44,7.2-28.3,7.56-14.27.47-26.7,1.83-37.87,4.22H145.94c-3.42,0-6.52,1.39-8.78,3.65-.28.28-.55.58-.81.88-.25.31-.49.63-.72.95-.56.84-1.02,1.73-1.37,2.67-.35.95-.59,1.96-.7,3-.04.41-.06.84-.06,1.26v13.49Z"/>
    <path class="cls-5" d="M869.22,197.87v660.76c0,28.78-23.41,52.2-52.2,52.2H106.17c-28.78,0-52.2-23.41-52.2-52.2v-58.59h79.54v18.82c0,.43.02.86.06,1.26.11,1.04.35,2.05.7,3,.35.94.82,1.84,1.37,2.67.23.33.47.65.72.95.26.31.53.61.81.88.28.28.58.55.88.81.31.25.63.49.95.72.84.56,1.73,1.02,2.67,1.37.95.35,1.96.59,3,.7.41.04.84.06,1.26.06h631.32c.43,0,.86-.02,1.26-.06,1.04-.11,2.05-.35,3-.7.94-.35,1.84-.82,2.67-1.37.33-.23.65-.47.95-.72.31-.26.61-.53.88-.81,2.26-2.26,3.65-5.36,3.65-8.78v-18.82h16.98c.61,0,1.21-.02,1.81-.04h.26l.55-.03c.59-.04,1.16-.08,1.76-.14h.83l1.28-.25.27-.03.63-.12.43-.07c.59-.1,1.15-.21,1.74-.34.31-.06.68-.14,1.1-.25.29-.07.58-.14.86-.21l.21-.05.2-.06.33-.09.12-.03.07-.02c.2-.06.41-.12.61-.18.19-.05.38-.11.58-.17l.08-.03h.03s.03-.02.03-.02c.53-.16,1.05-.34,1.65-.55h.03s.03-.03.03-.03c.21-.07.41-.14.61-.22l.1-.03.32-.13c.62-.23,1.15-.46,1.6-.66.3-.12.56-.24.8-.35.51-.23,1-.46,1.49-.71.41-.2.82-.41,1.21-.63.24-.12.45-.24.63-.35.6-.31,1.17-.65,1.76-1.01.09-.06.19-.12.29-.18.38-.23.87-.55,1.43-.93.1-.06.21-.14.32-.22.39-.26.78-.53,1.16-.83.23-.17.49-.36.77-.58.35-.26.71-.55,1.06-.83l.12-.1.11-.1.07-.06c.43-.34.78-.65,1.03-.87.36-.32.72-.64,1.07-.97.46-.43.85-.82,1.15-1.13.05-.04.09-.08.13-.12.35-.35.7-.72,1.03-1.09.15-.16.27-.29.36-.39.6-.64,1.07-1.21,1.42-1.63.3-.37.59-.73.86-1.08l.35-.35.84-1.24c.17-.23.31-.45.45-.64.05-.08.11-.17.16-.24.37-.55.68-1.03.9-1.4.31-.49.61-.98.88-1.48.23-.41.46-.82.68-1.24.37-.68.65-1.24.82-1.6l.04-.07c.15-.31.4-.83.67-1.47.02-.03.03-.07.04-.1.17-.37.33-.75.48-1.12.25-.6.48-1.19.7-1.82.14-.4.27-.79.4-1.18.07-.23.14-.43.2-.61l.76-2.4v-.09l.5-1.51v-1.11c.05-.23.1-.5.14-.79,0-.04.02-.08.02-.12.06-.29.12-.66.17-1.07.02-.16.05-.34.07-.54.03-.24.08-.58.12-.98.03-.3.06-.61.09-.9.06-.65.09-1.16.11-1.45l.03-.56v-.11c.03-.63.04-1.27.04-1.9v-88.48c0-.64,0-1.27-.04-1.9v-.16l-.03-.59c-.02-.27-.05-.74-.11-1.33-.03-.32-.06-.64-.09-.95-.04-.4-.09-.74-.12-.97-.02-.2-.05-.38-.07-.54-.05-.43-.11-.79-.17-1.07,0-.05,0-.09-.02-.13-.04-.28-.09-.54-.13-.77v-1.11l-.51-1.52v-.09l-.75-2.35c-.06-.2-.13-.42-.21-.66-.13-.4-.26-.79-.4-1.18-.22-.63-.45-1.23-.7-1.82-.15-.38-.31-.76-.48-1.13,0-.03-.02-.06-.04-.09-.27-.66-.52-1.16-.67-1.47l-.04-.08c-.17-.36-.45-.92-.82-1.59-.22-.43-.45-.85-.68-1.24-.28-.51-.58-1-.88-1.48-.23-.38-.54-.86-.9-1.4-.05-.08-.11-.16-.17-.25-.13-.19-.27-.4-.43-.62l-.83-1.23-.36-.36c-.27-.36-.56-.72-.86-1.09-.35-.42-.83-.99-1.42-1.64-.1-.1-.22-.23-.36-.38-.34-.38-.69-.75-1.03-1.09l-.51-.51c-.27-.27-.55-.54-.84-.81-.34-.32-.68-.63-1.01-.91-.26-.23-.61-.54-1.03-.88l-.07-.06-.11-.09-.12-.1c-.36-.29-.72-.57-1.06-.84-.28-.22-.54-.41-.77-.58-.39-.29-.78-.56-1.16-.82-.11-.09-.22-.16-.32-.23-.56-.39-1.05-.7-1.43-.92-.1-.07-.2-.13-.29-.18-.59-.38-1.16-.71-1.76-1.02-.18-.1-.39-.22-.63-.35-.4-.21-.81-.42-1.21-.62-.49-.25-.98-.48-1.49-.71-.24-.11-.5-.23-.8-.36-.18-.08-.37-.16-.58-.25l-.96-.96-5.29-1.11-1.91-.52h-.47c-.36-.07-.72-.14-1.07-.2l-.43-.08-.63-.11-.25-.03-1.27-.25h-.86c-.6-.06-1.17-.11-1.76-.14l-.55-.03h-.26c-.6-.03-1.2-.04-1.81-.04h-16.98v-235.13h15.99c.61,0,1.21-.02,1.81-.04h.26l.55-.03c.59-.04,1.16-.08,1.76-.14h.83l1.28-.25.27-.03.63-.12.43-.07c.59-.1,1.15-.21,1.74-.34.31-.06.68-.14,1.1-.25.29-.07.58-.14.86-.21l.21-.05.2-.06.33-.09.12-.03.07-.02c.2-.06.41-.12.61-.18.19-.05.38-.11.58-.17l.08-.03h.03s.03-.02.03-.02c.53-.16,1.05-.34,1.65-.55h.03s.03-.03.03-.03c.21-.07.41-.14.61-.22l.1-.03.32-.13c.62-.23,1.15-.46,1.6-.66.3-.12.56-.24.8-.35.51-.23,1-.46,1.49-.71.41-.2.82-.41,1.21-.63.24-.12.45-.24.63-.35.6-.31,1.17-.65,1.76-1.01.09-.06.19-.12.29-.18.38-.23.87-.55,1.43-.93.1-.06.21-.14.32-.22.39-.26.78-.53,1.16-.83.23-.17.49-.36.77-.57.35-.27.71-.56,1.06-.84l.12-.1.11-.1.07-.06c.43-.34.78-.65,1.03-.87.36-.32.72-.64,1.07-.97.46-.43.85-.82,1.15-1.13.05-.04.09-.08.13-.12.35-.35.7-.72,1.03-1.09.15-.16.27-.29.36-.39.6-.64,1.07-1.21,1.42-1.63.3-.37.59-.73.86-1.08l.35-.35.84-1.24c.17-.23.31-.45.45-.64.05-.08.11-.17.16-.24.37-.55.68-1.03.9-1.4.31-.49.61-.98.88-1.48.23-.41.46-.82.68-1.24.37-.68.65-1.24.82-1.6l.04-.07c.15-.31.4-.83.67-1.47.02-.03.03-.07.04-.1.17-.37.33-.75.48-1.12.25-.6.48-1.19.7-1.82.14-.4.27-.79.4-1.18.07-.23.14-.43.2-.61l.76-2.4v-.09l.5-1.51v-1.11c.05-.23.1-.5.14-.79,0-.04.02-.08.02-.12.06-.29.12-.66.17-1.07.02-.16.05-.34.07-.54.03-.24.08-.58.12-.98.03-.3.06-.61.09-.9.06-.65.09-1.16.11-1.45l.03-.56v-.11c.03-.63.04-1.27.04-1.9v-64.65c3.37-19.09,13.16-74.61,13.65-76.88.34.07.71.15,1.1.24h.04s.04.02.04.02c.88.19,1.82.43,2.73.67Z"/>
    <g id="funken">
      <path class="cls-4" d="M890.08,140.06l39.33-14.2s-22.72-.67-33.76-2.91c-20.82-4.25-21.68-12.72-12.36-30.27,5.42-10.2,20.34-28.68,20.34-28.68l-33.04,20.96c-23.6,10.49-28.63-7.09-33.09-25.73-1.68-7.04-4.78-29.15-4.78-29.15,0,0-4.47,26.97-8.15,38.62-1.88,5.95-3.96,10.69-6.64,14.06-5.01,6.27-12.14,7.75-24.05,3.2-2.39-.9-4.76-1.99-7.13-3.2-9.71-4.94-27.87-17.79-27.87-17.79l12.91,17.79,11.05,15.21c2.31,5.97,4.99,10.52,2.84,17.06-1.25,3.85-4.39,7.1-8.62,9.89-12.21,8.08-44.98,15.8-44.98,15.8,0,0,30.09.62,43.88,5.73,6.47,2.4,11.3,5.97,12.42,11.32.41,1.93.39,4.19.08,6.61-.93,7.44-4.66,16.52-7.75,23.18-.65,1.4-1.27,2.69-1.83,3.84-2.76,5.63-11.74,6.04-11.74,6.04,0,0,20.22-6.31,30.1-12.47,6.3-3.93,11.49-5.33,15.87-4.9,11.64,1.12,17.48,15.18,23.28,28.79.45,1.04.95,2.37,1.5,3.84,2.54,6.77,5.75,16.65,5.75,16.65l.51-25.26c0-3.52,2.18-14.74,3.57-18.21,4.25-10.56,13.78-10.18,23.06-8.09,1.8.4,3.58.86,5.32,1.33l40.64,17.49s-55.94-40.51-26.66-56.54Z"/>
      <path class="cls-3" d="M838.2,176.86c-.21,3.51-1.61.14-2.22-1.25-1.98-4.53-6.46-18.88-11.36-20.33-9.14-2.71-19.38,10.61-23.1,12.67s8.55-13.48,8-22.31-13.49-8.99-20.42-9.37c-1.28-.07-8.42.08-3.71-1.48s19.71-4.17,22.82-11.18c3.37-7.6-17.22-26.32-12.15-24.55,5.06,1.77,11.52,7.68,17.8,9.53,2.56.76,4.85,1.6,7.54.51,6.64-2.1,8.37-22.49,9.79-24.65s1.9,5.92,2.5,8.32c.93,3.77,2.97,11.65,5.49,14.32,7.97,8.45,23.89-9.29,25.79-7.44l-10.7,18.56c-1.69,7.5,16.01,10.28,22.58,11.52s-19.02,4.56-21.27,9.53c-3.65,8.06,8.51,14.91,12.37,20.77-7.16-1.03-19.19-10.42-25.84-5.5-1.2.89-1.54,2.39-2.5,5.09s-1.2,13.74-1.41,17.25Z"/>
    </g>
    <g id="bombe">
      <path class="cls-5" d="M836.3,128.91c-4.3-3.41-10.56-2.69-13.97,1.62-1.52,1.92-3.12,3.99-4.8,6.16-17.15,22.23-40.64,52.68-83.15,54.08-51.79,1.7-78.77,15.84-107.87,57.51l-38.91-27.32-36.12,49.51c-3.5-1.32-7.01-2.57-10.54-3.73-1.28-.42-2.57-.83-3.85-1.23-9.33-2.91-18.75-5.22-28.2-6.96-1.43-.26-2.87-.52-4.3-.76-2.15-.36-4.3-.68-6.47-.98-1.43-.2-2.87-.38-4.3-.56-3.6-.44-7.19-.79-10.79-1.07-67.12-5.17-134.13,17.18-184.83,60.79-1.12.98-2.24,1.95-3.35,2.94-1.11,1-2.22,2-3.31,3-1.64,1.52-3.26,3.06-4.86,4.62-1.06,1.05-2.12,2.1-3.18,3.16-1.57,1.6-3.13,3.22-4.66,4.86-1.02,1.09-2.03,2.19-3.04,3.31-1.01,1.11-2.01,2.23-2.99,3.36-.99,1.13-1.96,2.28-2.94,3.43-9.66,11.54-18.37,24.06-25.93,37.49-34.24,60.89-40.26,127.07-24.68,186.69,1.53,5.87,3.27,11.67,5.22,17.41h0c.65,1.91,1.32,3.81,2.01,5.7.34.96.69,1.91,1.05,2.85.72,1.88,1.46,3.76,2.22,5.63.37.93.76,1.86,1.15,2.8.79,1.86,1.59,3.7,2.42,5.53h0c.82,1.85,1.67,3.66,2.53,5.49,9.54,19.98,21.67,38.71,36.09,55.62,8.52,9.99,17.82,19.35,27.86,27.95,3.08,2.64,6.24,5.22,9.47,7.73,1.21.94,2.42,1.87,3.65,2.79.61.46,1.22.9,1.85,1.36,1.23.9,2.48,1.81,3.74,2.69.62.45,1.25.89,1.88,1.32,1.26.87,2.54,1.73,3.83,2.59,1.28.84,2.57,1.69,3.86,2.52,1.31.83,2.62,1.64,3.94,2.45,1.76,1.08,3.53,2.14,5.33,3.17,2.68,1.56,5.4,3.06,8.16,4.51,2.75,1.46,5.54,2.86,8.36,4.23.94.45,1.89.9,2.83,1.33,3.79,1.77,7.63,3.45,11.54,5.02,1.95.8,3.93,1.57,5.91,2.31s3.97,1.47,5.98,2.16c10.05,3.49,20.44,6.37,31.15,8.6,2.13.45,4.29.87,6.45,1.27,8.67,1.57,17.53,2.72,26.57,3.42,2.12.16,4.25.3,6.39.42,131.92,6.98,247.92-91.76,262.68-223.38,8.17-72.87-16.55-145.43-65.41-199.33,3.54-5.91,32.99-48.45,32.99-48.45l-38.2-26.82c25.61-36.83,46.32-47.55,92.25-49.06,51.88-1.7,80.9-39.33,98.24-61.8,1.62-2.1,3.16-4.1,4.64-5.96,3.41-4.3,2.69-10.56-1.62-13.97Z"/>
      <path class="cls-2" d="M678.69,289.84c-6.97,10.09-27.57,39.96-30.66,45.06-26.25-28.42-59.05-50.87-96.24-64.84l4.3-5.9c28,13.81,59.06,22.62,92.09,25.17,10.28.79,20.46.96,30.5.53Z"/>
      <path class="cls-8" d="M674.91,370.28c30.69,48.32,44.99,106.07,38.49,164.01-14.76,131.61-130.76,230.36-262.68,223.37-2.14-.12-4.28-.25-6.39-.42-9.04-.7-17.9-1.85-26.57-3.42-2.17-.39-4.32-.82-6.45-1.27-10.71-2.23-21.1-5.1-31.15-8.6-2.01-.7-4.01-1.42-5.98-2.16s-3.95-1.51-5.91-2.31c-3.91-1.57-7.75-3.25-11.54-5.02-.95-.43-1.89-.88-2.83-1.33-2.82-1.37-5.61-2.77-8.36-4.23-2.76-1.45-5.48-2.95-8.16-4.51-1.79-1.03-3.56-2.09-5.33-3.17-1.32-.81-2.62-1.62-3.94-2.45-1.3-.83-2.59-1.68-3.86-2.52-1.29-.86-2.57-1.72-3.83-2.59-.63-.44-1.26-.88-1.88-1.32-1.25-.89-2.5-1.79-3.74-2.69-.63-.46-1.24-.9-1.85-1.36-1.23-.92-2.44-1.85-3.65-2.79-3.23-2.5-6.39-5.08-9.47-7.73-10.04-8.61-19.35-17.96-27.86-27.95-3.01-3.52-5.9-7.13-8.7-10.8,38.65,28.56,85.54,46.96,137,50.92,145.99,11.25,273.46-97.98,284.71-243.97,2.56-33.25-1.13-65.54-10.06-95.71Z"/>
      <path class="cls-6" d="M265.68,448.31c12.7,14.07,37.95-23.4,78.79-60.28,40.84-36.88,81.79-59.2,69.09-73.26-12.7-14.07-56.1,4.43-96.94,41.3-40.84,36.88-63.64,78.17-50.94,92.24Z"/>
      <circle class="cls-6" cx="455.33" cy="300.48" r="17.59"/>
    </g>
    <g id="nieten">
      <g>
        <circle class="cls-5" cx="175.19" cy="573.6" r="20.32"/>
        <path class="cls-8" d="M192.58,563.14c.38,1.59.6,3.24.6,4.94,0,11.77-9.54,21.31-21.31,21.31-5.42,0-10.35-2.04-14.11-5.37,3.55,5.93,10.02,9.91,17.43,9.91,11.22,0,20.32-9.1,20.32-20.32,0-3.83-1.08-7.41-2.93-10.46Z"/>
        <path class="cls-6" d="M159.59,573.34c1.4,1.33,3.68-2.68,7.56-6.76s7.87-6.68,6.47-8.01-5.68.89-9.55,4.97c-3.87,4.08-5.87,8.47-4.47,9.8Z"/>
      </g>
      <g>
        <circle class="cls-5" cx="175.19" cy="440.23" r="20.32"/>
        <path class="cls-8" d="M192.58,429.77c.38,1.59.6,3.24.6,4.94,0,11.77-9.54,21.31-21.31,21.31-5.42,0-10.35-2.04-14.11-5.37,3.55,5.93,10.02,9.91,17.43,9.91,11.22,0,20.32-9.1,20.32-20.32,0-3.83-1.08-7.41-2.93-10.46Z"/>
        <path class="cls-6" d="M159.59,439.97c1.4,1.33,3.68-2.68,7.56-6.76s7.87-6.68,6.47-8.01-5.68.89-9.55,4.97c-3.87,4.08-5.87,8.47-4.47,9.8Z"/>
      </g>
      <g>
        <circle class="cls-5" cx="748.68" cy="573.6" r="20.32"/>
        <path class="cls-8" d="M766.08,563.14c.38,1.59.6,3.24.6,4.94,0,11.77-9.54,21.31-21.31,21.31-5.42,0-10.35-2.04-14.11-5.37,3.55,5.93,10.02,9.91,17.43,9.91,11.22,0,20.32-9.1,20.32-20.32,0-3.83-1.08-7.41-2.93-10.46Z"/>
        <path class="cls-6" d="M733.09,573.34c1.4,1.33,3.68-2.68,7.56-6.76s7.87-6.68,6.47-8.01-5.68.89-9.55,4.97-5.87,8.47-4.47,9.8Z"/>
      </g>
      <g>
        <circle class="cls-5" cx="748.68" cy="440.23" r="20.32"/>
        <path class="cls-8" d="M766.08,429.77c.38,1.59.6,3.24.6,4.94,0,11.77-9.54,21.31-21.31,21.31-5.42,0-10.35-2.04-14.11-5.37,3.55,5.93,10.02,9.91,17.43,9.91,11.22,0,20.32-9.1,20.32-20.32,0-3.83-1.08-7.41-2.93-10.46Z"/>
        <path class="cls-6" d="M733.09,439.97c1.4,1.33,3.68-2.68,7.56-6.76,3.87-4.08,7.87-6.68,6.47-8.01s-5.68.89-9.55,4.97-5.87,8.47-4.47,9.8Z"/>
      </g>
      <g>
        <circle class="cls-5" cx="216.02" cy="790.12" r="20.32"/>
        <path class="cls-8" d="M233.41,779.65c.38,1.59.6,3.24.6,4.94,0,11.77-9.54,21.31-21.31,21.31-5.42,0-10.35-2.04-14.11-5.37,3.55,5.93,10.02,9.91,17.43,9.91,11.22,0,20.32-9.1,20.32-20.32,0-3.83-1.08-7.41-2.93-10.46Z"/>
        <path class="cls-6" d="M200.43,789.86c1.4,1.33,3.68-2.68,7.56-6.76s7.87-6.68,6.47-8.01-5.68.89-9.55,4.97c-3.87,4.08-5.87,8.47-4.47,9.8Z"/>
      </g>
      <g>
        <circle class="cls-5" cx="696.17" cy="790.12" r="20.32"/>
        <path class="cls-8" d="M713.57,779.65c.38,1.59.6,3.24.6,4.94,0,11.77-9.54,21.31-21.31,21.31-5.42,0-10.35-2.04-14.11-5.37,3.55,5.93,10.02,9.91,17.43,9.91,11.22,0,20.32-9.1,20.32-20.32,0-3.83-1.08-7.41-2.93-10.46Z"/>
        <path class="cls-6" d="M680.58,789.86c1.4,1.33,3.68-2.68,7.56-6.76s7.87-6.68,6.47-8.01-5.68.89-9.55,4.97c-3.87,4.08-5.87,8.47-4.47,9.8Z"/>
      </g>
      <g>
        <circle class="cls-5" cx="536.12" cy="790.12" r="20.32"/>
        <path class="cls-8" d="M553.52,779.65c.38,1.59.6,3.24.6,4.94,0,11.77-9.54,21.31-21.31,21.31-5.42,0-10.35-2.04-14.11-5.37,3.55,5.93,10.02,9.91,17.43,9.91,11.22,0,20.32-9.1,20.32-20.32,0-3.83-1.08-7.41-2.93-10.46Z"/>
        <path class="cls-6" d="M520.53,789.86c1.4,1.33,3.68-2.68,7.56-6.76,3.87-4.08,7.87-6.68,6.47-8.01s-5.68.89-9.55,4.97-5.87,8.47-4.47,9.8Z"/>
      </g>
      <g>
        <circle class="cls-5" cx="376.07" cy="790.12" r="20.32"/>
        <path class="cls-8" d="M393.46,779.65c.38,1.59.6,3.24.6,4.94,0,11.77-9.54,21.31-21.31,21.31-5.42,0-10.35-2.04-14.11-5.37,3.55,5.93,10.02,9.91,17.43,9.91,11.22,0,20.32-9.1,20.32-20.32,0-3.83-1.08-7.41-2.93-10.46Z"/>
        <path class="cls-6" d="M360.48,789.86c1.4,1.33,3.68-2.68,7.56-6.76s7.87-6.68,6.47-8.01-5.68.89-9.55,4.97c-3.87,4.08-5.87,8.47-4.47,9.8Z"/>
      </g>
      <g>
        <circle class="cls-5" cx="216.02" cy="220.77" r="20.32"/>
        <path class="cls-8" d="M233.41,210.3c.38,1.59.6,3.24.6,4.94,0,11.77-9.54,21.31-21.31,21.31-5.42,0-10.35-2.04-14.11-5.37,3.55,5.93,10.02,9.91,17.43,9.91,11.22,0,20.32-9.1,20.32-20.32,0-3.83-1.08-7.41-2.93-10.46Z"/>
        <path class="cls-6" d="M200.43,220.51c1.4,1.33,3.68-2.68,7.56-6.76s7.87-6.68,6.47-8.01-5.68.89-9.55,4.97-5.87,8.47-4.47,9.8Z"/>
      </g>
      <g>
        <circle class="cls-5" cx="376.07" cy="220.77" r="20.32"/>
        <path class="cls-8" d="M393.46,210.3c.38,1.59.6,3.24.6,4.94,0,11.77-9.54,21.31-21.31,21.31-5.42,0-10.35-2.04-14.11-5.37,3.55,5.93,10.02,9.91,17.43,9.91,11.22,0,20.32-9.1,20.32-20.32,0-3.83-1.08-7.41-2.93-10.46Z"/>
        <path class="cls-6" d="M360.48,220.51c1.4,1.33,3.68-2.68,7.56-6.76s7.87-6.68,6.47-8.01-5.68.89-9.55,4.97-5.87,8.47-4.47,9.8Z"/>
      </g>
      <g>
        <circle class="cls-5" cx="534.84" cy="220.77" r="20.32"/>
        <path class="cls-8" d="M552.23,210.3c.38,1.59.6,3.24.6,4.94,0,11.77-9.54,21.31-21.31,21.31-5.42,0-10.35-2.04-14.11-5.37,3.55,5.93,10.02,9.91,17.43,9.91,11.22,0,20.32-9.1,20.32-20.32,0-3.83-1.08-7.41-2.93-10.46Z"/>
        <path class="cls-6" d="M519.25,220.51c1.4,1.33,3.68-2.68,7.56-6.76,3.87-4.08,7.87-6.68,6.47-8.01s-5.68.89-9.55,4.97-5.87,8.47-4.47,9.8Z"/>
      </g>
    </g>
    <rect class="cls-5" x="53.97" y="381.48" width="79.54" height="238.11"/>
    <path class="cls-5" d="M163.25,665.57v88.48c0,.34,0,.68-.02,1,0,.18,0,.36-.03.53,0,.08,0,.16-.02.24,0,.3-.04.6-.07.88-.03.36-.08.72-.13,1.06,0,.02,0,.05,0,.07-.02.17-.05.33-.08.49-.05.33-.11.65-.18.96v.02c-.09.42-.18.84-.29,1.24-.08.3-.16.59-.25.88,0,0,0,.02,0,.03-.04.17-.1.33-.15.5,0,.02,0,.04-.02.06,0,.03-.02.06-.03.09t0,.02c-.11.35-.23.68-.36,1.01-.1.28-.21.56-.33.83-.03.11-.08.21-.13.32-.15.35-.31.7-.48,1.04-.09.19-.18.39-.3.58-.06.13-.12.26-.19.38-.07.13-.13.25-.21.38-.08.16-.17.31-.26.46-.14.25-.28.49-.44.72-.1.17-.21.34-.33.51-.1.17-.21.34-.34.51-.14.22-.3.43-.45.64-.06.09-.13.18-.19.26-.23.3-.46.59-.7.87-.27.33-.55.65-.83.95-.21.23-.42.46-.65.68l-.18.18s-.09.1-.14.15c-.14.14-.28.27-.42.4-.23.22-.47.44-.71.64-.03.03-.05.06-.08.08-.04.03-.07.06-.11.09-.24.21-.5.42-.75.62,0,.02-.03.03-.04.04-.03.02-.06.05-.09.07-.02,0-.03.03-.05.04-.02,0-.03.02-.05.04-.11.08-.22.16-.33.25-.11.08-.22.17-.33.25-.3.22-.61.44-.91.65s-.62.41-.92.6c-.3.18-.59.35-.88.51-.25.15-.5.29-.77.41,0,0,0,0,0,0-.09.06-.19.11-.3.15-.23.12-.47.24-.71.34-.15.07-.3.15-.46.21-.15.07-.3.14-.46.2-.04.02-.09.04-.13.05-.04.02-.07.03-.11.05-.22.1-.45.19-.68.27-.03,0-.06.02-.09.03,0,0-.02,0-.03,0-.39.15-.79.29-1.19.42h0c-.31.09-.63.19-.94.27-.02,0-.04,0-.06,0-.18.05-.36.09-.54.14-.3.08-.6.15-.9.21-.04,0-.09.02-.14.03-.32.07-.65.13-.97.18h-.03c-.13.03-.28.05-.41.07h-.02c-.34.05-.68.09-1.01.12-.03,0-.05,0-.08,0-.24.03-.49.05-.73.06-.12,0-.25.03-.38.03-.13,0-.26.02-.38.02-.38.02-.76.03-1.14.03H46.1c-.37,0-.74,0-1.09-.02-.03,0-.07,0-.1,0-.12,0-.23,0-.35-.02h-.07c-.35-.02-.7-.05-1.04-.09-.31-.03-.62-.07-.92-.11-.04,0-.08,0-.12-.02-.17-.02-.33-.05-.5-.08-.03,0-.07,0-.1,0-.32-.05-.64-.11-.94-.18-.37-.07-.74-.16-1.09-.25-.05,0-.1-.03-.15-.04-.02,0-.04,0-.05,0-.28-.07-.56-.15-.84-.23-.3-.09-.6-.18-.88-.29-.58-.19-1.14-.4-1.7-.64-.18-.07-.36-.15-.54-.24-.52-.22-1.02-.47-1.52-.73-.02,0-.03-.02-.05-.03-.21-.11-.42-.22-.63-.34-.18-.1-.36-.2-.54-.31-.18-.1-.35-.21-.52-.32-.36-.22-.7-.44-1.03-.68-.16-.11-.32-.22-.48-.34-.16-.11-.32-.23-.47-.35-.48-.36-.94-.74-1.39-1.13-.2-.17-.41-.35-.6-.53l-.02-.02c-.22-.2-.43-.41-.64-.62-.15-.15-.3-.3-.44-.45-.09-.09-.18-.18-.27-.28-.16-.16-.31-.33-.46-.5-.21-.24-.41-.48-.62-.72-.23-.29-.46-.58-.69-.87-.05-.07-.11-.14-.16-.21-.22-.29-.43-.6-.64-.9-.03-.04-.06-.09-.09-.13-.2-.29-.39-.6-.58-.9-.17-.27-.33-.55-.48-.83-.1-.15-.18-.31-.26-.47-.02-.02-.03-.04-.04-.07-.16-.29-.31-.59-.45-.88-.14-.29-.28-.59-.41-.89-.08-.16-.15-.34-.22-.51-.26-.63-.5-1.26-.71-1.92-.05-.15-.1-.3-.14-.45-.11-.34-.2-.68-.29-1.01-.11-.42-.21-.84-.29-1.26-.08-.37-.15-.74-.21-1.11,0-.08-.03-.16-.04-.24-.06-.41-.11-.82-.15-1.23-.03-.3-.06-.6-.08-.9,0-.04,0-.09,0-.13v-.1c0-.1-.02-.2-.02-.31,0-.03,0-.07,0-.1v-.15c0-.32-.02-.64-.02-.96v-88.48c0-.33,0-.65.02-.96v-.15s0-.07,0-.1c0-.11,0-.21.02-.31v-.1s0-.09,0-.13c.02-.31.05-.61.08-.9.04-.42.09-.83.15-1.23,0-.08.03-.16.04-.24.06-.38.13-.75.21-1.11.08-.43.18-.85.29-1.26.09-.34.18-.68.29-1.01.04-.15.09-.3.14-.45.21-.66.45-1.29.71-1.92.07-.17.14-.35.22-.51.13-.31.27-.61.41-.89.14-.3.29-.6.45-.88,0-.03.02-.05.04-.07.08-.16.16-.32.26-.47.15-.28.31-.56.48-.83.19-.31.38-.62.58-.9.03-.04.06-.09.09-.13.21-.31.42-.62.64-.9.05-.07.11-.14.16-.21.23-.3.46-.59.69-.87.21-.24.41-.48.62-.72.15-.17.3-.34.46-.5.09-.1.18-.19.27-.28.14-.15.29-.3.44-.45.21-.21.42-.42.64-.62t.02-.02c.19-.18.4-.36.6-.53.45-.4.91-.78,1.39-1.13.15-.12.31-.24.47-.35.16-.12.32-.23.48-.34.34-.24.68-.46,1.03-.68.17-.11.34-.22.52-.32.18-.11.36-.21.54-.31.21-.12.42-.23.63-.34.02,0,.03-.02.05-.03.5-.26,1-.51,1.52-.73.18-.09.36-.17.54-.24.56-.24,1.12-.45,1.7-.64.29-.11.59-.2.88-.29.28-.08.56-.16.84-.23,0,0,.03,0,.05,0,.05,0,.1-.03.15-.04.36-.09.73-.18,1.09-.25.31-.07.63-.13.94-.18.03,0,.07,0,.1,0,.17-.03.33-.06.5-.08.04,0,.08-.02.12-.02.31-.04.62-.08.92-.11.35-.04.7-.07,1.04-.09h.07c.12,0,.23-.02.35-.02.03,0,.07,0,.1,0,.36,0,.73-.02,1.09-.02h91.06c.39,0,.77,0,1.14.03.12,0,.25,0,.38.02.13,0,.26.02.38.03.24,0,.49.03.73.06.03,0,.05,0,.08,0,.34.03.68.07,1.01.12h.02c.13.02.28.04.41.07h.03c.33.05.66.11.97.18.05,0,.1.02.14.03.31.06.61.13.9.21.18.05.36.09.54.14.02,0,.04,0,.06,0,.32.08.63.18.94.27h0c.41.13.81.27,1.19.42,0,0,.02,0,.03,0,.03,0,.06.02.09.03.23.09.46.17.68.27.04.02.07.03.11.05.04,0,.09.03.13.05.14.05.27.11.4.17.07.02.13.05.19.08.12.05.23.1.33.16.24.1.48.22.71.34.11.04.21.09.3.15,0,0,0,0,0,0,.27.12.52.26.77.41.3.16.59.33.88.51.31.19.62.39.92.6.31.21.62.43.91.65.11.08.22.17.33.25.11.09.22.17.33.25.02.02.03.03.05.04.02,0,.03.03.05.04.03.02.06.05.09.07,0,0,.03.02.04.04.25.2.51.41.75.62.04.03.07.06.11.09.03.02.05.05.08.08.24.2.48.42.71.64.14.13.28.26.42.4.05.05.1.1.14.15l.18.18c.23.22.44.45.65.68.28.31.56.63.83.95.24.29.47.58.7.87.06.08.13.17.19.26.15.21.31.42.45.64.13.17.24.34.34.51.12.17.23.34.33.51.16.23.3.47.44.72.09.15.18.3.26.46.08.13.14.25.21.38.07.12.13.25.19.38.02.04.04.07.06.11.09.16.17.32.24.47.17.35.33.7.48,1.04.05.11.1.21.13.32.12.27.23.55.33.83.13.34.25.67.36,1.01t0,.02s.02.06.03.09c0,.02,0,.04.02.06.05.17.11.33.15.5,0,0,0,.02,0,.03.09.3.17.59.25.88.11.41.2.83.29,1.24v.02c.07.32.13.64.18.96.03.16.06.32.08.49,0,.02,0,.05,0,.07.05.35.1.71.13,1.06.03.29.06.59.07.88.02.08.02.16.02.24,0,.09,0,.18.02.26,0,.09,0,.18,0,.27,0,.33.02.67.02,1Z"/>
    <path class="cls-6" d="M97.44,653.24c-3.98,1.98-43.85,5.35-50.67,22.17s-14.2,82.49-15.57,68.81c-.43-12.17-1.01-58.21-1.01-58.21,0-20.74,16.96-37.71,37.71-37.71l28.26.04c.11,0,5.26,2.92,1.28,4.9Z"/>
    <path class="cls-8" d="M84.64,765.62c3.98-1.98,43.85-5.35,50.67-22.17,6.83-16.82,14.2-82.49,15.57-68.81.43,12.17,1.01,58.21,1.01,58.21,0,20.74-16.96,37.71-37.71,37.71l-28.26-.04c-.11,0-5.26-2.92-1.28-4.9Z"/>
    <path class="cls-5" d="M163.25,247.01v88.48c0,.34,0,.68-.02,1,0,.18,0,.36-.03.53,0,.08,0,.16-.02.24,0,.3-.04.6-.07.88-.03.36-.08.72-.13,1.06,0,.02,0,.05,0,.07-.02.17-.05.33-.08.49-.05.33-.11.65-.18.96v.02c-.09.42-.18.84-.29,1.24-.08.3-.16.59-.25.88,0,0,0,.02,0,.03-.04.17-.1.33-.15.5,0,.02,0,.04-.02.06,0,.03-.02.06-.03.09t0,.02c-.11.35-.23.68-.36,1.01-.1.28-.21.56-.33.83-.03.11-.08.21-.13.32-.15.35-.31.7-.48,1.04-.09.19-.18.39-.3.58-.06.13-.12.26-.19.38-.07.13-.13.25-.21.38-.08.16-.17.31-.26.46-.14.25-.28.49-.44.72-.1.17-.21.34-.33.51-.1.17-.21.34-.34.51-.14.22-.3.43-.45.64-.06.09-.13.18-.19.26-.23.3-.46.59-.7.87-.27.33-.55.65-.83.95-.21.23-.42.46-.65.68l-.18.18s-.09.1-.14.15c-.14.14-.28.27-.42.4-.23.22-.47.44-.71.64-.03.03-.05.06-.08.08-.04.03-.07.06-.11.09-.24.21-.5.42-.75.62,0,.02-.03.03-.04.04-.03.02-.06.05-.09.07-.02,0-.03.03-.05.04-.02,0-.03.02-.05.04-.11.08-.22.16-.33.25-.11.08-.22.17-.33.25-.3.22-.61.44-.91.65s-.62.41-.92.6c-.3.18-.59.35-.88.51-.25.15-.5.29-.77.41,0,0,0,0,0,0-.09.06-.19.11-.3.15-.23.12-.47.24-.71.34-.15.07-.3.15-.46.21-.15.07-.3.14-.46.2-.04.02-.09.04-.13.05-.04.02-.07.03-.11.05-.22.1-.45.19-.68.27-.03,0-.06.02-.09.03,0,0-.02,0-.03,0-.39.15-.79.29-1.19.42h0c-.31.09-.63.19-.94.27-.02,0-.04,0-.06,0-.18.05-.36.09-.54.14-.3.08-.6.15-.9.21-.04,0-.09.02-.14.03-.32.07-.65.13-.97.18h-.03c-.13.03-.28.05-.41.07h-.02c-.34.05-.68.09-1.01.12-.03,0-.05,0-.08,0-.24.03-.49.05-.73.06-.12,0-.25.03-.38.03-.13,0-.26.02-.38.02-.38.02-.76.03-1.14.03H46.1c-.37,0-.74,0-1.09-.02-.03,0-.07,0-.1,0-.12,0-.23,0-.35-.02h-.07c-.35-.02-.7-.05-1.04-.09-.31-.03-.62-.07-.92-.11-.04,0-.08,0-.12-.02-.17-.02-.33-.05-.5-.08-.03,0-.07,0-.1,0-.32-.05-.64-.11-.94-.18-.37-.07-.74-.16-1.09-.25-.05,0-.1-.03-.15-.04-.02,0-.04,0-.05,0-.28-.07-.56-.15-.84-.23-.3-.09-.6-.18-.88-.29-.58-.19-1.14-.4-1.7-.64-.18-.07-.36-.15-.54-.24-.52-.22-1.02-.47-1.52-.73-.02,0-.03-.02-.05-.03-.21-.11-.42-.22-.63-.34-.18-.1-.36-.2-.54-.31-.18-.1-.35-.21-.52-.32-.36-.22-.7-.44-1.03-.68-.16-.11-.32-.22-.48-.34-.16-.11-.32-.23-.47-.35-.48-.36-.94-.74-1.39-1.13-.2-.17-.41-.35-.6-.53l-.02-.02c-.22-.2-.43-.41-.64-.62-.15-.15-.3-.3-.44-.45-.09-.09-.18-.18-.27-.28-.16-.16-.31-.33-.46-.5-.21-.24-.41-.48-.62-.72-.23-.29-.46-.58-.69-.87-.05-.07-.11-.14-.16-.21-.22-.29-.43-.6-.64-.9-.03-.04-.06-.09-.09-.13-.2-.29-.39-.6-.58-.9-.17-.27-.33-.55-.48-.83-.1-.15-.18-.31-.26-.47-.02-.02-.03-.04-.04-.07-.16-.29-.31-.59-.45-.88-.14-.29-.28-.59-.41-.89-.08-.16-.15-.34-.22-.51-.26-.63-.5-1.26-.71-1.92-.05-.15-.1-.3-.14-.45-.11-.34-.2-.68-.29-1.01-.11-.42-.21-.84-.29-1.26-.08-.37-.15-.74-.21-1.11,0-.08-.03-.16-.04-.24-.06-.41-.11-.82-.15-1.23-.03-.3-.06-.6-.08-.9,0-.04,0-.09,0-.13v-.1c0-.1-.02-.2-.02-.31,0-.03,0-.07,0-.1v-.15c0-.32-.02-.64-.02-.96v-88.48c0-.33,0-.65.02-.96v-.15s0-.07,0-.1c0-.11,0-.21.02-.31v-.1s0-.09,0-.13c.02-.31.05-.61.08-.9.04-.42.09-.83.15-1.23,0-.08.03-.16.04-.24.06-.38.13-.75.21-1.11.08-.43.18-.85.29-1.26.09-.34.18-.68.29-1.01.04-.15.09-.3.14-.45.21-.66.45-1.29.71-1.92.07-.17.14-.35.22-.51.13-.31.27-.61.41-.89.14-.3.29-.6.45-.88,0-.03.02-.05.04-.07.08-.16.16-.32.26-.47.15-.28.31-.56.48-.83.19-.31.38-.62.58-.9.03-.04.06-.09.09-.13.21-.31.42-.62.64-.9.05-.07.11-.14.16-.21.23-.3.46-.59.69-.87.21-.24.41-.48.62-.72.15-.17.3-.34.46-.5.09-.1.18-.19.27-.28.14-.15.29-.3.44-.45.21-.21.42-.42.64-.62t.02-.02c.19-.18.4-.36.6-.53.45-.4.91-.78,1.39-1.13.15-.12.31-.24.47-.35.16-.12.32-.23.48-.34.34-.24.68-.46,1.03-.68.17-.11.34-.22.52-.32.18-.11.36-.21.54-.31.21-.12.42-.23.63-.34.02,0,.03-.02.05-.03.5-.26,1-.51,1.52-.73.18-.09.36-.17.54-.24.56-.24,1.12-.45,1.7-.64.29-.11.59-.2.88-.29.28-.08.56-.16.84-.23,0,0,.03,0,.05,0,.05,0,.1-.03.15-.04.36-.09.73-.18,1.09-.25.31-.07.63-.13.94-.18.03,0,.07,0,.1,0,.17-.03.33-.06.5-.08.04,0,.08-.02.12-.02.31-.04.62-.08.92-.11.35-.04.7-.07,1.04-.09h.07c.12,0,.23-.02.35-.02.03,0,.07,0,.1,0,.36,0,.73-.02,1.09-.02h91.06c.39,0,.77,0,1.14.03.12,0,.25,0,.38.02.13,0,.26.02.38.03.24,0,.49.03.73.06.03,0,.05,0,.08,0,.34.03.68.07,1.01.12h.02c.13.02.28.04.41.07h.03c.33.05.66.11.97.18.05,0,.1.02.14.03.31.06.61.13.9.21.18.05.36.09.54.14.02,0,.04,0,.06,0,.32.08.63.18.94.27h0c.41.13.81.27,1.19.42,0,0,.02,0,.03,0,.03,0,.06.02.09.03.23.09.46.17.68.27.04.02.07.03.11.05.04,0,.09.03.13.05.14.05.27.11.4.17.07.02.13.05.19.08.12.05.23.1.33.16.24.1.48.22.71.34.11.04.21.09.3.15,0,0,0,0,0,0,.27.12.52.26.77.41.3.16.59.33.88.51.31.19.62.39.92.6.31.21.62.43.91.65.11.08.22.17.33.25.11.09.22.17.33.25.02.02.03.03.05.04.02,0,.03.03.05.04.03.02.06.05.09.07,0,0,.03.02.04.04.25.2.51.41.75.62.04.03.07.06.11.09.03.02.05.05.08.08.24.2.48.42.71.64.14.13.28.26.42.4.05.05.1.1.14.15l.18.18c.23.22.44.45.65.68.28.31.56.63.83.95.24.29.47.58.7.87.06.08.13.17.19.26.15.21.31.42.45.64.13.17.24.34.34.51.12.17.23.34.33.51.16.23.3.47.44.72.09.15.18.3.26.46.08.13.14.25.21.38.07.12.13.25.19.38.02.04.04.07.06.11.09.16.17.32.24.47.17.35.33.7.48,1.04.05.11.1.21.13.32.12.27.23.55.33.83.13.34.25.67.36,1.01t0,.02s.02.06.03.09c0,.02,0,.04.02.06.05.17.11.33.15.5,0,0,0,.02,0,.03.09.3.17.59.25.88.11.41.2.83.29,1.24v.02c.07.32.13.64.18.96.03.16.06.32.08.49,0,.02,0,.05,0,.07.05.35.1.71.13,1.06.03.29.06.59.07.88.02.08.02.16.02.24,0,.09,0,.18.02.26,0,.09,0,.18,0,.27,0,.33.02.67.02,1Z"/>
    <path class="cls-6" d="M97.44,235.06c-3.98,1.98-43.85,5.35-50.67,22.17-6.83,16.82-14.2,82.49-15.57,68.81-.43-12.17-1.01-58.21-1.01-58.21,0-20.74,16.96-37.71,37.71-37.71l28.26.04c.11,0,5.26,2.92,1.28,4.9Z"/>
    <path class="cls-8" d="M84.64,347.44c3.98-1.98,43.85-5.35,50.67-22.17,6.83-16.82,14.2-82.49,15.57-68.81.43,12.17,1.01,58.21,1.01,58.21,0,20.74-16.96,37.71-37.71,37.71l-28.26-.04c-.11,0-5.26-2.92-1.28-4.9Z"/>
    <path class="cls-5" d="M831.77,249.99v88.48c0,.42,0,.83-.03,1.23,0,.08,0,.15,0,.23,0,.18-.02.36-.04.53,0,.05,0,.09-.02.14,0,.22-.03.44-.06.65-.02.25-.05.49-.08.73,0,.09-.03.18-.04.27,0,.12-.03.23-.05.34-.02.12-.04.23-.06.34-.03.24-.08.47-.13.7,0,.09-.03.18-.06.26,0,.04,0,.07-.02.11-.05.27-.11.53-.18.79,0,0,0,.03,0,.04-.06.25-.12.48-.2.72,0,.07-.03.14-.05.21,0,.05-.03.1-.05.15-.06.21-.12.42-.2.64h0c-.07.23-.14.44-.22.66-.12.35-.25.69-.4,1.02-.07.2-.15.39-.24.57-.02.06-.05.13-.08.19-.11.28-.24.54-.37.81-.13.27-.26.54-.41.81-.02.03-.03.06-.05.09-.12.24-.25.48-.4.72-.13.25-.27.49-.42.72-.18.29-.36.58-.55.86-.02.03-.05.07-.07.1-.11.16-.22.33-.34.48,0,0-.02.03-.03.04-.18.26-.37.51-.56.76-.18.25-.38.5-.58.74-.21.26-.42.51-.65.75-.12.13-.24.27-.37.4-.03.03-.06.07-.09.1-.13.15-.28.31-.43.45-.02.03-.05.05-.07.07-.25.26-.5.51-.76.74-.16.16-.33.32-.51.47-.19.17-.38.34-.58.5l-.18.15c-.26.21-.53.42-.8.62-.09.08-.18.14-.27.2-.23.18-.46.35-.7.5-.09.07-.18.13-.27.19-.27.19-.55.36-.83.53-.07.05-.14.09-.21.13-.03.02-.06.04-.09.06-.17.11-.34.21-.52.3-.03.02-.07.03-.1.05-.19.11-.38.22-.58.32-.19.11-.39.21-.59.3-.32.17-.64.32-.96.46-.1.05-.2.1-.31.14-.29.13-.59.26-.89.37-.03,0-.05.02-.08.03-.22.09-.44.17-.66.25-.25.09-.51.18-.77.26-.23.07-.45.14-.68.2-.07.03-.15.05-.22.07-.11.03-.22.06-.33.09-.24.06-.49.12-.74.18-.16.04-.31.07-.47.1-.35.08-.7.15-1.05.21-.17.03-.34.06-.51.09-.18.02-.35.05-.52.07-.05,0-.09,0-.14.02h-.03c-.22.03-.44.06-.66.08-.36.04-.71.07-1.06.09h-.07c-.11,0-.21,0-.32,0-.37.02-.75.03-1.12.03h-27.38c-.36,0-.71,0-1.06-.02-.17,0-.35-.02-.52-.03-.36-.02-.72-.05-1.07-.09-.32-.03-.64-.07-.94-.12-.2-.02-.4-.05-.6-.09-.06,0-.11-.02-.17-.03-.29-.04-.59-.09-.87-.16-.41-.08-.82-.17-1.22-.28-.34-.09-.69-.18-1.02-.29-.3-.09-.58-.18-.87-.29,0,0-.03,0-.04,0-.03,0-.06-.02-.09-.03s-.05-.02-.08-.03c-.21-.07-.42-.15-.63-.23-.19-.07-.37-.14-.56-.22-.21-.08-.42-.17-.62-.26-.62-.27-1.22-.56-1.81-.87-.3-.16-.59-.32-.87-.49-.23-.13-.46-.27-.67-.4-.03-.02-.05-.03-.08-.05-.61-.38-1.18-.78-1.75-1.2-.16-.11-.31-.23-.45-.35-.38-.29-.75-.59-1.1-.9-.12-.1-.22-.19-.33-.29s-.22-.2-.33-.3c-.1-.09-.19-.18-.29-.28-.18-.16-.35-.33-.51-.5-.44-.44-.86-.89-1.25-1.37-.32-.35-.61-.72-.88-1.08-.13-.16-.26-.33-.38-.5-.4-.54-.77-1.08-1.11-1.65-.14-.23-.28-.46-.41-.69-.16-.27-.31-.54-.46-.82-.15-.27-.29-.56-.43-.84-.02-.04-.05-.09-.06-.13-.13-.26-.25-.52-.36-.78,0,0,0-.02,0-.03-.08-.17-.16-.34-.22-.52,0,0-.02-.02-.02-.03-.13-.31-.25-.62-.37-.92-.11-.31-.22-.62-.32-.93-.05-.17-.11-.34-.16-.51-.02-.05-.03-.1-.05-.15-.09-.31-.18-.63-.26-.95-.1-.39-.19-.78-.27-1.17-.08-.37-.15-.75-.21-1.12-.02-.13-.04-.26-.06-.39,0-.03,0-.05,0-.08-.05-.31-.08-.62-.11-.92,0-.05,0-.1-.02-.15-.03-.25-.05-.5-.06-.75v-.03c-.02-.22-.03-.44-.04-.65-.02-.39-.03-.77-.03-1.15v-88.48c0-.39,0-.77.03-1.15,0-.21.02-.43.04-.65v-.03c0-.25.03-.5.06-.75,0-.05,0-.1.02-.15.03-.31.06-.62.11-.92,0-.03,0-.05,0-.08.02-.13.04-.26.06-.39.06-.38.13-.76.21-1.12.08-.4.17-.79.27-1.17.08-.33.17-.65.26-.95.02-.05.03-.1.05-.15.05-.17.11-.34.16-.51.1-.32.21-.63.32-.93.12-.31.24-.62.37-.92,0,0,0-.02.02-.03.06-.18.14-.35.22-.52,0,0,0-.02,0-.03.11-.26.23-.52.36-.78,0-.04.04-.09.06-.13.14-.28.28-.57.43-.84.15-.28.3-.55.46-.82.13-.23.27-.46.41-.69.35-.57.72-1.11,1.11-1.65.12-.17.25-.34.38-.5.28-.37.57-.74.88-1.08.4-.48.82-.93,1.25-1.37.17-.17.34-.34.51-.5.1-.1.19-.19.29-.28.11-.1.22-.2.33-.3.11-.1.21-.19.33-.29.36-.32.73-.62,1.1-.9.14-.12.29-.24.45-.35.57-.43,1.14-.83,1.75-1.2.03-.02.05-.03.08-.05.21-.13.44-.27.67-.4.29-.17.58-.33.87-.49.59-.32,1.19-.61,1.81-.87.2-.09.41-.18.62-.26.19-.08.37-.15.56-.22.21-.08.42-.16.63-.23.03,0,.05-.02.08-.03s.06-.02.09-.03c0,0,.03,0,.04,0,.3-.11.58-.2.87-.29.34-.11.69-.2,1.02-.29.4-.1.81-.2,1.22-.28.29-.06.58-.12.87-.16.06,0,.11-.02.17-.03.2-.04.4-.07.6-.09.31-.05.63-.09.94-.12.36-.04.72-.07,1.07-.09.17,0,.35-.02.52-.03.36,0,.71-.02,1.06-.02h27.38c.38,0,.76,0,1.12.03.11,0,.21,0,.32,0h.07c.36.02.71.05,1.06.09.22.02.44.05.66.08h.03s.09,0,.14.02c.17.02.34.05.52.07.17.03.34.06.51.09.36.06.71.13,1.05.21.16.03.31.06.47.1.05,0,.09.02.14.03.2.05.39.1.58.14t.02,0c.11.03.22.06.33.09.07.02.15.04.22.07.23.06.45.13.68.2.26.08.52.17.77.26.22.08.44.16.66.25.03,0,.05.02.08.03.31.11.61.24.89.37.11.04.21.09.31.14.33.14.65.29.96.46.2.09.4.19.59.3.2.1.39.21.58.32.03.02.07.03.1.05.18.09.35.19.52.3.03.02.06.04.09.06.07.04.14.08.21.13.28.17.56.34.83.53.09.06.18.12.27.19.24.15.47.32.7.5.09.06.18.12.27.2.27.2.54.41.8.62l.18.15c.2.16.39.33.58.5.18.15.35.31.51.47.15.13.3.27.44.42.11.1.22.21.32.32.02.02.05.04.07.07.15.14.3.3.43.45.03.03.06.07.09.1.13.13.25.27.37.4.23.24.44.49.65.75.2.24.4.49.58.74.19.25.38.5.56.76,0,0,.02.03.03.04.12.15.23.32.34.48.02.03.05.07.07.1.19.28.37.57.55.86.15.23.29.47.42.72.15.24.28.48.4.72.02.03.03.06.05.09.15.27.28.54.41.81.13.27.26.53.37.81.03.06.06.13.08.19.09.18.17.37.24.57.15.34.28.68.4,1.02.08.22.15.43.22.65h0c.08.23.14.44.2.65.02.05.04.1.05.15.02.07.04.14.05.21.08.24.14.47.2.72,0,0,0,.03,0,.04.07.26.13.52.18.79,0,.04,0,.07.02.11.03.08.05.17.06.26.05.23.1.46.13.7.02.11.04.22.06.34.02.11.04.22.05.34,0,.09.03.18.04.27.03.24.06.48.08.73.03.21.05.43.06.65,0,.05,0,.1.02.15.02.17.03.34.04.51,0,.08,0,.16,0,.24.02.41.03.82.03,1.23Z"/>
    <path class="cls-6" d="M809.14,233.33c-2.75,1.37-30.35,3.7-35.07,15.34s-9.83,57.1-10.77,47.63c-.3-8.43-.7-40.28-.7-40.28,0-14.36,11.74-26.1,26.1-26.1l19.56.03c.08,0,3.64,2.02.88,3.39Z"/>
    <path class="cls-8" d="M783.59,355.14c2.75-1.37,30.35-3.7,35.07-15.34s9.83-57.1,10.77-47.63c.3,8.43.7,40.28.7,40.28,0,14.36-11.74,26.1-26.1,26.1l-19.56-.03c-.08,0-3.64-2.02-.88-3.39Z"/>
    <path class="cls-5" d="M832.76,665.57v88.48c0,.42,0,.83-.03,1.23,0,.08,0,.15,0,.23,0,.18-.02.36-.04.53,0,.05,0,.09-.02.14,0,.22-.03.44-.06.65-.02.25-.05.49-.08.73,0,.09-.03.18-.04.27,0,.12-.03.23-.05.34-.02.12-.04.23-.06.34-.03.24-.08.47-.13.7,0,.09-.03.18-.06.26,0,.04,0,.07-.02.11-.05.27-.11.53-.18.79,0,0,0,.03,0,.04-.06.25-.12.48-.2.72,0,.07-.03.14-.05.21,0,.05-.03.1-.05.15-.06.21-.12.42-.2.64h0c-.07.23-.14.44-.22.66-.12.35-.25.69-.4,1.02-.07.2-.15.39-.24.57-.02.06-.05.13-.08.19-.11.28-.24.54-.37.81-.13.27-.26.54-.41.81-.02.03-.03.06-.05.09-.12.24-.25.48-.4.72-.13.25-.27.49-.42.72-.18.29-.36.58-.55.86-.02.03-.05.07-.07.1-.11.16-.22.33-.34.48,0,0-.02.03-.03.04-.18.26-.37.51-.56.76-.18.25-.38.5-.58.74-.21.26-.42.51-.65.75-.12.13-.24.27-.37.4-.03.03-.06.07-.09.1-.13.15-.28.31-.43.45-.02.03-.05.05-.07.07-.25.26-.5.51-.76.74-.16.16-.33.32-.51.47-.19.17-.38.34-.58.5l-.18.15c-.26.21-.53.42-.8.62-.09.08-.18.14-.27.2-.23.18-.46.35-.7.5-.09.07-.18.13-.27.19-.27.19-.55.36-.83.53-.07.05-.14.09-.21.13-.03.02-.06.04-.09.06-.17.11-.34.21-.52.3-.03.02-.07.03-.1.05-.19.11-.38.22-.58.32-.19.11-.39.21-.59.3-.32.17-.64.32-.96.46-.1.05-.2.1-.31.14-.29.13-.59.26-.89.37-.03,0-.05.02-.08.03-.22.09-.44.17-.66.25-.25.09-.51.18-.77.26-.23.07-.45.14-.68.2-.07.03-.15.05-.22.07-.11.03-.22.06-.33.09-.24.06-.49.12-.74.18-.16.04-.31.07-.47.1-.35.08-.7.15-1.05.21-.17.03-.34.06-.51.09-.18.02-.35.05-.52.07-.05,0-.09,0-.14.02h-.03c-.22.03-.44.06-.66.08-.36.04-.71.07-1.06.09h-.07c-.11,0-.21,0-.32,0-.37.02-.75.03-1.12.03h-27.38c-.42,0-.84,0-1.24-.03-.26,0-.52-.03-.77-.06-.25,0-.5-.03-.74-.06-.37-.03-.73-.08-1.08-.13-.23-.04-.46-.08-.68-.12-.31-.05-.62-.11-.92-.18-.32-.06-.64-.14-.94-.22-.08-.02-.16-.04-.24-.06-.23-.06-.46-.13-.68-.19-.03,0-.06-.02-.09-.03-.16-.05-.33-.1-.5-.15-.16-.06-.32-.11-.49-.17,0,0-.02,0-.03,0-.33-.11-.66-.23-.98-.36-.04,0-.07-.03-.11-.04-.05-.02-.09-.04-.14-.06-.26-.1-.51-.21-.77-.32-.6-.26-1.17-.54-1.75-.85-.29-.15-.57-.31-.85-.47-.28-.16-.56-.33-.83-.5h0c-.25-.16-.5-.32-.75-.49-.59-.4-1.16-.83-1.73-1.28-.17-.14-.35-.27-.51-.42-.02,0-.03-.03-.05-.04-.05-.04-.11-.09-.16-.14l-.02-.02c-.21-.17-.41-.35-.61-.54-.62-.56-1.2-1.15-1.77-1.78-.2-.22-.39-.45-.58-.68h0s-.07-.09-.1-.13c-.29-.34-.56-.69-.83-1.04,0-.02-.02-.03-.04-.05-.23-.31-.45-.63-.67-.94-.24-.35-.47-.71-.69-1.06-.22-.36-.43-.72-.63-1.08,0,0,0-.02-.02-.03-.19-.37-.38-.73-.56-1.1-.16-.31-.3-.63-.44-.95-.05-.11-.1-.21-.14-.32-.13-.31-.26-.63-.37-.93-.15-.39-.28-.78-.41-1.17-.05-.15-.1-.31-.15-.47,0-.02,0-.03,0-.05-.07-.24-.14-.49-.21-.73,0-.05-.03-.11-.04-.16-.11-.42-.21-.84-.29-1.26-.07-.32-.13-.64-.18-.96-.02-.08-.03-.15-.04-.23-.03-.16-.05-.33-.07-.5h0s0-.06,0-.08c-.04-.27-.07-.52-.1-.8,0,0,0-.03,0-.05,0-.04,0-.07,0-.11,0-.03,0-.05,0-.08-.02-.16-.03-.32-.04-.48v-.04s0-.11,0-.16c0-.03,0-.05,0-.08,0-.08-.02-.16-.02-.24,0-.07,0-.15,0-.24,0-.03,0-.07,0-.1,0-.37-.02-.74-.02-1.1v-88.48c0-.37,0-.74.02-1.1,0-.03,0-.07,0-.1,0-.09,0-.17,0-.24,0-.08,0-.16.02-.24,0-.03,0-.05,0-.08,0-.05,0-.11,0-.16v-.04c0-.16.02-.32.04-.48,0-.03,0-.05,0-.08,0-.04,0-.07,0-.11,0-.02,0-.04,0-.05.03-.28.06-.53.1-.8,0-.02,0-.05,0-.07h0c.02-.18.04-.35.07-.51,0-.08.02-.15.04-.23.05-.33.11-.65.18-.96.07-.39.16-.77.26-1.13,0-.03,0-.05.02-.08.02-.07.03-.13.05-.2.06-.25.13-.5.21-.74,0-.02,0-.03,0-.05.05-.16.1-.32.15-.47.13-.4.26-.79.41-1.17.12-.32.24-.63.37-.93.04-.11.09-.21.14-.32.14-.33.28-.65.44-.95.18-.38.37-.74.56-1.1,0,0,0-.02.02-.03.2-.37.41-.73.63-1.08.22-.36.45-.72.69-1.06.22-.32.44-.64.67-.94.02-.02.03-.03.04-.05.27-.36.54-.71.83-1.04.03-.04.06-.08.1-.12h0c.19-.24.38-.47.58-.69.57-.63,1.15-1.22,1.77-1.78.2-.19.4-.37.61-.54t.02-.02s.11-.1.16-.14c.02,0,.03-.03.05-.04.16-.15.34-.28.51-.42.19-.15.37-.3.57-.45.12-.09.24-.18.36-.26.05-.03.09-.07.14-.11.22-.16.45-.32.67-.47.25-.17.5-.33.75-.49h0c.27-.17.55-.34.83-.5.28-.16.56-.32.85-.47.58-.31,1.15-.59,1.75-.85.26-.11.51-.22.77-.32.05-.02.09-.04.14-.06.04,0,.07-.03.11-.04.33-.13.66-.25.98-.36,0,0,.02,0,.03,0,.17-.06.33-.11.49-.17.17-.05.34-.1.5-.15.03,0,.06-.02.09-.03.22-.06.45-.13.68-.19.08-.02.16-.04.24-.06.31-.08.63-.16.94-.22.31-.07.62-.13.92-.18.22-.04.45-.08.68-.12.36-.05.72-.1,1.08-.13.24-.03.49-.05.74-.06.25-.03.51-.05.77-.06.41-.02.83-.03,1.24-.03h27.38c.38,0,.76,0,1.12.03.11,0,.21,0,.32,0h.07c.36.02.71.05,1.06.09.22.02.44.05.66.08h.03s.09,0,.14.02c.17.02.34.05.52.07.17.03.34.06.51.09.36.06.71.13,1.05.21.16.03.31.06.47.1.05,0,.09.02.14.03.2.05.39.1.58.14t.02,0c.11.03.22.06.33.09.07.02.15.04.22.07.23.06.45.13.68.2.26.08.52.17.77.26.22.08.44.16.66.25.03,0,.05.02.08.03.31.11.61.24.89.37.11.04.21.09.31.14.33.14.65.29.96.46.2.09.4.19.59.3.2.1.39.21.58.32.03.02.07.03.1.05.18.09.35.19.52.3.03.02.06.04.09.06.07.04.14.08.21.13.28.17.56.34.83.53.09.06.18.12.27.19.24.15.47.32.7.5.09.06.18.12.27.2.27.2.54.41.8.62l.18.15c.2.16.39.33.58.5.18.15.35.31.51.47.15.13.3.27.44.42.11.1.22.21.32.32.02.02.05.04.07.07.15.14.3.3.43.45.03.03.06.07.09.1.13.13.25.27.37.4.23.24.44.49.65.75.2.24.4.49.58.74.19.25.38.5.56.76,0,0,.02.03.03.04.12.15.23.32.34.48.02.03.05.07.07.1.19.28.37.57.55.86.15.23.29.47.42.72.15.24.28.48.4.72.02.03.03.06.05.09.15.27.28.54.41.81.13.27.26.53.37.81.03.06.06.13.08.19.09.18.17.37.24.57.15.34.28.68.4,1.02.08.22.15.43.22.65h0c.08.23.14.44.2.65.02.05.04.1.05.15.02.07.04.14.05.21.08.24.14.47.2.72,0,0,0,.03,0,.04.07.26.13.52.18.79,0,.04,0,.07.02.11.03.08.05.17.06.26.05.23.1.46.13.7.02.11.04.22.06.34.02.11.04.22.05.34,0,.09.03.18.04.27.03.24.06.48.08.73.03.21.05.43.06.65,0,.05,0,.1.02.15.02.17.03.34.04.51,0,.08,0,.16,0,.24.02.41.03.82.03,1.23Z"/>
    <path class="cls-6" d="M809.14,650.43c-2.75,1.37-30.35,3.7-35.07,15.34s-9.83,57.1-10.77,47.63c-.3-8.43-.7-40.28-.7-40.28,0-14.36,11.74-26.1,26.1-26.1l19.56.03c.08,0,3.64,2.02.88,3.39Z"/>
    <path class="cls-8" d="M783.59,772.24c2.75-1.37,30.35-3.7,35.07-15.34s9.83-57.1,10.77-47.63c.3,8.43.7,40.28.7,40.28,0,14.36-11.74,26.1-26.1,26.1l-19.56-.03c-.08,0-3.64-2.02-.88-3.39Z"/>
  </g>
</svg>
  <path d="M678.34 191.34L678.34 178.76L720.07 178.76Q752.04 178.76 752.04 203.47Q752.04 217.09 738.42 224.19Q747.16 226.41 752.11 232.33Q757.07 238.25 757.07 247.73Q757.07 262.08 747.38 269.63Q737.68 277.18 719.18 277.18L677.60 277.18L677.60 265.19L682.48 264.75Q686.77 264.30 686.77 260.60L686.77 191.78L678.34 191.34M719.48 232.33L704.83 232.33L704.83 263.27L718.74 263.27Q737.98 263.27 737.98 247.58Q737.98 240.18 733.17 236.26Q728.36 232.33 719.48 232.33M716.82 192.37L704.83 192.37L704.83 219.16L715.78 219.16Q724.96 219.16 729.32 215.39Q733.69 211.61 733.69 204.81Q733.69 198 729.32 195.19Q724.96 192.37 716.82 192.37M800.58 266.37Q816.72 266.37 816.72 240.33Q816.72 227.15 813.09 220.35Q809.46 213.54 800.95 213.54Q792.44 213.54 788.45 220.05Q784.45 226.56 784.45 237.81Q784.45 258.68 792.15 264Q795.55 266.37 800.58 266.37M766.54 239.88Q766.54 228.93 769.80 220.86Q773.06 212.80 778.53 208.51Q789.04 200.51 801.77 200.51Q810.65 200.51 816.79 203.40Q822.93 206.29 826.41 210.06Q829.89 213.83 832.33 221.01Q834.77 228.19 834.77 237.96Q834.77 258.38 824.86 268.89Q814.94 279.40 799.47 279.40Q784.01 279.40 775.28 269.41Q766.54 259.42 766.54 239.88M850.02 215.17L843.80 214.72L843.80 202.73L868.81 202.73L868.81 212.35Q877.10 200.51 891.53 200.51Q905.96 200.51 910.99 212.35Q919.28 200.51 933.49 200.51Q944.14 200.51 949.92 206.95Q955.69 213.39 955.69 226.27L955.69 264.89L964.12 265.34L964.12 277.18L928.90 277.18L928.90 265.93L933.78 265.49Q936 265.19 936.97 264.23Q937.93 263.27 938.08 260.75L938.08 230.11Q938.08 221.97 936.23 218.05Q934.38 214.13 927.57 214.13Q920.76 214.13 917.13 218.27Q913.51 222.42 913.51 229.37L913.51 264.89L921.65 265.34L921.65 277.18L886.72 277.18L886.72 265.93L891.60 265.49Q893.82 265.19 894.86 264.23Q895.90 263.27 895.90 260.60L895.90 230.11Q895.90 221.97 894.05 218.05Q892.20 214.13 885.31 214.13Q878.43 214.13 874.88 218.42Q871.33 222.71 871.33 229.08L871.33 264.89L879.32 265.34L879.32 277.18L844.39 277.18L844.39 265.93L849.28 265.49Q851.50 265.19 852.53 264.23Q853.57 263.27 853.57 260.60L853.72 260.60L853.72 219.75Q853.72 217.24 852.90 216.28Q852.09 215.31 850.02 215.17M979.37 272.74L979.37 187.79Q979.37 184.38 975.67 184.23L970.49 183.94L970.49 171.65L996.54 171.65L996.54 206.73Q1003.20 200.51 1014.44 200.51Q1028.36 200.51 1036.50 209.91Q1044.64 219.31 1044.64 236.33Q1044.64 279.10 1008.82 279.10Q1001.12 279.10 992.61 277.25Q984.10 275.40 979.37 272.74M996.54 224.79L996.54 263.12Q1002.16 266.08 1009.56 266.08Q1026.43 266.08 1026.43 238.70Q1026.43 213.69 1009.86 213.69Q1004.53 213.69 1000.53 216.79Q996.54 219.90 996.54 224.79M1080.01 196.37L1099.84 256.01L1100.58 256.01L1121.30 191.93L1112.27 191.34L1112.27 178.76L1146.31 178.76L1146.31 190.75L1141.43 191.19Q1139.50 191.34 1138.62 192.30Q1137.73 193.26 1136.84 195.63L1108.87 277.18L1089.63 277.18L1059.44 191.78L1051 191.34L1051 178.76L1089.18 178.76L1089.18 190.75L1084.30 191.19Q1079.71 191.49 1079.71 194.74Q1079.71 195.48 1080.01 196.37M1218.39 205.69L1218.39 260.75Q1218.39 263.12 1219.20 264Q1220.02 264.89 1222.09 265.04L1226.82 265.34L1226.82 277.18L1203.29 277.18L1203.29 268.59L1202.85 268.45Q1195.45 279.10 1182.57 279.10Q1167.48 279.10 1160.22 269.48Q1152.97 259.86 1152.97 243.14Q1152.97 223.01 1162.74 211.76Q1172.51 200.51 1192.04 200.51Q1204.62 200.51 1218.39 205.69M1201.22 253.65L1201.22 215.31Q1197.08 213.39 1189.82 213.39Q1179.91 213.39 1175.47 221.38Q1171.03 229.37 1171.03 242.55Q1171.03 266.52 1186.42 266.52Q1192.93 266.52 1197.08 262.60Q1201.22 258.68 1201.22 253.65M1306.15 265.04L1311.33 265.49L1311.33 277.18L1287.36 277.18L1287.36 267.56Q1279.22 279.10 1263.38 279.10Q1240.44 279.10 1240.44 253.50L1240.44 219.31Q1240.44 215.31 1236.74 215.17L1232 214.87L1232 202.73L1258.05 202.73L1258.05 249.65Q1258.05 257.49 1260.27 261.49Q1262.49 265.49 1269.45 265.49Q1276.40 265.49 1280.62 261.19Q1284.84 256.90 1284.84 250.83L1284.84 219.61Q1284.84 217.24 1284.03 216.28Q1283.21 215.31 1281.14 215.17L1276.40 214.87L1276.40 202.73L1302.45 202.73L1302.45 260.75Q1302.45 263.12 1303.19 263.93Q1303.93 264.75 1306.15 265.04M1320.36 171.65L1346.85 171.65L1346.85 264.89L1355.29 265.34L1355.29 277.18L1320.06 277.18L1320.06 265.93L1324.95 265.49Q1329.24 265.04 1329.24 260.75L1329.24 187.79Q1329.24 184.53 1325.54 184.23L1320.36 183.94L1320.36 171.65M1377.93 187.05L1387.55 187.05L1387.55 202.73L1407.24 202.73L1405.76 215.17L1387.55 215.17L1387.55 254.09Q1387.55 260.60 1389.92 263.19Q1392.29 265.78 1397.25 265.78Q1402.20 265.78 1407.24 262.67L1411.68 274.07Q1404.28 279.25 1392.88 279.25Q1386.22 279.25 1381.63 277.55Q1377.04 275.85 1374.82 273.77Q1372.60 271.70 1371.42 267.71Q1370.24 263.71 1370.09 261.42Q1369.94 259.12 1369.94 254.68L1369.94 215.17L1359.43 215.17L1360.91 204.36Q1367.87 203.77 1371.42 199.40Q1374.97 195.04 1377.93 187.05" fill="#242626"/>
  <path d="M702.49 367.18Q702.49 370.56 701.42 373.34Q700.35 376.11 698.39 378.08Q696.44 380.06 693.70 381.14Q690.96 382.22 687.64 382.22L676.41 382.22L676.41 352.13L687.64 352.13Q690.96 352.13 693.70 353.21Q696.44 354.29 698.39 356.27Q700.35 358.26 701.42 361.03Q702.49 363.80 702.49 367.18M698.31 367.18Q698.31 364.41 697.55 362.23Q696.80 360.04 695.41 358.53Q694.03 357.02 692.05 356.22Q690.08 355.42 687.64 355.42L680.48 355.42L680.48 378.92L687.64 378.92Q690.08 378.92 692.05 378.12Q694.03 377.33 695.41 375.82Q696.80 374.32 697.55 372.14Q698.31 369.96 698.31 367.18M710.76 361.98L711.01 365.21Q712.02 363.03 713.49 361.80Q714.96 360.57 717.08 360.57Q717.76 360.57 718.37 360.72Q718.99 360.86 719.48 361.18L719.20 363.97Q719.08 364.50 718.57 364.50Q718.28 364.50 717.71 364.37Q717.15 364.24 716.43 364.24Q715.42 364.24 714.64 364.54Q713.85 364.83 713.23 365.41Q712.61 365.99 712.12 366.84Q711.62 367.69 711.22 368.78L711.22 382.22L707.47 382.22L707.47 360.95L709.61 360.95Q710.22 360.95 710.45 361.18Q710.68 361.41 710.76 361.98M731.72 360.61Q734.05 360.61 735.92 361.39Q737.79 362.16 739.11 363.59Q740.44 365.02 741.14 367.05Q741.84 369.07 741.84 371.57Q741.84 374.09 741.14 376.11Q740.44 378.12 739.11 379.55Q737.79 380.98 735.92 381.75Q734.05 382.51 731.72 382.51Q729.37 382.51 727.49 381.75Q725.61 380.98 724.29 379.55Q722.96 378.12 722.26 376.11Q721.56 374.09 721.56 371.57Q721.56 369.07 722.26 367.05Q722.96 365.02 724.29 363.59Q725.61 362.16 727.49 361.39Q729.37 360.61 731.72 360.61M731.72 379.59Q734.87 379.59 736.42 377.48Q737.98 375.37 737.98 371.59Q737.98 367.79 736.42 365.67Q734.87 363.55 731.72 363.55Q730.12 363.55 728.94 364.10Q727.75 364.64 726.96 365.67Q726.18 366.70 725.79 368.20Q725.40 369.70 725.40 371.59Q725.40 375.37 726.96 377.48Q728.53 379.59 731.72 379.59M750.33 366.81L750.33 377.10Q751.36 378.48 752.57 379.05Q753.79 379.62 755.30 379.62Q758.29 379.62 759.88 377.49Q761.48 375.37 761.48 371.45Q761.48 369.37 761.11 367.88Q760.74 366.39 760.05 365.43Q759.36 364.47 758.35 364.03Q757.34 363.59 756.06 363.59Q754.23 363.59 752.86 364.43Q751.48 365.27 750.33 366.81M749.80 361.72L750.14 364.24Q751.48 362.58 753.25 361.58Q755.01 360.57 757.28 360.57Q759.13 360.57 760.62 361.27Q762.11 361.98 763.16 363.35Q764.21 364.73 764.77 366.76Q765.34 368.80 765.34 371.45Q765.34 373.80 764.71 375.82Q764.08 377.85 762.89 379.33Q761.71 380.81 760 381.66Q758.29 382.51 756.14 382.51Q754.19 382.51 752.79 381.85Q751.40 381.19 750.33 380.01L750.33 389.42L746.57 389.42L746.57 360.95L748.81 360.95Q749.61 360.95 749.80 361.72M792.39 377.05L792.39 372.64Q789.81 372.73 787.99 373.05Q786.17 373.38 785.03 373.90Q783.88 374.43 783.37 375.14Q782.86 375.86 782.86 376.74Q782.86 377.58 783.13 378.19Q783.40 378.80 783.87 379.18Q784.35 379.57 784.99 379.75Q785.63 379.93 786.36 379.93Q787.35 379.93 788.17 379.73Q788.99 379.53 789.71 379.15Q790.44 378.78 791.10 378.25Q791.76 377.73 792.39 377.05M780.99 365.15L780.31 363.95Q782.08 362.25 784.12 361.41Q786.15 360.57 788.63 360.57Q790.42 360.57 791.80 361.16Q793.19 361.74 794.13 362.79Q795.08 363.84 795.56 365.34Q796.04 366.83 796.04 368.61L796.04 382.22L794.38 382.22Q793.84 382.22 793.54 382.04Q793.25 381.86 793.08 381.34L792.66 379.32Q791.82 380.10 791.02 380.70Q790.23 381.30 789.34 381.70Q788.46 382.11 787.46 382.33Q786.47 382.56 785.25 382.56Q784.01 382.56 782.92 382.21Q781.83 381.86 781.02 381.17Q780.21 380.48 779.74 379.42Q779.26 378.36 779.26 376.91Q779.26 375.65 779.96 374.48Q780.65 373.32 782.20 372.41Q783.76 371.51 786.26 370.93Q788.76 370.35 792.39 370.27L792.39 368.61Q792.39 366.13 791.32 364.86Q790.25 363.59 788.19 363.59Q786.80 363.59 785.87 363.94Q784.93 364.29 784.25 364.72Q783.57 365.15 783.08 365.49Q782.58 365.84 782.10 365.84Q781.72 365.84 781.45 365.64Q781.18 365.44 780.99 365.15M816.25 366.81L816.25 377.10Q817.27 378.48 818.50 379.05Q819.73 379.62 821.20 379.62Q824.20 379.62 825.80 377.49Q827.40 375.37 827.40 371.17Q827.40 367.27 825.98 365.43Q824.56 363.59 821.94 363.59Q820.11 363.59 818.75 364.43Q817.40 365.27 816.25 366.81M816.25 351.29L816.25 364.01Q817.59 362.46 819.28 361.53Q820.97 360.61 823.18 360.61Q825.04 360.61 826.55 361.32Q828.05 362.04 829.10 363.39Q830.15 364.75 830.70 366.68Q831.26 368.61 831.26 371.03Q831.26 373.61 830.63 375.73Q830 377.85 828.81 379.35Q827.63 380.85 825.93 381.68Q824.23 382.51 822.10 382.51Q820 382.51 818.57 381.73Q817.13 380.94 816.06 379.49L815.87 381.42Q815.70 382.22 814.90 382.22L812.49 382.22L812.49 351.29L816.25 351.29M847.54 377.05L847.54 372.64Q844.95 372.73 843.14 373.05Q841.32 373.38 840.17 373.90Q839.03 374.43 838.52 375.14Q838 375.86 838 376.74Q838 377.58 838.27 378.19Q838.55 378.80 839.02 379.18Q839.49 379.57 840.13 379.75Q840.77 379.93 841.51 379.93Q842.50 379.93 843.31 379.73Q844.13 379.53 844.86 379.15Q845.58 378.78 846.24 378.25Q846.91 377.73 847.54 377.05M836.13 365.15L835.46 363.95Q837.22 362.25 839.26 361.41Q841.30 360.57 843.78 360.57Q845.56 360.57 846.95 361.16Q848.33 361.74 849.28 362.79Q850.22 363.84 850.71 365.34Q851.19 366.83 851.19 368.61L851.19 382.22L849.53 382.22Q848.98 382.22 848.69 382.04Q848.40 381.86 848.23 381.34L847.81 379.32Q846.97 380.10 846.17 380.70Q845.37 381.30 844.49 381.70Q843.61 382.11 842.61 382.33Q841.61 382.56 840.40 382.56Q839.16 382.56 838.06 382.21Q836.97 381.86 836.16 381.17Q835.36 380.48 834.88 379.42Q834.41 378.36 834.41 376.91Q834.41 375.65 835.10 374.48Q835.80 373.32 837.35 372.41Q838.90 371.51 841.40 370.93Q843.90 370.35 847.54 370.27L847.54 368.61Q847.54 366.13 846.46 364.86Q845.39 363.59 843.34 363.59Q841.95 363.59 841.01 363.94Q840.08 364.29 839.40 364.72Q838.72 365.15 838.22 365.49Q837.73 365.84 837.25 365.84Q836.87 365.84 836.59 365.64Q836.32 365.44 836.13 365.15M872.67 363.38L871.69 364.73Q871.52 364.96 871.35 365.08Q871.18 365.21 870.89 365.21Q870.57 365.21 870.19 364.95Q869.82 364.68 869.26 364.37Q868.70 364.05 867.89 363.79Q867.09 363.53 865.91 363.53Q864.34 363.53 863.14 364.09Q861.94 364.64 861.13 365.69Q860.32 366.74 859.91 368.23Q859.51 369.72 859.51 371.57Q859.51 373.50 859.95 375.01Q860.39 376.51 861.20 377.53Q862 378.54 863.15 379.08Q864.29 379.62 865.72 379.62Q867.09 379.62 867.97 379.29Q868.85 378.96 869.43 378.57Q870.01 378.17 870.39 377.84Q870.78 377.52 871.16 377.52Q871.62 377.52 871.87 377.87L872.92 379.24Q872.23 380.10 871.35 380.71Q870.47 381.32 869.45 381.73Q868.43 382.14 867.32 382.32Q866.20 382.51 865.05 382.51Q863.05 382.51 861.34 381.78Q859.63 381.04 858.37 379.65Q857.11 378.25 856.40 376.21Q855.68 374.18 855.68 371.57Q855.68 369.20 856.34 367.18Q857.01 365.17 858.28 363.71Q859.55 362.25 861.41 361.43Q863.26 360.61 865.68 360.61Q867.93 360.61 869.64 361.33Q871.35 362.06 872.67 363.38M876.94 351.29L880.69 351.29L880.69 369.49L881.66 369.49Q882.08 369.49 882.36 369.38Q882.65 369.26 882.96 368.91L889.68 361.70Q889.98 361.35 890.30 361.15Q890.63 360.95 891.17 360.95L894.55 360.95L886.72 369.28Q886.15 370 885.50 370.40Q885.88 370.65 886.19 370.97Q886.49 371.30 886.76 371.72L895.08 382.22L891.74 382.22Q891.26 382.22 890.91 382.06Q890.56 381.90 890.31 381.48L883.32 372.77Q883 372.33 882.70 372.19Q882.40 372.06 881.77 372.06L880.69 372.06L880.69 382.22L876.94 382.22L876.94 351.29M912.03 360.95L915.76 360.95L915.76 382.22L913.54 382.22Q912.74 382.22 912.53 381.44L912.24 379.15Q910.85 380.69 909.13 381.62Q907.41 382.56 905.18 382.56Q903.44 382.56 902.10 381.98Q900.77 381.40 899.87 380.35Q898.96 379.30 898.51 377.81Q898.06 376.32 898.06 374.51L898.06 360.95L901.80 360.95L901.80 374.51Q901.80 376.93 902.90 378.25Q904 379.57 906.27 379.57Q907.93 379.57 909.37 378.79Q910.81 378 912.03 376.61L912.03 360.95M925.45 366.81L925.45 377.10Q926.47 378.48 927.69 379.05Q928.91 379.62 930.42 379.62Q933.40 379.62 935 377.49Q936.60 375.37 936.60 371.45Q936.60 369.37 936.23 367.88Q935.86 366.39 935.17 365.43Q934.48 364.47 933.47 364.03Q932.46 363.59 931.18 363.59Q929.35 363.59 927.98 364.43Q926.60 365.27 925.45 366.81M924.92 361.72L925.26 364.24Q926.60 362.58 928.36 361.58Q930.13 360.57 932.40 360.57Q934.24 360.57 935.74 361.27Q937.23 361.98 938.28 363.35Q939.33 364.73 939.89 366.76Q940.46 368.80 940.46 371.45Q940.46 373.80 939.83 375.82Q939.20 377.85 938.01 379.33Q936.83 380.81 935.12 381.66Q933.40 382.51 931.26 382.51Q929.31 382.51 927.91 381.85Q926.52 381.19 925.45 380.01L925.45 389.42L921.69 389.42L921.69 360.95L923.93 360.95Q924.73 360.95 924.92 361.72M944.60 379.91Q944.60 379.36 944.80 378.88Q945 378.40 945.34 378.04Q945.69 377.68 946.17 377.47Q946.66 377.26 947.20 377.26Q947.75 377.26 948.23 377.47Q948.71 377.68 949.07 378.04Q949.43 378.40 949.64 378.88Q949.85 379.36 949.85 379.91Q949.85 380.48 949.64 380.95Q949.43 381.42 949.07 381.78Q948.71 382.14 948.23 382.33Q947.75 382.53 947.20 382.53Q946.66 382.53 946.17 382.33Q945.69 382.14 945.34 381.78Q945 381.42 944.80 380.95Q944.60 380.48 944.60 379.91M992.86 367.18Q992.86 370.56 991.78 373.34Q990.71 376.11 988.76 378.08Q986.81 380.06 984.07 381.14Q981.33 382.22 978.01 382.22L966.77 382.22L966.77 352.13L978.01 352.13Q981.33 352.13 984.07 353.21Q986.81 354.29 988.76 356.27Q990.71 358.26 991.78 361.03Q992.86 363.80 992.86 367.18M988.68 367.18Q988.68 364.41 987.92 362.23Q987.16 360.04 985.78 358.53Q984.39 357.02 982.42 356.22Q980.44 355.42 978.01 355.42L970.85 355.42L970.85 378.92L978.01 378.92Q980.44 378.92 982.42 378.12Q984.39 377.33 985.78 375.82Q987.16 374.32 987.92 372.14Q988.68 369.96 988.68 367.18M1000.44 369.26L1012.07 369.26Q1012.07 367.96 1011.70 366.88Q1011.34 365.80 1010.63 365.01Q1009.93 364.22 1008.92 363.79Q1007.91 363.36 1006.63 363.36Q1003.94 363.36 1002.38 364.93Q1000.81 366.49 1000.44 369.26M1014.04 377.87L1015.09 379.24Q1014.40 380.08 1013.44 380.70Q1012.47 381.32 1011.37 381.72Q1010.26 382.11 1009.09 382.31Q1007.91 382.51 1006.76 382.51Q1004.55 382.51 1002.69 381.77Q1000.84 381.02 999.48 379.58Q998.13 378.15 997.37 376.02Q996.61 373.90 996.61 371.15Q996.61 368.93 997.30 366.99Q997.98 365.06 999.26 363.64Q1000.54 362.23 1002.39 361.42Q1004.24 360.61 1006.55 360.61Q1008.46 360.61 1010.09 361.25Q1011.71 361.89 1012.90 363.10Q1014.09 364.31 1014.76 366.08Q1015.43 367.86 1015.43 370.12Q1015.43 371.01 1015.24 371.30Q1015.05 371.59 1014.53 371.59L1000.31 371.59Q1000.37 373.61 1000.87 375.10Q1001.36 376.59 1002.24 377.59Q1003.12 378.59 1004.34 379.08Q1005.56 379.57 1007.07 379.57Q1008.48 379.57 1009.50 379.25Q1010.52 378.92 1011.25 378.54Q1011.99 378.17 1012.48 377.84Q1012.97 377.52 1013.33 377.52Q1013.79 377.52 1014.04 377.87M1026.54 382.56Q1024.02 382.56 1022.66 381.15Q1021.31 379.74 1021.31 377.10L1021.31 364.08L1018.75 364.08Q1018.41 364.08 1018.18 363.88Q1017.95 363.68 1017.95 363.26L1017.95 361.77L1021.44 361.32L1022.30 354.75Q1022.36 354.44 1022.58 354.24Q1022.80 354.04 1023.16 354.04L1025.05 354.04L1025.05 361.37L1031.20 361.37L1031.20 364.08L1025.05 364.08L1025.05 376.84Q1025.05 378.19 1025.70 378.84Q1026.35 379.49 1027.38 379.49Q1027.97 379.49 1028.40 379.33Q1028.83 379.17 1029.14 378.99Q1029.46 378.80 1029.68 378.64Q1029.90 378.48 1030.07 378.48Q1030.36 378.48 1030.59 378.84L1031.68 380.62Q1030.72 381.53 1029.35 382.04Q1027.99 382.56 1026.54 382.56M1044.03 360.61Q1046.36 360.61 1048.23 361.39Q1050.10 362.16 1051.42 363.59Q1052.75 365.02 1053.45 367.05Q1054.15 369.07 1054.15 371.57Q1054.15 374.09 1053.45 376.11Q1052.75 378.12 1051.42 379.55Q1050.10 380.98 1048.23 381.75Q1046.36 382.51 1044.03 382.51Q1041.68 382.51 1039.80 381.75Q1037.92 380.98 1036.60 379.55Q1035.28 378.12 1034.57 376.11Q1033.87 374.09 1033.87 371.57Q1033.87 369.07 1034.57 367.05Q1035.28 365.02 1036.60 363.59Q1037.92 362.16 1039.80 361.39Q1041.68 360.61 1044.03 360.61M1044.03 379.59Q1047.18 379.59 1048.74 377.48Q1050.29 375.37 1050.29 371.59Q1050.29 367.79 1048.74 365.67Q1047.18 363.55 1044.03 363.55Q1042.44 363.55 1041.25 364.10Q1040.06 364.64 1039.28 365.67Q1038.49 366.70 1038.10 368.20Q1037.71 369.70 1037.71 371.59Q1037.71 375.37 1039.28 377.48Q1040.84 379.59 1044.03 379.59M1062.11 361.72L1062.41 364.03Q1063.10 363.26 1063.88 362.63Q1064.65 362 1065.53 361.54Q1066.40 361.09 1067.37 360.85Q1068.35 360.61 1069.48 360.61Q1071.23 360.61 1072.56 361.19Q1073.89 361.77 1074.79 362.83Q1075.68 363.89 1076.14 365.38Q1076.60 366.87 1076.60 368.67L1076.60 382.22L1072.84 382.22L1072.84 368.67Q1072.84 366.26 1071.74 364.93Q1070.64 363.59 1068.39 363.59Q1066.73 363.59 1065.29 364.39Q1063.86 365.19 1062.64 366.55L1062.64 382.22L1058.88 382.22L1058.88 360.95L1061.13 360.95Q1061.92 360.95 1062.11 361.72M1093.84 377.05L1093.84 372.64Q1091.26 372.73 1089.44 373.05Q1087.63 373.38 1086.48 373.90Q1085.34 374.43 1084.82 375.14Q1084.31 375.86 1084.31 376.74Q1084.31 377.58 1084.58 378.19Q1084.86 378.80 1085.33 379.18Q1085.80 379.57 1086.44 379.75Q1087.08 379.93 1087.82 379.93Q1088.80 379.93 1089.62 379.73Q1090.44 379.53 1091.17 379.15Q1091.89 378.78 1092.55 378.25Q1093.21 377.73 1093.84 377.05M1082.44 365.15L1081.77 363.95Q1083.53 362.25 1085.57 361.41Q1087.61 360.57 1090.09 360.57Q1091.87 360.57 1093.26 361.16Q1094.64 361.74 1095.59 362.79Q1096.53 363.84 1097.02 365.34Q1097.50 366.83 1097.50 368.61L1097.50 382.22L1095.84 382.22Q1095.29 382.22 1095 382.04Q1094.71 381.86 1094.54 381.34L1094.12 379.32Q1093.28 380.10 1092.48 380.70Q1091.68 381.30 1090.80 381.70Q1089.92 382.11 1088.92 382.33Q1087.92 382.56 1086.70 382.56Q1085.47 382.56 1084.37 382.21Q1083.28 381.86 1082.47 381.17Q1081.66 380.48 1081.19 379.42Q1080.72 378.36 1080.72 376.91Q1080.72 375.65 1081.41 374.48Q1082.11 373.32 1083.66 372.41Q1085.21 371.51 1087.71 370.93Q1090.21 370.35 1093.84 370.27L1093.84 368.61Q1093.84 366.13 1092.77 364.86Q1091.70 363.59 1089.64 363.59Q1088.26 363.59 1087.32 363.94Q1086.39 364.29 1085.71 364.72Q1085.02 365.15 1084.53 365.49Q1084.04 365.84 1083.55 365.84Q1083.18 365.84 1082.90 365.64Q1082.63 365.44 1082.44 365.15M1109.72 382.56Q1107.20 382.56 1105.85 381.15Q1104.49 379.74 1104.49 377.10L1104.49 364.08L1101.93 364.08Q1101.59 364.08 1101.36 363.88Q1101.13 363.68 1101.13 363.26L1101.13 361.77L1104.62 361.32L1105.48 354.75Q1105.54 354.44 1105.76 354.24Q1105.98 354.04 1106.34 354.04L1108.23 354.04L1108.23 361.37L1114.38 361.37L1114.38 364.08L1108.23 364.08L1108.23 376.84Q1108.23 378.19 1108.88 378.84Q1109.53 379.49 1110.56 379.49Q1111.15 379.49 1111.58 379.33Q1112.01 379.17 1112.32 378.99Q1112.64 378.80 1112.86 378.64Q1113.08 378.48 1113.25 378.48Q1113.54 378.48 1113.77 378.84L1114.87 380.62Q1113.90 381.53 1112.53 382.04Q1111.17 382.56 1109.72 382.56M1120.85 369.26L1132.48 369.26Q1132.48 367.96 1132.12 366.88Q1131.75 365.80 1131.05 365.01Q1130.34 364.22 1129.33 363.79Q1128.33 363.36 1127.05 363.36Q1124.36 363.36 1122.79 364.93Q1121.23 366.49 1120.85 369.26M1134.46 377.87L1135.51 379.24Q1134.82 380.08 1133.85 380.70Q1132.88 381.32 1131.78 381.72Q1130.68 382.11 1129.50 382.31Q1128.33 382.51 1127.17 382.51Q1124.97 382.51 1123.11 381.77Q1121.25 381.02 1119.89 379.58Q1118.54 378.15 1117.78 376.02Q1117.03 373.90 1117.03 371.15Q1117.03 368.93 1117.71 366.99Q1118.39 365.06 1119.67 363.64Q1120.96 362.23 1122.80 361.42Q1124.65 360.61 1126.96 360.61Q1128.87 360.61 1130.50 361.25Q1132.13 361.89 1133.31 363.10Q1134.50 364.31 1135.17 366.08Q1135.84 367.86 1135.84 370.12Q1135.84 371.01 1135.66 371.30Q1135.47 371.59 1134.94 371.59L1120.72 371.59Q1120.79 373.61 1121.28 375.10Q1121.77 376.59 1122.66 377.59Q1123.54 378.59 1124.76 379.08Q1125.97 379.57 1127.49 379.57Q1128.89 379.57 1129.91 379.25Q1130.93 378.92 1131.67 378.54Q1132.40 378.17 1132.89 377.84Q1133.39 377.52 1133.74 377.52Q1134.21 377.52 1134.46 377.87M1162.70 377.05L1162.70 372.64Q1160.12 372.73 1158.30 373.05Q1156.49 373.38 1155.34 373.90Q1154.20 374.43 1153.68 375.14Q1153.17 375.86 1153.17 376.74Q1153.17 377.58 1153.44 378.19Q1153.72 378.80 1154.19 379.18Q1154.66 379.57 1155.30 379.75Q1155.94 379.93 1156.68 379.93Q1157.66 379.93 1158.48 379.73Q1159.30 379.53 1160.03 379.15Q1160.75 378.78 1161.41 378.25Q1162.07 377.73 1162.70 377.05M1151.30 365.15L1150.63 363.95Q1152.39 362.25 1154.43 361.41Q1156.47 360.57 1158.94 360.57Q1160.73 360.57 1162.12 361.16Q1163.50 361.74 1164.45 362.79Q1165.39 363.84 1165.87 365.34Q1166.36 366.83 1166.36 368.61L1166.36 382.22L1164.70 382.22Q1164.15 382.22 1163.86 382.04Q1163.56 381.86 1163.40 381.34L1162.98 379.32Q1162.14 380.10 1161.34 380.70Q1160.54 381.30 1159.66 381.70Q1158.78 382.11 1157.78 382.33Q1156.78 382.56 1155.56 382.56Q1154.32 382.56 1153.23 382.21Q1152.14 381.86 1151.33 381.17Q1150.52 380.48 1150.05 379.42Q1149.58 378.36 1149.58 376.91Q1149.58 375.65 1150.27 374.48Q1150.96 373.32 1152.52 372.41Q1154.07 371.51 1156.57 370.93Q1159.07 370.35 1162.70 370.27L1162.70 368.61Q1162.70 366.13 1161.63 364.86Q1160.56 363.59 1158.50 363.59Q1157.12 363.59 1156.18 363.94Q1155.25 364.29 1154.57 364.72Q1153.88 365.15 1153.39 365.49Q1152.90 365.84 1152.41 365.84Q1152.04 365.84 1151.76 365.64Q1151.49 365.44 1151.30 365.15M1186.10 361.98L1186.35 365.21Q1187.36 363.03 1188.83 361.80Q1190.30 360.57 1192.42 360.57Q1193.09 360.57 1193.71 360.72Q1194.33 360.86 1194.81 361.18L1194.54 363.97Q1194.41 364.50 1193.91 364.50Q1193.62 364.50 1193.05 364.37Q1192.48 364.24 1191.77 364.24Q1190.76 364.24 1189.97 364.54Q1189.18 364.83 1188.56 365.41Q1187.95 365.99 1187.45 366.84Q1186.96 367.69 1186.56 368.78L1186.56 382.22L1182.80 382.22L1182.80 360.95L1184.94 360.95Q1185.55 360.95 1185.78 361.18Q1186.01 361.41 1186.10 361.98M1200.69 369.26L1212.33 369.26Q1212.33 367.96 1211.96 366.88Q1211.59 365.80 1210.89 365.01Q1210.18 364.22 1209.18 363.79Q1208.17 363.36 1206.89 363.36Q1204.20 363.36 1202.63 364.93Q1201.07 366.49 1200.69 369.26M1214.30 377.87L1215.35 379.24Q1214.66 380.08 1213.69 380.70Q1212.73 381.32 1211.62 381.72Q1210.52 382.11 1209.34 382.31Q1208.17 382.51 1207.01 382.51Q1204.81 382.51 1202.95 381.77Q1201.09 381.02 1199.74 379.58Q1198.38 378.15 1197.63 376.02Q1196.87 373.90 1196.87 371.15Q1196.87 368.93 1197.55 366.99Q1198.24 365.06 1199.52 363.64Q1200.80 362.23 1202.65 361.42Q1204.49 360.61 1206.80 360.61Q1208.71 360.61 1210.34 361.25Q1211.97 361.89 1213.16 363.10Q1214.34 364.31 1215.01 366.08Q1215.69 367.86 1215.69 370.12Q1215.69 371.01 1215.50 371.30Q1215.31 371.59 1214.78 371.59L1200.57 371.59Q1200.63 373.61 1201.12 375.10Q1201.62 376.59 1202.50 377.59Q1203.38 378.59 1204.60 379.08Q1205.82 379.57 1207.33 379.57Q1208.74 379.57 1209.75 379.25Q1210.77 378.92 1211.51 378.54Q1212.24 378.17 1212.74 377.84Q1213.23 377.52 1213.59 377.52Q1214.05 377.52 1214.30 377.87M1233.49 363.09L1232.65 364.45Q1232.40 364.92 1231.88 364.92Q1231.56 364.92 1231.16 364.68Q1230.76 364.45 1230.19 364.17Q1229.61 363.89 1228.81 363.64Q1228.01 363.40 1226.92 363.40Q1225.98 363.40 1225.22 363.64Q1224.46 363.89 1223.93 364.31Q1223.39 364.73 1223.11 365.28Q1222.83 365.84 1222.83 366.49Q1222.83 367.31 1223.30 367.86Q1223.77 368.40 1224.55 368.80Q1225.33 369.20 1226.31 369.50Q1227.30 369.81 1228.34 370.15Q1229.38 370.50 1230.37 370.92Q1231.35 371.34 1232.13 371.97Q1232.91 372.60 1233.38 373.51Q1233.85 374.43 1233.85 375.71Q1233.85 377.18 1233.33 378.43Q1232.80 379.68 1231.77 380.59Q1230.74 381.51 1229.25 382.03Q1227.76 382.56 1225.81 382.56Q1223.58 382.56 1221.78 381.83Q1219.97 381.11 1218.71 379.97L1219.59 378.54Q1219.76 378.27 1219.99 378.12Q1220.22 377.98 1220.58 377.98Q1220.96 377.98 1221.38 378.27Q1221.80 378.57 1222.40 378.92Q1222.99 379.28 1223.86 379.57Q1224.72 379.87 1226 379.87Q1227.09 379.87 1227.91 379.58Q1228.73 379.30 1229.27 378.82Q1229.82 378.33 1230.08 377.70Q1230.34 377.07 1230.34 376.36Q1230.34 375.48 1229.87 374.90Q1229.40 374.32 1228.62 373.91Q1227.85 373.50 1226.85 373.20Q1225.85 372.90 1224.81 372.56Q1223.77 372.22 1222.77 371.79Q1221.78 371.36 1221 370.71Q1220.22 370.06 1219.75 369.10Q1219.28 368.15 1219.28 366.78Q1219.28 365.57 1219.78 364.44Q1220.29 363.32 1221.25 362.47Q1222.22 361.62 1223.62 361.11Q1225.03 360.61 1226.84 360.61Q1228.94 360.61 1230.61 361.27Q1232.28 361.93 1233.49 363.09M1244.98 382.56Q1242.46 382.56 1241.11 381.15Q1239.75 379.74 1239.75 377.10L1239.75 364.08L1237.19 364.08Q1236.85 364.08 1236.62 363.88Q1236.39 363.68 1236.39 363.26L1236.39 361.77L1239.88 361.32L1240.74 354.75Q1240.80 354.44 1241.02 354.24Q1241.24 354.04 1241.60 354.04L1243.49 354.04L1243.49 361.37L1249.64 361.37L1249.64 364.08L1243.49 364.08L1243.49 376.84Q1243.49 378.19 1244.14 378.84Q1244.79 379.49 1245.82 379.49Q1246.41 379.49 1246.84 379.33Q1247.27 379.17 1247.59 378.99Q1247.90 378.80 1248.12 378.64Q1248.34 378.48 1248.51 378.48Q1248.80 378.48 1249.03 378.84L1250.13 380.62Q1249.16 381.53 1247.80 382.04Q1246.43 382.56 1244.98 382.56M1262.47 360.61Q1264.81 360.61 1266.67 361.39Q1268.54 362.16 1269.87 363.59Q1271.19 365.02 1271.89 367.05Q1272.60 369.07 1272.60 371.57Q1272.60 374.09 1271.89 376.11Q1271.19 378.12 1269.87 379.55Q1268.54 380.98 1266.67 381.75Q1264.81 382.51 1262.47 382.51Q1260.12 382.51 1258.24 381.75Q1256.36 380.98 1255.04 379.55Q1253.72 378.12 1253.01 376.11Q1252.31 374.09 1252.31 371.57Q1252.31 369.07 1253.01 367.05Q1253.72 365.02 1255.04 363.59Q1256.36 362.16 1258.24 361.39Q1260.12 360.61 1262.47 360.61M1262.47 379.59Q1265.62 379.59 1267.18 377.48Q1268.73 375.37 1268.73 371.59Q1268.73 367.79 1267.18 365.67Q1265.62 363.55 1262.47 363.55Q1260.88 363.55 1259.69 364.10Q1258.51 364.64 1257.72 365.67Q1256.93 366.70 1256.54 368.20Q1256.15 369.70 1256.15 371.59Q1256.15 375.37 1257.72 377.48Q1259.28 379.59 1262.47 379.59M1280.62 361.98L1280.87 365.21Q1281.88 363.03 1283.35 361.80Q1284.82 360.57 1286.94 360.57Q1287.61 360.57 1288.23 360.72Q1288.85 360.86 1289.33 361.18L1289.06 363.97Q1288.93 364.50 1288.43 364.50Q1288.14 364.50 1287.57 364.37Q1287 364.24 1286.29 364.24Q1285.28 364.24 1284.49 364.54Q1283.71 364.83 1283.09 365.41Q1282.47 365.99 1281.97 366.84Q1281.48 367.69 1281.08 368.78L1281.08 382.22L1277.32 382.22L1277.32 360.95L1279.46 360.95Q1280.07 360.95 1280.30 361.18Q1280.53 361.41 1280.62 361.98M1295.21 369.26L1306.85 369.26Q1306.85 367.96 1306.48 366.88Q1306.11 365.80 1305.41 365.01Q1304.71 364.22 1303.70 363.79Q1302.69 363.36 1301.41 363.36Q1298.72 363.36 1297.16 364.93Q1295.59 366.49 1295.21 369.26M1308.82 377.87L1309.87 379.24Q1309.18 380.08 1308.21 380.70Q1307.25 381.32 1306.14 381.72Q1305.04 382.11 1303.87 382.31Q1302.69 382.51 1301.53 382.51Q1299.33 382.51 1297.47 381.77Q1295.61 381.02 1294.26 379.58Q1292.90 378.15 1292.15 376.02Q1291.39 373.90 1291.39 371.15Q1291.39 368.93 1292.07 366.99Q1292.76 365.06 1294.04 363.64Q1295.32 362.23 1297.17 361.42Q1299.01 360.61 1301.32 360.61Q1303.24 360.61 1304.86 361.25Q1306.49 361.89 1307.68 363.10Q1308.86 364.31 1309.54 366.08Q1310.21 367.86 1310.21 370.12Q1310.21 371.01 1310.02 371.30Q1309.83 371.59 1309.30 371.59L1295.09 371.59Q1295.15 373.61 1295.64 375.10Q1296.14 376.59 1297.02 377.59Q1297.90 378.59 1299.12 379.08Q1300.34 379.57 1301.85 379.57Q1303.26 379.57 1304.27 379.25Q1305.29 378.92 1306.03 378.54Q1306.76 378.17 1307.26 377.84Q1307.75 377.52 1308.11 377.52Q1308.57 377.52 1308.82 377.87M1314.16 379.91Q1314.16 379.36 1314.35 378.88Q1314.55 378.40 1314.90 378.04Q1315.25 377.68 1315.73 377.47Q1316.21 377.26 1316.76 377.26Q1317.31 377.26 1317.79 377.47Q1318.27 377.68 1318.63 378.04Q1318.99 378.40 1319.20 378.88Q1319.41 379.36 1319.41 379.91Q1319.41 380.48 1319.20 380.95Q1318.99 381.42 1318.63 381.78Q1318.27 382.14 1317.79 382.33Q1317.31 382.53 1316.76 382.53Q1316.21 382.53 1315.73 382.33Q1315.25 382.14 1314.90 381.78Q1314.55 381.42 1314.35 380.95Q1314.16 380.48 1314.16 379.91" fill="#5a5d5e"/>
</svg>
