<?xml version="1.0" encoding="UTF-8"?>
<svg id="Ebene_2" data-name="Ebene 2" xmlns="http://www.w3.org/2000/svg" viewBox="0 0 914.72 886.45">
  <defs>
    <style>
      .cls-1 {
        fill: #242626;
      }

      .cls-2 {
        fill: #fff57c;
      }

      .cls-3 {
        fill: #f68e32;
      }

      .cls-4 {
        fill: #353738;
      }

      .cls-5 {
        fill: #5a5d5e;
      }

      .cls-6 {
        fill: #c6c6c6;
      }

      .cls-7 {
        fill: #242626;
      }
    </style>
  </defs>
  <g id="logo_VII">
    <g id="tresor">
      <path class="cls-4" d="M34.5,612.95v141.5h58v-141.5h-58ZM820.47,216.96c0-.08-.01-.16-.01-.24,0-.17-.02-.34-.04-.51-.01-.05-.01-.1-.02-.15-.01-.22-.03-.44-.06-.65-.02-.25-.05-.49-.08-.73-.01-.09-.03-.18-.04-.27-.01-.12-.03-.23-.05-.34-.02-.12-.04-.23-.06-.34-.03-.24-.08-.47-.13-.7-.01-.09-.03-.18-.06-.26-.01-.04-.01-.07-.02-.11-.05-.27-.11-.53-.18-.79,0-.01-.01-.03-.01-.04-.06-.25-.12-.48-.2-.72-.01-.07-.03-.14-.05-.21,0-.05-.03-.1-.05-.15-.06-.21-.12-.42-.2-.64h0c-.07-.23-.14-.44-.22-.66-.12-.35-.25-.69-.4-1.03-.07-.2-.15-.39-.24-.57-.02-.06-.05-.13-.08-.19-.11-.28-.24-.54-.37-.81-.13-.27-.26-.54-.41-.81-.02-.03-.03-.06-.05-.09-.12-.24-.25-.48-.4-.72-.13-.25-.27-.49-.42-.72-.18-.29-.36-.58-.55-.86-.02-.03-.05-.07-.07-.1-.11-.16-.22-.33-.34-.48-.01-.01-.02-.03-.03-.04-.18-.26-.37-.51-.56-.76-.18-.25-.38-.5-.58-.74-.21-.26-.42-.51-.65-.75-.12-.13-.24-.27-.37-.4-.03-.03-.06-.07-.09-.1-.13-.15-.28-.31-.43-.45-.02-.03-.05-.05-.07-.07-.1-.11-.21-.22-.32-.32-.14-.15-.29-.29-.44-.42-.16-.16-.33-.32-.51-.47-.19-.17-.38-.34-.58-.5l-.18-.15c-.26-.21-.53-.42-.8-.62-.09-.08-.18-.14-.27-.2-.23-.18-.46-.35-.7-.5-.09-.07-.18-.13-.27-.19-.27-.19-.55-.36-.83-.53-.07-.05-.14-.09-.21-.13-.03-.02-.06-.04-.09-.06-.17-.11-.34-.21-.52-.3-.03-.02-.07-.03-.1-.05-.19-.11-.38-.22-.58-.32-.19-.11-.39-.21-.59-.3-.32-.17-.64-.32-.97-.46-.1-.05-.2-.1-.31-.14-.29-.13-.59-.26-.9-.37-.03-.01-.05-.02-.08-.03-.22-.09-.44-.17-.66-.25-.25-.09-.51-.18-.77-.26-.23-.07-.45-.14-.68-.2-.07-.03-.15-.05-.22-.07-.11-.03-.22-.06-.33-.09t-.02-.01c-.19-.04-.38-.09-.58-.14-.05-.01-.09-.02-.14-.03-.16-.04-.31-.07-.47-.1-.35-.08-.7-.15-1.06-.21-.17-.03-.34-.06-.51-.09-.18-.02-.35-.05-.52-.07-.05-.01-.09-.01-.14-.02h-.03v141.08h.03s.09,0,.14-.02c.17-.02.34-.05.52-.07.17-.03.34-.06.51-.09.36-.06.71-.13,1.06-.21.16-.03.31-.06.47-.1.25-.06.5-.12.74-.18.11-.03.22-.06.33-.09.07-.02.15-.04.22-.07.23-.06.45-.13.68-.2.26-.08.52-.17.77-.26.22-.08.44-.16.66-.25.03-.01.05-.02.08-.03.31-.11.61-.24.9-.37.11-.04.21-.09.31-.14.33-.14.65-.29.97-.46.2-.09.4-.19.59-.3.2-.1.39-.21.58-.32.03-.02.07-.03.1-.05.18-.09.35-.19.52-.3.03-.02.06-.04.09-.06.07-.04.14-.08.21-.13.28-.17.56-.34.83-.53.09-.06.18-.12.27-.19.24-.15.47-.32.7-.5.09-.06.18-.12.27-.2.27-.2.54-.41.8-.62l.18-.15c.2-.16.39-.33.58-.5.18-.15.35-.31.51-.47.26-.23.51-.48.76-.74.02-.02.05-.04.07-.07.15-.14.3-.3.43-.45.03-.03.06-.07.09-.1.13-.13.25-.27.37-.4.23-.24.44-.49.65-.75.2-.24.4-.49.58-.74.19-.25.38-.5.56-.76,0-.01.02-.03.03-.04.12-.15.23-.32.34-.48.02-.03.05-.07.07-.1.19-.28.37-.57.55-.86.15-.23.29-.47.42-.72.15-.24.28-.48.4-.72.02-.03.03-.06.05-.09.15-.27.28-.54.41-.81.13-.27.26-.53.37-.81.03-.06.06-.13.08-.19.09-.18.17-.37.24-.57.15-.34.28-.68.4-1.03.08-.22.15-.43.22-.65h0c.08-.23.14-.44.2-.65.02-.05.04-.1.05-.15.02-.07.04-.14.05-.21.08-.24.14-.47.2-.72,0-.01.01-.03.01-.04.07-.26.13-.52.18-.79.01-.04.01-.07.02-.11.03-.08.05-.17.06-.26.05-.23.1-.46.13-.7.02-.11.04-.22.06-.34.02-.11.04-.22.05-.34.01-.09.03-.18.04-.27.03-.24.06-.48.08-.73.03-.21.05-.43.06-.65.01-.05.01-.09.02-.14.02-.17.03-.35.04-.53,0-.08.01-.15.01-.23.02-.41.03-.82.03-1.24v-89c0-.42-.01-.83-.03-1.24ZM853.58,158.33c-10.01-2.25-10.86-.13-11.76,2.11-.48,1.21-3.58,19.74-6.37,36.77,3.23,6.3,5.05,13.43,5.05,20.99v89c0,24.41-19,44.47-43,46.13v239.74c24,1.66,43,21.72,43,46.13v89c0,24.41-19,44.47-43,46.13v20.12c0,18.7-15.3,34-34,34H126.5c-18.7,0-34-15.3-34-34v-20h-58v60.5c0,28.33,23.18,51.5,51.5,51.5h718c28.33,0,51.5-23.17,51.5-51.5V158.79c-.64-.16-1.29-.32-1.92-.46ZM92.5,157.45c0-18.7,15.3-34,34-34h617.12c-22.7-4.1-63.98-9.43-63.98-9.43,0,0,68.48-21.77,76.32-26.96,3.63-2.4,4.49-4.09,4.69-4.71.64-1.95.27-3.21-1.59-7.74-.2-.48-.4-.97-.6-1.47l-5.58-7.69H86c-28.32,0-51.5,23.18-51.5,51.5v55h58v-14.5ZM820.47,637.96c0-.08-.01-.16-.01-.24,0-.17-.02-.34-.04-.51-.01-.05-.01-.1-.02-.15-.01-.22-.03-.44-.06-.65-.02-.25-.05-.49-.08-.73-.01-.09-.03-.18-.04-.27-.01-.12-.03-.23-.05-.34-.02-.12-.04-.23-.06-.34-.03-.24-.08-.47-.13-.7-.01-.09-.03-.18-.06-.26-.01-.04-.01-.07-.02-.11-.05-.27-.11-.53-.18-.79,0-.01-.01-.03-.01-.04-.06-.25-.12-.48-.2-.72-.01-.07-.03-.14-.05-.21,0-.05-.03-.1-.05-.15-.06-.21-.12-.42-.2-.64h0c-.07-.23-.14-.44-.22-.66-.12-.35-.25-.69-.4-1.03-.07-.2-.15-.39-.24-.57-.02-.06-.05-.13-.08-.19-.11-.28-.24-.54-.37-.81-.13-.27-.26-.54-.41-.81-.02-.03-.03-.06-.05-.09-.12-.24-.25-.48-.4-.72-.13-.25-.27-.49-.42-.72-.18-.29-.36-.58-.55-.86-.02-.03-.05-.07-.07-.1-.11-.16-.22-.33-.34-.48-.01-.01-.02-.03-.03-.04-.18-.26-.37-.51-.56-.76-.18-.25-.38-.5-.58-.74-.21-.26-.42-.51-.65-.75-.12-.13-.24-.27-.37-.4-.03-.03-.06-.07-.09-.1-.13-.15-.28-.31-.43-.45-.02-.03-.05-.05-.07-.07-.1-.11-.21-.22-.32-.32-.14-.15-.29-.29-.44-.42-.16-.16-.33-.32-.51-.47-.19-.17-.38-.34-.58-.5l-.18-.15c-.26-.21-.53-.42-.8-.62-.09-.08-.18-.14-.27-.2-.23-.18-.46-.35-.7-.5-.09-.07-.18-.13-.27-.19-.27-.19-.55-.36-.83-.53-.07-.05-.14-.09-.21-.13-.03-.02-.06-.04-.09-.06-.17-.11-.34-.21-.52-.3-.03-.02-.07-.03-.1-.05-.19-.11-.38-.22-.58-.32-.19-.11-.39-.21-.59-.3-.32-.17-.64-.32-.97-.46-.1-.05-.2-.1-.31-.14-.29-.13-.59-.26-.9-.37-.03-.01-.05-.02-.08-.03-.22-.09-.44-.17-.66-.25-.25-.09-.51-.18-.77-.26-.23-.07-.45-.14-.68-.2-.07-.03-.15-.05-.22-.07-.11-.03-.22-.06-.33-.09t-.02-.01c-.19-.04-.38-.09-.58-.14-.05-.01-.09-.02-.14-.03-.16-.04-.31-.07-.47-.1-.35-.08-.7-.15-1.06-.21-.17-.03-.34-.06-.51-.09-.18-.02-.35-.05-.52-.07-.05-.01-.09-.01-.14-.02h-.03v141.08h.03s.09,0,.14-.02c.17-.02.34-.05.52-.07.17-.03.34-.06.51-.09.36-.06.71-.13,1.06-.21.16-.03.31-.06.47-.1.25-.06.5-.12.74-.18.11-.03.22-.06.33-.09.07-.02.15-.04.22-.07.23-.06.45-.13.68-.2.26-.08.52-.17.77-.26.22-.08.44-.16.66-.25.03-.01.05-.02.08-.03.31-.11.61-.24.9-.37.11-.04.21-.09.31-.14.33-.14.65-.29.97-.46.2-.09.4-.19.59-.3.2-.1.39-.21.58-.32.03-.02.07-.03.1-.05.18-.09.35-.19.52-.3.03-.02.06-.04.09-.06.07-.04.14-.08.21-.13.28-.17.56-.34.83-.53.09-.06.18-.12.27-.19.24-.15.47-.32.7-.5.09-.06.18-.12.27-.2.27-.2.54-.41.8-.62l.18-.15c.2-.16.39-.33.58-.5.18-.15.35-.31.51-.47.26-.23.51-.48.76-.74.02-.02.05-.04.07-.07.15-.14.3-.3.43-.45.03-.03.06-.07.09-.1.13-.13.25-.27.37-.4.23-.24.44-.49.65-.75.2-.24.4-.49.58-.74.19-.25.38-.5.56-.76,0-.01.02-.03.03-.04.12-.15.23-.32.34-.48.02-.03.05-.07.07-.1.19-.28.37-.57.55-.86.15-.23.29-.47.42-.72.15-.24.28-.48.4-.72.02-.03.03-.06.05-.09.15-.27.28-.54.41-.81.13-.27.26-.53.37-.81.03-.06.06-.13.08-.19.09-.18.17-.37.24-.57.15-.34.28-.68.4-1.03.08-.22.15-.43.22-.65h0c.08-.23.14-.44.2-.65.02-.05.04-.1.05-.15.02-.07.04-.14.05-.21.08-.24.14-.47.2-.72,0-.01.01-.03.01-.04.07-.26.13-.52.18-.79.01-.04.01-.07.02-.11.03-.08.05-.17.06-.26.05-.23.1-.46.13-.7.02-.11.04-.22.06-.34.02-.11.04-.22.05-.34.01-.09.03-.18.04-.27.03-.24.06-.48.08-.73.03-.21.05-.43.06-.65.01-.05.01-.09.02-.14.02-.17.03-.35.04-.53,0-.08.01-.15.01-.23.02-.41.03-.82.03-1.24v-89c0-.42-.01-.83-.03-1.24ZM820.47,216.96c0-.08-.01-.16-.01-.24,0-.17-.02-.34-.04-.51-.01-.05-.01-.1-.02-.15-.01-.22-.03-.44-.06-.65-.02-.25-.05-.49-.08-.73-.01-.09-.03-.18-.04-.27-.01-.12-.03-.23-.05-.34-.02-.12-.04-.23-.06-.34-.03-.24-.08-.47-.13-.7-.01-.09-.03-.18-.06-.26-.01-.04-.01-.07-.02-.11-.05-.27-.11-.53-.18-.79,0-.01-.01-.03-.01-.04-.06-.25-.12-.48-.2-.72-.01-.07-.03-.14-.05-.21,0-.05-.03-.1-.05-.15-.06-.21-.12-.42-.2-.64h0c-.07-.23-.14-.44-.22-.66-.12-.35-.25-.69-.4-1.03-.07-.2-.15-.39-.24-.57-.02-.06-.05-.13-.08-.19-.11-.28-.24-.54-.37-.81-.13-.27-.26-.54-.41-.81-.02-.03-.03-.06-.05-.09-.12-.24-.25-.48-.4-.72-.13-.25-.27-.49-.42-.72-.18-.29-.36-.58-.55-.86-.02-.03-.05-.07-.07-.1-.11-.16-.22-.33-.34-.48-.01-.01-.02-.03-.03-.04-.18-.26-.37-.51-.56-.76-.18-.25-.38-.5-.58-.74-.21-.26-.42-.51-.65-.75-.12-.13-.24-.27-.37-.4-.03-.03-.06-.07-.09-.1-.13-.15-.28-.31-.43-.45-.02-.03-.05-.05-.07-.07-.1-.11-.21-.22-.32-.32-.14-.15-.29-.29-.44-.42-.16-.16-.33-.32-.51-.47-.19-.17-.38-.34-.58-.5l-.18-.15c-.26-.21-.53-.42-.8-.62-.09-.08-.18-.14-.27-.2-.23-.18-.46-.35-.7-.5-.09-.07-.18-.13-.27-.19-.27-.19-.55-.36-.83-.53-.07-.05-.14-.09-.21-.13-.03-.02-.06-.04-.09-.06-.17-.11-.34-.21-.52-.3-.03-.02-.07-.03-.1-.05-.19-.11-.38-.22-.58-.32-.19-.11-.39-.21-.59-.3-.32-.17-.64-.32-.97-.46-.1-.05-.2-.1-.31-.14-.29-.13-.59-.26-.9-.37-.03-.01-.05-.02-.08-.03-.22-.09-.44-.17-.66-.25-.25-.09-.51-.18-.77-.26-.23-.07-.45-.14-.68-.2-.07-.03-.15-.05-.22-.07-.11-.03-.22-.06-.33-.09t-.02-.01c-.19-.04-.38-.09-.58-.14-.05-.01-.09-.02-.14-.03-.16-.04-.31-.07-.47-.1-.35-.08-.7-.15-1.06-.21-.17-.03-.34-.06-.51-.09-.18-.02-.35-.05-.52-.07-.05-.01-.09-.01-.14-.02h-.03v141.08h.03s.09,0,.14-.02c.17-.02.34-.05.52-.07.17-.03.34-.06.51-.09.36-.06.71-.13,1.06-.21.16-.03.31-.06.47-.1.25-.06.5-.12.74-.18.11-.03.22-.06.33-.09.07-.02.15-.04.22-.07.23-.06.45-.13.68-.2.26-.08.52-.17.77-.26.22-.08.44-.16.66-.25.03-.01.05-.02.08-.03.31-.11.61-.24.9-.37.11-.04.21-.09.31-.14.33-.14.65-.29.97-.46.2-.09.4-.19.59-.3.2-.1.39-.21.58-.32.03-.02.07-.03.1-.05.18-.09.35-.19.52-.3.03-.02.06-.04.09-.06.07-.04.14-.08.21-.13.28-.17.56-.34.83-.53.09-.06.18-.12.27-.19.24-.15.47-.32.7-.5.09-.06.18-.12.27-.2.27-.2.54-.41.8-.62l.18-.15c.2-.16.39-.33.58-.5.18-.15.35-.31.51-.47.26-.23.51-.48.76-.74.02-.02.05-.04.07-.07.15-.14.3-.3.43-.45.03-.03.06-.07.09-.1.13-.13.25-.27.37-.4.23-.24.44-.49.65-.75.2-.24.4-.49.58-.74.19-.25.38-.5.56-.76,0-.01.02-.03.03-.04.12-.15.23-.32.34-.48.02-.03.05-.07.07-.1.19-.28.37-.57.55-.86.15-.23.29-.47.42-.72.15-.24.28-.48.4-.72.02-.03.03-.06.05-.09.15-.27.28-.54.41-.81.13-.27.26-.53.37-.81.03-.06.06-.13.08-.19.09-.18.17-.37.24-.57.15-.34.28-.68.4-1.03.08-.22.15-.43.22-.65h0c.08-.23.14-.44.2-.65.02-.05.04-.1.05-.15.02-.07.04-.14.05-.21.08-.24.14-.47.2-.72,0-.01.01-.03.01-.04.07-.26.13-.52.18-.79.01-.04.01-.07.02-.11.03-.08.05-.17.06-.26.05-.23.1-.46.13-.7.02-.11.04-.22.06-.34.02-.11.04-.22.05-.34.01-.09.03-.18.04-.27.03-.24.06-.48.08-.73.03-.21.05-.43.06-.65.01-.05.01-.09.02-.14.02-.17.03-.35.04-.53,0-.08.01-.15.01-.23.02-.41.03-.82.03-1.24v-89c0-.42-.01-.83-.03-1.24ZM34.5,191.95v141.5h58v-141.5h-58ZM34.5,353.45v239.5h58v-239.5h-58Z"/>
      <path class="cls-6" d="M720.46,307.2v-89c0-5.92,1.13-11.57,3.16-16.78-1.24.08-2.49.14-3.76.18-32.27,1.06-48.35,6.47-64.83,25l21.3,14.95,16.26,11.42-11.31,16.34c-8.76,12.65-18.14,26.31-24.6,35.82,46.8,57.75,68.82,131.33,60.64,204.25-7.48,66.65-39.35,128.15-89.74,173.18-50.24,44.89-114.56,69.62-181.1,69.62-4.74,0-9.55-.13-14.34-.38-2.46-.14-4.71-.28-6.87-.45-9.64-.74-19.31-1.99-28.78-3.7-2.36-.43-4.72-.9-6.98-1.37-11.52-2.4-22.9-5.54-33.8-9.33-2.08-.72-4.27-1.51-6.49-2.35-2.2-.82-4.35-1.67-6.41-2.5-4.2-1.69-8.41-3.52-12.52-5.45-1.03-.47-2.07-.96-3.1-1.46l-.04-.02-.04-.02c-3.24-1.57-6.19-3.06-9.01-4.55-2.97-1.56-5.96-3.21-8.91-4.92-1.83-1.05-3.71-2.17-5.77-3.43l-.05-.03-.05-.03-.64-.4c-1.17-.72-2.33-1.44-3.5-2.18l-.05-.03-.05-.03c-1.37-.88-2.73-1.77-4.08-2.66l-.04-.03-.04-.03c-1.46-.97-2.8-1.87-4.09-2.76l-.08-.05-.05-.03c-.69-.48-1.39-.96-2.07-1.45-1.23-.87-2.51-1.8-3.92-2.82-.7-.5-1.37-1-2.08-1.53-1.19-.89-2.44-1.85-3.94-3.01-3.41-2.64-6.87-5.46-10.29-8.4-10.78-9.24-20.95-19.45-30.23-30.32-15.58-18.28-28.75-38.56-39.15-60.34-.77-1.61-1.77-3.75-2.76-5.97l-.35-.79c-.2-.45-.41-.91-.61-1.38l-1.06-2.39v-.04c-.18-.43-.37-.86-.56-1.31-.4-.95-.85-2.03-1.3-3.16-.75-1.85-1.51-3.78-2.32-5.89-.44-1.13-.84-2.23-1.21-3.25-.73-2-1.45-4.04-2.14-6.06l-1.36-3.98v-.12c-1.57-4.91-3.02-9.88-4.31-14.84-8.66-33.17-10.98-67.11-6.88-100.87,4.31-35.52,15.62-69.75,33.62-101.76,8.07-14.35,17.55-28.06,28.18-40.75l.03-.03.03-.03c1.01-1.19,2.05-2.42,3.15-3.68,1-1.16,2.07-2.35,3.24-3.65,1.2-1.33,2.28-2.51,3.31-3.61,1.52-1.63,3.15-3.33,5-5.21l.08-.08.08-.08c1.09-1.08,2.17-2.16,3.26-3.23l.06-.06.06-.06c1.72-1.67,3.48-3.34,5.24-4.97l.02-.02.02-.02c1.17-1.08,2.34-2.14,3.53-3.21.97-.87,1.94-1.71,2.91-2.56l.66-.58.05-.05.05-.05c24.78-21.32,53-37.95,83.87-49.42,30.91-11.48,63.16-17.31,95.86-17.31,6.91,0,13.89.27,20.76.8,3.97.31,7.92.7,11.77,1.17,1.53.19,3.06.39,4.61.6,2.33.32,4.7.68,7.04,1.07h.04s.04.01.04.01c1.53.26,3.06.53,4.62.81,10.35,1.91,20.67,4.46,30.67,7.58.36.11.72.22,1.09.34l27.61-37.84,11.58-15.87,16.07,11.28,23.36,16.4c12.87-15.51,25.82-26.36,40.59-34.21,13.82-7.34,29.15-11.97,47.95-14.36H126.5c-7.72,0-14,6.28-14,14v14.5h5.34c25.51,0,46.25,20.75,46.25,46.25v89c0,25.5-20.74,46.25-46.25,46.25h-5.34v239.5h5.34c25.51,0,46.25,20.75,46.25,46.25v89c0,25.5-20.74,46.25-46.25,46.25h-5.34v20c0,7.72,6.28,14,14,14h637c7.72,0,14-6.28,14-14v-20h-10.79c-25.5,0-46.25-20.75-46.25-46.25v-89c0-25.5,20.75-46.25,46.25-46.25h10.79v-239.5h-10.79c-25.5,0-46.25-20.75-46.25-46.25Z"/>
      <path class="cls-4" d="M144.09,218.2v89c0,14.44-11.81,26.25-26.25,26.25H26.25c-14.43,0-26.25-11.81-26.25-26.25v-89c0-14.44,11.82-26.25,26.25-26.25h91.59c14.44,0,26.25,11.81,26.25,26.25Z"/>
      <path class="cls-4" d="M144.09,639.2v89c0,14.44-11.81,26.25-26.25,26.25H26.25c-14.43,0-26.25-11.81-26.25-26.25v-89c0-14.44,11.82-26.25,26.25-26.25h91.59c14.44,0,26.25,11.81,26.25,26.25Z"/>
      <path class="cls-4" d="M820.5,218.2v89c0,.42-.01.83-.03,1.24,0,.08-.01.15-.01.23,0,.18-.02.36-.04.53-.01.05-.01.09-.02.14-.01.22-.03.44-.06.65-.02.25-.05.49-.08.73-.01.09-.03.18-.04.27-.01.12-.03.23-.05.34-.02.12-.04.23-.06.34-.03.24-.08.47-.13.7-.01.09-.03.18-.06.26-.01.04-.01.07-.02.11-.05.27-.11.53-.18.79,0,.01-.01.03-.01.04-.06.25-.12.48-.2.72-.01.07-.03.14-.05.21,0,.05-.03.1-.05.15-.06.21-.12.42-.2.64h0c-.07.23-.14.44-.22.66-.12.35-.25.69-.4,1.03-.07.2-.15.39-.24.57-.02.06-.05.13-.08.19-.11.28-.24.54-.37.81-.13.27-.26.54-.41.81-.02.03-.03.06-.05.09-.12.24-.25.48-.4.72-.13.25-.27.49-.42.72-.18.29-.36.58-.55.86-.02.03-.05.07-.07.1-.11.16-.22.33-.34.48-.01.01-.02.03-.03.04-.18.26-.37.51-.56.76-.18.25-.38.5-.58.74-.21.26-.42.51-.65.75-.12.13-.24.27-.37.4-.03.03-.06.07-.09.1-.13.15-.28.31-.43.45-.02.03-.05.05-.07.07-.25.26-.5.51-.76.74-.16.16-.33.32-.51.47-.19.17-.38.34-.58.5l-.18.15c-.26.21-.53.42-.8.62-.09.08-.18.14-.27.2-.23.18-.46.35-.7.5-.09.07-.18.13-.27.19-.27.19-.55.36-.83.53-.07.05-.14.09-.21.13-.03.02-.06.04-.09.06-.17.11-.34.21-.52.3-.03.02-.07.03-.1.05-.19.11-.38.22-.58.32-.19.11-.39.21-.59.3-.32.17-.64.32-.97.46-.1.05-.2.1-.31.14-.29.13-.59.26-.9.37-.03.01-.05.02-.08.03-.22.09-.44.17-.66.25-.25.09-.51.18-.77.26-.23.07-.45.14-.68.2-.07.03-.15.05-.22.07-.11.03-.22.06-.33.09-.24.06-.49.12-.74.18-.16.04-.31.07-.47.1-.35.08-.7.15-1.06.21-.17.03-.34.06-.51.09-.18.02-.35.05-.52.07-.05.01-.09.01-.14.02h-.03c-.22.03-.44.06-.66.08-.36.04-.71.07-1.07.09h-.07c-.11,0-.21,0-.32,0-.37.02-.75.03-1.13.03h-27.54c-14.44,0-26.25-11.81-26.25-26.25v-89c0-14.44,11.81-26.25,26.25-26.25h27.54c.38,0,.76.01,1.13.03.11,0,.21,0,.32,0h.07c.36.02.71.05,1.07.09.22.02.44.05.66.08h.03s.09,0,.14.02c.17.02.34.05.52.07.17.03.34.06.51.09.36.06.71.13,1.06.21.16.03.31.06.47.1.05.01.09.02.14.03.2.05.39.1.58.14t.02.01c.11.03.22.06.33.09.07.02.15.04.22.07.23.06.45.13.68.2.26.08.52.17.77.26.22.08.44.16.66.25.03.01.05.02.08.03.31.11.61.24.9.37.11.04.21.09.31.14.33.14.65.29.97.46.2.09.4.19.59.3.2.1.39.21.58.32.03.02.07.03.1.05.18.09.35.19.52.3.03.02.06.04.09.06.07.04.14.08.21.13.28.17.56.34.83.53.09.06.18.12.27.19.24.15.47.32.7.5.09.06.18.12.27.2.27.2.54.41.8.62l.18.15c.2.16.39.33.58.5.18.15.35.31.51.47.15.13.3.27.44.42.11.1.22.21.32.32.02.02.05.04.07.07.15.14.3.3.43.45.03.03.06.07.09.1.13.13.25.27.37.4.23.24.44.49.65.75.2.24.4.49.58.74.19.25.38.5.56.76,0,.01.02.03.03.04.12.15.23.32.34.48.02.03.05.07.07.1.19.28.37.57.55.86.15.23.29.47.42.72.15.24.28.48.4.72.02.03.03.06.05.09.15.27.28.54.41.81.13.27.26.53.37.81.03.06.06.13.08.19.09.18.17.37.24.57.15.34.28.68.4,1.03.08.22.15.43.22.65h0c.08.23.14.44.2.65.02.05.04.1.05.15.02.07.04.14.05.21.08.24.14.47.2.72,0,.01.01.03.01.04.07.26.13.52.18.79.01.04.01.07.02.11.03.08.05.17.06.26.05.23.1.46.13.7.02.11.04.22.06.34.02.11.04.22.05.34.01.09.03.18.04.27.03.24.06.48.08.73.03.21.05.43.06.65.01.05.01.1.02.15.02.17.03.34.04.51,0,.08.01.16.01.24.02.41.03.82.03,1.24Z"/>
      <path class="cls-4" d="M820.5,639.2v89c0,.42-.01.83-.03,1.24,0,.08-.01.15-.01.23,0,.18-.02.36-.04.53-.01.05-.01.09-.02.14-.01.22-.03.44-.06.65-.02.25-.05.49-.08.73-.01.09-.03.18-.04.27-.01.12-.03.23-.05.34-.02.12-.04.23-.06.34-.03.24-.08.47-.13.7-.01.09-.03.18-.06.26-.01.04-.01.07-.02.11-.05.27-.11.53-.18.79,0,.01-.01.03-.01.04-.06.25-.12.48-.2.72-.01.07-.03.14-.05.21,0,.05-.03.1-.05.15-.06.21-.12.42-.2.64h0c-.07.23-.14.44-.22.66-.12.35-.25.69-.4,1.03-.07.2-.15.39-.24.57-.02.06-.05.13-.08.19-.11.28-.24.54-.37.81-.13.27-.26.54-.41.81-.02.03-.03.06-.05.09-.12.24-.25.48-.4.72-.13.25-.27.49-.42.72-.18.29-.36.58-.55.86-.02.03-.05.07-.07.1-.11.16-.22.33-.34.48-.01.01-.02.03-.03.04-.18.26-.37.51-.56.76-.18.25-.38.5-.58.74-.21.26-.42.51-.65.75-.12.13-.24.27-.37.4-.03.03-.06.07-.09.1-.13.15-.28.31-.43.45-.02.03-.05.05-.07.07-.25.26-.5.51-.76.74-.16.16-.33.32-.51.47-.19.17-.38.34-.58.5l-.18.15c-.26.21-.53.42-.8.62-.09.08-.18.14-.27.2-.23.18-.46.35-.7.5-.09.07-.18.13-.27.19-.27.19-.55.36-.83.53-.07.05-.14.09-.21.13-.03.02-.06.04-.09.06-.17.11-.34.21-.52.3-.03.02-.07.03-.1.05-.19.11-.38.22-.58.32-.19.11-.39.21-.59.3-.32.17-.64.32-.97.46-.1.05-.2.1-.31.14-.29.13-.59.26-.9.37-.03.01-.05.02-.08.03-.22.09-.44.17-.66.25-.25.09-.51.18-.77.26-.23.07-.45.14-.68.2-.07.03-.15.05-.22.07-.11.03-.22.06-.33.09-.24.06-.49.12-.74.18-.16.04-.31.07-.47.1-.35.08-.7.15-1.06.21-.17.03-.34.06-.51.09-.18.02-.35.05-.52.07-.05.01-.09.01-.14.02h-.03c-.22.03-.44.06-.66.08-.36.04-.71.07-1.07.09h-.07c-.11,0-.21,0-.32,0-.37.02-.75.03-1.13.03h-27.54c-14.44,0-26.25-11.81-26.25-26.25v-89c0-14.44,11.81-26.25,26.25-26.25h27.54c.38,0,.76.01,1.13.03.11,0,.21,0,.32,0h.07c.36.02.71.05,1.07.09.22.02.44.05.66.08h.03s.09,0,.14.02c.17.02.34.05.52.07.17.03.34.06.51.09.36.06.71.13,1.06.21.16.03.31.06.47.1.05.01.09.02.14.03.2.05.39.1.58.14t.02.01c.11.03.22.06.33.09.07.02.15.04.22.07.23.06.45.13.68.2.26.08.52.17.77.26.22.08.44.16.66.25.03.01.05.02.08.03.31.11.61.24.9.37.11.04.21.09.31.14.33.14.65.29.97.46.2.09.4.19.59.3.2.1.39.21.58.32.03.02.07.03.1.05.18.09.35.19.52.3.03.02.06.04.09.06.07.04.14.08.21.13.28.17.56.34.83.53.09.06.18.12.27.19.24.15.47.32.7.5.09.06.18.12.27.2.27.2.54.41.8.62l.18.15c.2.16.39.33.58.5.18.15.35.31.51.47.15.13.3.27.44.42.11.1.22.21.32.32.02.02.05.04.07.07.15.14.3.3.43.45.03.03.06.07.09.1.13.13.25.27.37.4.23.24.44.49.65.75.2.24.4.49.58.74.19.25.38.5.56.76,0,.01.02.03.03.04.12.15.23.32.34.48.02.03.05.07.07.1.19.28.37.57.55.86.15.23.29.47.42.72.15.24.28.48.4.72.02.03.03.06.05.09.15.27.28.54.41.81.13.27.26.53.37.81.03.06.06.13.08.19.09.18.17.37.24.57.15.34.28.68.4,1.03.08.22.15.43.22.65h0c.08.23.14.44.2.65.02.05.04.1.05.15.02.07.04.14.05.21.08.24.14.47.2.72,0,.01.01.03.01.04.07.26.13.52.18.79.01.04.01.07.02.11.03.08.05.17.06.26.05.23.1.46.13.7.02.11.04.22.06.34.02.11.04.22.05.34.01.09.03.18.04.27.03.24.06.48.08.73.03.21.05.43.06.65.01.05.01.1.02.15.02.17.03.34.04.51,0,.08.01.16.01.24.02.41.03.82.03,1.24Z"/>
      <path class="cls-5" d="M793.74,623.97c-2.77,1.38-30.52,3.72-35.28,15.43s-9.88,57.43-10.84,47.9c-.3-8.47-.7-40.52-.7-40.52,0-14.44,11.81-26.25,26.25-26.25l19.67.03c.08,0,3.66,2.03.89,3.41Z"/>
      <path class="cls-7" d="M768.04,746.49c2.77-1.38,30.52-3.72,35.28-15.43s9.88-57.43,10.84-47.9c.3,8.47.7,40.52.7,40.52,0,14.44-11.81,26.25-26.25,26.25l-19.67-.03c-.08,0-3.66-2.03-.89-3.41Z"/>
      <path class="cls-5" d="M793.74,201.43c-2.77,1.38-30.52,3.72-35.28,15.43s-9.88,57.43-10.84,47.9c-.3-8.47-.7-40.52-.7-40.52,0-14.44,11.81-26.25,26.25-26.25l19.67.03c.08,0,3.66,2.03.89,3.41Z"/>
      <path class="cls-7" d="M768.04,323.96c2.77-1.38,30.52-3.72,35.28-15.43s9.88-57.43,10.84-47.9c.3,8.47.7,40.52.7,40.52,0,14.44-11.81,26.25-26.25,26.25l-19.67-.03c-.08,0-3.66-2.03-.89-3.41Z"/>
      <path class="cls-5" d="M77.89,626.8c-4,1.99-44.1,5.38-50.97,22.29s-14.28,82.98-15.66,69.21c-.43-12.24-1.01-58.55-1.01-58.55,0-20.86,17.06-37.93,37.93-37.93l28.43.04c.12,0,5.29,2.94,1.28,4.93Z"/>
      <path class="cls-7" d="M65.02,739.83c4-1.99,44.1-5.38,50.97-22.29,6.87-16.92,14.28-82.98,15.66-69.21.43,12.24,1.01,58.55,1.01,58.55,0,20.86-17.06,37.93-37.93,37.93l-28.43-.04c-.12,0-5.29-2.94-1.28-4.93Z"/>
      <path class="cls-5" d="M77.89,206.18c-4,1.99-44.1,5.38-50.97,22.29s-14.28,82.98-15.66,69.21c-.43-12.24-1.01-58.55-1.01-58.55,0-20.86,17.06-37.93,37.93-37.93l28.43.04c.12,0,5.29,2.94,1.28,4.93Z"/>
      <path class="cls-7" d="M65.02,319.21c4-1.99,44.1-5.38,50.97-22.29,6.87-16.92,14.28-82.98,15.66-69.21.43,12.24,1.01,58.55,1.01,58.55,0,20.86-17.06,37.93-37.93,37.93l-28.43-.04c-.12,0-5.29-2.94-1.28-4.93Z"/>
    </g>
    <g id="funken">
      <path class="cls-3" d="M875.16,110.63l39.56-14.28s-22.85-.67-33.96-2.93c-20.94-4.27-21.81-12.79-12.43-30.45,5.45-10.26,20.46-28.85,20.46-28.85l-33.23,21.08c-23.74,10.55-28.8-7.13-33.28-25.88-1.69-7.08-4.81-29.32-4.81-29.32,0,0-4.49,27.13-8.2,38.85-1.89,5.98-3.98,10.75-6.68,14.14-5.04,6.31-12.21,7.8-24.19,3.22-2.4-.91-4.79-2-7.17-3.22-9.77-4.97-28.03-17.89-28.03-17.89l12.99,17.89,11.11,15.3c2.32,6,5.02,10.58,2.86,17.16-1.26,3.87-4.42,7.14-8.67,9.95-12.28,8.13-45.24,15.89-45.24,15.89,0,0,30.27.62,44.14,5.76,6.51,2.41,11.37,6,12.49,11.39.41,1.94.39,4.21.08,6.65-.94,7.48-4.69,16.62-7.8,23.32-.65,1.41-1.28,2.71-1.84,3.86-2.78,5.66-11.81,6.07-11.81,6.07,0,0,20.34-6.35,30.27-12.54,6.34-3.95,11.56-5.36,15.96-4.93,11.71,1.13,17.58,15.27,23.42,28.96.45,1.05.96,2.38,1.51,3.86,2.55,6.81,5.78,16.75,5.78,16.75l.51-25.41c0-3.54,2.19-14.83,3.59-18.32,4.27-10.62,13.86-10.24,23.19-8.14,1.81.4,3.6.87,5.35,1.34l40.88,17.59s-56.26-40.74-26.81-56.87Z"/>
      <path class="cls-2" d="M822.97,147.64c-.21,3.53-1.62.14-2.23-1.26-1.99-4.55-6.5-18.99-11.43-20.45-9.19-2.73-19.49,10.67-23.23,12.74s8.6-13.56,8.05-22.44-13.57-9.04-20.54-9.42c-1.29-.07-8.47.08-3.73-1.49s19.83-4.2,22.95-11.25c3.39-7.64-17.32-26.48-12.22-24.69s11.58,7.72,17.9,9.58c2.58.76,4.88,1.61,7.58.51,6.68-2.11,8.42-22.62,9.85-24.8s1.92,5.95,2.51,8.36c.93,3.79,2.99,11.72,5.52,14.41,8.01,8.5,24.03-9.35,25.94-7.48l-10.76,18.67c-1.7,7.54,16.1,10.34,22.71,11.58s-19.13,4.59-21.4,9.59c-3.67,8.11,8.56,15,12.44,20.89-7.2-1.03-19.31-10.48-25.99-5.53-1.21.9-1.55,2.41-2.51,5.12s-1.21,13.82-1.42,17.35Z"/>
    </g>
    <g id="bombe">
      <path class="cls-4" d="M821.06,99.41c-4.33-3.43-10.62-2.7-14.05,1.63-1.53,1.93-3.14,4.01-4.82,6.2-17.25,22.36-40.88,52.99-83.64,54.39-52.1,1.71-79.23,15.93-108.5,57.84l-39.14-27.48-36.33,49.8c-3.52-1.33-7.05-2.59-10.6-3.75-1.29-.42-2.58-.84-3.87-1.24-9.38-2.92-18.86-5.25-28.36-7-1.44-.26-2.89-.52-4.33-.76-2.16-.36-4.33-.69-6.51-.99-1.44-.2-2.89-.39-4.33-.56-3.62-.44-7.23-.8-10.85-1.08-67.51-5.2-134.91,17.28-185.9,61.15-1.13.98-2.25,1.96-3.37,2.96-1.12,1-2.23,2.01-3.33,3.02-1.65,1.53-3.28,3.07-4.89,4.64-1.07,1.06-2.13,2.11-3.2,3.18-1.58,1.61-3.15,3.24-4.69,4.89-1.03,1.1-2.04,2.2-3.06,3.33-1.01,1.12-2.02,2.24-3,3.38-1,1.14-1.97,2.3-2.95,3.45-9.72,11.6-18.48,24.2-26.08,37.71-34.44,61.24-40.49,127.81-24.83,187.78,1.54,5.9,3.29,11.74,5.25,17.51h0c.66,1.92,1.33,3.83,2.03,5.73.35.96.69,1.92,1.06,2.86.72,1.89,1.47,3.78,2.23,5.66.37.94.76,1.88,1.16,2.81.79,1.87,1.6,3.72,2.43,5.56h0c.82,1.86,1.68,3.69,2.55,5.52,9.6,20.1,21.8,38.94,36.3,55.94,8.57,10.05,17.93,19.46,28.02,28.12,3.1,2.66,6.28,5.25,9.53,7.77,1.22.94,2.44,1.88,3.67,2.81.61.46,1.23.91,1.86,1.37,1.24.91,2.5,1.82,3.76,2.71.62.45,1.26.89,1.9,1.33,1.27.87,2.55,1.74,3.85,2.6,1.28.84,2.58,1.7,3.89,2.54,1.32.84,2.64,1.65,3.96,2.47,1.77,1.08,3.55,2.15,5.36,3.19,2.7,1.57,5.43,3.08,8.21,4.53,2.76,1.47,5.57,2.88,8.41,4.25.95.46,1.9.9,2.85,1.34,3.81,1.79,7.68,3.47,11.61,5.05,1.96.8,3.95,1.58,5.94,2.32s4,1.47,6.02,2.18c10.11,3.51,20.56,6.4,31.33,8.65,2.14.45,4.31.88,6.49,1.27,8.72,1.58,17.63,2.74,26.72,3.44,2.13.16,4.28.3,6.43.42,132.69,7.02,249.36-92.3,264.21-224.68,8.22-73.29-16.65-146.28-65.79-200.5,3.57-5.95,33.18-48.73,33.18-48.73l-38.42-26.97c25.76-37.04,46.59-47.82,92.79-49.34,52.18-1.71,81.37-39.56,98.82-62.16,1.63-2.11,3.18-4.12,4.66-5.99,3.43-4.33,2.7-10.62-1.63-14.05Z"/>
      <path class="cls-1" d="M662.53,261.28c-7.02,10.15-27.73,40.19-30.83,45.32-26.4-28.58-59.39-51.16-96.8-65.22l4.33-5.94c28.16,13.89,59.4,22.75,92.63,25.31,10.34.8,20.58.96,30.68.53Z"/>
      <path class="cls-7" d="M658.73,342.19c30.87,48.6,45.26,106.69,38.72,164.97-14.85,132.38-131.53,231.7-264.21,224.68-2.15-.12-4.3-.26-6.43-.42-9.09-.7-18-1.86-26.72-3.44-2.18-.4-4.34-.82-6.49-1.27-10.77-2.25-21.22-5.13-31.33-8.65-2.02-.7-4.03-1.43-6.02-2.18s-3.97-1.52-5.94-2.32c-3.93-1.58-7.8-3.27-11.61-5.05-.95-.44-1.9-.88-2.85-1.34-2.84-1.38-5.65-2.79-8.41-4.25-2.77-1.46-5.51-2.97-8.21-4.53-1.8-1.04-3.59-2.1-5.36-3.19-1.32-.82-2.64-1.63-3.96-2.47-1.3-.84-2.6-1.69-3.89-2.54-1.3-.87-2.58-1.73-3.85-2.6-.64-.44-1.27-.88-1.9-1.33-1.26-.89-2.52-1.8-3.76-2.71-.63-.46-1.25-.91-1.86-1.37-1.24-.93-2.46-1.86-3.67-2.81-3.25-2.52-6.42-5.11-9.53-7.77-10.1-8.66-19.46-18.07-28.02-28.12-3.03-3.54-5.94-7.17-8.75-10.87,38.88,28.72,86.04,47.23,137.8,51.22,146.84,11.32,275.05-98.55,286.37-245.4,2.58-33.44-1.13-65.92-10.12-96.27Z"/>
      <path class="cls-5" d="M247.11,420.67c12.78,14.15,38.17-23.54,79.25-60.63,41.07-37.09,82.27-59.54,69.49-73.69-12.78-14.15-56.43,4.45-97.51,41.54s-64.01,78.63-51.24,92.78Z"/>
      <circle class="cls-5" cx="437.87" cy="271.98" r="17.7"/>
    </g>
    <g id="nieten">
      <g>
        <circle class="cls-4" cx="197.16" cy="779.47" r="20.44"/>
        <path class="cls-7" d="M214.66,768.95c.38,1.6.6,3.26.6,4.97,0,11.84-9.6,21.43-21.43,21.43-5.45,0-10.41-2.05-14.2-5.41,3.57,5.96,10.07,9.97,17.53,9.97,11.29,0,20.44-9.15,20.44-20.44,0-3.86-1.09-7.45-2.94-10.53Z"/>
        <path class="cls-5" d="M181.48,779.21c1.41,1.34,3.71-2.7,7.6-6.8s7.92-6.71,6.5-8.06-5.72.9-9.61,5c-3.89,4.1-5.91,8.52-4.49,9.86Z"/>
      </g>
      <g>
        <circle class="cls-4" cx="144.09" cy="546.69" r="20.44"/>
        <path class="cls-7" d="M161.59,536.17c.38,1.6.6,3.26.6,4.97,0,11.84-9.6,21.43-21.43,21.43-5.45,0-10.41-2.05-14.2-5.41,3.57,5.96,10.07,9.97,17.53,9.97,11.29,0,20.44-9.15,20.44-20.44,0-3.86-1.09-7.45-2.94-10.53Z"/>
        <path class="cls-5" d="M128.41,546.43c1.41,1.34,3.71-2.7,7.6-6.8s7.92-6.71,6.5-8.06-5.72.9-9.61,5c-3.89,4.1-5.91,8.52-4.49,9.86Z"/>
      </g>
      <g>
        <circle class="cls-4" cx="144.09" cy="412.55" r="20.44"/>
        <path class="cls-7" d="M161.59,402.02c.38,1.6.6,3.26.6,4.97,0,11.84-9.6,21.43-21.43,21.43-5.45,0-10.41-2.05-14.2-5.41,3.57,5.96,10.07,9.97,17.53,9.97,11.29,0,20.44-9.15,20.44-20.44,0-3.86-1.09-7.45-2.94-10.53Z"/>
        <path class="cls-5" d="M128.41,412.28c1.41,1.34,3.71-2.7,7.6-6.8s7.92-6.71,6.5-8.06-5.72.9-9.61,5c-3.89,4.1-5.91,8.52-4.49,9.86Z"/>
      </g>
      <g>
        <circle class="cls-4" cx="746.93" cy="546.69" r="20.44"/>
        <path class="cls-7" d="M764.43,536.17c.38,1.6.6,3.26.6,4.97,0,11.84-9.6,21.43-21.43,21.43-5.45,0-10.41-2.05-14.2-5.41,3.57,5.96,10.07,9.97,17.53,9.97,11.29,0,20.44-9.15,20.44-20.44,0-3.86-1.09-7.45-2.94-10.53Z"/>
        <path class="cls-5" d="M731.25,546.43c1.41,1.34,3.71-2.7,7.6-6.8s7.92-6.71,6.5-8.06-5.72.9-9.61,5-5.91,8.52-4.49,9.86Z"/>
      </g>
      <g>
        <circle class="cls-4" cx="746.93" cy="412.55" r="20.44"/>
        <path class="cls-7" d="M764.43,402.02c.38,1.6.6,3.26.6,4.97,0,11.84-9.6,21.43-21.43,21.43-5.45,0-10.41-2.05-14.2-5.41,3.57,5.96,10.07,9.97,17.53,9.97,11.29,0,20.44-9.15,20.44-20.44,0-3.86-1.09-7.45-2.94-10.53Z"/>
        <path class="cls-5" d="M731.25,412.28c1.41,1.34,3.71-2.7,7.6-6.8s7.92-6.71,6.5-8.06-5.72.9-9.61,5-5.91,8.52-4.49,9.86Z"/>
      </g>
      <g>
        <circle class="cls-4" cx="680.11" cy="779.47" r="20.44"/>
        <path class="cls-7" d="M697.61,768.95c.38,1.6.6,3.26.6,4.97,0,11.84-9.6,21.43-21.43,21.43-5.45,0-10.41-2.05-14.2-5.41,3.57,5.96,10.07,9.97,17.53,9.97,11.29,0,20.44-9.15,20.44-20.44,0-3.86-1.09-7.45-2.94-10.53Z"/>
        <path class="cls-5" d="M664.43,779.21c1.41,1.34,3.71-2.7,7.6-6.8s7.92-6.71,6.5-8.06-5.72.9-9.61,5-5.91,8.52-4.49,9.86Z"/>
      </g>
      <g>
        <circle class="cls-4" cx="519.13" cy="779.47" r="20.44"/>
        <path class="cls-7" d="M536.62,768.95c.38,1.6.6,3.26.6,4.97,0,11.84-9.6,21.43-21.43,21.43-5.45,0-10.41-2.05-14.2-5.41,3.57,5.96,10.07,9.97,17.53,9.97,11.29,0,20.44-9.15,20.44-20.44,0-3.86-1.09-7.45-2.94-10.53Z"/>
        <path class="cls-5" d="M503.45,779.21c1.41,1.34,3.71-2.7,7.6-6.8s7.92-6.71,6.5-8.06-5.72.9-9.61,5-5.91,8.52-4.49,9.86Z"/>
      </g>
      <g>
        <circle class="cls-4" cx="358.14" cy="779.47" r="20.44"/>
        <path class="cls-7" d="M375.64,768.95c.38,1.6.6,3.26.6,4.97,0,11.84-9.6,21.43-21.43,21.43-5.45,0-10.41-2.05-14.2-5.41,3.57,5.96,10.07,9.97,17.53,9.97,11.29,0,20.44-9.15,20.44-20.44,0-3.86-1.09-7.45-2.94-10.53Z"/>
        <path class="cls-5" d="M342.46,779.21c1.41,1.34,3.71-2.7,7.6-6.8s7.92-6.71,6.5-8.06-5.72.9-9.61,5-5.91,8.52-4.49,9.86Z"/>
      </g>
      <g>
        <circle class="cls-4" cx="197.16" cy="174.81" r="20.44"/>
        <path class="cls-7" d="M214.66,164.28c.38,1.6.6,3.26.6,4.97,0,11.84-9.6,21.43-21.43,21.43-5.45,0-10.41-2.05-14.2-5.41,3.57,5.96,10.07,9.97,17.53,9.97,11.29,0,20.44-9.15,20.44-20.44,0-3.86-1.09-7.45-2.94-10.53Z"/>
        <path class="cls-5" d="M181.48,174.54c1.41,1.34,3.71-2.7,7.6-6.8s7.92-6.71,6.5-8.06-5.72.9-9.61,5c-3.89,4.1-5.91,8.52-4.49,9.86Z"/>
      </g>
      <g>
        <path class="cls-4" d="M533.74,160.53l-2.79,4.52-15.83,25.62-2.23,3.61c-.16-.06-.32-.11-.47-.16-.19-.07-.38-.14-.56-.21-.41-.15-.82-.32-1.21-.51-.2-.09-.4-.18-.59-.28-.2-.1-.39-.2-.58-.3s-.38-.21-.57-.32c-6.11-3.52-10.22-10.13-10.22-17.69,0-11.29,9.15-20.44,20.44-20.44,5.73,0,10.91,2.36,14.61,6.16Z"/>
        <path class="cls-7" d="M501.6,185.28c3.62,3.21,8.33,5.23,13.52,5.39l-2.23,3.61c-.16-.06-.32-.11-.47-.16-.19-.07-.38-.14-.56-.21-.41-.15-.82-.32-1.21-.51-.2-.09-.4-.18-.59-.28-.2-.1-.39-.2-.58-.3s-.38-.21-.57-.32c-3.01-1.75-5.52-4.24-7.31-7.22Z"/>
        <path class="cls-5" d="M503.45,174.54c1.41,1.34,3.71-2.7,7.6-6.8s7.92-6.71,6.5-8.06-5.72.9-9.61,5-5.91,8.52-4.49,9.86Z"/>
      </g>
      <g>
        <circle class="cls-4" cx="358.14" cy="174.81" r="20.44"/>
        <path class="cls-7" d="M375.64,164.28c.38,1.6.6,3.26.6,4.97,0,11.84-9.6,21.43-21.43,21.43-5.45,0-10.41-2.05-14.2-5.41,3.57,5.96,10.07,9.97,17.53,9.97,11.29,0,20.44-9.15,20.44-20.44,0-3.86-1.09-7.45-2.94-10.53Z"/>
        <path class="cls-5" d="M342.46,174.54c1.41,1.34,3.71-2.7,7.6-6.8s7.92-6.71,6.5-8.06-5.72.9-9.61,5-5.91,8.52-4.49,9.86Z"/>
      </g>
      <g>
        <circle class="cls-4" cx="517.84" cy="174.81" r="20.44"/>
        <path class="cls-7" d="M535.34,164.28c.38,1.6.6,3.26.6,4.97,0,11.84-9.6,21.43-21.43,21.43-5.45,0-10.41-2.05-14.2-5.41,3.57,5.96,10.07,9.97,17.53,9.97,11.29,0,20.44-9.15,20.44-20.44,0-3.86-1.09-7.45-2.94-10.53Z"/>
        <path class="cls-5" d="M502.16,174.54c1.41,1.34,3.71-2.7,7.6-6.8s7.92-6.71,6.5-8.06-5.72.9-9.61,5-5.91,8.52-4.49,9.86Z"/>
      </g>
    </g>
  </g>
</svg>
