<?xml version="1.0" encoding="UTF-8"?>
<svg id="Ebene_2" data-name="Ebene 2" xmlns="http://www.w3.org/2000/svg" viewBox="0 0 1000 1000">
  <defs>
    <style>
      .cls-1 {
        fill: #fff;
      }

      .cls-2 {
        fill: #e2e2e2;
      }

      .cls-3 {
        fill: #fff57c;
      }

      .cls-4 {
        fill: #f68e32;
      }

      .cls-5 {
        fill: #353738;
      }

      .cls-6 {
        fill: #4e5051;
      }

      .cls-7 {
        fill: #5a5d5e;
      }

      .cls-8 {
        fill: #c6c6c6;
      }

      .cls-9 {
        fill: #c6c6c6;
      }

      .cls-10 {
        fill: #7e8182;
      }

      .cls-11 {
        fill: #242626;
      }
    </style>
  </defs>
  <g id="logo_2.0_hell_Kopie" data-name="logo_2.0_hell Kopie">
    <g id="tile">
      <rect id="background" class="cls-1" width="1000" height="1000" rx="68" ry="68"/>
      <path class="cls-2" d="M932,0h-432v1000h432c37.56,0,68-30.44,68-68V68c0-37.56-30.44-68-68-68Z"/>
    </g>
    <g>
      <path class="cls-8" d="M627.15,222.1l-12.98-9.11h60.57c-8.98,6.39-17.38,14.36-25.75,24.45l-21.85-15.35Z"/>
      <path class="cls-10" d="M753.45,655.63v83.23c0,20.79,14.75,38.2,34.33,42.33v11.61H207.97v-13.48c7.12-2.69,13.34-7.21,18.1-12.97.44-.53.87-1.08,1.28-1.64.41-.55.81-1.11,1.21-1.69.39-.58.77-1.16,1.13-1.76.36-.59.71-1.2,1.04-1.8.5-.93.97-1.86,1.4-2.82,1.88-4.14,3.12-8.64,3.6-13.36.07-.72.13-1.46.17-2.19.04-.74.06-1.48.06-2.23v-83.23c0-.75-.02-1.49-.06-2.23-.04-.73-.09-1.47-.17-2.19-.48-4.72-1.72-9.22-3.6-13.36-.43-.96-.9-1.9-1.4-2.82-.33-.61-.68-1.22-1.04-1.8-.36-.6-.74-1.18-1.13-1.76-.39-.58-.79-1.14-1.21-1.69-.41-.56-.84-1.1-1.28-1.64-4.76-5.76-10.98-10.28-18.1-12.97v-229.55c7.12-2.69,13.34-7.21,18.1-12.97.44-.53.87-1.08,1.28-1.64.41-.55.81-1.11,1.21-1.69.39-.58.77-1.16,1.13-1.76.36-.59.71-1.2,1.04-1.8.5-.93.97-1.86,1.4-2.82,1.88-4.14,3.12-8.64,3.6-13.36.07-.72.13-1.46.17-2.19.04-.74.06-1.48.06-2.23v-83.23c0-.75-.02-1.49-.06-2.23-.04-.73-.09-1.47-.17-2.19-.48-4.72-1.72-9.22-3.6-13.36-.43-.96-.9-1.9-1.4-2.82-.33-.61-.68-1.22-1.04-1.8-.36-.6-.74-1.18-1.13-1.76s-.79-1.14-1.21-1.69c-.41-.56-.84-1.1-1.28-1.64-4.76-5.76-10.98-10.28-18.1-12.97v-8.46h403.11l-9.78,13.4-25.82,35.39c-.35-.11-.68-.22-1.02-.32-9.35-2.92-19-5.29-28.68-7.09-1.46-.26-2.89-.51-4.32-.76h-.04s-.04,0-.04,0c-2.19-.36-4.4-.7-6.58-1-1.45-.21-2.88-.39-4.31-.56-3.6-.44-7.29-.81-11.01-1.09-6.42-.5-12.95-.75-19.41-.75-30.58,0-60.74,5.44-89.64,16.19-28.87,10.72-55.26,26.27-78.43,46.22l-.05.04-.06.05-.62.53c-.91.79-1.81,1.59-2.72,2.4-1.11.99-2.22,1.99-3.3,2.99l-.03.02-.02.02c-1.64,1.52-3.28,3.09-4.89,4.65l-.12.12c-1.02,1.01-2.03,2.01-3.05,3.03l-.07.07-.07.07c-1.72,1.76-3.25,3.35-4.68,4.87-.96,1.02-1.97,2.12-3.1,3.37-1.1,1.22-2.09,2.33-3.03,3.41-1.03,1.18-2,2.33-2.95,3.44l-.03.04-.02.03c-9.95,11.87-18.82,24.69-26.35,38.11-16.83,29.94-27.42,61.95-31.45,95.16-3.83,31.58-1.66,63.32,6.43,94.33,1.22,4.64,2.57,9.29,4.05,13.88v.11s1.26,3.72,1.26,3.72c.65,1.89,1.32,3.8,2,5.67.35.95.72,1.98,1.13,3.04.76,1.97,1.47,3.78,2.17,5.51.41,1.06.84,2.07,1.22,2.96.18.41.35.82.52,1.23v.04s.98,2.24.98,2.24c.2.44.39.87.58,1.29l.33.74c.92,2.08,1.86,4.08,2.58,5.58,9.72,20.37,22.03,39.34,36.6,56.43,8.67,10.17,18.18,19.71,28.27,28.35,3.2,2.75,6.43,5.39,9.62,7.86,1.4,1.08,2.57,1.98,3.68,2.81.65.49,1.29.95,1.95,1.42,1.31.96,2.51,1.82,3.66,2.65.65.46,1.29.91,1.94,1.36l.05.03.07.05c1.21.83,2.46,1.68,3.82,2.59l.04.02.04.03c1.25.83,2.53,1.66,3.81,2.49l.05.03.05.03c1.09.69,2.18,1.37,3.27,2.04l.61.37.04.03.05.03c1.93,1.18,3.68,2.23,5.4,3.21,2.75,1.6,5.55,3.14,8.32,4.6,2.64,1.39,5.4,2.79,8.43,4.26h.04s.04.03.04.03c.96.47,1.93.92,2.89,1.37,3.84,1.8,7.78,3.51,11.71,5.09,1.92.79,3.94,1.57,5.99,2.35,2.08.78,4.12,1.51,6.07,2.19,10.19,3.54,20.84,6.48,31.61,8.73,2.11.45,4.32.88,6.53,1.28,8.86,1.61,17.9,2.77,26.91,3.47,2.02.15,4.11.29,6.42.41,4.47.24,8.97.36,13.41.36,62.23,0,122.38-23.12,169.36-65.1,47.12-42.11,76.94-99.63,83.92-161.95,7.65-68.2-12.93-137.01-56.71-191.02,6.04-8.89,14.82-21.67,23.01-33.5l10.58-15.27-15.21-10.68-19.92-13.98c15.42-17.34,30.46-22.4,60.63-23.39.31,0,.62-.02.93-.04-2.64,5.57-4.11,11.8-4.11,18.37v83.23c0,21.12,15.22,38.75,35.27,42.51v222.83c-19.58,4.12-34.33,21.54-34.33,42.33Z"/>
      <path class="cls-8" d="M245.41,475.03c-3.84,31.59-1.66,63.32,6.43,94.34,1.21,4.64,2.57,9.28,4.05,13.87v.11s1.26,3.72,1.26,3.72c.64,1.89,1.32,3.79,2,5.66.34.96.71,1.98,1.13,3.04.75,1.98,1.47,3.78,2.16,5.51.41,1.05.85,2.07,1.22,2.95.18.41.35.83.52,1.22v.04s.99,2.24.99,2.24c.2.44.4.87.57,1.29l.33.74c.92,2.07,1.86,4.07,2.59,5.58,9.72,20.37,22.03,39.35,36.6,56.43,8.67,10.18,18.18,19.72,28.27,28.36,3.2,2.75,6.43,5.38,9.62,7.85,1.41,1.08,2.58,1.98,3.69,2.81.66.49,1.29.95,1.95,1.42,1.31.97,2.5,1.82,3.66,2.65.64.45,1.29.9,1.94,1.35l.05.03.07.05c1.21.83,2.46,1.68,3.83,2.59l.04.02.04.03c1.25.84,2.53,1.66,3.81,2.49l.05.02.05.03c1.09.7,2.17,1.37,3.27,2.04l.6.38.04.03.05.03c1.93,1.18,3.69,2.23,5.4,3.21,2.75,1.6,5.55,3.14,8.32,4.6,2.63,1.39,5.39,2.78,8.42,4.26h.04s.04.03.04.03c.97.47,1.93.92,2.9,1.37,3.84,1.79,7.78,3.5,11.7,5.08,1.92.79,3.94,1.57,6,2.35,2.07.78,4.12,1.51,6.07,2.19,10.2,3.54,20.83,6.48,31.61,8.72,2.12.45,4.33.88,6.53,1.28,8.86,1.61,17.9,2.77,26.92,3.47,2.01.15,4.11.29,6.42.41,4.47.24,8.96.36,13.4.36h.26v31.51H207.97v-13.47c7.12-2.7,13.34-7.21,18.1-12.97.44-.54.87-1.08,1.28-1.64.41-.55.82-1.12,1.21-1.69.39-.58.76-1.17,1.13-1.76.36-.59.71-1.19,1.03-1.81.51-.92.98-1.86,1.4-2.82,1.88-4.15,3.12-8.64,3.6-13.37.08-.72.13-1.46.17-2.19.04-.73.06-1.48.06-2.22v-83.24c0-.74-.02-1.49-.06-2.22-.04-.73-.09-1.47-.17-2.19-.48-4.72-1.72-9.22-3.6-13.37-.42-.96-.89-1.9-1.4-2.82-.33-.61-.68-1.21-1.03-1.81-.37-.59-.74-1.18-1.13-1.76-.4-.57-.8-1.14-1.21-1.69-.4-.55-.84-1.1-1.28-1.64-4.76-5.76-10.98-10.27-18.1-12.97v-229.54c7.12-2.7,13.34-7.21,18.1-12.97.44-.54.87-1.08,1.28-1.64.41-.55.82-1.12,1.21-1.69.39-.58.76-1.17,1.13-1.76.36-.59.71-1.19,1.03-1.81.51-.93.98-1.86,1.4-2.82,1.88-4.15,3.12-8.64,3.6-13.37.08-.72.13-1.46.17-2.19.04-.73.06-1.48.06-2.22v-83.24c0-.74-.02-1.49-.06-2.22-.04-.73-.09-1.47-.17-2.19-.48-4.72-1.72-9.22-3.6-13.37-.42-.96-.89-1.9-1.4-2.82-.33-.61-.68-1.21-1.03-1.81-.37-.6-.74-1.18-1.13-1.76-.4-.57-.8-1.14-1.21-1.69-.4-.55-.84-1.1-1.28-1.64-4.76-5.76-10.98-10.27-18.1-12.97v-8.46h292.33v37.2h-.24c-30.58,0-60.74,5.45-89.63,16.19-28.87,10.72-55.26,26.27-78.44,46.22l-.05.04-.06.05-.61.53c-.91.8-1.82,1.59-2.72,2.41-1.12.99-2.22,1.99-3.3,2.99l-.03.02-.02.02c-1.64,1.52-3.28,3.09-4.89,4.65l-.12.12c-1.03,1.01-2.03,2.01-3.05,3.03l-.08.07-.07.08c-1.72,1.76-3.25,3.35-4.67,4.87-.97,1.03-1.98,2.13-3.09,3.37-1.11,1.21-2.1,2.33-3.04,3.41-1.03,1.18-1.99,2.32-2.94,3.44l-.03.04-.02.03c-9.95,11.86-18.81,24.68-26.35,38.1-16.84,29.94-27.42,61.95-31.45,95.16Z"/>
      <g>
        <rect class="cls-9" x="114.45" y="388.41" width="37.63" height="223.97"/>
        <path class="cls-9" d="M500.3,848.69v37.63H163.55c-27.07,0-49.1-22.02-49.1-49.09v-55.11h37.63v55.11c0,6.32,5.15,11.47,11.48,11.47h336.74Z"/>
        <path class="cls-9" d="M500.3,119.47v37.63H163.55c-6.33,0-11.48,5.15-11.48,11.48v50.1h-37.63v-50.1c0-27.07,22.03-49.1,49.1-49.1h336.74Z"/>
        <path class="cls-6" d="M500.3,157.1v-37.63h276.68l6.58,11.36c.05.11.1.24.15.35.06.17.13.36.21.55-4.06,2.51-24.28,17.03-35.83,25.37h-247.79Z"/>
        <path class="cls-6" d="M881.3,215.7v621.53c0,27.07-22.02,49.09-49.1,49.09h-331.9v-37.63h334.6c6.33,0,11.48-5.15,11.48-11.47v-62.36c.08-.05.17-.11.25-.17.08-.05.19-.12.29-.2.37-.24.73-.5,1.1-.78.22-.16.45-.34.71-.55.33-.24.67-.51,1.01-.77l.11-.09.09-.09.07-.06c.4-.32.73-.61.98-.82.34-.3.67-.6,1.01-.92.43-.4.8-.76,1.09-1.06.04-.04.08-.08.11-.11.33-.33.66-.68.98-1.03.14-.15.25-.27.34-.37.55-.6,1.01-1.15,1.34-1.53.28-.35.55-.69.8-1.03l.33-.32.79-1.18c.16-.22.28-.41.41-.59.05-.08.1-.16.15-.23.35-.52.64-.98.86-1.32.29-.46.56-.93.83-1.4.22-.38.43-.76.64-1.17.35-.63.6-1.17.76-1.5l.04-.07c.14-.29.38-.77.63-1.38.02-.03.03-.07.04-.09.16-.35.31-.71.45-1.05.23-.56.44-1.13.65-1.71.13-.38.25-.74.38-1.12.07-.21.13-.4.19-.56l.71-2.26v-.08l.47-1.42v-1.04c.05-.22.09-.47.13-.74,0-.04.02-.08.02-.11.06-.27.11-.61.16-1.01.02-.15.05-.32.07-.51.03-.23.08-.54.11-.92.03-.28.06-.57.08-.86.06-.6.08-1.09.1-1.36l.03-.52v-.1c.03-.59.04-1.2.04-1.79v-83.24c0-.59,0-1.19-.04-1.79v-.15l-.03-.55c-.02-.25-.05-.7-.1-1.25-.03-.3-.06-.6-.08-.9-.04-.38-.08-.69-.11-.91-.02-.19-.05-.36-.07-.51-.05-.4-.1-.74-.16-1.01,0-.05,0-.08-.02-.12-.04-.26-.08-.51-.12-.72v-1.04l-.48-1.43v-.08l-.7-2.21c-.06-.19-.12-.4-.2-.61-.12-.38-.24-.74-.38-1.12-.21-.58-.42-1.16-.65-1.71-.14-.36-.29-.71-.45-1.06,0-.03-.02-.06-.04-.08-.25-.62-.49-1.09-.63-1.38l-.04-.08c-.16-.34-.41-.87-.76-1.5-.21-.4-.42-.8-.64-1.17-.26-.48-.54-.95-.83-1.4-.22-.35-.51-.8-.86-1.32-.05-.08-.1-.15-.16-.24-.12-.18-.24-.37-.4-.57l-.78-1.17-.34-.33c-.25-.34-.52-.68-.81-1.03-.33-.39-.78-.93-1.34-1.54-.09-.09-.21-.22-.34-.36-.32-.35-.65-.7-.98-1.03l-.47-.48c-.25-.24-.52-.5-.79-.75-.32-.3-.63-.59-.95-.87-.24-.21-.57-.5-.98-.83l-.07-.06-.09-.08-.11-.09c-.34-.27-.68-.54-1.01-.78-.26-.21-.5-.39-.71-.55-.37-.27-.73-.53-1.1-.77-.1-.08-.21-.15-.29-.22-.08-.06-.17-.11-.25-.17v-236.29c.24-.16.47-.34.71-.52.22-.16.46-.33.72-.53.33-.25.66-.53,1-.79l.11-.09.1-.09.07-.06c.4-.32.73-.6.97-.82.34-.3.68-.6,1.02-.92.43-.4.79-.76,1.08-1.06.05-.04.08-.08.12-.11.33-.33.66-.67.97-1.03.14-.15.25-.27.34-.37.56-.6,1.02-1.14,1.34-1.53.28-.35.55-.69.81-1.02l.33-.33.78-1.18c.16-.21.29-.41.42-.59.05-.08.1-.16.15-.23.35-.52.63-.97.85-1.32.29-.46.57-.93.84-1.39.22-.39.43-.77.63-1.18.35-.63.61-1.17.77-1.5l.04-.07c.14-.28.38-.77.63-1.38.02-.03.03-.07.03-.09.16-.35.31-.7.45-1.05.24-.56.45-1.12.66-1.71.13-.38.25-.74.38-1.11.07-.22.12-.4.18-.57l.71-2.26v-.08l.47-1.42v-1.04c.05-.22.09-.47.13-.74,0-.04.02-.07.02-.1.06-.27.11-.62.16-1.02.02-.15.05-.32.07-.51.02-.22.07-.54.1-.92.03-.28.06-.57.08-.85.06-.61.08-1.1.1-1.37l.03-.52v-.1c.03-.59.04-1.19.04-1.79v-60.81c3.17-17.96,12.39-70.18,12.84-72.32.32.07.67.14,1.04.23h.04s.04.02.04.02c.83.18,1.71.4,2.57.63Z"/>
        <rect class="cls-10" x="152.08" y="388.41" width="37.19" height="223.97"/>
        <path class="cls-10" d="M500.3,811.51v37.18H163.55c-6.33,0-11.48-5.15-11.48-11.47v-55.11h37.19v17.7c0,.4.02.8.06,1.19.1.99.33,1.93.65,2.82.33.89.77,1.73,1.3,2.52.21.31.43.61.67.89.24.29.5.57.76.84.26.26.54.51.83.75.29.24.59.46.9.68.78.53,1.63.96,2.51,1.29.9.33,1.84.55,2.82.66.39.04.79.06,1.19.06h299.34Z"/>
        <path class="cls-10" d="M500.3,157.1v37.19H200.96c-3.22,0-6.14,1.31-8.26,3.43-.26.26-.52.55-.76.83-.24.29-.46.59-.67.9-.53.78-.97,1.63-1.3,2.51-.32.9-.55,1.84-.65,2.83-.04.38-.06.78-.06,1.19v12.69h-37.19v-50.1c0-6.33,5.15-11.48,11.48-11.48h336.74Z"/>
        <path class="cls-9" d="M739.95,162.98s32.1,18.71,40.52,20.24c-7.68,4.1-16.4,6.77-26.62,7.11-13.42.43-25.11,1.72-35.62,3.96h-217.93v-37.19h247.79c-4.83,3.48-8.14,5.88-8.14,5.88Z"/>
        <path class="cls-9" d="M846.37,383.33v236.29c-.42-.28-.8-.52-1.1-.7-.09-.07-.19-.12-.26-.17-.55-.36-1.1-.66-1.66-.96-.17-.09-.37-.21-.59-.33-.38-.2-.76-.4-1.14-.58-.46-.24-.93-.44-1.41-.66-.22-.1-.46-.22-.74-.34-.17-.08-.35-.15-.55-.24l-.9-.9-4.98-1.05-1.8-.48h-.44c-.33-.07-.67-.13-1.01-.19l-.4-.08-.58-.1-.24-.03-1.2-.24h-.8c-.56-.06-1.1-.1-1.66-.13l-.52-.03h-.24c-.55-.03-1.13-.04-1.69-.04h-13.28v-221.17h12.34c.57,0,1.14-.02,1.7-.04h.24l.52-.03c.55-.04,1.09-.08,1.66-.13h.77l1.2-.24.25-.03.59-.11.4-.06c.55-.09,1.08-.2,1.64-.32.28-.06.63-.13,1.03-.24.27-.07.55-.13.8-.2l.2-.05.19-.06.31-.08.11-.03.07-.02c.19-.06.39-.11.56-.17.18-.05.36-.1.55-.16l.08-.03h.03s.03-.02.03-.02c.5-.15.99-.31,1.55-.51h.03s.03-.03.03-.03c.2-.07.39-.13.57-.21l.09-.03.29-.12c.58-.22,1.09-.43,1.51-.62.27-.11.52-.23.74-.33.48-.21.94-.42,1.4-.66.39-.19.77-.39,1.14-.59.23-.11.42-.23.59-.33.56-.28,1.1-.6,1.66-.95.08-.06.18-.11.27-.17.36-.22.82-.52,1.35-.87.09-.06.2-.13.3-.21.13-.08.25-.18.39-.26Z"/>
        <path class="cls-9" d="M845.27,775.58c.3-.18.68-.42,1.1-.71v62.36c0,6.32-5.15,11.47-11.48,11.47h-334.6v-37.18h297.19c.4,0,.81-.02,1.19-.06.98-.1,1.92-.33,2.82-.66.88-.33,1.73-.76,2.51-1.29.31-.22.61-.44.9-.68.29-.24.56-.49.83-.75s.52-.55.76-.84c.24-.28.46-.58.67-.89.53-.79.97-1.63,1.3-2.52.32-.89.55-1.83.65-2.82.04-.39.06-.78.06-1.19v-17.7h13.28c.56,0,1.14-.02,1.69-.04h.24l.52-.03c.55-.04,1.09-.08,1.66-.13h.77l1.21-.24.25-.03.58-.11.4-.07c.55-.09,1.08-.2,1.64-.32.29-.05.64-.12,1.03-.23.27-.07.55-.13.81-.2l.2-.05.19-.06.3-.08.11-.03.07-.02c.19-.06.39-.11.57-.17.18-.05.36-.1.55-.16l.08-.03h.03s.02-.02.02-.02c.5-.15,1-.32,1.56-.52h.03s.02-.03.02-.03c.2-.06.39-.12.57-.2l.09-.03.3-.12c.58-.22,1.08-.43,1.51-.62.28-.11.53-.23.74-.33.48-.22.95-.42,1.41-.66.38-.19.76-.39,1.14-.59.23-.11.42-.23.59-.33.55-.29,1.1-.6,1.66-.95.08-.06.17-.11.26-.17Z"/>
      </g>
      <g id="funken">
        <path class="cls-4" d="M924.94,154.57c-13.46-4.63-30.95-8.06-33.24-20.83-2.29-12.77,15.32-40.78,2.46-32.63-12.86,8.15-24.14,17.11-30.8,14.59-6.67-2.52-12.87-31.73-15.37-40.93-2.51-12.96-9.3,35.93-15.5,39.6-6.2,3.67-35.27-12.77-43.37-16.36-8.1-3.59,15.16,30.66,13.62,39.77-1.54,9.11-23.69,19.56-33.31,22.07-9.62,2.51,11.2,2.68,24.17,7.49,6.09,2.25,10.63,5.61,11.68,10.65.38,1.81.36,3.94.07,6.22-.88,7-4.39,15.54-7.29,21.81-.61,1.32-1.2,2.53-1.72,3.61-2.6,5.29-11.05,5.68-11.05,5.68,0,0,19.02-5.94,28.31-11.73,5.93-3.69,10.81-5.01,14.93-4.61,10.95,1.06,18.68,25.54,23.16,35.12,4.48,9.58,7.98-36.72,16.45-40.95,8.47-4.23,27.75,4.76,39.45,9.77,11.71,5.02-22.24-25.39-17.6-34.12,4.64-8.73,48.41-9.58,34.95-14.22Z"/>
        <path class="cls-3" d="M852.12,195.94c.08,5.29-8.17-18.93-12.77-20.3-8.6-2.55-18.23,9.98-21.72,11.92-3.49,1.94,8.04-12.68,7.53-20.99-.54-8.69-34.25-6.69-22.7-10.2,11.55-3.52,18.54-3.93,21.46-10.52,3.17-7.15-21.77-29.08-11.01-22.7,10.76,6.38,10.42,6.83,16.32,8.57,2.41.71,4.57,1.5,7.09.48,6.25-1.98,7.13-13.83,9.21-23.19,2.08-9.36,5.14,18.78,7.51,21.29,7.49,7.95,30.71-12.9,25.6-6-5.11,6.91-10.97,14.9-9.87,19.29,1.1,4.39,29.65,9.78,20.55,10.72-9.1.94-19.84,2.16-20.85,6.25-1,4.09,7.14,13.45,11.64,18.91,4.5,5.46-18.05-9.18-24.31-4.54-1.13.84-1.45,2.25-2.35,4.79-.9,2.53-1.4,10.93-1.32,16.22Z"/>
      </g>
      <g id="bombe">
        <path class="cls-5" d="M850.33,150.83c-4.05-3.21-9.93-2.53-13.14,1.52-1.43,1.81-2.93,3.75-4.51,5.8-16.13,20.91-38.23,49.55-78.22,50.87-48.72,1.6-74.09,14.9-101.46,54.09l-36.6-25.69-33.98,46.57c-3.29-1.25-6.59-2.42-9.91-3.51-1.2-.4-2.42-.79-3.62-1.16-8.77-2.73-17.64-4.91-26.52-6.55-1.35-.25-2.7-.49-4.05-.71-2.02-.33-4.05-.64-6.09-.93-1.34-.18-2.7-.36-4.05-.53-3.38-.41-6.76-.74-10.15-1.01-63.14-4.87-126.17,16.16-173.85,57.18-1.05.92-2.11,1.83-3.15,2.77-1.05.94-2.08,1.88-3.11,2.83-1.54,1.43-3.06,2.88-4.57,4.34-1,.99-1.99,1.97-2.99,2.97-1.47,1.5-2.94,3.03-4.38,4.57-.96,1.03-1.91,2.06-2.86,3.11-.95,1.04-1.89,2.1-2.81,3.16-.93,1.06-1.85,2.15-2.76,3.23-9.09,10.85-17.28,22.63-24.39,35.27-32.21,57.27-37.87,119.53-23.22,175.6,1.44,5.52,3.08,10.97,4.91,16.37h0c.61,1.8,1.24,3.58,1.89,5.36.32.9.65,1.79.99,2.68.68,1.77,1.37,3.54,2.09,5.29.34.88.71,1.75,1.08,2.63.74,1.75,1.49,3.48,2.27,5.2h0c.77,1.74,1.57,3.45,2.38,5.16,8.98,18.8,20.38,36.41,33.95,52.32,8.01,9.4,16.76,18.2,26.21,26.29,2.9,2.49,5.87,4.91,8.91,7.27,1.14.88,2.28,1.76,3.44,2.63.57.43,1.15.85,1.74,1.28,1.16.85,2.34,1.7,3.52,2.53.58.42,1.18.83,1.77,1.25,1.19.82,2.39,1.62,3.6,2.43,1.2.79,2.42,1.59,3.63,2.37,1.24.78,2.47,1.54,3.7,2.31,1.66,1.01,3.32,2.01,5.01,2.98,2.52,1.46,5.08,2.88,7.67,4.24,2.59,1.37,5.21,2.69,7.86,3.98.89.43,1.78.84,2.67,1.25,3.56,1.67,7.18,3.24,10.86,4.73,1.84.75,3.69,1.47,5.55,2.17,1.86.7,3.74,1.38,5.63,2.03,9.46,3.29,19.22,5.99,29.3,8.09,2.01.42,4.03.82,6.07,1.19,8.16,1.48,16.49,2.56,24.99,3.21,1.99.15,4,.28,6.01.39,124.08,6.57,233.2-86.31,247.08-210.11,7.69-68.54-15.57-136.8-61.52-187.5,3.33-5.56,31.03-45.57,31.03-45.57l-35.93-25.22c24.09-34.64,43.57-44.72,86.77-46.14,48.8-1.6,76.1-36.99,92.41-58.13,1.52-1.98,2.98-3.86,4.36-5.61,3.21-4.05,2.53-9.93-1.52-13.14Z"/>
        <path class="cls-6" d="M500.3,268.91v473.68c-4.2,0-8.42-.1-12.65-.33-2.01-.11-4.02-.24-6.01-.4-8.5-.65-16.84-1.73-24.99-3.21-2.03-.38-4.06-.77-6.07-1.19-10.07-2.1-19.85-4.81-29.3-8.09-1.89-.65-3.76-1.34-5.62-2.03-1.86-.7-3.72-1.42-5.56-2.17-3.67-1.48-7.29-3.06-10.85-4.72-.88-.41-1.78-.83-2.66-1.25-2.65-1.29-5.28-2.61-7.86-3.98-2.6-1.36-5.15-2.77-7.68-4.24-1.68-.97-3.36-1.97-5.01-2.97-1.23-.77-2.46-1.52-3.7-2.31-1.22-.78-2.44-1.58-3.64-2.37-1.21-.81-2.41-1.62-3.6-2.43-.59-.41-1.19-.83-1.77-1.25-1.19-.83-2.36-1.68-3.52-2.53-.59-.43-1.17-.85-1.74-1.28-1.16-.87-2.3-1.74-3.44-2.62-3.03-2.35-6-4.78-8.91-7.27-9.43-8.09-18.19-16.89-26.21-26.29-13.55-15.91-24.96-33.51-33.95-52.32-.81-1.71-1.61-3.41-2.38-5.15-.78-1.73-1.53-3.46-2.27-5.2-.38-.88-.74-1.76-1.09-2.63-.71-1.75-1.41-3.53-2.09-5.3-.34-.88-.66-1.78-.99-2.67-.65-1.78-1.28-3.56-1.89-5.35h0c-1.83-5.41-3.46-10.86-4.91-16.39-14.65-56.07-8.99-118.32,23.21-175.6,7.11-12.64,15.3-24.42,24.39-35.27.91-1.08,1.83-2.16,2.77-3.23.92-1.06,1.86-2.12,2.8-3.16.95-1.05,1.9-2.09,2.86-3.11,1.45-1.54,2.92-3.07,4.39-4.57,1-1,1.99-1.98,2.99-2.97,1.5-1.47,3.03-2.92,4.57-4.34,1.03-.95,2.06-1.89,3.11-2.83,1.04-.94,2.1-1.85,3.15-2.77,43.21-37.18,99.03-57.93,156.11-57.88Z"/>
        <path class="cls-5" d="M702.08,302.21c-6.56,9.49-25.94,37.59-28.84,42.38-24.69-26.73-55.54-47.85-90.52-60.99l4.05-5.55c26.34,12.99,55.55,21.28,86.62,23.67,9.67.75,19.24.9,28.69.49Z"/>
        <path class="cls-11" d="M698.53,377.87c28.87,45.45,42.32,99.77,36.21,154.27-13.89,123.8-123,216.68-247.08,210.11-2.01-.11-4.02-.24-6.01-.39-8.51-.66-16.83-1.74-24.99-3.21-2.04-.37-4.06-.77-6.07-1.19-10.07-2.1-19.84-4.8-29.3-8.09-1.89-.66-3.77-1.34-5.63-2.03s-3.72-1.42-5.55-2.17c-3.68-1.48-7.29-3.06-10.86-4.73-.89-.41-1.78-.83-2.67-1.25-2.65-1.29-5.28-2.61-7.86-3.98-2.59-1.36-5.15-2.78-7.67-4.24-1.69-.97-3.35-1.97-5.01-2.98-1.24-.77-2.47-1.52-3.7-2.31-1.22-.78-2.43-1.58-3.63-2.37-1.22-.81-2.41-1.62-3.6-2.43-.59-.41-1.19-.82-1.77-1.25-1.18-.83-2.36-1.68-3.52-2.53-.59-.43-1.17-.85-1.74-1.28-1.16-.87-2.3-1.74-3.44-2.63-3.04-2.35-6.01-4.78-8.91-7.27-9.44-8.09-18.2-16.9-26.21-26.29-2.83-3.31-5.55-6.7-8.18-10.16,36.35,26.86,80.46,44.17,128.87,47.9,137.32,10.58,257.22-92.16,267.81-229.49,2.41-31.27-1.06-61.64-9.47-90.02Z"/>
        <path class="cls-5" d="M500.3,694.8v47.79c-4.2,0-8.42-.1-12.65-.33-2.01-.11-4.02-.24-6.01-.4-8.5-.65-16.84-1.73-24.99-3.21-2.03-.38-4.06-.77-6.07-1.19-10.07-2.1-19.85-4.81-29.3-8.09-1.89-.65-3.76-1.34-5.62-2.03-1.86-.7-3.72-1.42-5.56-2.17-3.67-1.48-7.29-3.06-10.85-4.72-.88-.41-1.78-.83-2.66-1.25-2.65-1.29-5.28-2.61-7.86-3.98-2.6-1.36-5.15-2.77-7.68-4.24-1.68-.97-3.36-1.97-5.01-2.97-1.23-.77-2.46-1.52-3.7-2.31-1.22-.78-2.44-1.58-3.64-2.37-1.21-.81-2.41-1.62-3.6-2.43-.59-.41-1.19-.83-1.77-1.25-1.19-.83-2.36-1.68-3.52-2.53-.59-.43-1.17-.85-1.74-1.28-1.16-.87-2.3-1.74-3.44-2.62-3.03-2.35-6-4.78-8.91-7.27-9.43-8.09-18.19-16.89-26.21-26.29-2.82-3.31-5.55-6.71-8.18-10.16,36.36,26.86,80.47,44.17,128.87,47.9,20.53,1.58,40.67.63,60.12-2.59Z"/>
        <path class="cls-10" d="M303.54,463.52c12.88,12.32,34-24.57,69.77-61.97,35.77-37.4,72.66-61.16,59.78-73.48s-52.33,8.01-88.1,45.41c-35.77,37.4-54.33,77.71-41.45,90.03Z"/>
        <circle class="cls-10" cx="471.29" cy="311.8" r="16.55"/>
      </g>
      <g id="nieten">
        <g>
          <g>
            <circle class="cls-6" cx="228.47" cy="569.12" r="19.11"/>
            <path class="cls-5" d="M244.83,559.28c.36,1.49.56,3.05.56,4.65,0,11.07-8.97,20.04-20.04,20.04-5.1,0-9.74-1.92-13.28-5.06,3.34,5.58,9.42,9.32,16.39,9.32,10.56,0,19.11-8.56,19.11-19.11,0-3.61-1.02-6.97-2.75-9.84Z"/>
            <path class="cls-7" d="M213.8,568.88c1.32,1.25,3.47-2.52,7.11-6.36,3.64-3.84,7.4-6.28,6.08-7.53-1.32-1.25-5.35.84-8.99,4.68-3.64,3.84-5.52,7.96-4.2,9.22Z"/>
          </g>
          <g>
            <circle class="cls-6" cx="228.47" cy="443.67" r="19.11"/>
            <path class="cls-5" d="M244.83,433.83c.36,1.49.56,3.05.56,4.65,0,11.07-8.97,20.04-20.04,20.04-5.1,0-9.74-1.92-13.28-5.06,3.34,5.58,9.42,9.32,16.39,9.32,10.56,0,19.11-8.56,19.11-19.11,0-3.61-1.02-6.97-2.75-9.84Z"/>
            <path class="cls-7" d="M213.8,443.43c1.32,1.25,3.47-2.52,7.11-6.36,3.64-3.84,7.4-6.28,6.08-7.53-1.32-1.25-5.35.84-8.99,4.68-3.64,3.84-5.52,7.96-4.2,9.22Z"/>
          </g>
          <g>
            <circle class="cls-6" cx="266.88" cy="772.78" r="19.11"/>
            <path class="cls-5" d="M283.24,762.94c.36,1.49.56,3.05.56,4.65,0,11.07-8.97,20.04-20.04,20.04-5.1,0-9.74-1.92-13.28-5.06,3.34,5.58,9.42,9.32,16.39,9.32,10.56,0,19.11-8.56,19.11-19.11,0-3.61-1.02-6.97-2.75-9.84Z"/>
            <path class="cls-7" d="M252.21,772.54c1.32,1.25,3.47-2.52,7.11-6.36,3.64-3.84,7.4-6.28,6.08-7.53-1.32-1.25-5.35.84-8.99,4.68-3.64,3.84-5.52,7.96-4.2,9.22Z"/>
          </g>
          <g>
            <circle class="cls-6" cx="417.43" cy="772.78" r="19.11"/>
            <path class="cls-5" d="M433.79,762.94c.36,1.49.56,3.05.56,4.65,0,11.07-8.97,20.04-20.04,20.04-5.1,0-9.74-1.92-13.28-5.06,3.34,5.58,9.42,9.32,16.39,9.32,10.56,0,19.11-8.56,19.11-19.11,0-3.61-1.02-6.97-2.75-9.84Z"/>
            <path class="cls-7" d="M402.76,772.54c1.32,1.25,3.47-2.52,7.11-6.36,3.64-3.84,7.4-6.28,6.08-7.53s-5.35.84-8.99,4.68c-3.64,3.84-5.52,7.96-4.2,9.22Z"/>
          </g>
          <g>
            <circle class="cls-6" cx="266.88" cy="237.24" r="19.11"/>
            <path class="cls-5" d="M283.24,227.4c.36,1.49.56,3.05.56,4.65,0,11.07-8.97,20.04-20.04,20.04-5.1,0-9.74-1.92-13.28-5.06,3.34,5.58,9.42,9.32,16.39,9.32,10.56,0,19.11-8.56,19.11-19.11,0-3.61-1.02-6.97-2.75-9.84Z"/>
            <path class="cls-7" d="M252.21,236.99c1.32,1.25,3.47-2.52,7.11-6.36s7.4-6.28,6.08-7.53c-1.32-1.25-5.35.84-8.99,4.68-3.64,3.84-5.52,7.96-4.2,9.22Z"/>
          </g>
          <g>
            <circle class="cls-6" cx="417.43" cy="237.24" r="19.11"/>
            <path class="cls-5" d="M433.79,227.4c.36,1.49.56,3.05.56,4.65,0,11.07-8.97,20.04-20.04,20.04-5.1,0-9.74-1.92-13.28-5.06,3.34,5.58,9.42,9.32,16.39,9.32,10.56,0,19.11-8.56,19.11-19.11,0-3.61-1.02-6.97-2.75-9.84Z"/>
            <path class="cls-7" d="M402.76,236.99c1.32,1.25,3.47-2.52,7.11-6.36,3.64-3.84,7.4-6.28,6.08-7.53-1.32-1.25-5.35.84-8.99,4.68-3.64,3.84-5.52,7.96-4.2,9.22Z"/>
          </g>
        </g>
        <g>
          <g>
            <circle class="cls-5" cx="767.92" cy="569.12" r="19.11"/>
            <path class="cls-11" d="M784.28,559.28c.36,1.49.56,3.05.56,4.65,0,11.07-8.97,20.04-20.04,20.04-5.1,0-9.74-1.92-13.28-5.06,3.34,5.58,9.42,9.32,16.39,9.32,10.56,0,19.11-8.56,19.11-19.11,0-3.61-1.02-6.97-2.75-9.84Z"/>
            <path class="cls-6" d="M753.25,568.88c1.32,1.25,3.47-2.52,7.11-6.36,3.64-3.84,7.4-6.28,6.08-7.53-1.32-1.25-5.35.84-8.99,4.68-3.64,3.84-5.52,7.96-4.2,9.22Z"/>
          </g>
          <g>
            <circle class="cls-5" cx="767.92" cy="443.67" r="19.11"/>
            <path class="cls-11" d="M784.28,433.83c.36,1.49.56,3.05.56,4.65,0,11.07-8.97,20.04-20.04,20.04-5.1,0-9.74-1.92-13.28-5.06,3.34,5.58,9.42,9.32,16.39,9.32,10.56,0,19.11-8.56,19.11-19.11,0-3.61-1.02-6.97-2.75-9.84Z"/>
            <path class="cls-6" d="M753.25,443.43c1.32,1.25,3.47-2.52,7.11-6.36,3.64-3.84,7.4-6.28,6.08-7.53s-5.35.84-8.99,4.68c-3.64,3.84-5.52,7.96-4.2,9.22Z"/>
          </g>
          <g>
            <circle class="cls-5" cx="718.52" cy="772.78" r="19.11"/>
            <path class="cls-11" d="M734.89,762.94c.36,1.49.56,3.05.56,4.65,0,11.07-8.97,20.04-20.04,20.04-5.1,0-9.74-1.92-13.28-5.06,3.34,5.58,9.42,9.32,16.39,9.32,10.56,0,19.11-8.56,19.11-19.11,0-3.61-1.02-6.97-2.75-9.84Z"/>
            <path class="cls-6" d="M703.86,772.54c1.32,1.25,3.47-2.52,7.11-6.36,3.64-3.84,7.4-6.28,6.08-7.53-1.32-1.25-5.35.84-8.99,4.68-3.64,3.84-5.52,7.96-4.2,9.22Z"/>
          </g>
          <g>
            <circle class="cls-5" cx="567.98" cy="772.78" r="19.11"/>
            <path class="cls-11" d="M584.34,762.94c.36,1.49.56,3.05.56,4.65,0,11.07-8.97,20.04-20.04,20.04-5.1,0-9.74-1.92-13.28-5.06,3.34,5.58,9.42,9.32,16.39,9.32,10.56,0,19.11-8.56,19.11-19.11,0-3.61-1.02-6.97-2.75-9.84Z"/>
            <path class="cls-6" d="M553.31,772.54c1.32,1.25,3.47-2.52,7.11-6.36,3.64-3.84,7.4-6.28,6.08-7.53-1.32-1.25-5.35.84-8.99,4.68-3.64,3.84-5.52,7.96-4.2,9.22Z"/>
          </g>
          <g>
            <circle class="cls-5" cx="566.77" cy="237.24" r="19.11"/>
            <path class="cls-11" d="M583.13,227.4c.36,1.49.56,3.05.56,4.65,0,11.07-8.97,20.04-20.04,20.04-5.1,0-9.74-1.92-13.28-5.06,3.34,5.58,9.42,9.32,16.39,9.32,10.56,0,19.11-8.56,19.11-19.11,0-3.61-1.02-6.97-2.75-9.84Z"/>
            <path class="cls-6" d="M552.1,236.99c1.32,1.25,3.47-2.52,7.11-6.36,3.64-3.84,7.4-6.28,6.08-7.53-1.32-1.25-5.35.84-8.99,4.68-3.64,3.84-5.52,7.96-4.2,9.22Z"/>
          </g>
        </g>
      </g>
      <g>
        <path class="cls-10" d="M217.25,261.92v83.23c0,.32,0,.64-.02.94,0,.17,0,.34-.03.5,0,.07,0,.15-.02.22,0,.28-.04.56-.07.83-.03.34-.07.67-.12,1,0,.02,0,.05,0,.07-.02.16-.05.31-.07.46-.05.31-.1.61-.17.91v.02c-.08.39-.17.79-.27,1.17-.07.28-.15.55-.23.83,0,0,0,.02,0,.03-.04.16-.09.31-.14.47,0,.02,0,.04-.02.06,0,.03-.02.06-.03.08t0,.02c-.1.33-.22.64-.34.95-.09.26-.2.52-.31.78-.03.1-.07.2-.12.3-.14.33-.29.65-.45.98-.08.18-.17.36-.28.54-.06.12-.11.24-.18.36-.07.12-.12.23-.2.36-.07.15-.16.29-.24.43-.13.23-.26.46-.41.67-.09.16-.2.32-.31.48-.09.16-.2.32-.32.48-.13.21-.28.4-.42.6-.06.08-.12.17-.18.24-.22.28-.43.55-.65.82-.25.31-.51.61-.78.9-.2.22-.39.43-.61.64l-.17.17s-.08.09-.13.14c-.13.13-.26.25-.39.37-.22.21-.44.41-.66.6-.03.03-.05.06-.07.07-.04.03-.07.06-.1.08-.22.2-.47.39-.7.58,0,.02-.03.03-.04.04-.03.02-.06.05-.08.07-.02,0-.03.03-.05.04-.02,0-.03.02-.05.04-.1.07-.21.15-.31.23-.1.07-.21.16-.31.23-.28.21-.57.41-.86.61s-.58.38-.87.56c-.28.17-.55.33-.83.48-.23.14-.47.27-.72.38,0,0,0,0,0,0-.08.06-.18.1-.28.14-.22.11-.44.22-.66.32-.14.07-.28.14-.43.2-.14.07-.28.13-.43.19-.04.02-.08.04-.12.05-.04.02-.07.03-.1.05-.21.09-.42.18-.64.25-.03,0-.06.02-.08.03,0,0-.02,0-.03,0-.36.14-.74.27-1.12.39h0c-.29.08-.59.18-.89.25-.02,0-.04,0-.06,0-.17.05-.34.08-.5.13-.28.07-.56.14-.85.2-.04,0-.08.02-.13.03-.3.07-.61.12-.92.17h-.03c-.12.03-.26.05-.38.07h-.02c-.32.05-.64.08-.95.11-.03,0-.05,0-.07,0-.22.03-.46.05-.68.06-.11,0-.23.03-.36.03-.12,0-.24.02-.36.02-.36.02-.71.03-1.08.03h-85.65c-.35,0-.69,0-1.03-.02-.03,0-.07,0-.09,0-.11,0-.22,0-.33-.02h-.07c-.33-.02-.65-.05-.98-.08-.29-.03-.58-.07-.87-.1-.04,0-.07,0-.11-.02-.16-.02-.31-.05-.47-.07-.03,0-.07,0-.09,0-.3-.05-.6-.1-.89-.17-.35-.07-.69-.15-1.03-.23-.05,0-.09-.03-.14-.04-.02,0-.04,0-.05,0-.26-.07-.52-.14-.79-.22-.28-.08-.56-.17-.83-.27-.54-.18-1.08-.37-1.6-.6-.17-.07-.34-.14-.5-.22-.49-.21-.96-.44-1.43-.68-.02,0-.03-.02-.05-.03-.2-.1-.39-.21-.59-.32-.17-.09-.34-.19-.5-.29-.17-.09-.33-.2-.49-.3-.34-.21-.65-.41-.97-.64-.15-.1-.3-.21-.45-.32-.15-.1-.3-.22-.44-.33-.45-.34-.89-.69-1.31-1.07-.19-.16-.38-.33-.56-.5l-.02-.02c-.21-.19-.4-.38-.6-.58-.14-.14-.28-.28-.41-.42-.08-.08-.17-.17-.25-.26-.15-.15-.29-.31-.43-.47-.2-.22-.38-.45-.58-.67-.22-.27-.43-.54-.65-.82-.05-.07-.1-.13-.15-.2-.21-.27-.4-.56-.6-.85-.03-.04-.06-.08-.08-.12-.19-.27-.36-.56-.54-.85-.16-.25-.31-.51-.45-.78-.09-.14-.17-.29-.24-.44-.02-.02-.03-.04-.04-.07-.15-.27-.29-.55-.42-.83-.13-.27-.26-.55-.38-.84-.07-.15-.14-.32-.21-.48-.24-.59-.47-1.19-.66-1.8-.05-.14-.09-.28-.13-.42-.1-.32-.19-.64-.27-.95-.1-.39-.2-.79-.27-1.19-.07-.35-.14-.69-.2-1.05,0-.07-.03-.15-.04-.22-.06-.38-.1-.77-.14-1.16-.03-.28-.06-.56-.07-.85,0-.04,0-.08,0-.12v-.09c0-.09-.02-.19-.02-.29,0-.03,0-.07,0-.09v-.14c0-.3-.02-.6-.02-.91v-83.23c0-.31,0-.61.02-.91v-.14s0-.07,0-.09c0-.1,0-.2.02-.29v-.09s0-.08,0-.12c.02-.29.05-.57.07-.85.04-.39.08-.78.14-1.16,0-.07.03-.15.04-.22.06-.36.12-.7.2-1.05.07-.4.17-.79.27-1.19.08-.32.17-.64.27-.95.04-.14.08-.28.13-.42.2-.62.42-1.22.66-1.8.07-.16.13-.33.21-.48.12-.29.25-.57.38-.84.13-.28.27-.56.42-.83,0-.03.02-.05.04-.07.07-.15.15-.3.24-.44.14-.26.29-.52.45-.78.18-.29.36-.58.54-.85.03-.04.06-.08.08-.12.2-.29.39-.58.6-.85.05-.07.1-.13.15-.2.22-.28.43-.55.65-.82.2-.22.38-.45.58-.67.14-.16.28-.32.43-.47.08-.09.17-.18.25-.26.13-.14.27-.28.41-.42.2-.2.39-.39.6-.58t.02-.02c.18-.17.37-.34.56-.5.42-.37.86-.73,1.31-1.07.14-.11.29-.22.44-.33.15-.11.3-.22.45-.32.32-.22.64-.43.97-.64.16-.1.32-.21.49-.3.17-.1.34-.2.5-.29.2-.11.39-.22.59-.32.02,0,.03-.02.05-.03.47-.24.94-.48,1.43-.68.17-.08.34-.16.5-.22.52-.22,1.06-.42,1.6-.6.27-.1.55-.19.83-.27.26-.07.52-.15.79-.22,0,0,.03,0,.05,0,.05,0,.09-.03.14-.04.34-.08.68-.17,1.03-.23.29-.07.59-.12.89-.17.03,0,.07,0,.09,0,.16-.03.31-.06.47-.07.04,0,.07-.02.11-.02.29-.04.58-.07.87-.1.33-.04.65-.07.98-.08h.07c.11,0,.22-.02.33-.02.03,0,.07,0,.09,0,.34,0,.68-.02,1.03-.02h85.65c.36,0,.72,0,1.08.03.11,0,.23,0,.36.02.12,0,.24.02.36.03.22,0,.46.03.68.06.03,0,.05,0,.07,0,.32.03.64.07.95.11h.02c.12.02.26.04.38.07h.03c.31.05.62.1.92.17.05,0,.09.02.13.03.29.06.57.12.85.2.17.05.34.08.5.13.02,0,.04,0,.06,0,.3.07.59.17.89.25h0c.38.12.76.25,1.12.39,0,0,.02,0,.03,0,.03,0,.06.02.08.03.22.08.43.16.64.25.04.02.07.03.1.05.04,0,.08.03.12.05.13.05.25.1.37.16.07.02.12.05.18.07.11.05.22.09.31.15.22.09.45.21.66.32.1.04.2.08.28.14,0,0,0,0,0,0,.25.11.49.24.72.38.28.15.55.31.83.48.29.18.58.36.87.56.29.2.58.4.86.61.1.07.21.16.31.23.1.08.21.16.31.23.02.02.03.03.05.04.02,0,.03.03.05.04.03.02.06.05.08.07,0,0,.03.02.04.04.23.19.48.38.7.58.04.03.07.06.1.08.03.02.05.05.07.07.22.19.45.39.66.6.13.12.26.24.39.37.05.05.09.09.13.14l.17.17c.22.21.41.42.61.64.26.29.52.59.78.9.22.27.44.54.65.82.06.07.12.16.18.24.14.2.29.39.42.6.12.16.22.32.32.48.11.16.22.32.31.48.15.22.28.44.41.67.08.14.17.28.24.43.07.12.13.23.2.36.07.11.12.23.18.36.02.04.04.07.06.1.08.15.16.3.22.44.16.33.31.65.45.98.05.1.09.2.12.3.11.25.22.51.31.78.12.32.23.63.34.95t0,.02s.02.06.03.08c0,.02,0,.04.02.06.05.16.1.31.14.47,0,0,0,.02,0,.03.08.28.16.55.23.83.1.38.19.78.27,1.17v.02c.07.3.12.6.17.91.03.15.06.3.07.46,0,.02,0,.05,0,.07.05.33.09.66.12,1,.03.27.06.55.07.83.02.07.02.15.02.22,0,.08,0,.17.02.24,0,.08,0,.17,0,.25,0,.31.02.63.02.94Z"/>
        <path class="cls-6" d="M217.25,261.92v83.24c0,.31,0,.63-.02.94,0,.17,0,.34-.03.5,0,.08,0,.15-.02.23,0,.27-.04.55-.07.83-.03.34-.08.68-.12,1,0,.02,0,.05,0,.07-.02.16-.05.31-.08.46-.05.31-.1.61-.17.91v.02c-.08.39-.17.78-.27,1.17-.08.28-.15.55-.24.83,0,0,0,.02,0,.03-.04.16-.09.31-.14.47,0,.02,0,.04-.02.06,0,.03-.02.06-.03.08t0,.02c-.1.33-.22.64-.34.95-.08.26-.19.53-.3.78-.03.1-.08.2-.12.3-.14.32-.29.65-.45.98-.08.18-.17.37-.28.55-.06.12-.11.24-.18.36s-.12.23-.2.35c-.08.15-.15.29-.24.43-.13.24-.26.46-.41.68-.09.16-.2.31-.31.47-.09.16-.2.32-.32.48-.13.21-.28.4-.42.6-.05.08-.11.17-.17.24-.22.27-.43.55-.66.82-.25.31-.52.61-.78.89-.19.22-.39.43-.6.64l-.17.17s-.08.09-.13.14c-.13.13-.26.25-.4.38-.22.2-.43.4-.66.59-.03.03-.05.06-.08.08-.04.03-.07.06-.1.08-.23.2-.47.4-.71.58,0,.02-.03.03-.04.04-.03.02-.06.05-.08.07-.02,0-.03.03-.05.04-.02,0-.03.02-.05.04-.1.08-.21.15-.3.24-.1.07-.21.15-.31.23-.28.21-.57.41-.87.61-.29.2-.57.39-.87.56-.28.17-.55.32-.84.47-.24.14-.46.27-.71.39,0,0,0,0,0,0-.08.06-.18.1-.28.14-.22.11-.44.23-.67.32-.14.07-.27.14-.42.2-.14.07-.28.13-.43.19-.04.02-.08.04-.12.05-.04.02-.07.03-.1.05-.21.08-.42.17-.64.24-.03,0-.06.02-.08.03,0,0-.02,0-.02,0-.37.14-.74.27-1.13.4h0c-.29.08-.58.18-.88.25-.02,0-.04,0-.06,0-.17.05-.34.08-.51.13-.28.08-.56.14-.85.2-.04,0-.08.02-.13.03-.3.07-.61.12-.92.17h-.03c-.12.03-.26.05-.38.07h-.02c-.32.05-.64.08-.96.11-.03,0-.05,0-.08,0-.23.03-.46.04-.68.05-.11,0-.24.03-.36.03-.12,0-.24.02-.36.02-.36.02-.71.03-1.07.03h-40.63v-132.33h40.63c.36,0,.71,0,1.07.03.11,0,.24,0,.36.02.12,0,.24.02.36.03.22,0,.45.03.68.06.03,0,.05,0,.08,0,.32.03.64.07.96.11h.02c.11.02.25.04.38.07h.03c.31.05.62.1.92.17.05,0,.09.02.13.03.28.06.56.12.85.2.17.05.34.08.51.13.02,0,.04,0,.06,0,.3.08.58.17.88.25h0c.39.12.76.25,1.13.4,0,0,0,0,.02,0,.03,0,.06,0,.08.02.22.08.43.16.64.25.04.02.07.03.1.05.04,0,.08.03.12.05.13.05.25.1.38.16.07.02.12.05.18.08.1.05.21.09.3.15.23.09.45.21.67.32.1.04.2.08.28.14,0,0,0,0,0,0,.25.11.48.24.71.39.28.14.55.3.84.47.29.18.57.37.87.56.29.2.58.4.87.6.1.08.21.16.31.24.09.08.2.16.3.24.02.02.03.03.05.04.02,0,.03.03.05.04.03.02.06.05.08.07,0,0,.03.02.04.04.24.19.48.39.71.58.04.03.07.06.1.08.03.02.05.05.08.08.23.19.44.39.66.59.13.12.26.24.4.38.05.05.09.09.13.14l.17.17c.22.21.41.42.6.63.26.29.53.59.78.9.23.27.44.55.66.82.06.08.12.16.17.24.14.2.29.4.42.6.12.16.23.32.32.48.11.15.22.31.31.47.15.22.28.44.41.68.08.14.16.28.24.43.08.12.13.23.2.35.07.11.12.24.18.36.02.04.04.07.06.1.08.15.16.3.23.44.16.33.31.65.45.98.05.1.09.2.12.3.11.25.22.52.3.78.12.31.24.62.34.95t0,.02s.02.06.03.08c0,.02,0,.04.02.06.05.16.1.31.14.47,0,0,0,.02,0,.03.08.27.16.55.24.83.1.39.19.78.27,1.17v.02c.07.3.12.6.17.91.03.15.06.3.08.45,0,.02,0,.05,0,.07.05.33.09.67.12,1.01.03.27.06.55.07.83.02.08.02.15.02.23,0,.08,0,.17.02.24,0,.08,0,.17,0,.25,0,.31.02.62.02.94Z"/>
        <path class="cls-9" d="M101.34,263.83v-2.21l.02-.19v-.23s0-.06,0-.08c0-.05.02-.09.03-.15l.06-.26.02-.13.03-.1.09-.3.03-.08s0-.04.03-.07v-.02l.15-.35.19-.38.15-.29.07-.1.08-.11.1-.15s.04-.05.06-.07c.06-.08.1-.14.16-.21.03-.04.07-.08.09-.11l.07-.07.09-.1.04-.05.13-.13.06-.06.08-.08.13-.11.16-.14s.03-.03.1-.08l.09-.07.04-.03.14-.11.08-.05.03-.02.21-.13.06-.04.06-.03.08-.05.08-.05s.1-.06.16-.08l.48-.21.07-.03h0s.38-.13.38-.13c.09-.02.18-.05.26-.07l.08-.02.32-.06.35-.04h.08s2.35,0,2.35,0l.08-.03h43.03v-18.81h-45.03c-.35,0-.7,0-1.03.02-.03,0-.07,0-.09,0-.1,0-.21,0-.32.02h-.07c-.33.02-.66.05-.99.08-.28.03-.57.07-.87.1-.04,0-.08,0-.11.02-.16.02-.31.05-.47.08-.03,0-.07,0-.09,0-.3.05-.59.1-.88.17-.35.07-.7.15-1.03.24-.04,0-.08.03-.13.04-.02,0-.04,0-.05,0-.26.07-.53.14-.79.22-.28.08-.56.17-.83.27-.55.18-1.08.37-1.6.59-.17.07-.34.14-.51.23-.49.21-.97.44-1.43.69-.02,0-.03.02-.05.03-.2.1-.4.21-.59.31-.17.09-.34.19-.51.29-.16.09-.32.2-.48.3-.34.21-.66.41-.98.64-.15.1-.29.21-.44.32-.15.09-.3.21-.44.32-.45.34-.89.7-1.31,1.07-.19.16-.39.32-.56.49t-.02.02c-.21.19-.4.39-.6.58-.13.14-.27.28-.4.42-.08.08-.17.17-.25.26-.15.14-.29.3-.43.46-.2.23-.39.45-.57.68-.22.27-.43.55-.65.82-.05.07-.1.13-.15.2-.21.27-.4.56-.6.86-.03.04-.06.08-.08.12-.18.26-.36.55-.54.85-.16.25-.31.52-.45.78-.09.14-.17.28-.24.43-.02.02-.03.04-.04.07-.15.27-.29.55-.42.84-.12.27-.25.55-.38.84-.08.15-.14.32-.21.48-.24.59-.47,1.19-.67,1.81-.05.14-.09.28-.13.42-.1.31-.19.63-.26.95-.1.4-.2.79-.27,1.19-.08.35-.14.7-.2,1.05,0,.08-.03.15-.04.22-.06.39-.1.77-.14,1.17-.03.28-.06.55-.08.85,0,.04,0,.08,0,.12v.09c0,.09-.02.19-.02.29,0,.03,0,.07,0,.09v.14c0,.3-.02.59-.02.9v83.24c0,.3,0,.6.02.9v.14s0,.07,0,.09c0,.1,0,.2.02.29v.09s0,.08,0,.12c.02.28.05.56.08.85.04.4.08.78.14,1.16,0,.08.03.15.04.23.06.36.12.71.2,1.05.08.4.17.79.27,1.19.08.32.16.63.26.95.04.14.08.28.13.42.2.62.42,1.21.67,1.81.07.16.13.33.21.48.12.28.25.56.38.84.13.28.27.56.42.84,0,.03.02.05.04.07.08.14.15.29.24.43.14.26.29.53.45.78.18.29.36.57.54.85.03.04.06.08.08.12.2.29.4.58.6.86.05.07.1.13.15.2.22.27.43.55.65.82.19.23.38.45.57.68.14.15.28.31.43.46.08.09.17.18.25.26.13.14.27.28.4.42.2.2.4.4.6.58t.02.02c.18.16.38.33.56.49.41.38.86.73,1.31,1.07.14.1.29.22.44.32.15.11.29.22.44.32.32.23.64.43.98.64.16.1.32.21.48.3.17.09.34.19.51.28.2.11.4.22.59.32.02,0,.03.02.05.03.46.24.94.48,1.43.69.17.08.34.16.51.23.52.22,1.05.41,1.6.59.26.1.55.19.83.27.26.08.53.15.79.22,0,0,.03,0,.05,0,.05,0,.09.03.13.04.34.08.69.17,1.03.24.29.07.58.12.88.17.03,0,.07,0,.09,0,.16.03.31.06.47.08.04,0,.08.02.11.02.29.04.58.08.87.1.33.03.66.06.99.08h.07c.11,0,.22.02.32.02.03,0,.07,0,.09,0,.34,0,.69.02,1.03.02h45.03v-18.81h-43.01l-.08-.03h-2.46l-.35-.05-.34-.06h-.05c-.09-.03-.18-.06-.27-.08l-.38-.12h0s-.08-.05-.08-.05l-.39-.16-.34-.17-.08-.05-.07-.04-.08-.05-.19-.11-.03-.02-.07-.05-.15-.11-.04-.03-.09-.08c-.07-.05-.1-.08-.1-.08l-.15-.13-.13-.12h0l-.14-.14-.14-.15-.03-.03-.08-.09-.07-.07s-.07-.08-.09-.11c-.06-.07-.11-.14-.16-.21-.02-.02-.04-.05-.06-.07l-.1-.15-.08-.11-.07-.1-.16-.3-.18-.37-.15-.35v-.02s-.03-.05-.03-.07l-.03-.08-.09-.3-.03-.11-.03-.12-.05-.26s-.02-.1-.03-.15c0-.04,0-.07,0-.09v-.24l-.02-.16v-2.23l-.03-.08v-79.24l.03-.08Z"/>
        <path class="cls-10" d="M217.23,261.02v-.14s0-.07,0-.09c0-.1,0-.2-.02-.29v-.09s0-.08,0-.12c-.02-.29-.05-.56-.08-.85-.04-.4-.08-.78-.14-1.17,0-.07-.03-.14-.04-.22-.06-.36-.12-.71-.2-1.05-.08-.4-.17-.79-.27-1.19-.08-.32-.16-.64-.26-.95-.04-.14-.08-.28-.13-.42-.2-.62-.42-1.21-.67-1.81-.07-.16-.13-.33-.21-.48-.12-.29-.25-.56-.38-.84-.13-.28-.27-.56-.42-.84,0-.03-.02-.05-.04-.07-.08-.15-.15-.29-.24-.43-.14-.26-.29-.53-.45-.78-.18-.29-.36-.58-.54-.85-.03-.04-.06-.08-.08-.12-.2-.29-.4-.58-.6-.86-.05-.07-.1-.13-.15-.2-.22-.27-.43-.55-.65-.82-.19-.23-.38-.45-.57-.68-.14-.16-.28-.32-.43-.46-.08-.09-.17-.18-.25-.26-.13-.14-.27-.28-.4-.42-.2-.2-.4-.4-.6-.58t-.02-.02c-.18-.17-.38-.33-.56-.49-.41-.38-.86-.73-1.31-1.07-.14-.11-.29-.23-.44-.32-.15-.11-.29-.22-.44-.32-.32-.23-.64-.43-.98-.64-.16-.1-.32-.21-.48-.3-.17-.1-.34-.2-.51-.29-.2-.1-.4-.21-.59-.31-.02,0-.03-.02-.05-.03-.46-.24-.94-.48-1.43-.69-.17-.08-.34-.16-.51-.23-.52-.23-1.05-.41-1.6-.59-.26-.1-.55-.19-.83-.27-.26-.08-.53-.15-.79-.22,0,0-.03,0-.05,0-.05,0-.09-.03-.13-.04-.34-.08-.69-.17-1.03-.24-.29-.07-.58-.12-.88-.17-.03,0-.07,0-.09,0-.16-.03-.31-.06-.47-.08-.04,0-.08-.02-.11-.02-.29-.04-.58-.08-.87-.1-.33-.04-.66-.07-.99-.08h-.07c-.11,0-.22-.02-.32-.02-.03,0-.07,0-.09,0-.34,0-.69-.02-1.03-.02h-40.63v18.81h38.63l.08.03h2.44s.35.05.35.05l.32.06.08.02c.08.02.17.05.26.07l.38.12h0s.07.04.07.04l.48.21c.06.03.11.06.16.08l.08.05.08.05.06.03.06.04.21.13.03.02.08.05.14.11.04.03.09.07c.08.06.1.08.1.08l.16.14.13.11.26.26.04.05.09.1.07.07s.07.08.09.11c.06.07.1.13.16.21.02.02.04.05.06.07l.1.15.08.11.07.1.15.29.19.38.15.35v.02s.03.05.03.07l.03.08.09.3.03.1.02.13.06.26c0,.06.02.1.03.15,0,.03,0,.06,0,.08v.23l.02.19v2.21l.03.08v79.24l-.03.08v2.23l-.02.16v.24s0,.06,0,.09c0,.05-.02.1-.03.15l-.05.26-.03.12-.03.11-.09.3-.03.08s0,.04-.03.07v.02l-.15.35-.18.37-.16.3-.07.1-.08.11-.1.15s-.04.05-.06.07c-.05.07-.1.14-.16.21-.03.04-.07.08-.09.11l-.07.07-.08.09-.03.03-.14.15-.14.14h0l-.13.12-.15.13s-.04.03-.1.08l-.09.08-.04.03-.15.11-.07.05-.03.02-.19.11-.08.05-.07.04-.08.05-.34.17-.39.16-.08.04h0s-.38.13-.38.13c-.09.02-.18.05-.27.07h-.05s-.34.07-.34.07l-.35.05h-2.46l-.08.03h-38.61v18.81h40.63c.35,0,.7,0,1.03-.02.03,0,.07,0,.09,0,.1,0,.21,0,.32-.02h.07c.33-.02.66-.05.99-.08.28-.03.57-.07.87-.1.04,0,.08,0,.11-.02.16-.02.31-.05.47-.08.03,0,.07,0,.09,0,.3-.05.59-.1.88-.17.35-.07.7-.15,1.03-.24.04,0,.08-.03.13-.04.02,0,.04,0,.05,0,.26-.07.53-.14.79-.22.28-.08.56-.17.83-.27.55-.18,1.08-.38,1.6-.59.17-.07.34-.14.51-.23.49-.21.97-.44,1.43-.69.02,0,.03-.02.05-.03.2-.1.4-.21.59-.32.17-.09.34-.19.51-.28.16-.09.32-.2.48-.3.34-.21.66-.41.98-.64.15-.1.29-.21.44-.32.15-.1.3-.22.44-.32.45-.34.89-.7,1.31-1.07.19-.16.39-.33.56-.49t.02-.02c.21-.19.4-.39.6-.58.13-.14.27-.28.4-.42.08-.08.17-.17.25-.26.15-.15.29-.31.43-.46.2-.23.39-.45.57-.68.22-.27.43-.55.65-.82.05-.07.1-.13.15-.2.21-.27.4-.56.6-.86.03-.04.06-.08.08-.12.18-.27.36-.55.54-.85.16-.25.31-.52.45-.78.09-.14.17-.29.24-.43.02-.02.03-.04.04-.07.15-.27.29-.55.42-.84.12-.27.25-.55.38-.84.08-.15.14-.32.21-.48.24-.59.47-1.19.67-1.81.05-.14.09-.28.13-.42.1-.32.19-.63.26-.95.1-.4.2-.79.27-1.19.08-.35.14-.7.2-1.05,0-.08.03-.15.04-.23.06-.38.1-.76.14-1.16.03-.28.06-.56.08-.85,0-.04,0-.08,0-.12v-.09c0-.09.02-.19.02-.29,0-.03,0-.07,0-.09v-.14c0-.3.02-.6.02-.9v-83.24c0-.31,0-.6-.02-.9Z"/>
        <path class="cls-10" d="M217.25,655.63v83.23c0,.32,0,.64-.02.94,0,.17,0,.34-.03.5,0,.07,0,.15-.02.22,0,.28-.04.56-.07.83-.03.34-.07.67-.12,1,0,.02,0,.05,0,.07-.02.16-.05.31-.07.46-.05.31-.1.61-.17.91v.02c-.08.39-.17.79-.27,1.17-.07.28-.15.55-.23.83,0,0,0,.02,0,.03-.04.16-.09.31-.14.47,0,.02,0,.04-.02.06,0,.03-.02.06-.03.08t0,.02c-.1.33-.22.64-.34.95-.09.26-.2.52-.31.78-.03.1-.07.2-.12.3-.14.33-.29.65-.45.98-.08.18-.17.36-.28.54-.06.12-.11.24-.18.36-.07.12-.12.23-.2.36-.07.15-.16.29-.24.43-.13.23-.26.46-.41.67-.09.16-.2.32-.31.48-.09.16-.2.32-.32.48-.13.21-.28.4-.42.6-.06.08-.12.17-.18.24-.22.28-.43.55-.65.82-.25.31-.51.61-.78.9-.2.22-.39.43-.61.64l-.17.17s-.08.09-.13.14c-.13.13-.26.25-.39.37-.22.21-.44.41-.66.6-.03.03-.05.06-.07.07-.04.03-.07.06-.1.08-.22.2-.47.39-.7.58,0,.02-.03.03-.04.04-.03.02-.06.05-.08.07-.02,0-.03.03-.05.04-.02,0-.03.02-.05.04-.1.07-.21.15-.31.23-.1.07-.21.16-.31.23-.28.21-.57.41-.86.61s-.58.38-.87.56c-.28.17-.55.33-.83.48-.23.14-.47.27-.72.38,0,0,0,0,0,0-.08.06-.18.1-.28.14-.22.11-.44.22-.66.32-.14.07-.28.14-.43.2-.14.07-.28.13-.43.19-.04.02-.08.04-.12.05-.04.02-.07.03-.1.05-.21.09-.42.18-.64.25-.03,0-.06.02-.08.03,0,0-.02,0-.03,0-.36.14-.74.27-1.12.39h0c-.29.08-.59.18-.89.25-.02,0-.04,0-.06,0-.17.05-.34.08-.5.13-.28.07-.56.14-.85.2-.04,0-.08.02-.13.03-.3.07-.61.12-.92.17h-.03c-.12.03-.26.05-.38.07h-.02c-.32.05-.64.08-.95.11-.03,0-.05,0-.07,0-.22.03-.46.05-.68.06-.11,0-.23.03-.36.03-.12,0-.24.02-.36.02-.36.02-.71.03-1.08.03h-85.65c-.35,0-.69,0-1.03-.02-.03,0-.07,0-.09,0-.11,0-.22,0-.33-.02h-.07c-.33-.02-.65-.05-.98-.08-.29-.03-.58-.07-.87-.1-.04,0-.07,0-.11-.02-.16-.02-.31-.05-.47-.07-.03,0-.07,0-.09,0-.3-.05-.6-.1-.89-.17-.35-.07-.69-.15-1.03-.23-.05,0-.09-.03-.14-.04-.02,0-.04,0-.05,0-.26-.07-.52-.14-.79-.22-.28-.08-.56-.17-.83-.27-.54-.18-1.08-.37-1.6-.6-.17-.07-.34-.14-.5-.22-.49-.21-.96-.44-1.43-.68-.02,0-.03-.02-.05-.03-.2-.1-.39-.21-.59-.32-.17-.09-.34-.19-.5-.29-.17-.09-.33-.2-.49-.3-.34-.21-.65-.41-.97-.64-.15-.1-.3-.21-.45-.32-.15-.1-.3-.22-.44-.33-.45-.34-.89-.69-1.31-1.07-.19-.16-.38-.33-.56-.5l-.02-.02c-.21-.19-.4-.38-.6-.58-.14-.14-.28-.28-.41-.42-.08-.08-.17-.17-.25-.26-.15-.15-.29-.31-.43-.47-.2-.22-.38-.45-.58-.67-.22-.27-.43-.54-.65-.82-.05-.07-.1-.13-.15-.2-.21-.27-.4-.56-.6-.85-.03-.04-.06-.08-.08-.12-.19-.27-.36-.56-.54-.85-.16-.25-.31-.51-.45-.78-.09-.14-.17-.29-.24-.44-.02-.02-.03-.04-.04-.07-.15-.27-.29-.55-.42-.83-.13-.27-.26-.55-.38-.84-.07-.15-.14-.32-.21-.48-.24-.59-.47-1.19-.66-1.8-.05-.14-.09-.28-.13-.42-.1-.32-.19-.64-.27-.95-.1-.39-.2-.79-.27-1.19-.07-.35-.14-.69-.2-1.05,0-.07-.03-.15-.04-.22-.06-.38-.1-.77-.14-1.16-.03-.28-.06-.56-.07-.85,0-.04,0-.08,0-.12v-.09c0-.09-.02-.19-.02-.29,0-.03,0-.07,0-.09v-.14c0-.3-.02-.6-.02-.91v-83.23c0-.31,0-.61.02-.91v-.14s0-.07,0-.09c0-.1,0-.2.02-.29v-.09s0-.08,0-.12c.02-.29.05-.57.07-.85.04-.39.08-.78.14-1.16,0-.07.03-.15.04-.22.06-.36.12-.7.2-1.05.07-.4.17-.79.27-1.19.08-.32.17-.64.27-.95.04-.14.08-.28.13-.42.2-.62.42-1.22.66-1.8.07-.16.13-.33.21-.48.12-.29.25-.57.38-.84.13-.28.27-.56.42-.83,0-.03.02-.05.04-.07.07-.15.15-.3.24-.44.14-.26.29-.52.45-.78.18-.29.36-.58.54-.85.03-.04.06-.08.08-.12.2-.29.39-.58.6-.85.05-.07.1-.13.15-.2.22-.28.43-.55.65-.82.2-.22.38-.45.58-.67.14-.16.28-.32.43-.47.08-.09.17-.18.25-.26.13-.14.27-.28.41-.42.2-.2.39-.39.6-.58t.02-.02c.18-.17.37-.34.56-.5.42-.37.86-.73,1.31-1.07.14-.11.29-.22.44-.33.15-.11.3-.22.45-.32.32-.22.64-.43.97-.64.16-.1.32-.21.49-.3.17-.1.34-.2.5-.29.2-.11.39-.22.59-.32.02,0,.03-.02.05-.03.47-.24.94-.48,1.43-.68.17-.08.34-.16.5-.22.52-.22,1.06-.42,1.6-.6.27-.1.55-.19.83-.27.26-.07.52-.15.79-.22,0,0,.03,0,.05,0,.05,0,.09-.03.14-.04.34-.08.68-.17,1.03-.23.29-.07.59-.12.89-.17.03,0,.07,0,.09,0,.16-.03.31-.06.47-.07.04,0,.07-.02.11-.02.29-.04.58-.07.87-.1.33-.04.65-.07.98-.08h.07c.11,0,.22-.02.33-.02.03,0,.07,0,.09,0,.34,0,.68-.02,1.03-.02h85.65c.36,0,.72,0,1.08.03.11,0,.23,0,.36.02.12,0,.24.02.36.03.22,0,.46.03.68.06.03,0,.05,0,.07,0,.32.03.64.07.95.11h.02c.12.02.26.04.38.07h.03c.31.05.62.1.92.17.05,0,.09.02.13.03.29.06.57.12.85.2.17.05.34.08.5.13.02,0,.04,0,.06,0,.3.07.59.17.89.25h0c.38.12.76.25,1.12.39,0,0,.02,0,.03,0,.03,0,.06.02.08.03.22.08.43.16.64.25.04.02.07.03.1.05.04,0,.08.03.12.05.13.05.25.1.37.16.07.02.12.05.18.07.11.05.22.09.31.15.22.09.45.21.66.32.1.04.2.08.28.14,0,0,0,0,0,0,.25.11.49.24.72.38.28.15.55.31.83.48.29.18.58.36.87.56.29.2.58.4.86.61.1.07.21.16.31.23.1.08.21.16.31.23.02.02.03.03.05.04.02,0,.03.03.05.04.03.02.06.05.08.07,0,0,.03.02.04.04.23.19.48.38.7.58.04.03.07.06.1.08.03.02.05.05.07.07.22.19.45.39.66.6.13.12.26.24.39.37.05.05.09.09.13.14l.17.17c.22.21.41.42.61.64.26.29.52.59.78.9.22.27.44.54.65.82.06.07.12.16.18.24.14.2.29.39.42.6.12.16.22.32.32.48.11.16.22.32.31.48.15.22.28.44.41.67.08.14.17.28.24.43.07.12.13.23.2.36.07.11.12.23.18.36.02.04.04.07.06.1.08.15.16.3.22.44.16.33.31.65.45.98.05.1.09.2.12.3.11.25.22.51.31.78.12.32.23.63.34.95t0,.02s.02.06.03.08c0,.02,0,.04.02.06.05.16.1.31.14.47,0,0,0,.02,0,.03.08.28.16.55.23.83.1.38.19.78.27,1.17v.02c.07.3.12.6.17.91.03.15.06.3.07.46,0,.02,0,.05,0,.07.05.33.09.66.12,1,.03.27.06.55.07.83.02.07.02.15.02.22,0,.08,0,.17.02.24,0,.08,0,.17,0,.25,0,.31.02.63.02.94Z"/>
        <path class="cls-6" d="M217.25,655.63v83.24c0,.31,0,.63-.02.94,0,.17,0,.34-.03.5,0,.08,0,.15-.02.23,0,.27-.04.55-.07.83-.03.34-.08.68-.12,1,0,.02,0,.05,0,.07-.02.16-.05.31-.08.46-.05.31-.1.61-.17.91v.02c-.08.39-.17.78-.27,1.17-.08.28-.15.55-.24.83,0,0,0,.02,0,.03-.04.16-.09.31-.14.47,0,.02,0,.04-.02.06,0,.03-.02.06-.03.08t0,.02c-.1.33-.22.64-.34.95-.08.26-.19.53-.3.78-.03.1-.08.2-.12.3-.14.32-.29.65-.45.98-.08.18-.17.37-.28.55-.06.12-.11.24-.18.36s-.12.23-.2.35c-.08.15-.15.29-.24.43-.13.24-.26.46-.41.68-.09.16-.2.31-.31.47-.09.16-.2.32-.32.48-.13.21-.28.4-.42.6-.05.08-.11.17-.17.24-.22.27-.43.55-.66.82-.25.31-.52.61-.78.89-.19.22-.39.43-.6.64l-.17.17s-.08.09-.13.14c-.13.13-.26.25-.4.38-.22.2-.43.4-.66.59-.03.03-.05.06-.08.08-.04.03-.07.06-.1.08-.23.2-.47.4-.71.58,0,.02-.03.03-.04.04-.03.02-.06.05-.08.07-.02,0-.03.03-.05.04-.02,0-.03.02-.05.04-.1.08-.21.15-.3.24-.1.07-.21.15-.31.23-.28.21-.57.41-.87.61-.29.2-.57.39-.87.56-.28.17-.55.32-.84.47-.24.14-.46.27-.71.39,0,0,0,0,0,0-.08.06-.18.1-.28.14-.22.11-.44.23-.67.32-.14.07-.27.14-.42.2-.14.07-.28.13-.43.19-.04.02-.08.04-.12.05-.04.02-.07.03-.1.05-.21.08-.42.17-.64.24-.03,0-.06.02-.08.03,0,0-.02,0-.02,0-.37.14-.74.27-1.13.4h0c-.29.08-.58.18-.88.25-.02,0-.04,0-.06,0-.17.05-.34.08-.51.13-.28.08-.56.14-.85.2-.04,0-.08.02-.13.03-.3.07-.61.12-.92.17h-.03c-.12.03-.26.05-.38.07h-.02c-.32.05-.64.08-.96.11-.03,0-.05,0-.08,0-.23.03-.46.04-.68.05-.11,0-.24.03-.36.03-.12,0-.24.02-.36.02-.36.02-.71.03-1.07.03h-40.63v-132.33h40.63c.36,0,.71,0,1.07.03.11,0,.24,0,.36.02.12,0,.24.02.36.03.22,0,.45.03.68.06.03,0,.05,0,.08,0,.32.03.64.07.96.11h.02c.11.02.25.04.38.07h.03c.31.05.62.1.92.17.05,0,.09.02.13.03.28.06.56.12.85.2.17.05.34.08.51.13.02,0,.04,0,.06,0,.3.08.58.17.88.25h0c.39.12.76.25,1.13.4,0,0,0,0,.02,0,.03,0,.06,0,.08.02.22.08.43.16.64.25.04.02.07.03.1.05.04,0,.08.03.12.05.13.05.25.1.38.16.07.02.12.05.18.08.1.05.21.09.3.15.23.09.45.21.67.32.1.04.2.08.28.14,0,0,0,0,0,0,.25.11.48.24.71.39.28.14.55.3.84.47.29.18.57.37.87.56.29.2.58.4.87.6.1.08.21.16.31.24.09.08.2.16.3.24.02.02.03.03.05.04.02,0,.03.03.05.04.03.02.06.05.08.07,0,0,.03.02.04.04.24.19.48.39.71.58.04.03.07.06.1.08.03.02.05.05.08.08.23.19.44.39.66.59.13.12.26.24.4.38.05.05.09.09.13.14l.17.17c.22.21.41.42.6.63.26.29.53.59.78.9.23.27.44.55.66.82.06.08.12.16.17.24.14.2.29.4.42.6.12.16.23.32.32.48.11.15.22.31.31.47.15.22.28.44.41.68.08.14.16.28.24.43.08.12.13.23.2.35.07.11.12.24.18.36.02.04.04.07.06.1.08.15.16.3.23.44.16.33.31.65.45.98.05.1.09.2.12.3.11.25.22.52.3.78.12.31.24.62.34.95t0,.02s.02.06.03.08c0,.02,0,.04.02.06.05.16.1.31.14.47,0,0,0,.02,0,.03.08.27.16.55.24.83.1.39.19.78.27,1.17v.02c.07.3.12.6.17.91.03.15.06.3.08.45,0,.02,0,.05,0,.07.05.33.09.67.12,1.01.03.27.06.55.07.83.02.08.02.15.02.23,0,.08,0,.17.02.24,0,.08,0,.17,0,.25,0,.31.02.62.02.94Z"/>
        <path class="cls-9" d="M101.34,657.54v-2.21l.02-.19v-.23s0-.06,0-.08c0-.05.02-.09.03-.15l.06-.26.02-.13.03-.1.09-.3.03-.08s0-.04.03-.07v-.02l.15-.35.19-.38.15-.29.07-.1.08-.11.1-.15s.04-.05.06-.07c.06-.08.1-.14.16-.21.03-.04.07-.08.09-.11l.07-.07.09-.1.04-.05.13-.13.06-.06.08-.08.13-.11.16-.14s.03-.03.1-.08l.09-.07.04-.03.14-.11.08-.05.03-.02.21-.13.06-.04.06-.03.08-.05.08-.05s.1-.06.16-.08l.48-.21.07-.03h0s.38-.13.38-.13c.09-.02.18-.05.26-.07l.08-.02.32-.06.35-.04h.08s2.35,0,2.35,0l.08-.03h43.03v-18.81h-45.03c-.35,0-.7,0-1.03.02-.03,0-.07,0-.09,0-.1,0-.21,0-.32.02h-.07c-.33.02-.66.05-.99.08-.28.03-.57.07-.87.1-.04,0-.08,0-.11.02-.16.02-.31.05-.47.08-.03,0-.07,0-.09,0-.3.05-.59.1-.88.17-.35.07-.7.15-1.03.24-.04,0-.08.03-.13.04-.02,0-.04,0-.05,0-.26.07-.53.14-.79.22-.28.08-.56.17-.83.27-.55.18-1.08.37-1.6.59-.17.07-.34.14-.51.23-.49.21-.97.44-1.43.69-.02,0-.03.02-.05.03-.2.1-.4.21-.59.31-.17.09-.34.19-.51.29-.16.09-.32.2-.48.3-.34.21-.66.41-.98.64-.15.1-.29.21-.44.32-.15.09-.3.21-.44.32-.45.34-.89.7-1.31,1.07-.19.16-.39.32-.56.49t-.02.02c-.21.19-.4.39-.6.58-.13.14-.27.28-.4.42-.08.08-.17.17-.25.26-.15.14-.29.3-.43.46-.2.23-.39.45-.57.68-.22.27-.43.55-.65.82-.05.07-.1.13-.15.2-.21.27-.4.56-.6.86-.03.04-.06.08-.08.12-.18.26-.36.55-.54.85-.16.25-.31.52-.45.78-.09.14-.17.28-.24.43-.02.02-.03.04-.04.07-.15.27-.29.55-.42.84-.12.27-.25.55-.38.84-.08.15-.14.32-.21.48-.24.59-.47,1.19-.67,1.81-.05.14-.09.28-.13.42-.1.31-.19.63-.26.95-.1.4-.2.79-.27,1.19-.08.35-.14.7-.2,1.05,0,.08-.03.15-.04.22-.06.39-.1.77-.14,1.17-.03.28-.06.55-.08.85,0,.04,0,.08,0,.12v.09c0,.09-.02.19-.02.29,0,.03,0,.07,0,.09v.14c0,.3-.02.59-.02.9v83.24c0,.3,0,.6.02.9v.14s0,.07,0,.09c0,.1,0,.2.02.29v.09s0,.08,0,.12c.02.28.05.56.08.85.04.4.08.78.14,1.16,0,.08.03.15.04.23.06.36.12.71.2,1.05.08.4.17.79.27,1.19.08.32.16.63.26.95.04.14.08.28.13.42.2.62.42,1.21.67,1.81.07.16.13.33.21.48.12.28.25.56.38.84.13.28.27.56.42.84,0,.03.02.05.04.07.08.14.15.29.24.43.14.26.29.53.45.78.18.29.36.57.54.85.03.04.06.08.08.12.2.29.4.58.6.86.05.07.1.13.15.2.22.27.43.55.65.82.19.23.38.45.57.68.14.15.28.31.43.46.08.09.17.18.25.26.13.14.27.28.4.42.2.2.4.4.6.58t.02.02c.18.16.38.33.56.49.41.38.86.73,1.31,1.07.14.1.29.22.44.32.15.11.29.22.44.32.32.23.64.43.98.64.16.1.32.21.48.3.17.09.34.19.51.28.2.11.4.22.59.32.02,0,.03.02.05.03.46.24.94.48,1.43.69.17.08.34.16.51.23.52.22,1.05.41,1.6.59.26.1.55.19.83.27.26.08.53.15.79.22,0,0,.03,0,.05,0,.05,0,.09.03.13.04.34.08.69.17,1.03.24.29.07.58.12.88.17.03,0,.07,0,.09,0,.16.03.31.06.47.08.04,0,.08.02.11.02.29.04.58.08.87.1.33.03.66.06.99.08h.07c.11,0,.22.02.32.02.03,0,.07,0,.09,0,.34,0,.69.02,1.03.02h45.03v-18.81h-43.01l-.08-.03h-2.46l-.35-.05-.34-.06h-.05c-.09-.03-.18-.06-.27-.08l-.38-.12h0s-.08-.05-.08-.05l-.39-.16-.34-.17-.08-.05-.07-.04-.08-.05-.19-.11-.03-.02-.07-.05-.15-.11-.04-.03-.09-.08c-.07-.05-.1-.08-.1-.08l-.15-.13-.13-.12h0l-.14-.14-.14-.15-.03-.03-.08-.09-.07-.07s-.07-.08-.09-.11c-.06-.07-.11-.14-.16-.21-.02-.02-.04-.05-.06-.07l-.1-.15-.08-.11-.07-.1-.16-.3-.18-.37-.15-.35v-.02s-.03-.05-.03-.07l-.03-.08-.09-.3-.03-.11-.03-.12-.05-.26s-.02-.1-.03-.15c0-.04,0-.07,0-.09v-.24l-.02-.16v-2.23l-.03-.08v-79.24l.03-.08Z"/>
        <path class="cls-10" d="M217.23,654.73v-.14s0-.07,0-.09c0-.1,0-.2-.02-.29v-.09s0-.08,0-.12c-.02-.29-.05-.56-.08-.85-.04-.4-.08-.78-.14-1.17,0-.07-.03-.14-.04-.22-.06-.36-.12-.71-.2-1.05-.08-.4-.17-.79-.27-1.19-.08-.32-.16-.64-.26-.95-.04-.14-.08-.28-.13-.42-.2-.62-.42-1.21-.67-1.81-.07-.16-.13-.33-.21-.48-.12-.29-.25-.56-.38-.84-.13-.28-.27-.56-.42-.84,0-.03-.02-.05-.04-.07-.08-.15-.15-.29-.24-.43-.14-.26-.29-.53-.45-.78-.18-.29-.36-.58-.54-.85-.03-.04-.06-.08-.08-.12-.2-.29-.4-.58-.6-.86-.05-.07-.1-.13-.15-.2-.22-.27-.43-.55-.65-.82-.19-.23-.38-.45-.57-.68-.14-.16-.28-.32-.43-.46-.08-.09-.17-.18-.25-.26-.13-.14-.27-.28-.4-.42-.2-.2-.4-.4-.6-.58t-.02-.02c-.18-.17-.38-.33-.56-.49-.41-.38-.86-.73-1.31-1.07-.14-.11-.29-.23-.44-.32-.15-.11-.29-.22-.44-.32-.32-.23-.64-.43-.98-.64-.16-.1-.32-.21-.48-.3-.17-.1-.34-.2-.51-.29-.2-.1-.4-.21-.59-.31-.02,0-.03-.02-.05-.03-.46-.24-.94-.48-1.43-.69-.17-.08-.34-.16-.51-.23-.52-.23-1.05-.41-1.6-.59-.26-.1-.55-.19-.83-.27-.26-.08-.53-.15-.79-.22,0,0-.03,0-.05,0-.05,0-.09-.03-.13-.04-.34-.08-.69-.17-1.03-.24-.29-.07-.58-.12-.88-.17-.03,0-.07,0-.09,0-.16-.03-.31-.06-.47-.08-.04,0-.08-.02-.11-.02-.29-.04-.58-.08-.87-.1-.33-.04-.66-.07-.99-.08h-.07c-.11,0-.22-.02-.32-.02-.03,0-.07,0-.09,0-.34,0-.69-.02-1.03-.02h-40.63v18.81h38.63l.08.03h2.44s.35.05.35.05l.32.06.08.02c.08.02.17.05.26.07l.38.12h0s.07.04.07.04l.48.21c.06.03.11.06.16.08l.08.05.08.05.06.03.06.04.21.13.03.02.08.05.14.11.04.03.09.07c.08.06.1.08.1.08l.16.14.13.11.26.26.04.05.09.1.07.07s.07.08.09.11c.06.07.1.13.16.21.02.02.04.05.06.07l.1.15.08.11.07.1.15.29.19.38.15.35v.02s.03.05.03.07l.03.08.09.3.03.1.02.13.06.26c0,.06.02.1.03.15,0,.03,0,.06,0,.08v.23l.02.19v2.21l.03.08v79.24l-.03.08v2.23l-.02.16v.24s0,.06,0,.09c0,.05-.02.1-.03.15l-.05.26-.03.12-.03.11-.09.3-.03.08s0,.04-.03.07v.02l-.15.35-.18.37-.16.3-.07.1-.08.11-.1.15s-.04.05-.06.07c-.05.07-.1.14-.16.21-.03.04-.07.08-.09.11l-.07.07-.08.09-.03.03-.14.15-.14.14h0l-.13.12-.15.13s-.04.03-.1.08l-.09.08-.04.03-.15.11-.07.05-.03.02-.19.11-.08.05-.07.04-.08.05-.34.17-.39.16-.08.04h0s-.38.13-.38.13c-.09.02-.18.05-.27.07h-.05s-.34.07-.34.07l-.35.05h-2.46l-.08.03h-38.61v18.81h40.63c.35,0,.7,0,1.03-.02.03,0,.07,0,.09,0,.1,0,.21,0,.32-.02h.07c.33-.02.66-.05.99-.08.28-.03.57-.07.87-.1.04,0,.08,0,.11-.02.16-.02.31-.05.47-.08.03,0,.07,0,.09,0,.3-.05.59-.1.88-.17.35-.07.7-.15,1.03-.24.04,0,.08-.03.13-.04.02,0,.04,0,.05,0,.26-.07.53-.14.79-.22.28-.08.56-.17.83-.27.55-.18,1.08-.38,1.6-.59.17-.07.34-.14.51-.23.49-.21.97-.44,1.43-.69.02,0,.03-.02.05-.03.2-.1.4-.21.59-.32.17-.09.34-.19.51-.28.16-.09.32-.2.48-.3.34-.21.66-.41.98-.64.15-.1.29-.21.44-.32.15-.1.3-.22.44-.32.45-.34.89-.7,1.31-1.07.19-.16.39-.33.56-.49t.02-.02c.21-.19.4-.39.6-.58.13-.14.27-.28.4-.42.08-.08.17-.17.25-.26.15-.15.29-.31.43-.46.2-.23.39-.45.57-.68.22-.27.43-.55.65-.82.05-.07.1-.13.15-.2.21-.27.4-.56.6-.86.03-.04.06-.08.08-.12.18-.27.36-.55.54-.85.16-.25.31-.52.45-.78.09-.14.17-.29.24-.43.02-.02.03-.04.04-.07.15-.27.29-.55.42-.84.12-.27.25-.55.38-.84.08-.15.14-.32.21-.48.24-.59.47-1.19.67-1.81.05-.14.09-.28.13-.42.1-.32.19-.63.26-.95.1-.4.2-.79.27-1.19.08-.35.14-.7.2-1.05,0-.08.03-.15.04-.23.06-.38.1-.76.14-1.16.03-.28.06-.56.08-.85,0-.04,0-.08,0-.12v-.09c0-.09.02-.19.02-.29,0-.03,0-.07,0-.09v-.14c0-.3.02-.6.02-.9v-83.24c0-.31,0-.6-.02-.9Z"/>
        <path class="cls-10" d="M847,264.73v83.23c0,.39,0,.78-.03,1.16,0,.07,0,.14,0,.22,0,.17-.02.34-.04.5,0,.05,0,.08-.02.13,0,.21-.03.41-.06.61-.02.23-.05.46-.07.68,0,.08-.03.17-.04.25,0,.11-.03.22-.05.32-.02.11-.04.22-.06.32-.03.22-.07.44-.12.65,0,.08-.03.17-.06.24,0,.04,0,.07-.02.1-.05.25-.1.5-.17.74,0,0,0,.03,0,.04-.06.23-.11.45-.19.67,0,.07-.03.13-.05.2,0,.05-.03.09-.05.14-.06.2-.11.39-.19.6h0c-.07.22-.13.41-.21.62-.11.33-.23.65-.37.96-.07.19-.14.36-.22.53-.02.06-.05.12-.07.18-.1.26-.22.51-.35.76-.12.25-.24.51-.38.76-.02.03-.03.06-.05.08-.11.22-.23.45-.37.67-.12.23-.25.46-.39.67-.17.27-.34.54-.51.8-.02.03-.05.07-.07.09-.1.15-.21.31-.32.45,0,0-.02.03-.03.04-.17.24-.35.48-.52.71-.17.23-.36.47-.54.69-.2.24-.39.48-.61.7-.11.12-.22.25-.35.37-.03.03-.06.07-.08.09-.12.14-.26.29-.4.42-.02.03-.05.05-.07.07-.23.24-.47.48-.71.69-.15.15-.31.3-.48.44-.18.16-.36.32-.54.47l-.17.14c-.24.2-.5.39-.75.58-.08.07-.17.13-.25.19-.22.17-.43.33-.65.47-.08.07-.17.12-.25.18-.25.18-.51.34-.78.5-.07.05-.13.08-.2.12-.03.02-.06.04-.08.06-.16.1-.32.2-.49.28-.03.02-.07.03-.09.05-.18.1-.36.21-.54.3-.18.1-.36.2-.55.28-.3.16-.6.3-.91.43-.09.05-.19.09-.29.13-.27.12-.55.24-.84.35-.03,0-.05.02-.07.03-.21.08-.41.16-.62.23-.23.08-.48.17-.72.24-.22.07-.42.13-.64.19-.07.03-.14.05-.21.07-.1.03-.21.06-.31.08-.22.06-.46.11-.69.17-.15.04-.29.07-.44.09-.33.07-.65.14-.99.2-.16.03-.32.06-.48.08-.17.02-.33.05-.49.07-.05,0-.08,0-.13.02h-.03c-.21.03-.41.06-.62.07-.34.04-.66.07-1,.08h-.07c-.1,0-.2,0-.3,0-.35.02-.7.03-1.06.03h-25.75c-.34,0-.66,0-1-.02-.16,0-.33-.02-.49-.03-.34-.02-.67-.05-1.01-.08-.3-.03-.6-.07-.89-.11-.19-.02-.37-.05-.56-.08-.06,0-.1-.02-.16-.03-.27-.04-.55-.08-.82-.15-.38-.07-.77-.16-1.15-.26-.32-.08-.65-.17-.96-.27-.28-.08-.54-.17-.82-.27,0,0-.03,0-.04,0-.03,0-.06-.02-.08-.03s-.05-.02-.07-.03c-.2-.07-.39-.14-.59-.22-.18-.07-.35-.13-.52-.21-.2-.07-.39-.16-.58-.24-.58-.25-1.15-.52-1.7-.82-.28-.15-.55-.3-.82-.46-.22-.12-.43-.25-.63-.37-.03-.02-.05-.03-.07-.05-.57-.36-1.11-.73-1.65-1.13-.15-.1-.29-.22-.42-.33-.36-.27-.7-.55-1.04-.85-.11-.09-.21-.18-.31-.27s-.21-.19-.31-.28c-.09-.08-.18-.17-.27-.26-.17-.15-.33-.31-.48-.47-.41-.41-.8-.84-1.18-1.29-.3-.33-.57-.67-.83-1.02-.12-.15-.24-.31-.36-.47-.37-.51-.72-1.02-1.05-1.55-.13-.22-.26-.43-.38-.65-.15-.25-.29-.5-.43-.77-.14-.25-.27-.52-.4-.79-.02-.04-.05-.08-.06-.12-.12-.24-.23-.49-.34-.73,0,0,0-.02,0-.03-.07-.16-.15-.32-.21-.49,0,0-.02-.02-.02-.03-.12-.29-.23-.58-.35-.87-.1-.29-.21-.58-.3-.88-.05-.16-.1-.32-.15-.48-.02-.05-.03-.09-.05-.14-.08-.29-.17-.59-.24-.9-.09-.36-.18-.73-.25-1.1-.07-.35-.14-.7-.2-1.06-.02-.12-.04-.24-.06-.36,0-.03,0-.05,0-.07-.05-.29-.07-.58-.1-.87,0-.05,0-.09-.02-.14-.03-.23-.05-.47-.06-.7v-.03c-.02-.21-.03-.41-.04-.61-.02-.36-.03-.72-.03-1.08v-83.23c0-.36,0-.72.03-1.08,0-.2.02-.4.04-.61v-.03c0-.23.03-.47.06-.7,0-.05,0-.09.02-.14.03-.29.06-.58.1-.87,0-.03,0-.05,0-.07.02-.12.04-.24.06-.36.06-.36.12-.71.2-1.06.07-.37.16-.74.25-1.1.07-.31.16-.61.24-.9.02-.05.03-.09.05-.14.05-.16.1-.32.15-.48.09-.3.2-.59.3-.88.11-.29.22-.58.35-.87,0,0,0-.02.02-.03.06-.17.13-.33.21-.49,0,0,0-.02,0-.03.1-.24.22-.49.34-.73,0-.04.04-.08.06-.12.13-.26.26-.53.4-.79.14-.26.28-.51.43-.77.12-.22.25-.43.38-.65.33-.53.67-1.05,1.05-1.55.11-.16.23-.32.36-.47.26-.35.53-.69.83-1.02.37-.45.77-.88,1.18-1.29.16-.16.32-.32.48-.47.09-.09.18-.18.27-.26.1-.09.21-.19.31-.28.1-.09.2-.18.31-.27.34-.3.68-.58,1.04-.85.13-.11.27-.22.42-.33.53-.4,1.08-.78,1.65-1.13.03-.02.05-.03.07-.05.2-.12.41-.25.63-.37.27-.16.54-.31.82-.46.55-.3,1.12-.57,1.7-.82.19-.08.38-.17.58-.24.18-.07.35-.14.52-.21.2-.07.39-.15.59-.22.03,0,.05-.02.07-.03s.06-.02.08-.03c0,0,.03,0,.04,0,.28-.1.54-.19.82-.27.32-.1.65-.19.96-.27.37-.09.76-.19,1.15-.26.27-.06.54-.11.82-.15.06,0,.1-.02.16-.03.19-.04.37-.07.56-.08.29-.05.59-.08.89-.11.34-.04.67-.07,1.01-.08.16,0,.33-.02.49-.03.34,0,.66-.02,1-.02h25.75c.36,0,.71,0,1.06.03.1,0,.2,0,.3,0h.07c.34.02.66.05,1,.08.21.02.41.05.62.07h.03s.08,0,.13.02c.16.02.32.05.49.07.16.03.32.06.48.08.34.06.66.12.99.2.15.03.29.06.44.09.05,0,.08.02.13.03.19.05.36.09.54.13t.02,0c.1.03.21.06.31.08.07.02.14.04.21.07.22.06.42.12.64.19.24.07.49.16.72.24.21.07.41.15.62.23.03,0,.05.02.07.03.29.1.57.22.84.35.1.04.2.08.29.13.31.13.61.27.91.43.19.08.37.18.55.28.19.09.36.2.54.3.03.02.07.03.09.05.17.08.33.18.49.28.03.02.06.04.08.06.07.04.13.07.2.12.26.16.52.32.78.5.08.06.17.11.25.18.22.14.44.3.65.47.08.06.17.11.25.19.25.19.5.38.75.58l.17.14c.19.15.36.31.54.47.17.14.33.29.48.44.14.12.28.25.41.39.1.09.21.2.3.3.02.02.05.04.07.07.14.13.28.28.4.42.03.03.06.07.08.09.12.12.23.25.35.37.22.22.41.46.61.7.19.22.37.46.54.69.18.23.36.47.52.71,0,0,.02.03.03.04.11.14.22.3.32.45.02.03.05.07.07.09.18.26.35.53.51.8.14.22.27.44.39.67.14.22.26.45.37.67.02.03.03.06.05.08.14.25.26.51.38.76.12.25.24.5.35.76.03.06.06.12.07.18.08.17.16.35.22.53.14.32.26.64.37.96.07.21.14.4.21.61h0c.07.22.13.41.19.61.02.05.04.09.05.14.02.07.04.13.05.2.07.22.13.44.19.67,0,0,0,.03,0,.04.07.24.12.49.17.74,0,.04,0,.07.02.1.03.07.05.16.06.24.05.22.09.43.12.65.02.1.04.21.06.32.02.1.04.21.05.32,0,.08.03.17.04.25.03.22.06.45.07.68.03.2.05.4.06.61,0,.05,0,.09.02.14.02.16.03.32.04.48,0,.07,0,.15,0,.22.02.38.03.77.03,1.16Z"/>
        <path class="cls-10" d="M847.01,655.63v83.23c0,.39,0,.78-.03,1.16,0,.07,0,.14,0,.22,0,.17-.02.34-.04.5,0,.05,0,.08-.02.13,0,.21-.03.41-.06.61-.02.23-.05.46-.07.68,0,.08-.03.17-.04.25,0,.11-.03.22-.05.32-.02.11-.04.22-.06.32-.03.22-.07.44-.12.65,0,.08-.03.17-.06.24,0,.04,0,.07-.02.1-.05.25-.1.5-.17.74,0,0,0,.03,0,.04-.06.23-.11.45-.19.67,0,.07-.03.13-.05.2,0,.05-.03.09-.05.14-.06.2-.11.39-.19.6h0c-.07.22-.13.41-.21.62-.11.33-.23.65-.37.96-.07.19-.14.36-.22.53-.02.06-.05.12-.07.18-.1.26-.22.51-.35.76-.12.25-.24.51-.38.76-.02.03-.03.06-.05.08-.11.22-.23.45-.37.67-.12.23-.25.46-.39.67-.17.27-.34.54-.51.8-.02.03-.05.07-.07.09-.1.15-.21.31-.32.45,0,0-.02.03-.03.04-.17.24-.35.48-.52.71-.17.23-.36.47-.54.69-.2.24-.39.48-.61.7-.11.12-.22.25-.35.37-.03.03-.06.07-.08.09-.12.14-.26.29-.4.42-.02.03-.05.05-.07.07-.23.24-.47.48-.71.69-.15.15-.31.3-.48.44-.18.16-.36.32-.54.47l-.17.14c-.24.2-.5.39-.75.58-.08.07-.17.13-.25.19-.22.17-.43.33-.65.47-.08.07-.17.12-.25.18-.25.18-.51.34-.78.5-.07.05-.13.08-.2.12-.03.02-.06.04-.08.06-.16.1-.32.2-.49.28-.03.02-.07.03-.09.05-.18.1-.36.21-.54.3-.18.1-.36.2-.55.28-.3.16-.6.3-.91.43-.09.05-.19.09-.29.13-.27.12-.55.24-.84.35-.03,0-.05.02-.07.03-.21.08-.41.16-.62.23-.23.08-.48.17-.72.24-.22.07-.42.13-.64.19-.07.03-.14.05-.21.07-.1.03-.21.06-.31.08-.22.06-.46.11-.69.17-.15.04-.29.07-.44.09-.33.07-.65.14-.99.2-.16.03-.32.06-.48.08-.17.02-.33.05-.49.07-.05,0-.08,0-.13.02h-.03c-.21.03-.41.06-.62.07-.34.04-.66.07-1,.08h-.07c-.1,0-.2,0-.3,0-.35.02-.7.03-1.06.03h-25.75c-.39,0-.79,0-1.17-.03-.24,0-.49-.03-.72-.06-.23,0-.47-.03-.69-.06-.35-.03-.68-.07-1.02-.12-.22-.04-.43-.07-.64-.11-.29-.05-.58-.1-.87-.17-.3-.06-.6-.13-.89-.21-.07-.02-.15-.04-.22-.06-.22-.06-.43-.12-.64-.18-.03,0-.06-.02-.08-.03-.15-.05-.31-.09-.47-.14-.15-.06-.3-.1-.46-.16,0,0-.02,0-.03,0-.31-.1-.62-.22-.93-.34-.04,0-.07-.03-.1-.04-.05-.02-.08-.04-.13-.06-.24-.09-.48-.2-.72-.3-.56-.24-1.1-.5-1.65-.79-.27-.14-.53-.29-.79-.44-.26-.15-.52-.31-.78-.47h0c-.23-.15-.47-.3-.7-.46-.55-.37-1.09-.78-1.63-1.21-.16-.13-.33-.25-.48-.39-.02,0-.03-.03-.05-.04-.05-.04-.1-.08-.15-.13l-.02-.02c-.2-.16-.38-.33-.57-.5-.58-.52-1.13-1.08-1.66-1.67-.19-.21-.36-.42-.54-.64h0s-.07-.08-.09-.12c-.27-.32-.52-.65-.78-.98,0-.02-.02-.03-.04-.05-.22-.29-.42-.59-.63-.89-.22-.33-.44-.66-.65-1-.21-.34-.4-.67-.59-1.02,0,0,0-.02-.02-.03-.18-.35-.36-.68-.52-1.04-.15-.29-.28-.59-.41-.9-.05-.1-.09-.2-.13-.3-.12-.29-.24-.59-.35-.88-.14-.36-.26-.73-.38-1.1-.05-.14-.09-.29-.14-.44,0-.02,0-.03,0-.05-.07-.22-.13-.46-.2-.68,0-.05-.03-.1-.04-.15-.1-.39-.2-.79-.27-1.19-.07-.3-.12-.6-.17-.91-.02-.07-.03-.14-.04-.22-.03-.15-.05-.31-.07-.47h0s0-.06,0-.07c-.04-.25-.07-.49-.09-.75,0,0,0-.03,0-.05,0-.04,0-.07,0-.1,0-.03,0-.05,0-.07-.02-.15-.03-.3-.04-.45v-.04s0-.1,0-.15c0-.03,0-.05,0-.07,0-.07-.02-.15-.02-.22,0-.07,0-.14,0-.22,0-.03,0-.07,0-.09,0-.35-.02-.69-.02-1.04v-83.23c0-.35,0-.69.02-1.04,0-.03,0-.07,0-.09,0-.08,0-.16,0-.22,0-.07,0-.15.02-.22,0-.03,0-.05,0-.07,0-.05,0-.1,0-.15v-.04c0-.15.02-.3.04-.45,0-.03,0-.05,0-.07,0-.04,0-.07,0-.1,0-.02,0-.04,0-.05.03-.26.06-.5.09-.75,0-.02,0-.05,0-.07h0c.02-.17.04-.33.07-.48,0-.07.02-.14.04-.22.05-.31.1-.61.17-.91.07-.36.15-.72.24-1.07,0-.03,0-.05.02-.07.02-.07.03-.12.05-.19.06-.23.12-.47.2-.69,0-.02,0-.03,0-.05.05-.15.09-.3.14-.44.12-.37.24-.74.38-1.1.11-.3.22-.59.35-.88.04-.1.08-.2.13-.3.13-.31.26-.61.41-.9.17-.36.35-.69.52-1.04,0,0,0-.02.02-.03.19-.35.38-.68.59-1.02.21-.34.42-.67.65-1,.21-.3.41-.6.63-.89.02-.02.03-.03.04-.05.25-.34.5-.66.78-.98.03-.04.06-.07.09-.11h0c.18-.22.36-.44.54-.65.53-.59,1.08-1.15,1.66-1.67.19-.18.37-.35.57-.51t.02-.02s.1-.09.15-.13c.02,0,.03-.03.05-.04.15-.14.32-.26.48-.39.18-.14.35-.28.53-.42.11-.08.22-.17.34-.24.05-.03.08-.07.13-.1.21-.15.42-.3.63-.44.23-.16.47-.31.7-.46h0c.25-.16.51-.32.78-.47.26-.15.52-.3.79-.44.54-.29,1.08-.55,1.65-.79.24-.1.48-.21.72-.3.05-.02.08-.04.13-.06.04,0,.07-.03.1-.04.31-.12.62-.23.93-.34,0,0,.02,0,.03,0,.16-.06.31-.1.46-.16.16-.05.32-.09.47-.14.03,0,.06-.02.08-.03.21-.06.42-.12.64-.18.07-.02.15-.04.22-.06.29-.07.59-.15.89-.21.29-.07.58-.12.87-.17.21-.04.42-.07.64-.11.34-.05.67-.09,1.02-.12.22-.03.46-.05.69-.06.23-.03.48-.05.72-.06.38-.02.78-.03,1.17-.03h25.75c.36,0,.71,0,1.06.03.1,0,.2,0,.3,0h.07c.34.02.66.05,1,.08.21.02.41.05.62.07h.03s.08,0,.13.02c.16.02.32.05.49.07.16.03.32.06.48.08.34.06.66.12.99.2.15.03.29.06.44.09.05,0,.08.02.13.03.19.05.36.09.54.13t.02,0c.1.03.21.06.31.08.07.02.14.04.21.07.22.06.42.12.64.19.24.07.49.16.72.24.21.07.41.15.62.23.03,0,.05.02.07.03.29.1.57.22.84.35.1.04.2.08.29.13.31.13.61.27.91.43.19.08.37.18.55.28.19.09.36.2.54.3.03.02.07.03.09.05.17.08.33.18.49.28.03.02.06.04.08.06.07.04.13.07.2.12.26.16.52.32.78.5.08.06.17.11.25.18.22.14.44.3.65.47.08.06.17.11.25.19.25.19.5.38.75.58l.17.14c.19.15.36.31.54.47.17.14.33.29.48.44.14.12.28.25.41.39.1.09.21.2.3.3.02.02.05.04.07.07.14.13.28.28.4.42.03.03.06.07.08.09.12.12.23.25.35.37.22.22.41.46.61.7.19.22.37.46.54.69.18.23.36.47.52.71,0,0,.02.03.03.04.11.14.22.3.32.45.02.03.05.07.07.09.18.26.35.53.51.8.14.22.27.44.39.67.14.22.26.45.37.67.02.03.03.06.05.08.14.25.26.51.38.76.12.25.24.5.35.76.03.06.06.12.07.18.08.17.16.35.22.53.14.32.26.64.37.96.07.21.14.4.21.61h0c.07.22.13.41.19.61.02.05.04.09.05.14.02.07.04.13.05.2.07.22.13.44.19.67,0,0,0,.03,0,.04.07.24.12.49.17.74,0,.04,0,.07.02.1.03.07.05.16.06.24.05.22.09.43.12.65.02.1.04.21.06.32.02.1.04.21.05.32,0,.08.03.17.04.25.03.22.06.45.07.68.03.2.05.4.06.61,0,.05,0,.09.02.14.02.16.03.32.04.48,0,.07,0,.15,0,.22.02.38.03.77.03,1.16Z"/>
        <path class="cls-6" d="M846.98,654.73v-.14s0-.07,0-.09c0-.1,0-.2-.02-.29v-.09s0-.08,0-.12c-.02-.29-.05-.56-.08-.85-.04-.4-.08-.78-.14-1.17,0-.07-.03-.14-.04-.22-.06-.36-.12-.71-.2-1.05-.08-.4-.17-.79-.27-1.19-.08-.32-.16-.64-.26-.95-.04-.14-.08-.28-.13-.42-.2-.62-.42-1.21-.67-1.81-.07-.16-.13-.33-.21-.48-.12-.29-.25-.56-.38-.84-.13-.28-.27-.56-.42-.84,0-.03-.02-.05-.04-.07-.08-.15-.15-.29-.24-.43-.14-.26-.29-.53-.45-.78-.18-.29-.36-.58-.54-.85-.03-.04-.06-.08-.08-.12-.2-.29-.4-.58-.6-.86-.05-.07-.1-.13-.15-.2-.22-.27-.43-.55-.65-.82-.19-.23-.38-.45-.57-.68-.14-.16-.28-.32-.43-.46-.08-.09-.17-.18-.25-.26-.13-.14-.27-.28-.4-.42-.2-.2-.4-.4-.6-.58t-.02-.02c-.18-.17-.38-.33-.56-.49-.41-.38-.86-.73-1.31-1.07-.14-.11-.29-.23-.44-.32-.15-.11-.29-.22-.44-.32-.32-.23-.64-.43-.98-.64-.16-.1-.32-.21-.48-.3-.17-.1-.34-.2-.51-.29-.2-.1-.4-.21-.59-.31-.02,0-.03-.02-.05-.03-.46-.24-.94-.48-1.43-.69-.17-.08-.34-.16-.51-.23-.52-.23-1.05-.41-1.6-.59-.26-.1-.55-.19-.83-.27-.26-.08-.53-.15-.79-.22,0,0-.03,0-.05,0-.05,0-.09-.03-.13-.04-.34-.08-.69-.17-1.03-.24-.29-.07-.58-.12-.88-.17-.03,0-.07,0-.09,0-.16-.03-.31-.06-.47-.08-.04,0-.08-.02-.11-.02-.29-.04-.58-.08-.87-.1-.33-.04-.66-.07-.99-.08h-.07c-.11,0-.22-.02-.32-.02-.03,0-.07,0-.09,0-.34,0-.69-.02-1.03-.02h-12.88v18.81h10.88l.08.03h2.44s.35.05.35.05l.32.06.08.02c.08.02.17.05.26.07l.38.12h0s.07.04.07.04l.48.21c.06.03.11.06.16.08l.08.05.08.05.06.03.06.04.21.13.03.02.08.05.14.11.04.03.09.07c.08.06.1.08.1.08l.16.14.13.11.26.26.04.05.09.1.07.07s.07.08.09.11c.06.07.1.13.16.21.02.02.04.05.06.07l.1.15.08.11.07.1.15.29.19.38.15.35v.02s.03.05.03.07l.03.08.09.3.03.1.02.13.06.26c0,.06.02.1.03.15,0,.03,0,.06,0,.08v.23l.02.19v2.21l.03.08v79.24l-.03.08v2.23l-.02.16v.24s0,.06,0,.09c0,.05-.02.1-.03.15l-.05.26-.03.12-.03.11-.09.3-.03.08s0,.04-.03.07v.02l-.15.35-.18.37-.16.3-.07.1-.08.11-.1.15s-.04.05-.06.07c-.05.07-.1.14-.16.21-.03.04-.07.08-.09.11l-.07.07-.08.09-.03.03-.14.15-.14.14h0l-.13.12-.15.13s-.04.03-.1.08l-.09.08-.04.03-.15.11-.07.05-.03.02-.19.11-.08.05-.07.04-.08.05-.34.17-.39.16-.08.04h0s-.38.13-.38.13c-.09.02-.18.05-.27.07h-.05s-.34.07-.34.07l-.35.05h-2.46l-.08.03h-10.86v18.81h12.88c.35,0,.7,0,1.03-.02.03,0,.07,0,.09,0,.1,0,.21,0,.32-.02h.07c.33-.02.66-.05.99-.08.28-.03.57-.07.87-.1.04,0,.08,0,.11-.02.16-.02.31-.05.47-.08.03,0,.07,0,.09,0,.3-.05.59-.1.88-.17.35-.07.7-.15,1.03-.24.04,0,.08-.03.13-.04.02,0,.04,0,.05,0,.26-.07.53-.14.79-.22.28-.08.56-.17.83-.27.55-.18,1.08-.38,1.6-.59.17-.07.34-.14.51-.23.49-.21.97-.44,1.43-.69.02,0,.03-.02.05-.03.2-.1.4-.21.59-.32.17-.09.34-.19.51-.28.16-.09.32-.2.48-.3.34-.21.66-.41.98-.64.15-.1.29-.21.44-.32.15-.1.3-.22.44-.32.45-.34.89-.7,1.31-1.07.19-.16.39-.33.56-.49t.02-.02c.21-.19.4-.39.6-.58.13-.14.27-.28.4-.42.08-.08.17-.17.25-.26.15-.15.29-.31.43-.46.2-.23.39-.45.57-.68.22-.27.43-.55.65-.82.05-.07.1-.13.15-.2.21-.27.4-.56.6-.86.03-.04.06-.08.08-.12.18-.27.36-.55.54-.85.16-.25.31-.52.45-.78.09-.14.17-.29.24-.43.02-.02.03-.04.04-.07.15-.27.29-.55.42-.84.12-.27.25-.55.38-.84.08-.15.14-.32.21-.48.24-.59.47-1.19.67-1.81.05-.14.09-.28.13-.42.1-.32.19-.63.26-.95.1-.4.2-.79.27-1.19.08-.35.14-.7.2-1.05,0-.08.03-.15.04-.23.06-.38.1-.76.14-1.16.03-.28.06-.56.08-.85,0-.04,0-.08,0-.12v-.09c0-.09.02-.19.02-.29,0-.03,0-.07,0-.09v-.14c0-.3.02-.6.02-.9v-83.24c0-.31,0-.6-.02-.9Z"/>
        <path class="cls-9" d="M791,657.54v-2.21l.02-.19v-.23s0-.06,0-.08c0-.05.02-.09.03-.15l.06-.26.02-.13.03-.1.09-.3.03-.08s0-.04.03-.07v-.02l.15-.35.19-.38.15-.29.07-.1.08-.11.1-.15s.04-.05.06-.07c.06-.08.1-.14.16-.21.03-.04.07-.08.09-.11l.07-.07.09-.1.04-.05.13-.13.06-.06.08-.08.13-.11.16-.14s.03-.03.1-.08l.09-.07.04-.03.14-.11.08-.05.03-.02.21-.13.06-.04.06-.03.08-.05.08-.05s.1-.06.16-.08l.48-.21.07-.03h0s.38-.13.38-.13c.09-.02.18-.05.26-.07l.08-.02.32-.06.35-.04h.08s2.35,0,2.35,0l.08-.03h10.87v-18.81h-12.91c-.34,0-.67,0-1,.02-.02,0-.05,0-.08,0h-.02c-.1,0-.21,0-.32.02h-.07s-.08,0-.13,0c-.28.02-.57.05-.86.08-.03,0-.06,0-.08,0-.25.03-.52.06-.78.09-.04,0-.08,0-.11.02-.16.02-.31.05-.47.08-.03,0-.07,0-.09,0-.3.05-.59.1-.88.17-.17.03-.35.07-.52.11-.18.04-.35.08-.52.12-.04,0-.08.03-.13.04-.02,0-.04,0-.05,0-.24.06-.48.12-.71.2-.03,0-.05,0-.08.02-.14.04-.28.08-.42.13-.13.04-.27.09-.4.14-.36.12-.71.24-1.06.38-.08.03-.16.06-.24.09-.1.04-.21.08-.3.12-.17.07-.34.14-.51.23-.49.21-.97.44-1.43.69-.02,0-.03.02-.05.03-.2.1-.4.21-.59.31-.17.09-.34.19-.51.29-.16.09-.32.2-.48.3-.02,0-.05.03-.07.04-.1.07-.21.13-.31.2-.21.13-.4.26-.6.4-.15.1-.29.21-.44.32-.03.02-.07.04-.09.07-.12.08-.24.16-.35.25h0c-.18.14-.36.28-.54.42-.04.04-.08.07-.12.1-.12.09-.24.2-.36.29-.08.07-.15.13-.22.19-.02.03-.05.05-.07.07-.19.16-.39.32-.56.49t-.02.02c-.21.19-.4.39-.6.58-.13.14-.27.28-.4.42-.08.08-.17.17-.25.26-.15.14-.29.3-.43.46-.2.23-.39.45-.57.68-.22.27-.43.55-.65.82-.05.07-.1.13-.15.2-.21.27-.4.56-.6.86-.03.04-.06.08-.08.12-.09.13-.18.27-.26.41-.09.14-.19.28-.27.43-.16.25-.31.52-.45.78-.06.08-.11.18-.16.27-.03.05-.06.1-.08.16-.02.02-.03.04-.04.07-.15.27-.29.55-.42.84-.12.27-.25.55-.38.84-.08.15-.14.32-.21.48-.1.25-.21.51-.3.76-.13.34-.25.69-.37,1.04-.05.14-.09.28-.13.42-.05.15-.1.31-.14.47-.05.16-.08.32-.12.48-.03.12-.06.24-.09.36-.02.08-.04.16-.06.24-.05.2-.08.4-.12.59-.08.35-.14.7-.2,1.05,0,.07-.02.13-.03.19,0,0,0,.02,0,.03-.06.39-.1.77-.14,1.17-.02.23-.05.45-.06.69,0,.05-.02.1-.02.16v.07s0,.04,0,.06v.09c0,.09-.02.19-.02.29,0,.03,0,.07,0,.09v.14c0,.3-.02.59-.02.9v83.24c0,.3,0,.6.02.9v.14s0,.07,0,.09c0,.1,0,.2.02.29v.09s0,.08,0,.12c0,.06,0,.1.02.16,0,.23.04.46.06.69.04.4.08.78.14,1.16h0c0,.08.03.15.04.23.06.36.12.71.2,1.05.08.4.17.79.27,1.19.04.16.08.32.12.47.04.16.09.32.14.48.04.14.08.28.13.42.11.36.24.71.37,1.04.06.15.11.29.17.44.05.1.08.22.13.32.07.16.13.33.21.48.12.28.25.56.38.84.13.28.27.56.42.84,0,.03.02.05.04.07.08.14.15.29.24.43.14.26.29.53.45.78.11.19.24.38.36.55.06.09.11.2.18.29.03.04.06.08.08.12.2.29.4.58.6.86.05.07.1.13.15.2.22.27.43.55.65.82.19.23.38.45.57.68h0c.14.16.27.31.42.46.08.09.17.18.25.26.13.14.27.28.4.42.2.2.4.4.6.58t.02.02c.18.16.38.33.56.49.02.02.05.04.07.07.14.12.29.25.45.39.25.21.52.42.79.62.14.1.29.22.44.32.15.11.29.22.44.32.2.14.4.27.6.4.1.07.21.13.31.2.02,0,.05.03.07.04.16.1.32.21.48.3.17.09.34.19.51.28.2.11.4.22.59.32.02,0,.03.02.05.03.46.24.94.48,1.43.69.17.08.34.16.51.23.09.04.2.08.3.12.08.03.15.06.24.09.35.13.71.25,1.06.38.13.06.27.09.4.14.14.05.28.08.42.13.26.08.53.15.79.22,0,0,.03,0,.05,0,.05,0,.09.03.13.04.17.05.34.08.52.12.17.04.35.08.52.11.29.07.58.12.88.17.03,0,.07,0,.09,0,.16.03.31.06.47.08.04,0,.08.02.11.02.26.04.53.07.78.09.03,0,.06,0,.08,0,.21.02.4.04.61.05.12,0,.25.02.38.03h.07c.11,0,.22.02.32.02.03,0,.07,0,.09,0,.34,0,.69.02,1.03.02h12.87v-18.81h-10.85l-.08-.03h-2.46l-.35-.05-.34-.06h-.05c-.09-.03-.18-.06-.27-.08l-.38-.12h0s-.08-.05-.08-.05l-.39-.16-.34-.17-.08-.05-.07-.04-.08-.05-.19-.11-.03-.02-.07-.05-.15-.11-.04-.03-.09-.08c-.07-.05-.1-.08-.1-.08l-.15-.13-.13-.12h0l-.14-.14-.14-.15-.03-.03-.08-.09-.07-.07s-.07-.08-.09-.11c-.06-.07-.11-.14-.16-.21-.02-.02-.04-.05-.06-.07l-.1-.15-.08-.11-.07-.1-.16-.3-.18-.37-.15-.35v-.02s-.03-.05-.03-.07l-.03-.08-.09-.3-.03-.11-.03-.12-.05-.26s-.02-.1-.03-.15c0-.04,0-.07,0-.09v-.24l-.02-.16v-2.23l-.03-.08v-79.24l.03-.08Z"/>
        <path class="cls-6" d="M846.98,263.83v-.14s0-.07,0-.09c0-.1,0-.2-.02-.29v-.09s0-.08,0-.12c-.02-.29-.05-.56-.08-.85-.04-.4-.08-.78-.14-1.17,0-.07-.03-.14-.04-.22-.06-.36-.12-.71-.2-1.05-.08-.4-.17-.79-.27-1.19-.08-.32-.16-.64-.26-.95-.04-.14-.08-.28-.13-.42-.2-.62-.42-1.21-.67-1.81-.07-.16-.13-.33-.21-.48-.12-.29-.25-.56-.38-.84-.13-.28-.27-.56-.42-.84,0-.03-.02-.05-.04-.07-.08-.15-.15-.29-.24-.43-.14-.26-.29-.53-.45-.78-.18-.29-.36-.58-.54-.85-.03-.04-.06-.08-.08-.12-.2-.29-.4-.58-.6-.86-.05-.07-.1-.13-.15-.2-.22-.27-.43-.55-.65-.82-.19-.23-.38-.45-.57-.68-.14-.16-.28-.32-.43-.46-.08-.09-.17-.18-.25-.26-.13-.14-.27-.28-.4-.42-.2-.2-.4-.4-.6-.58t-.02-.02c-.18-.17-.38-.33-.56-.49-.41-.38-.86-.73-1.31-1.07-.14-.11-.29-.23-.44-.32-.15-.11-.29-.22-.44-.32-.32-.23-.64-.43-.98-.64-.16-.1-.32-.21-.48-.3-.17-.1-.34-.2-.51-.29-.2-.1-.4-.21-.59-.31-.02,0-.03-.02-.05-.03-.46-.24-.94-.48-1.43-.69-.17-.08-.34-.16-.51-.23-.52-.23-1.05-.41-1.6-.59-.26-.1-.55-.19-.83-.27-.26-.08-.53-.15-.79-.22,0,0-.03,0-.05,0-.05,0-.09-.03-.13-.04-.34-.08-.69-.17-1.03-.24-.29-.07-.58-.12-.88-.17-.03,0-.07,0-.09,0-.16-.03-.31-.06-.47-.08-.04,0-.08-.02-.11-.02-.29-.04-.58-.08-.87-.1-.33-.04-.66-.07-.99-.08h-.07c-.11,0-.22-.02-.32-.02-.03,0-.07,0-.09,0-.34,0-.69-.02-1.03-.02h-12.88v18.81h10.88l.08.03h2.44s.35.05.35.05l.32.06.08.02c.08.02.17.05.26.07l.38.12h0s.07.04.07.04l.48.21c.06.03.11.06.16.08l.08.05.08.05.06.03.06.04.21.13.03.02.08.05.14.11.04.03.09.07c.08.06.1.08.1.08l.16.14.13.11.26.26.04.05.09.1.07.07s.07.08.09.11c.06.07.1.13.16.21.02.02.04.05.06.07l.1.15.08.11.07.1.15.29.19.38.15.35v.02s.03.05.03.07l.03.08.09.3.03.1.02.13.06.26c0,.06.02.1.03.15,0,.03,0,.06,0,.08v.23l.02.19v2.21l.03.08v79.24l-.03.08v2.23l-.02.16v.24s0,.06,0,.09c0,.05-.02.1-.03.15l-.05.26-.03.12-.03.11-.09.3-.03.08s0,.04-.03.07v.02l-.15.35-.18.37-.16.3-.07.1-.08.11-.1.15s-.04.05-.06.07c-.05.07-.1.14-.16.21-.03.04-.07.08-.09.11l-.07.07-.08.09-.03.03-.14.15-.14.14h0l-.13.12-.15.13s-.04.03-.1.08l-.09.08-.04.03-.15.11-.07.05-.03.02-.19.11-.08.05-.07.04-.08.05-.34.17-.39.16-.08.04h0s-.38.13-.38.13c-.09.02-.18.05-.27.07h-.05s-.34.07-.34.07l-.35.05h-2.46l-.08.03h-10.86v18.81h12.88c.35,0,.7,0,1.03-.02.03,0,.07,0,.09,0,.1,0,.21,0,.32-.02h.07c.33-.02.66-.05.99-.08.28-.03.57-.07.87-.1.04,0,.08,0,.11-.02.16-.02.31-.05.47-.08.03,0,.07,0,.09,0,.3-.05.59-.1.88-.17.35-.07.7-.15,1.03-.24.04,0,.08-.03.13-.04.02,0,.04,0,.05,0,.26-.07.53-.14.79-.22.28-.08.56-.17.83-.27.55-.18,1.08-.38,1.6-.59.17-.07.34-.14.51-.23.49-.21.97-.44,1.43-.69.02,0,.03-.02.05-.03.2-.1.4-.21.59-.32.17-.09.34-.19.51-.28.16-.09.32-.2.48-.3.34-.21.66-.41.98-.64.15-.1.29-.21.44-.32.15-.1.3-.22.44-.32.45-.34.89-.7,1.31-1.07.19-.16.39-.33.56-.49t.02-.02c.21-.19.4-.39.6-.58.13-.14.27-.28.4-.42.08-.08.17-.17.25-.26.15-.15.29-.31.43-.46.2-.23.39-.45.57-.68.22-.27.43-.55.65-.82.05-.07.1-.13.15-.2.21-.27.4-.56.6-.86.03-.04.06-.08.08-.12.18-.27.36-.55.54-.85.16-.25.31-.52.45-.78.09-.14.17-.29.24-.43.02-.02.03-.04.04-.07.15-.27.29-.55.42-.84.12-.27.25-.55.38-.84.08-.15.14-.32.21-.48.24-.59.47-1.19.67-1.81.05-.14.09-.28.13-.42.1-.32.19-.63.26-.95.1-.4.2-.79.27-1.19.08-.35.14-.7.2-1.05,0-.08.03-.15.04-.23.06-.38.1-.76.14-1.16.03-.28.06-.56.08-.85,0-.04,0-.08,0-.12v-.09c0-.09.02-.19.02-.29,0-.03,0-.07,0-.09v-.14c0-.3.02-.6.02-.9v-83.24c0-.31,0-.6-.02-.9Z"/>
        <path class="cls-9" d="M791,266.64v-2.21l.02-.19v-.23s0-.06,0-.08c0-.05.02-.09.03-.15l.06-.26.02-.13.03-.1.09-.3.03-.08s0-.04.03-.07v-.02l.15-.35.19-.38.15-.29.07-.1.08-.11.1-.15s.04-.05.06-.07c.06-.08.1-.14.16-.21.03-.04.07-.08.09-.11l.07-.07.09-.1.04-.05.13-.13.06-.06.08-.08.13-.11.16-.14s.03-.03.1-.08l.09-.07.04-.03.14-.11.08-.05.03-.02.21-.13.06-.04.06-.03.08-.05.08-.05s.1-.06.16-.08l.48-.21.07-.03h0s.38-.13.38-.13c.09-.02.18-.05.26-.07l.08-.02.32-.06.35-.04h.08s2.35,0,2.35,0l.08-.03h10.87v-18.81h-12.91c-.34,0-.67,0-1,.02-.02,0-.05,0-.08,0h-.02c-.1,0-.21,0-.32.02h-.07s-.08,0-.13,0c-.28.02-.57.05-.86.08-.03,0-.06,0-.08,0-.25.03-.52.06-.78.09-.04,0-.08,0-.11.02-.16.02-.31.05-.47.08-.03,0-.07,0-.09,0-.3.05-.59.1-.88.17-.17.03-.35.07-.52.11-.18.04-.35.08-.52.12-.04,0-.08.03-.13.04-.02,0-.04,0-.05,0-.24.06-.48.12-.71.2-.03,0-.05,0-.08.02-.14.04-.28.08-.42.13-.13.04-.27.09-.4.14-.36.12-.71.24-1.06.38-.08.03-.16.06-.24.09-.1.04-.21.08-.3.12-.17.07-.34.14-.51.23-.49.21-.97.44-1.43.69-.02,0-.03.02-.05.03-.2.1-.4.21-.59.31-.17.09-.34.19-.51.29-.16.09-.32.2-.48.3-.02,0-.05.03-.07.04-.1.07-.21.13-.31.2-.21.13-.4.26-.6.4-.15.1-.29.21-.44.32-.03.02-.07.04-.09.07-.12.08-.24.16-.35.25h0c-.18.14-.36.28-.54.42-.04.04-.08.07-.12.1-.12.09-.24.2-.36.29-.08.07-.15.13-.22.19-.02.03-.05.05-.07.07-.19.16-.39.32-.56.49t-.02.02c-.21.19-.4.39-.6.58-.13.14-.27.28-.4.42-.08.08-.17.17-.25.26-.15.14-.29.3-.43.46-.2.23-.39.45-.57.68-.22.27-.43.55-.65.82-.05.07-.1.13-.15.2-.21.27-.4.56-.6.86-.03.04-.06.08-.08.12-.09.13-.18.27-.26.41-.09.14-.19.28-.27.43-.16.25-.31.52-.45.78-.06.08-.11.18-.16.27-.03.05-.06.1-.08.16-.02.02-.03.04-.04.07-.15.27-.29.55-.42.84-.12.27-.25.55-.38.84-.08.15-.14.32-.21.48-.1.25-.21.51-.3.76-.13.34-.25.69-.37,1.04-.05.14-.09.28-.13.42-.05.15-.1.31-.14.47-.05.16-.08.32-.12.48-.03.12-.06.24-.09.36-.02.08-.04.16-.06.24-.05.2-.08.4-.12.59-.08.35-.14.7-.2,1.05,0,.07-.02.13-.03.19,0,0,0,.02,0,.03-.06.39-.1.77-.14,1.17-.02.23-.05.45-.06.69,0,.05-.02.1-.02.16v.07s0,.04,0,.06v.09c0,.09-.02.19-.02.29,0,.03,0,.07,0,.09v.14c0,.3-.02.59-.02.9v83.24c0,.3,0,.6.02.9v.14s0,.07,0,.09c0,.1,0,.2.02.29v.09s0,.08,0,.12c0,.06,0,.1.02.16,0,.23.04.46.06.69.04.4.08.78.14,1.16h0c0,.08.03.15.04.23.06.36.12.71.2,1.05.08.4.17.79.27,1.19.04.16.08.32.12.47.04.16.09.32.14.48.04.14.08.28.13.42.11.36.24.71.37,1.04.06.15.11.29.17.44.05.1.08.22.13.32.07.16.13.33.21.48.12.28.25.56.38.84.13.28.27.56.42.84,0,.03.02.05.04.07.08.14.15.29.24.43.14.26.29.53.45.78.11.19.24.38.36.55.06.09.11.2.18.29.03.04.06.08.08.12.2.29.4.58.6.86.05.07.1.13.15.2.22.27.43.55.65.82.19.23.38.45.57.68h0c.14.16.27.31.42.46.08.09.17.18.25.26.13.14.27.28.4.42.2.2.4.4.6.58t.02.02c.18.16.38.33.56.49.02.02.05.04.07.07.14.12.29.25.45.39.25.21.52.42.79.62.14.1.29.22.44.32.15.11.29.22.44.32.2.14.4.27.6.4.1.07.21.13.31.2.02,0,.05.03.07.04.16.1.32.21.48.3.17.09.34.19.51.28.2.11.4.22.59.32.02,0,.03.02.05.03.46.24.94.48,1.43.69.17.08.34.16.51.23.09.04.2.08.3.12.08.03.15.06.24.09.35.13.71.25,1.06.38.13.06.27.09.4.14.14.05.28.08.42.13.26.08.53.15.79.22,0,0,.03,0,.05,0,.05,0,.09.03.13.04.17.05.34.08.52.12.17.04.35.08.52.11.29.07.58.12.88.17.03,0,.07,0,.09,0,.16.03.31.06.47.08.04,0,.08.02.11.02.26.04.53.07.78.09.03,0,.06,0,.08,0,.21.02.4.04.61.05.12,0,.25.02.38.03h.07c.11,0,.22.02.32.02.03,0,.07,0,.09,0,.34,0,.69.02,1.03.02h12.87v-18.81h-10.85l-.08-.03h-2.46l-.35-.05-.34-.06h-.05c-.09-.03-.18-.06-.27-.08l-.38-.12h0s-.08-.05-.08-.05l-.39-.16-.34-.17-.08-.05-.07-.04-.08-.05-.19-.11-.03-.02-.07-.05-.15-.11-.04-.03-.09-.08c-.07-.05-.1-.08-.1-.08l-.15-.13-.13-.12h0l-.14-.14-.14-.15-.03-.03-.08-.09-.07-.07s-.07-.08-.09-.11c-.06-.07-.11-.14-.16-.21-.02-.02-.04-.05-.06-.07l-.1-.15-.08-.11-.07-.1-.16-.3-.18-.37-.15-.35v-.02s-.03-.05-.03-.07l-.03-.08-.09-.3-.03-.11-.03-.12-.05-.26s-.02-.1-.03-.15c0-.04,0-.07,0-.09v-.24l-.02-.16v-2.23l-.03-.08v-79.24l.03-.08Z"/>
      </g>
    </g>
  </g>
</svg>